<svg xmlns="http://www.w3.org/2000/svg" viewBox="0 0 1000 1000"><defs><style>.cls-1,.cls-2{fill:none;stroke:#000;stroke-width:12px;}.cls-1{stroke-miterlimit:10;}.cls-2{stroke-linejoin:round;}</style></defs><title>桥的种类</title><g id="梁桥"><line class="cls-1" x1="11.35733" y1="375.14856" x2="1004" y2="375.14856"/><line class="cls-1" x1="222.19568" y1="690.80825" x2="275.88743" y2="691.32068"/><line class="cls-1" x1="473.63024" y1="690.80825" x2="527.32199" y2="691.32068"/><line class="cls-1" x1="717.20746" y1="690.80825" x2="770.89921" y2="691.32068"/><polyline class="cls-2" points="11.357 391.546 222.196 391.546 222.196 391.433 245.768 412.385 245.768 663.82 222.196 663.82 222.196 697.868 201.243 721.44 201.243 729.298 319.103 729.298 319.103 721.44 290.293 697.868 290.293 663.82 269.34 663.82 269.34 412.385 292.912 391.433 292.912 391.546 473.63 391.546 473.63 391.433 497.202 412.385 497.202 663.82 473.63 663.82 473.63 697.868 452.677 721.44 452.677 729.298 570.537 729.298 570.537 721.44 541.727 697.868 541.727 663.82 520.774 663.82 520.774 412.385 544.346 391.433 544.346 391.546 717.207 391.546 717.207 391.433 740.779 412.385 740.779 663.82 717.207 663.82 717.207 697.868 696.255 721.44 696.255 729.298 814.115 729.298 814.115 721.44 785.304 697.868 785.304 663.82 764.351 663.82 764.351 412.385 787.923 391.433 787.923 391.546 1004 391.546"/></g></svg>