<svg xmlns="http://www.w3.org/2000/svg" viewBox="0 0 1000 1000"><defs><style>.cls-1{fill:none;stroke:#000;stroke-linejoin:round;stroke-width:12px;}</style></defs><title>桥的种类</title><g id="斜拉桥"><path class="cls-1" d="M495.79024,335.37731q-69.95577,96.35413-139.91161,192.70844"/><path class="cls-1" d="M498.43008,308.97889Q358.51843,418.53241,218.60686,528.08575"/><path class="cls-1" d="M-.5,528.08575H487.87071L498.43008,290.5,110.37335,528.08575"/><polyline class="cls-1" points="487.923 526.901 481.271 695.716 468.072 695.716 468.072 809.229 505.03 809.229"/><polyline class="cls-1" points="52.928 528.086 53.617 624.44 37.778 640.279 37.778 690.436 98.494 690.436 98.494 640.279 82.655 624.44 82.368 528.086"/><path class="cls-1" d="M502.38984,335.37731q69.95577,96.35413,139.91161,192.70844"/><path class="cls-1" d="M499.75,308.97889Q639.66165,418.53241,779.57322,528.08575"/><path class="cls-1" d="M998.68008,528.08575H510.30937L499.75,290.5,887.80673,528.08575"/><polyline class="cls-1" points="510.257 526.901 516.909 695.716 530.108 695.716 530.108 809.229 493.15 809.229"/><polyline class="cls-1" points="945.252 528.086 944.563 624.44 960.402 640.279 960.402 690.436 899.686 690.436 899.686 640.279 915.525 624.44 915.812 528.086"/></g></svg>