<svg xmlns="http://www.w3.org/2000/svg" viewBox="0 0 1000 1000"><defs><style>.cls-1{fill:none;stroke:#000;stroke-miterlimit:10;stroke-width:12px;}</style></defs><title>桥的种类</title><g id="悬索桥"><polyline class="cls-1" points="109.984 501.502 101.43 272.275 96.191 272.275 80.472 623.32 64.754 623.32 64.754 733.349 132.867 733.349 132.867 623.32 114.529 623.32 109.984 501.502"/><polygon class="cls-1" points="900.45 272.275 884.732 623.32 869.013 623.32 869.013 733.349 937.126 733.349 937.126 623.32 918.788 623.32 905.689 272.275 900.45 272.275"/><path class="cls-1" d="M101.43026,272.275C120.72652,295.19674,263.4008,458.87529,502.25,458.27632,739.53893,457.68118,880.96091,295.426,900.45,272.275"/><line class="cls-1" x1="181.33224" y1="346.9375" x2="181.33224" y2="501.50197"/><line class="cls-1" x1="263.85395" y1="400.64211" x2="263.85395" y2="501.50197"/><line class="cls-1" x1="342.44605" y1="432.07895" x2="342.44605" y2="501.50197"/><line class="cls-1" x1="423.65789" y1="453.03684" x2="423.65789" y2="501.50197"/><line class="cls-1" x1="504.86974" y1="458.27632" x2="504.86974" y2="501.50197"/><line class="cls-1" x1="827.09737" y1="346.9375" x2="827.09737" y2="501.50197"/><line class="cls-1" x1="744.57566" y1="400.64211" x2="744.57566" y2="501.50197"/><line class="cls-1" x1="665.98355" y1="432.07895" x2="665.98355" y2="501.50197"/><line class="cls-1" x1="584.77171" y1="453.03684" x2="584.77171" y2="501.50197"/><line class="cls-1" x1="914.22147" y1="500.93247" x2="1000" y2="500.93247"/><line class="cls-1" x1="109.96226" y1="500.93247" x2="890.21161" y2="500.93247"/><line class="cls-1" x1="7.11974" y1="500.93247" x2="85.9524" y2="500.93247"/></g></svg>