<?xml version="1.0" encoding="utf-8"?>
<!-- Generator: Adobe Illustrator 21.0.0, SVG Export Plug-In . SVG Version: 6.00 Build 0)  -->
<svg version="1.1" id="title2011" xmlns="http://www.w3.org/2000/svg" xmlns:xlink="http://www.w3.org/1999/xlink" x="0px" y="0px"
	 viewBox="0 0 700 200" style="enable-background:new 0 0 256.3 200;" xml:space="preserve">
<style type="text/css">
	.st0{fill:#FFFFFF;}
	.st1{fill:#FFFFFF;stroke:#FFFFFF;stroke-width:2.9336;stroke-miterlimit:10;}
</style>
<path class="st0" d="M240.6,60L83.2,60c-2.5,0-4.9,0.9-6.7,2.6L52.1,85.1c-3.7,3.4-4,9.4-0.3,12.8l24.3,22.6
	c1.8,1.7,4.4,2.4,6.9,2.4l157.5-0.1c2.5,0,5-1,6.8-2.6c1.8-1.7,2.8-3.9,2.8-6.3l0-45.2c0-2.4-1-4.6-2.8-6.3
	C245.5,60.9,243.1,60,240.6,60z M246.3,68.8l0,45.2c0,2.9-2.7,5.3-5.7,5.3L83,119.5c-1.5,0-3.2-0.4-4.2-1.4L54.5,95.5
	c-2.2-2.1-1.9-5.8,0.3-7.9L79.1,65c1.1-1,2.5-1.5,4.1-1.5l157.4,0c1.5,0,3,0.6,4.1,1.6C245.7,66,246.3,67.4,246.3,68.8z M85.1,83.1
	c-3.5,2.1-5.3,5.7-4.9,9.4c0.4,3,2.1,5.6,4.9,7.3c3.4,2,7.8,2,11.1,0c0.7-0.4,1.3-0.9,1.9-1.4c2.3-2.1,3.4-5,3-8
	c-0.3-3-2.1-5.6-4.9-7.3C92.9,81.1,88.5,81.1,85.1,83.1z M97.4,90.7c0.3,2.4-0.9,4.7-3.2,6c-2.1,1.3-5,1.3-7.1,0
	c-1.8-1.1-2.9-2.8-3.2-4.7c-0.2-1.9,0.5-3.8,1.9-5.1c0.4-0.3,0.8-0.6,1.2-0.9c2.1-1.3,5-1.3,7.1,0C96,87.1,97.2,88.8,97.4,90.7z"/>
<g>
	<path class="st0" d="M131.4,99.7l7.9-10.6c0.5-0.6,0.8-1.2,1.1-1.9c0.3-0.7,0.4-1.3,0.4-1.8v0c0-0.9-0.3-1.6-0.8-2.1
		s-1.3-0.8-2.3-0.8c-0.9,0-1.7,0.3-2.3,0.8c-0.6,0.5-0.9,1.3-1,2.3v0h-3.3v0c0.2-1.3,0.6-2.4,1.1-3.3s1.3-1.6,2.2-2.1
		c0.9-0.5,2-0.7,3.2-0.7c1.4,0,2.5,0.2,3.5,0.7c1,0.5,1.7,1.1,2.2,2c0.5,0.9,0.8,2,0.8,3.2v0c0,0.8-0.2,1.6-0.5,2.5
		c-0.3,0.9-0.8,1.7-1.4,2.5l-6.6,8.9h8.6v3h-12.8V99.7z"/>
	<path class="st0" d="M158,101c-1.1-1.1-1.6-2.7-1.6-4.8V85.9c0-2,0.6-3.6,1.7-4.8c1.1-1.1,2.7-1.7,4.8-1.7c2.1,0,3.7,0.6,4.8,1.7
		c1.1,1.1,1.6,2.7,1.6,4.8v10.3c0,2-0.6,3.6-1.7,4.8c-1.1,1.1-2.7,1.7-4.8,1.7C160.7,102.7,159.1,102.1,158,101z M165.4,98.8
		c0.5-0.6,0.8-1.4,0.8-2.5V85.9c0-1.1-0.3-2-0.8-2.5c-0.5-0.6-1.4-0.9-2.5-0.9c-1.1,0-2,0.3-2.5,0.9c-0.5,0.6-0.8,1.4-0.8,2.5v10.3
		c0,1.1,0.3,2,0.8,2.5c0.5,0.6,1.4,0.9,2.5,0.9S164.8,99.4,165.4,98.8z"/>
	<path class="st0" d="M187.6,102.5h-3.2V83.2l-3.2,2v-3.3l3.2-2.2h3.2V102.5z"/>
	<path class="st0" d="M206.3,102.5h-3.2V83.2l-3.2,2v-3.3l3.2-2.2h3.2V102.5z"/>
</g>
<polygon class="st1" points="51,91.5 0,91.5 0,91.5 51,91.5 "/>
</svg>
