<svg id="图层_1" data-name="图层 1" xmlns="http://www.w3.org/2000/svg" viewBox="0 0 187 22"><defs><style>.cls-1{fill:#fff;stroke:#000;stroke-miterlimit:10;}</style></defs><title>fadian</title><rect class="cls-1" x="0.5" y="4.5" width="182" height="17"/><rect class="cls-1" x="4.5" y="0.5" width="182" height="17"/><path d="M63.3,32.39a2.14,2.14,0,0,1,.93.3.91.91,0,0,1,.32.51.56.56,0,0,1-.15.56.61.61,0,0,1-.54.2.41.41,0,0,1-.32-.14.6.6,0,0,1-.09-.3l0-.27a1.58,1.58,0,0,0-.11-.35.65.65,0,0,0-.21-.28L63,32.55a.1.1,0,0,1,0-.11s.05-.07.12-.07Zm2.39-.82.09-.22c0-.08.06-.11.11-.09s.05.1,0,.23l-.22.8-.14.43q-.12.37-.37,1.38t-.35,1.49a3.62,3.62,0,0,0-.1.86,2.17,2.17,0,0,0,.09.59l.18.59a1.81,1.81,0,0,1,.06.41.73.73,0,0,1-.21.51.69.69,0,0,1-.48.18.63.63,0,0,1-.46-.15.54.54,0,0,1-.2-.32,2.1,2.1,0,0,1,0-.52q0-.59,0-.75a1.06,1.06,0,0,0-.43-.92l-.21-.12c-.06,0-.08-.06-.07-.1s0-.06.07-.06l.29,0a.46.46,0,0,0,.37-.1,4.38,4.38,0,0,0,.45-.76q.34-.64.91-2ZM63.63,30.2l-.09,0c-.07,0-.1-.06-.09-.1s0-.07.05-.07l.21,0a2.2,2.2,0,0,1,1,.12q.51.19.58.5a1,1,0,0,1,0,.51.61.61,0,0,1-.62.45c-.16,0-.26,0-.28-.06l-.22-.26a5.16,5.16,0,0,0-.22-.62A.74.74,0,0,0,63.63,30.2Zm4.23,4.56h2q.28-.38.37-.4a.53.53,0,0,1,.29.08l.27.13.43.25c.12.06.18.12.19.16s-.08.2-.27.29q-.06.46-.12.82t-.22,1a3.76,3.76,0,0,1-.36,1,1.62,1.62,0,0,1-.48.52,2,2,0,0,1-.91.25,1.65,1.65,0,0,1-.68,0,.09.09,0,0,1,0-.05l-.08-.36a1,1,0,0,0-.51-.59l-.25-.15c-.08,0-.12-.09-.1-.12s.07-.05.15,0l.65.09q.95.14,1.16-.19a3.48,3.48,0,0,0,.38-1,8.73,8.73,0,0,0,.2-1l0-.39h-2a1.93,1.93,0,0,1-.62.4q-.1,0-.28-.18t-.4-.35q-.22-.18-.21-.25s0-.05.14-.12l.33-.21.45-1.07h-1l-.51,0-.23-.27.67.06h4.22l.21-.25.29-.4q.11-.14.18-.14a.53.53,0,0,1,.16.13l.3.32.28.32q.1.12.07.17s-.08,0-.17,0H68.7c-.05.1-.08.16-.1.16l-.21.09Zm1.93-3.93q.52-.77.64-.77t.48.45l.21.26c.07.09.1.15.08.19s-.06.05-.13.05H66.84l-.52,0-.22-.28.66.06Z" transform="translate(-1 -26)"/><path d="M76.84,35.6v-.13l0-.91a.12.12,0,0,1,.09,0,3.72,3.72,0,0,1,.9.1q.39.1.42.18t-.27.3v.5h2.26q.4-.53.5-.63a.3.3,0,0,1,.16-.11s.12,0,.22.12q.47.43.58.55c.07.08.1.15.09.19s0,.07-.06.07H78.21a2.83,2.83,0,0,0,.61.73,3.94,3.94,0,0,0,1.15.61,4.83,4.83,0,0,0,1.71.29h.27a.14.14,0,0,1,.13.07s0,.08-.1.12l-.22.09a1.09,1.09,0,0,0-.4.27,1.38,1.38,0,0,0-.22.34,2.27,2.27,0,0,0-.1.25.8.8,0,0,1-.07.16q0,.08-.25,0l-.37-.16A3.42,3.42,0,0,1,79,37.6a6.27,6.27,0,0,1-.62-.89,2.35,2.35,0,0,1-.23-.55L78,35.8h-.07v1.78l0,1a.68.68,0,0,1-.12.21q-.09.12-.65.11c-.19,0-.3,0-.34-.07a.35.35,0,0,1-.08-.17l.06-1.11V36.48A7.31,7.31,0,0,1,74.75,38a11.82,11.82,0,0,1-1.41.58l-.3.09a.09.09,0,0,1-.12,0s0-.08,0-.12l.29-.17.39-.21q.17-.1.63-.45a5.67,5.67,0,0,0,.87-.83,8.45,8.45,0,0,0,.79-1.1H73.6l-.4,0-.31-.28.65.06Zm-3.32-3.91-.16-.11c-.05,0-.08-.06-.09-.08a.35.35,0,0,1,0-.08s0-.06.11-.07l.29,0,.31,0a1.09,1.09,0,0,1,.61.31.8.8,0,0,1,.2.48.57.57,0,0,1-.15.44.54.54,0,0,1-.4.18.36.36,0,0,1-.32-.11.34.34,0,0,1-.08-.17,2.52,2.52,0,0,1,0-.27,1.38,1.38,0,0,0-.07-.3A.68.68,0,0,0,73.52,31.69ZM76.09,31l.26-.42q.08-.13.15-.08s.06.08,0,.14l-.21.47-.34.67-.33.68-.35.7a3,3,0,0,0-.33,1,1.3,1.3,0,0,0,0,.42,1.7,1.7,0,0,1,0,.39.56.56,0,0,1-.17.33.6.6,0,0,1-.51.17.54.54,0,0,1-.41-.14.46.46,0,0,1-.14-.29,1.58,1.58,0,0,1,0-.38,2.85,2.85,0,0,0,0-.31.84.84,0,0,0,0-.25.73.73,0,0,0-.27-.34l-.18-.12c-.1-.06-.13-.11-.1-.15a.15.15,0,0,1,.16,0l.3.07a.68.68,0,0,0,.57-.14,5.06,5.06,0,0,0,.93-1.1Q75.87,31.34,76.09,31Zm-1.81-.75-.17-.12-.1,0-.1-.06a.1.1,0,0,1,0-.1s.1-.06.27-.05q.68.06,1.13.14c.3.06.44.27.43.66a.62.62,0,0,1-.18.41.6.6,0,0,1-.43.19.44.44,0,0,1-.24,0,.26.26,0,0,1-.13-.13s-.06-.16-.11-.34A1.08,1.08,0,0,0,74.28,30.25Zm2.57,1.51-.44,0-.26-.26.66,0,.48,0,0-.51v-.23l0-.26,0-.32,0-.23a.13.13,0,0,1,0-.09.16.16,0,0,1,.1,0,3.74,3.74,0,0,1,.8.1q.53.11.55.18s0,.11-.1.17l-.17.14-.06,1.07.72,0q.22-.38.35-.41a.45.45,0,0,1,.2,0l.44.19q.44.22.45.35t-.34.3l-.1,1.37a.39.39,0,0,0,0,.27c0,.05.14.08.29.08a1,1,0,0,0,.67-.14,1.13,1.13,0,0,0,.27-.37,2.47,2.47,0,0,0,.15-.4l.11-.49c0-.06,0-.1.09-.09s.07,0,.06.12l0,.41c0,.14,0,.26,0,.35a.64.64,0,0,0,0,.2.45.45,0,0,0,.14.25l.13.14a.77.77,0,0,1,.12.29c0,.12,0,.26-.21.41a2.05,2.05,0,0,1-1.29.27,4.24,4.24,0,0,1-1-.08.74.74,0,0,1-.42-.26.72.72,0,0,1-.1-.5l.14-2.13-.85,0q-.06.49-.12.82a5.49,5.49,0,0,1-.42,1.09q-.35.76-2.1,1.26l-.37.11c-.07,0-.11,0-.12-.05s0-.1.09-.14l.32-.15a2.38,2.38,0,0,0,.45-.3,4.15,4.15,0,0,0,.61-.6,2.13,2.13,0,0,0,.43-.95c.08-.38.13-.63.14-.73l0-.33Z" transform="translate(-1 -26)"/><path d="M86.7,32.67l-.09,0h-1v1.87l1.21-.27.27-.08c.09,0,.15,0,.17,0s0,.08-.08.12l-.32.18-1.25.68v2.13l0,1.11a.64.64,0,0,1-.11.25q-.09.13-.47.15a.94.94,0,0,1-.44,0,.25.25,0,0,1-.07-.11l.06-1.35V35.63l-.23.14L84,36l-.33.19-.22.13c-.06,0-.1,0-.11,0a.58.58,0,0,1-.07-.2l-.31-.9a.56.56,0,0,1,0-.17s0,0,.12,0l.21,0q.63-.06,1.39-.2V32.7h-.48a7.26,7.26,0,0,1-.66,1.56l-.19.3-.15.21q-.1.13-.12-.08l.09-.33.07-.42q0-.17,0-.56l0-.64q0-.47,0-.73l0-.4v-.34l0-.18A.13.13,0,0,1,83.3,31l.09,0,.26,0a4,4,0,0,1,.54.1c.22.06.34.13.35.21s0,.12-.15.16-.07.23-.08.29l-.07.32-.09.33h.44V31l0-1,.14,0a3.91,3.91,0,0,1,1.11.2.3.3,0,0,1,.11.15q0,.16-.31.28v1.93l.35-.52a.2.2,0,0,1,.15-.09c.06,0,.16.07.3.23a4.59,4.59,0,0,1,.35.43,9.38,9.38,0,0,0,.38-1q.15-.48.21-.74c0-.17.06-.33.08-.48l0-.29a.16.16,0,0,1,0-.1s.06,0,.13,0q.75.19,1.07.29t.32.21a.19.19,0,0,1-.1.17l-.23.15-.22.38-.27.52-.26.42h2.71l.19-.27c.05-.08.09-.12.13-.13a.32.32,0,0,1,.19.05l.32.15a4.89,4.89,0,0,1,.43.26c.2.13.29.23.29.3s-.11.17-.28.25q-.09,1.2-.18,2.29a17.23,17.23,0,0,1-.3,2.08,1.82,1.82,0,0,1-.72,1.28,2.19,2.19,0,0,1-.85.33q-.34,0-.38,0a.13.13,0,0,1,0-.09l-.06-.22a.94.94,0,0,0-.52-.57l-.31-.15-.11-.05a.11.11,0,0,1,0-.06s0,0,.1,0l.3,0,.31,0a1.82,1.82,0,0,0,.48,0,.65.65,0,0,0,.51-.33,3.15,3.15,0,0,0,.31-.93q.13-.64.23-1.61t.12-1.31l0-1.07h-.4q.22.15.22.24c0,.06-.05.12-.15.16s-.18.67-.38,1.49a4.94,4.94,0,0,1-.81,1.88,5.1,5.1,0,0,1-1.21,1.11,6.2,6.2,0,0,1-1.63.75l-.35.11-.16,0a.08.08,0,0,1-.06,0,.15.15,0,0,1,0-.06s0-.06.15-.11l.35-.17a5.5,5.5,0,0,0,2.19-2.22,6.78,6.78,0,0,0,.61-1.75q.19-.94.21-1.14l0-.3h-.29l.07.08a.13.13,0,0,1,0,.11s-.1.11-.26.2a9.87,9.87,0,0,1-.67,1.95,4.22,4.22,0,0,1-.9,1.24,5.69,5.69,0,0,1-.94.73l-.36.21a.62.62,0,0,1-.19.09l-.05,0a.07.07,0,0,1,0-.07l.13-.12.3-.31a4.87,4.87,0,0,0,1.31-2.28q.29-1.22.37-1.81h-.1a11.05,11.05,0,0,1-.7,1,5.5,5.5,0,0,1-.79.75L86,34.2a.27.27,0,0,1-.16.08s-.06,0-.06,0a0,0,0,0,1,0,0l.09-.14.21-.29A9.61,9.61,0,0,0,86.7,32.67Z" transform="translate(-1 -26)"/><path d="M95.93,32.92c0-.14.08-.28.11-.43s.09-.46.15-.93.1-.78.12-.94l0-.68q0-.12.21-.08l.71.11q.7.1.72.24t-.4.33q-.19,1-.23,1.26l-.24,1.12h3.19l.29-.38.23-.3a.28.28,0,0,1,.18-.11q.1,0,.36.21l.33.28.21.23c.09.1.13.17.1.21a.11.11,0,0,1-.1.05H97.06q-.17.61-.36,1.15h2.41q.24-.4.33-.42a.43.43,0,0,1,.25.06l.45.21q.71.36.71.49t-.47.22a16.47,16.47,0,0,1-1.24,1.93,6.88,6.88,0,0,0,2.58.71l.24,0c.06,0,.09,0,.09.06s0,.07-.09.09l-.21.09a1,1,0,0,0-.33.24,1.43,1.43,0,0,0-.23.3,2.65,2.65,0,0,0-.14.33c0,.14-.09.21-.12.21h-.07l-.33-.08a3.68,3.68,0,0,1-.92-.47,7.78,7.78,0,0,1-1.13-.85,7.35,7.35,0,0,1-1.6.86,7,7,0,0,1-1.62.46l-.39.06-.26,0c-.1,0-.15,0-.16,0s0-.07.13-.12l.24-.07.37-.14a6.63,6.63,0,0,0,2.63-1.67q-.21-.27-.42-.63a3.43,3.43,0,0,1-.37-1l-.18-.7h-.26a10.3,10.3,0,0,1-1.15,2,8.36,8.36,0,0,1-1.9,1.69l-.25.18a.6.6,0,0,1-.2.11c-.05,0-.08,0-.1,0s0-.07,0-.11l.17-.15.26-.26a8.43,8.43,0,0,0,1.41-2,10.42,10.42,0,0,0,1-2.77H94.36l-.35.36a.41.41,0,0,1-.12.09.19.19,0,0,1-.12,0,.8.8,0,0,1-.22-.15l-.3-.24L93,33a.22.22,0,0,1-.07-.14s0-.08.09-.12l.33-.21.32-1.18.1-.77c0-.06.08-.09.18-.08l.8.21q.44.13.44.23c0,.1-.13.2-.36.28l-.5,1.72Zm2.36,3.28A6.15,6.15,0,0,0,99,34.9l.15-.42H97.08a4.44,4.44,0,0,0,.51,1A4.54,4.54,0,0,0,98.29,36.21Zm.22-5.35-.23-.17s0,0,0-.06a.14.14,0,0,1,.12,0h.29q1.11.1,1.35.48a1.39,1.39,0,0,1,.24.67.69.69,0,0,1-.21.51.63.63,0,0,1-.53.2.52.52,0,0,1-.35-.13.58.58,0,0,1-.16-.21,4.54,4.54,0,0,1-.09-.55A1,1,0,0,0,98.52,30.85Z" transform="translate(-1 -26)"/><path d="M107.63,31.92h1.82q.29-.44.36-.45a.39.39,0,0,1,.21.05q.95.48,1,.62c0,.07-.08.18-.24.31v2.82l.06,1.12a1,1,0,0,1-.14.29q-.11.17-.78.11c-.21,0-.31-.08-.31-.21V36h-2v1.41a.44.44,0,0,0,.07.22c0,.08.19.13.43.14l1.23,0a3.05,3.05,0,0,0,1.61-.22,2.67,2.67,0,0,0,.67-1.07l.15-.35c0-.07.06-.1.11-.09s.07,0,.06.07l-.11.49q-.08.33-.12.57a.68.68,0,0,0,.07.44l.12.2a.73.73,0,0,1,.08.3.53.53,0,0,1-.08.29,1,1,0,0,1-.38.32,10.58,10.58,0,0,1-2.58.12,6.82,6.82,0,0,1-1.89-.15.87.87,0,0,1-.38-.28.92.92,0,0,1-.11-.33,3.88,3.88,0,0,1,0-.56V36h-1.91v.73a.43.43,0,0,1-.09.26q-.09.12-.8.11a.33.33,0,0,1-.2,0,.23.23,0,0,1-.06-.13l.06-1.15V32.87l-.07-1.37s.11,0,.21,0l1,.41h1.84v-.86l-.08-1.15.12,0a.91.91,0,0,1,.24,0l.62.07q.45,0,.5.17t-.3.37Zm-1.09,2V32.1h-1.91v1.77Zm0,1.94V34.07h-1.91v1.75Zm3-1.94V32.1h-2v1.77Zm0,.2h-2v1.8h2Z" transform="translate(-1 -26)"/><path d="M116.15,34.48h-2.42l-.46,0-.24-.27.66.06H117V31.57h-2.64l-.46,0-.24-.27.65.06H117v-.55l0-.9a.13.13,0,0,1,.09,0,6.53,6.53,0,0,1,.72.07q.64.08.64.21t-.3.3v.91h1.68a3.26,3.26,0,0,1,.64-.75q.1,0,.31.13,1,.8.63.8h-3.25v2.71h.42l.14-.32q.05-.13.16-.44t.22-.64a4.4,4.4,0,0,0,.16-.5l.09-.39a.43.43,0,0,1,0-.18l.12,0,.69.29q.63.25.63.4c0,.09-.07.15-.21.16l-.19,0-.25.25-.55.61-.66.71h1.45l.52-.64a.23.23,0,0,1,.12-.06.36.36,0,0,1,.23.09,4.12,4.12,0,0,1,.52.45c.15.15.21.25.2.29a.09.09,0,0,1-.1.06h-3.48a3.33,3.33,0,0,0,.42.82,4.6,4.6,0,0,0,1.08,1,4.47,4.47,0,0,0,1.81.8l.36.08a.16.16,0,0,1,.1.08s0,.07-.09.08l-.26,0a1,1,0,0,0-.54.35,2.32,2.32,0,0,0-.28.41c0,.09-.08.14-.1.14s-.26-.1-.57-.33a9.76,9.76,0,0,1-.89-.76,3.29,3.29,0,0,1-.71-1.07,6.33,6.33,0,0,1-.37-1l-.1-.46-.06-.22h-.06v2.87l0,1.16a.49.49,0,0,1-.34.29,1.4,1.4,0,0,1-.53.06.38.38,0,0,1-.26-.08.37.37,0,0,1-.08-.19l.06-1.25V35.42a11.27,11.27,0,0,1-3.59,2.74l-.24.12c-.08,0-.14,0-.16,0s0-.08,0-.13l.22-.18A8.77,8.77,0,0,0,115,36.29,14.48,14.48,0,0,0,116.15,34.48Zm-1.41-2.27a.66.66,0,0,0-.14-.14.31.31,0,0,1-.09-.09s0-.06.06-.08a1.16,1.16,0,0,1,.33.07,4.37,4.37,0,0,1,.66.27,1.27,1.27,0,0,1,.57.49,1.11,1.11,0,0,1,.18.55,1,1,0,0,1-.17.46.67.67,0,0,1-1,.1.62.62,0,0,1-.13-.41l0-.32a1.84,1.84,0,0,0,0-.29,1,1,0,0,0-.12-.36Z" transform="translate(-1 -26)"/><path d="M125.29,32l.11-.28a.1.1,0,0,1,.11-.08c.05,0,.07.05,0,.14l-.07.25q-.14.5-.23.9l-.29,1.2-.3,1.22a6.53,6.53,0,0,0-.14.67c0,.16,0,.31,0,.47a3,3,0,0,0,0,.36,2.09,2.09,0,0,0,.05.36l.11.43a2.53,2.53,0,0,1,.08.45.54.54,0,0,1-.14.4.67.67,0,0,1-.53.22.62.62,0,0,1-.5-.13.49.49,0,0,1-.15-.3,1.48,1.48,0,0,1,0-.36,3.84,3.84,0,0,0,.05-.42,2.08,2.08,0,0,0,0-.38.83.83,0,0,0-.32-.61,1.44,1.44,0,0,1-.28-.21s0-.06,0-.07,0,0,.08,0a.87.87,0,0,1,.28,0,.34.34,0,0,0,.32,0,3.25,3.25,0,0,0,.3-.62l.57-1.32Q124.74,33.41,125.29,32Zm-2.41.48a2.31,2.31,0,0,1,.78.1q.74.15.75.66a.93.93,0,0,1-.19.69.56.56,0,0,1-.42.17.44.44,0,0,1-.45-.29,1.6,1.6,0,0,1,0-.28q0-.18,0-.37a.7.7,0,0,0-.15-.35,1.23,1.23,0,0,0-.2-.21C122.86,32.54,122.85,32.5,122.87,32.47ZM125.36,31a.64.64,0,0,1-.16.44.51.51,0,0,1-.42.17.45.45,0,0,1-.34-.11.61.61,0,0,1-.14-.24l-.09-.3a1.2,1.2,0,0,0-.24-.42,1.21,1.21,0,0,0-.2-.16l-.11-.07a.07.07,0,0,1,0-.07s.08,0,.21,0c.31,0,.63,0,1,.05S125.36,30.57,125.36,31Zm.37.21c0-.15,0-.36,0-.63l0-.3v-.1a.06.06,0,0,1,0,0,.38.38,0,0,1,.17,0l1,.47h3.56q.19-.28.34-.52c.09-.16.18-.24.26-.24a1.42,1.42,0,0,1,.37.19,2,2,0,0,1,.51.42c.13.16.19.26.18.29a.1.1,0,0,1-.1,0h-2.83q.69.16.81.2c.08,0,.11.07.11.12s-.08.1-.24.16l-.48.64q-.19.26-.36.44h1.27a1.34,1.34,0,0,1,.28-.4.35.35,0,0,1,.23.05l.48.22q.44.2.45.31c0,.09-.08.18-.24.27v1.3l.06.68q-.08.5-.88.47-.26,0-.26-.22v-.24H130a.63.63,0,0,1-.06.18l-.12.12V38a1,1,0,0,1-.11.49.66.66,0,0,1-.39.31,2.08,2.08,0,0,1-.6.11,1.19,1.19,0,0,1-.34,0s0-.08,0-.23a.56.56,0,0,0-.12-.41.75.75,0,0,0-.31-.26l-.26-.1c-.07,0-.1-.05-.08-.1s.06-.07.14-.06l.29,0q.59.07.65,0a.35.35,0,0,0,.06-.23V34.92h-.46V35a.25.25,0,0,1-.15.21,1,1,0,0,1-.45.1.77.77,0,0,1-.36,0,.27.27,0,0,1-.09-.14l0-.82V33l-.06-.89a.15.15,0,0,1,.18,0l.86.33h.2a10.65,10.65,0,0,0,.29-1.56h-1.94q0,.93,0,2t0,1.56q0,.48,0,1a6.16,6.16,0,0,1-.32,1.4,3.93,3.93,0,0,1-1.25,1.69l-.34.29s-.09,0-.12,0,0-.07,0-.15l.16-.23a5.59,5.59,0,0,0,.58-1.12,6.69,6.69,0,0,0,.31-1.86q.08-1.25.07-2.14l0-1.38Q125.74,31.48,125.73,31.26Zm2.55,5.14-.87.89a7.49,7.49,0,0,1-1.1,1l-.17.12c-.05,0-.09,0-.11,0s0-.06,0-.12l.09-.13a7.87,7.87,0,0,0,1.09-2.28l.06-.21,0-.12h0l.09,0,.22.09a3.54,3.54,0,0,1,.54.28q.38.22.38.29C128.58,36.3,128.48,36.35,128.28,36.4Zm0-2.86h2.15v-.91h-2.15Zm0,1.19h2.15v-1h-2.15Zm3.95,2.63a1.35,1.35,0,0,1-.06.4.48.48,0,0,1-.42.35.56.56,0,0,1-.53-.11.41.41,0,0,1-.14-.21c0-.09,0-.18-.07-.28s-.06-.25-.12-.46a1.24,1.24,0,0,0-.4-.59,5,5,0,0,0-.4-.33c-.06,0-.08-.06-.09-.08a.15.15,0,0,1,0-.06s0,0,.12,0l.43,0a2.45,2.45,0,0,1,1,.4A1.35,1.35,0,0,1,132.2,37.36Z" transform="translate(-1 -26)"/></svg>