<svg id="图层_1" data-name="图层 1" xmlns="http://www.w3.org/2000/svg" viewBox="0 0 187 22"><defs><style>.cls-1{fill:#fff;stroke:#000;stroke-miterlimit:10;}</style></defs><title>jiaotong</title><rect class="cls-1" x="0.5" y="4.5" width="182" height="17"/><rect class="cls-1" x="4.5" y="0.5" width="182" height="17"/><path d="M63.37,32.72a2.14,2.14,0,0,1,.93.3.91.91,0,0,1,.32.51.56.56,0,0,1-.15.56.61.61,0,0,1-.54.2.41.41,0,0,1-.32-.14.59.59,0,0,1-.09-.3l0-.27a1.55,1.55,0,0,0-.11-.35.65.65,0,0,0-.21-.28l-.09-.06a.1.1,0,0,1,0-.11s.05-.07.12-.07Zm2.39-.82.09-.22c0-.08.06-.11.11-.09s.05.1,0,.23l-.22.8-.14.43q-.12.37-.37,1.38t-.35,1.49a3.62,3.62,0,0,0-.1.86,2.17,2.17,0,0,0,.09.59l.18.59a1.81,1.81,0,0,1,.06.41.73.73,0,0,1-.21.51.69.69,0,0,1-.48.18.63.63,0,0,1-.46-.15.54.54,0,0,1-.2-.32,2.1,2.1,0,0,1,0-.52q0-.59,0-.75a1.06,1.06,0,0,0-.43-.92l-.21-.12c-.06,0-.08-.06-.07-.1s0-.06.07-.06l.29,0a.45.45,0,0,0,.37-.1,4.38,4.38,0,0,0,.45-.76q.34-.64.91-2Zm-2.07-1.37-.09,0c-.06,0-.1-.06-.09-.1s0-.07.05-.07l.21,0a2.2,2.2,0,0,1,1,.12q.51.19.58.5a1,1,0,0,1,0,.51.61.61,0,0,1-.62.45c-.16,0-.26,0-.28-.06l-.22-.26a5.24,5.24,0,0,0-.22-.62A.74.74,0,0,0,63.69,30.54Zm4.23,4.56h2q.28-.38.37-.4a.53.53,0,0,1,.29.08l.27.13.43.25q.18.1.19.16c0,.1-.08.2-.27.29q-.06.46-.12.82t-.22,1a3.74,3.74,0,0,1-.36,1,1.63,1.63,0,0,1-.48.52,2,2,0,0,1-.91.25,1.65,1.65,0,0,1-.68,0,.09.09,0,0,1,0-.05l-.08-.36a1,1,0,0,0-.51-.59L67.51,38c-.08,0-.12-.09-.1-.12s.07-.05.15,0l.65.09q.95.14,1.16-.19a3.48,3.48,0,0,0,.38-1,8.62,8.62,0,0,0,.2-1l0-.39h-2a1.93,1.93,0,0,1-.62.4q-.1,0-.28-.18l-.4-.35q-.21-.18-.21-.25s0-.05.14-.12l.33-.21.45-1.07h-1l-.51,0-.23-.27.67.06h4.22l.21-.25.29-.4q.11-.14.18-.14a.54.54,0,0,1,.16.13l.3.32.28.32q.1.12.07.17s-.07,0-.17,0h-3.1c-.05.1-.08.16-.1.16l-.21.09Zm1.93-3.93q.52-.77.64-.77t.48.45l.21.26q.11.14.08.19a.13.13,0,0,1-.13.05H66.9l-.52,0-.22-.28.66.06Z" transform="translate(-1 -26)"/><path d="M76.9,35.94v-.13l0-.91a.12.12,0,0,1,.09,0,3.72,3.72,0,0,1,.9.1q.39.1.42.18t-.27.3v.5h2.26q.4-.53.5-.63a.3.3,0,0,1,.16-.11s.12,0,.22.12q.47.43.58.55t.09.19s0,.07-.06.07H78.27a2.82,2.82,0,0,0,.61.73,3.93,3.93,0,0,0,1.15.61,4.83,4.83,0,0,0,1.71.29H82a.14.14,0,0,1,.13.07s0,.08-.1.12l-.22.09a1.09,1.09,0,0,0-.4.27,1.39,1.39,0,0,0-.22.34,2.09,2.09,0,0,0-.1.25.77.77,0,0,1-.07.16q0,.08-.25,0l-.37-.16A3.43,3.43,0,0,1,79,37.93a6.27,6.27,0,0,1-.62-.89,2.35,2.35,0,0,1-.23-.55l-.1-.36H78v1.78l0,1a.67.67,0,0,1-.12.21q-.09.12-.65.11-.28,0-.34-.07a.36.36,0,0,1-.08-.17l.06-1.11V36.82a7.31,7.31,0,0,1-2.09,1.56,11.82,11.82,0,0,1-1.41.58l-.3.09A.09.09,0,0,1,73,39s0-.08,0-.12l.29-.17.39-.21q.17-.1.63-.45a5.65,5.65,0,0,0,.87-.83,8.49,8.49,0,0,0,.79-1.1H73.66l-.4,0-.31-.28.65.06ZM73.58,32l-.16-.11c-.05,0-.08-.06-.09-.08a.41.41,0,0,1,0-.08s0-.06.11-.07l.29,0,.31,0a1.09,1.09,0,0,1,.61.31.8.8,0,0,1,.2.48.57.57,0,0,1-.15.44.54.54,0,0,1-.4.18A.36.36,0,0,1,74,33a.33.33,0,0,1-.08-.17c0-.07,0-.16,0-.27a1.38,1.38,0,0,0-.07-.3A.69.69,0,0,0,73.58,32Zm2.57-.69.26-.42q.08-.13.15-.08s.06.08,0,.14l-.21.47-.34.67-.33.68-.35.7a3,3,0,0,0-.33,1,1.3,1.3,0,0,0,0,.42,1.7,1.7,0,0,1,0,.39.56.56,0,0,1-.17.33.6.6,0,0,1-.51.17.54.54,0,0,1-.41-.14.46.46,0,0,1-.14-.29,1.64,1.64,0,0,1,0-.38q0-.22,0-.31a.81.81,0,0,0,0-.25.73.73,0,0,0-.27-.34l-.18-.12q-.15-.09-.1-.15a.15.15,0,0,1,.16,0l.3.07a.68.68,0,0,0,.57-.14,5.06,5.06,0,0,0,.93-1.1Q75.94,31.68,76.15,31.34Zm-1.81-.75-.17-.12-.1,0-.1-.06a.1.1,0,0,1,0-.1s.1-.06.27-.05q.68.06,1.13.14t.43.66a.62.62,0,0,1-.18.41.6.6,0,0,1-.43.19.44.44,0,0,1-.24,0,.26.26,0,0,1-.13-.13s-.06-.16-.11-.34A1.09,1.09,0,0,0,74.34,30.58Zm2.57,1.51-.44,0-.26-.26.66,0,.48,0,0-.51v-.23l0-.26,0-.32,0-.23a.13.13,0,0,1,0-.09.16.16,0,0,1,.1,0,3.74,3.74,0,0,1,.8.1q.53.11.55.18s0,.11-.1.17l-.17.14-.06,1.07.72,0q.21-.38.35-.41a.45.45,0,0,1,.2,0l.44.19q.44.22.45.35t-.34.3l-.1,1.37a.38.38,0,0,0,0,.27c0,.05.14.08.29.08a1,1,0,0,0,.67-.14,1.13,1.13,0,0,0,.27-.37,2.57,2.57,0,0,0,.15-.4l.11-.49c0-.06,0-.1.09-.09s.06,0,.06.12l0,.41q0,.21,0,.35a.61.61,0,0,0,0,.2.45.45,0,0,0,.14.25L82,34a.76.76,0,0,1,.12.29q0,.18-.21.41a2.05,2.05,0,0,1-1.29.27,4.24,4.24,0,0,1-1-.08.74.74,0,0,1-.42-.26.72.72,0,0,1-.1-.5L79.27,32l-.85,0q-.06.49-.12.82A5.52,5.52,0,0,1,77.88,34q-.35.76-2.1,1.26l-.37.11c-.06,0-.11,0-.12-.05s0-.1.09-.14L75.7,35a2.4,2.4,0,0,0,.45-.3,4.17,4.17,0,0,0,.61-.6,2.13,2.13,0,0,0,.43-.95q.12-.58.14-.73l0-.33Z" transform="translate(-1 -26)"/><path d="M86.77,33l-.09,0h-1V34.9l1.21-.27.27-.08c.09,0,.15,0,.17,0s0,.08-.08.12l-.32.18-1.25.68v2.13l0,1.11a.65.65,0,0,1-.11.25q-.09.13-.47.15a.94.94,0,0,1-.44,0,.26.26,0,0,1-.07-.11l.06-1.35V36l-.23.14-.38.21-.33.19-.22.13c-.06,0-.1,0-.11,0a.6.6,0,0,1-.07-.2l-.31-.9a.53.53,0,0,1,0-.17s0,0,.12,0l.21,0q.62-.06,1.39-.2V33h-.48a7.29,7.29,0,0,1-.66,1.56l-.19.3-.15.21q-.1.13-.12-.08l.09-.33.07-.42q0-.17,0-.56l0-.64q0-.47,0-.73l0-.4V31.6l0-.18a.13.13,0,0,1,.08-.06l.09,0,.26,0a4.06,4.06,0,0,1,.54.1c.22.06.34.13.35.21s0,.12-.15.16-.06.23-.08.29l-.07.32-.09.33h.44V31.33l0-1,.14,0a3.91,3.91,0,0,1,1.11.2.3.3,0,0,1,.11.15q0,.16-.31.28v1.93l.35-.52a.2.2,0,0,1,.15-.09q.09,0,.3.23a4.75,4.75,0,0,1,.35.43,9.38,9.38,0,0,0,.38-1q.15-.48.21-.74c0-.17.06-.33.08-.48l0-.29a.15.15,0,0,1,0-.1s.06,0,.13,0q.75.19,1.07.29t.32.21a.18.18,0,0,1-.1.17l-.23.15-.22.38-.27.52-.26.42h2.71l.19-.27c.05-.08.09-.12.13-.13a.32.32,0,0,1,.19.05l.32.15a4.75,4.75,0,0,1,.43.26q.3.2.29.3c0,.08-.11.17-.28.25q-.09,1.2-.18,2.29a17.23,17.23,0,0,1-.3,2.08,1.82,1.82,0,0,1-.72,1.28,2.18,2.18,0,0,1-.85.33q-.34,0-.38,0a.12.12,0,0,1,0-.09l-.06-.22a.94.94,0,0,0-.52-.57L88.55,38l-.11-.05a.11.11,0,0,1,0-.06s0,0,.1,0l.3,0,.31,0a1.82,1.82,0,0,0,.48,0,.65.65,0,0,0,.51-.33,3.15,3.15,0,0,0,.31-.93q.13-.64.23-1.61t.12-1.31l0-1.07h-.4q.22.15.22.24t-.15.16q-.08.26-.38,1.49a5,5,0,0,1-.81,1.88,5.1,5.1,0,0,1-1.21,1.11,6.19,6.19,0,0,1-1.63.75l-.35.11-.16,0a.08.08,0,0,1-.06,0,.15.15,0,0,1,0-.06s0-.06.15-.11L86.4,38a4.82,4.82,0,0,0,1.1-.8,4.88,4.88,0,0,0,1.09-1.42,6.76,6.76,0,0,0,.61-1.75q.19-.94.21-1.14l0-.3h-.29l.07.08a.13.13,0,0,1,0,.11s-.1.11-.26.2A9.84,9.84,0,0,1,88.3,35a4.23,4.23,0,0,1-.9,1.24,5.65,5.65,0,0,1-.94.73l-.36.21a.63.63,0,0,1-.19.09l-.05,0a.07.07,0,0,1,0-.07L86,37l.3-.31a4.86,4.86,0,0,0,1.31-2.28q.29-1.22.37-1.81h-.1a10.85,10.85,0,0,1-.7,1,5.55,5.55,0,0,1-.79.75l-.25.21a.27.27,0,0,1-.16.08s-.06,0-.06,0,0,0,0,0l.09-.14.21-.29A9.61,9.61,0,0,0,86.77,33Z" transform="translate(-1 -26)"/><path d="M93.76,32.42l-.5,0L93,32.17l.66.06h6.46l.53-.7c.08-.11.14-.17.19-.18s.14,0,.26.11l.34.27.36.35c.12.11.16.19.14.24a.13.13,0,0,1-.13.08ZM97,37a6,6,0,0,1-.67-1.13A5.47,5.47,0,0,1,96,35l-.1-.39a.13.13,0,0,1,.08-.18c.08,0,.15,0,.22.14l.2.38a4.72,4.72,0,0,0,1.09,1.43,6,6,0,0,0,.74-1.71l.1-.42q0-.12.21,0l.38.12.58.25c.25.11.38.2.39.27s-.12.17-.37.22l-.38.77A13.12,13.12,0,0,1,98.41,37a4,4,0,0,0,1.48.64,8.81,8.81,0,0,0,1.68.24l.45,0c.06,0,.1,0,.12.07s0,.08-.12.12l-.23.11a1.22,1.22,0,0,0-.56.44,1.38,1.38,0,0,0-.17.28l-.1.24a.2.2,0,0,1-.21.12,2.55,2.55,0,0,1-.65-.19,9.72,9.72,0,0,1-1.09-.5,4.44,4.44,0,0,1-.68-.4l-.63-.5c-.25.18-.47.33-.66.45a8.21,8.21,0,0,1-1.23.51,8,8,0,0,1-1.83.43l-.61.07a1,1,0,0,1-.28,0s-.07,0-.07-.06,0-.07.12-.11l.29-.08.39-.12A6.83,6.83,0,0,0,96,37.92,9.43,9.43,0,0,0,97,37Zm-.28-3.43a15.18,15.18,0,0,1-1.56,1.16,7.94,7.94,0,0,1-1.37.7l-.37.15a.88.88,0,0,1-.29.09s-.07,0-.07,0a.12.12,0,0,1,0-.1l.21-.13.34-.26a6.21,6.21,0,0,0,1-1A6.54,6.54,0,0,0,95.41,33l.12-.23a.2.2,0,0,1,.06-.09s.07,0,.15,0l.77.3c.41.17.62.29.63.37S97,33.55,96.71,33.57Zm-.22-3-.17-.12c-.08-.05-.11-.1-.09-.13s.1-.05.26,0l.5.06a2.11,2.11,0,0,1,.66.21,1.37,1.37,0,0,1,.48.39,1,1,0,0,1,.19.54.65.65,0,0,1-.21.52.84.84,0,0,1-.56.23A.67.67,0,0,1,97,32a.44.44,0,0,1-.18-.26,3.49,3.49,0,0,1,0-.42,1.19,1.19,0,0,0-.12-.51A.88.88,0,0,0,96.48,30.53Zm1.91,2.61c-.07,0-.1-.08-.1-.13s.1-.06.29,0a6,6,0,0,1,2.13.61q.81.44.87,1a.74.74,0,0,1-.26.77.66.66,0,0,1-.7,0,.81.81,0,0,1-.34-.28q-.11-.17-.5-.85a2.22,2.22,0,0,0-1.13-1Z" transform="translate(-1 -26)"/><path d="M104.27,37.51V34h-.65l-.51,0-.19-.26.63,0h.66l.16-.28a.31.31,0,0,1,.13-.15.35.35,0,0,1,.21,0c.63.23,1,.43,1,.58s-.1.18-.31.27v3.39a3.16,3.16,0,0,0,1.15.42,15.29,15.29,0,0,0,3,.09,12,12,0,0,0,2.43-.22l.27-.07a.08.08,0,0,1,.09,0s0,.07,0,.11l-.18.18a.78.78,0,0,0-.18.33,1.41,1.41,0,0,0-.06.44c0,.15,0,.24,0,.27s-.1,0-.21,0l-3.62,0a6.4,6.4,0,0,1-1.4-.13,2.22,2.22,0,0,1-.82-.41l-.42-.37a.77.77,0,0,0-.57-.22c-.27,0-.56.32-.89.84l-.2.31s0,0,0,0-.05,0-.08-.09l-.5-1A.38.38,0,0,1,103,38s.06,0,.17-.09Zm1.4-6.05a.91.91,0,0,1-.12.43.57.57,0,0,1-.53.28.73.73,0,0,1-.29,0,.75.75,0,0,1-.25-.14.47.47,0,0,1-.13-.33v-.21a1,1,0,0,0-.19-.55l-.21-.28-.11-.11a.19.19,0,0,1-.07-.12s0-.05.14,0a2.74,2.74,0,0,1,1.47.49A1.12,1.12,0,0,1,105.66,31.45Zm2.71,1.46a.4.4,0,0,1-.12-.09.38.38,0,0,1-.05-.15l0-.25a1,1,0,0,0-.31-.56l-.3-.23-.1-.07a.06.06,0,0,1,0-.08s.07,0,.17,0c.38,0,.65.05.81.08a4,4,0,0,1,.69.21q.24-.41.45-.81H107l-.71,0-.18-.31.76.09h2.67c.13-.27.25-.42.37-.45a2.71,2.71,0,0,1,.8.31q.69.33.69.53c0,.11-.08.17-.22.19h-.25a5.78,5.78,0,0,0-1.55.64l.09.23a.62.62,0,0,1,0,.32.84.84,0,0,1-.25.42h1.15q.18-.37.32-.42a1.28,1.28,0,0,1,.64.21q.5.25.52.39c0,.08-.1.18-.31.29V37a1,1,0,0,1-.08.44.49.49,0,0,1-.2.21,2.29,2.29,0,0,1-.57.13c-.3,0-.46,0-.48,0s0-.07,0-.17a.72.72,0,0,0-.11-.36.68.68,0,0,0-.29-.29l-.28-.14s-.07,0-.06-.07,0,0,.11,0l.34,0a1.2,1.2,0,0,0,.49,0s0-.13,0-.29v-.85h-1.17v.84l0,1a.53.53,0,0,1-.5.33.81.81,0,0,1-.45,0,.39.39,0,0,1-.12-.19l0-1.1v-.81h-1.15v.91l0,.88a.57.57,0,0,1-.19.22,1.11,1.11,0,0,1-.54.11.64.64,0,0,1-.28,0,.29.29,0,0,1-.13-.18l.06-1V33.33l-.06-.77a.11.11,0,0,1,.05-.05.46.46,0,0,1,.21.05l.85.36Zm-.1.19h-1.15v1.06h1.15Zm0,2.32V34.36h-1.15v1.06Zm1-1.26h1.16V33.1h-1a1,1,0,0,1-.15.25Zm0,1.26h1.17V34.36h-1.17Z" transform="translate(-1 -26)"/><path d="M116.22,34.81H113.8l-.46,0-.24-.27.66.06h3.31V31.9h-2.64l-.46,0-.24-.27.65.06h2.69v-.55l0-.9a.13.13,0,0,1,.09,0,6.51,6.51,0,0,1,.72.07q.64.08.64.21c0,.05-.11.15-.3.3v.91h1.68a3.26,3.26,0,0,1,.64-.75q.1,0,.31.13,1,.8.63.8h-3.25v2.71h.42l.14-.32q.05-.13.16-.44t.22-.64a4.4,4.4,0,0,0,.16-.5l.09-.39a.43.43,0,0,1,0-.18l.12,0,.69.29q.63.25.63.4c0,.09-.07.15-.21.16l-.19,0-.25.25-.55.61-.66.71h1.45L121,34a.23.23,0,0,1,.12-.06.36.36,0,0,1,.23.09,4.12,4.12,0,0,1,.52.45c.15.15.21.25.2.29a.09.09,0,0,1-.1.06h-3.48a3.36,3.36,0,0,0,.42.82,4.6,4.6,0,0,0,1.08,1,4.47,4.47,0,0,0,1.81.8l.36.08a.16.16,0,0,1,.1.08s0,.07-.09.08l-.26,0a1,1,0,0,0-.54.35,2.32,2.32,0,0,0-.28.41c0,.09-.08.14-.1.14s-.26-.1-.57-.33a9.76,9.76,0,0,1-.89-.76,3.29,3.29,0,0,1-.71-1.07,6.43,6.43,0,0,1-.37-1l-.1-.46-.06-.22h-.06v2.87l0,1.16a.49.49,0,0,1-.34.29,1.4,1.4,0,0,1-.53.06.28.28,0,0,1-.34-.26l.06-1.25V35.76a11.26,11.26,0,0,1-3.59,2.74l-.24.12c-.08,0-.14,0-.16,0s0-.08,0-.13l.22-.18a8.77,8.77,0,0,0,1.71-1.69A14.37,14.37,0,0,0,116.22,34.81Zm-1.41-2.27a.68.68,0,0,0-.14-.14.31.31,0,0,1-.09-.09s0-.06.06-.08a1.16,1.16,0,0,1,.33.07,4.33,4.33,0,0,1,.66.27,1.28,1.28,0,0,1,.57.49,1.11,1.11,0,0,1,.18.55.94.94,0,0,1-.17.46.67.67,0,0,1-1,.1.62.62,0,0,1-.13-.41l0-.32a1.84,1.84,0,0,0,0-.29,1,1,0,0,0-.12-.36Z" transform="translate(-1 -26)"/><path d="M125.35,32.32l.11-.28a.1.1,0,0,1,.11-.08c.05,0,.07.05,0,.14l-.07.25q-.14.5-.23.9l-.29,1.2-.3,1.22a6.53,6.53,0,0,0-.14.67c0,.16,0,.31,0,.47a3,3,0,0,0,0,.36,2.09,2.09,0,0,0,.05.36l.11.43a2.53,2.53,0,0,1,.08.45.54.54,0,0,1-.14.4.67.67,0,0,1-.53.22.62.62,0,0,1-.5-.13.49.49,0,0,1-.15-.3,1.48,1.48,0,0,1,0-.36,3.84,3.84,0,0,0,.05-.42,2.08,2.08,0,0,0,0-.38.83.83,0,0,0-.32-.61,1.44,1.44,0,0,1-.28-.21s0-.06,0-.07,0,0,.08,0a.87.87,0,0,1,.28,0,.34.34,0,0,0,.32,0,3.25,3.25,0,0,0,.3-.62l.57-1.32Q124.8,33.75,125.35,32.32Zm-2.41.48a2.31,2.31,0,0,1,.78.1q.74.15.75.66a.93.93,0,0,1-.19.69.56.56,0,0,1-.42.17.44.44,0,0,1-.45-.29,1.6,1.6,0,0,1,0-.28q0-.18,0-.37a.7.7,0,0,0-.15-.35,1.23,1.23,0,0,0-.2-.21C122.92,32.88,122.91,32.84,122.94,32.8Zm2.49-1.42a.64.64,0,0,1-.16.44.51.51,0,0,1-.42.17.45.45,0,0,1-.34-.11.61.61,0,0,1-.14-.24l-.09-.3a1.2,1.2,0,0,0-.24-.42,1.21,1.21,0,0,0-.2-.16l-.11-.07a.07.07,0,0,1,0-.07s.08,0,.21,0c.31,0,.63,0,1,.05S125.42,30.9,125.43,31.39Zm.37.21c0-.15,0-.36,0-.63l0-.3v-.1a.06.06,0,0,1,0,0,.38.38,0,0,1,.17,0l1,.47h3.56q.19-.28.34-.52c.09-.16.18-.24.26-.24a1.42,1.42,0,0,1,.37.19,2,2,0,0,1,.51.42c.13.16.19.26.18.29a.1.1,0,0,1-.1,0h-2.83q.69.16.81.2c.08,0,.11.07.11.12s-.08.1-.24.16l-.48.64q-.19.26-.36.44h1.27a1.34,1.34,0,0,1,.28-.4.35.35,0,0,1,.23.05l.48.22q.44.2.45.31c0,.09-.08.18-.24.27v1.3l.06.68q-.08.5-.88.47-.26,0-.26-.22v-.24H130a.63.63,0,0,1-.06.18l-.12.12v2.82a1,1,0,0,1-.11.49.66.66,0,0,1-.39.31,2.08,2.08,0,0,1-.6.11,1.19,1.19,0,0,1-.34,0s0-.08,0-.23a.56.56,0,0,0-.12-.41.75.75,0,0,0-.31-.26l-.26-.1c-.07,0-.1-.05-.08-.1s.06-.07.14-.06l.29,0q.59.07.65,0a.35.35,0,0,0,.06-.23V35.25h-.46v.13a.25.25,0,0,1-.15.21,1,1,0,0,1-.45.1.77.77,0,0,1-.36,0,.27.27,0,0,1-.09-.14l0-.82V33.38l-.06-.89a.15.15,0,0,1,.18,0l.86.33h.2a10.65,10.65,0,0,0,.29-1.56h-1.94q0,.93,0,2t0,1.56q0,.48,0,1a6.16,6.16,0,0,1-.32,1.4,3.93,3.93,0,0,1-1.25,1.69l-.34.29s-.09,0-.12,0,0-.07,0-.15l.16-.23a5.59,5.59,0,0,0,.58-1.12,6.69,6.69,0,0,0,.31-1.86q.08-1.25.07-2.14l0-1.38Q125.81,31.82,125.8,31.6Zm2.55,5.14-.87.89a7.49,7.49,0,0,1-1.1,1l-.17.12c-.05,0-.09,0-.11,0s0-.06,0-.12l.09-.13a7.87,7.87,0,0,0,1.09-2.28l.06-.21,0-.12h0l.09,0,.22.09a3.54,3.54,0,0,1,.54.28q.38.22.38.29C128.64,36.63,128.54,36.69,128.35,36.74Zm0-2.86h2.15V33h-2.15Zm0,1.19h2.15v-1h-2.15Zm3.95,2.63a1.35,1.35,0,0,1-.06.4.48.48,0,0,1-.42.35.56.56,0,0,1-.53-.11.41.41,0,0,1-.14-.21c0-.09,0-.18-.07-.28s-.06-.25-.12-.46a1.24,1.24,0,0,0-.4-.59,5,5,0,0,0-.4-.33c-.06,0-.08-.06-.09-.08a.15.15,0,0,1,0-.06s0,0,.12,0l.43,0a2.45,2.45,0,0,1,1,.4A1.35,1.35,0,0,1,132.26,37.69Z" transform="translate(-1 -26)"/></svg>