<svg id="图层_1" data-name="图层 1" xmlns="http://www.w3.org/2000/svg" viewBox="0 0 283.74 156.89">
    <defs>
        <style>
            .step6-1 {
                fill: #8dd3c7;
            }

            .step6-1,
            .step6-2,
            .step6-3,
            .step6-4,
            .step6-5,
            .step6-6,
            .step6-7 {
                stroke: #ddd;
            }

            .step6-1,
            .step6-2,
            .step6-4,
            .step6-5,
            .step6-6,
            .step6-7 {
                stroke-opacity: 0;
            }

            .step6-2 {
                fill: #bebada;
            }

            .step6-3 {
                fill-opacity: 0;
            }

            .step6-4 {
                fill: #b3de69;
            }

            .step6-5 {
                fill: #80b1d3;
            }

            .step6-6 {
                fill: #fdb462;
            }

            .step6-7 {
                fill: #fb8072;
            }

            .step6-8 {
                isolation: isolate;
            }
        </style>
    </defs>
    <title>step6</title>
    <rect class="step6-1" x="64.17" y="138" width="10" height="10" />
    <rect class="step6-1" x="200.17" y="125" width="67" height="10" />
    <rect class="step6-2" x="122.17" y="124" width="57" height="12" /><text x="-5.33" y="-19.5"></text>
    <circle class="step6-3" cx="157.17" cy="53" r="52.5" />
    <circle class="step6-4" cx="160.96" cy="43.44" r="2.92" />
    <circle class="step6-5" cx="177.33" cy="43.44" r="12.84" />
    <circle class="step6-2" cx="146.26" cy="72.79" r="29.29" />
    <circle class="step6-6" cx="151.83" cy="21.65" r="20.08" />
    <circle class="step6-1" cx="190.83" cy="68.35" r="14.89" />
    <circle class="step6-7" cx="181.45" cy="21.45" r="8.92" />
    <g class="step6-8">
        <path
            d="M164.09,65a1.47,1.47,0,0,1-1.21-.54,2.29,2.29,0,0,1-.44-1.48,2.25,2.25,0,0,1,.43-1.46,1.48,1.48,0,0,1,1.21-.52,1.59,1.59,0,0,1,.9.24,1.43,1.43,0,0,1,.53.75l-.59.21a.93.93,0,0,0-.31-.49.81.81,0,0,0-.52-.17.82.82,0,0,0-.72.38,1.92,1.92,0,0,0-.25,1.07,2,2,0,0,0,.26,1.09.81.81,0,0,0,.71.4.78.78,0,0,0,.53-.19,1.1,1.1,0,0,0,.32-.54l.59.23A1.43,1.43,0,0,1,164.09,65Z"
            transform="translate(-5.33 -19.5)" />
        <path
            d="M169.67,63a2.43,2.43,0,0,1-.22,1.07,1.6,1.6,0,0,1-.65.7,2,2,0,0,1-1,.24,1.78,1.78,0,0,1-1.38-.53,2.11,2.11,0,0,1-.49-1.49,2,2,0,0,1,.49-1.46,1.81,1.81,0,0,1,1.38-.52,1.79,1.79,0,0,1,1.38.52A2.06,2.06,0,0,1,169.67,63ZM169,63a1.67,1.67,0,0,0-.3-1.07,1.06,1.06,0,0,0-.88-.38,1.08,1.08,0,0,0-.89.37,1.67,1.67,0,0,0-.3,1.07,1.73,1.73,0,0,0,.31,1.09,1,1,0,0,0,.88.39,1.06,1.06,0,0,0,.89-.38A1.74,1.74,0,0,0,169,63Z"
            transform="translate(-5.33 -19.5)" />
    </g>
    <g class="step6-8">
        <path
            d="M180,64.21l-2.43-3.9c0,.15,0,.29,0,.44s0,.29,0,.44v3h-.75V59.39h1l2.46,3.93c0-.13,0-.26,0-.41s0-.33,0-.54v-3H181v4.82Z"
            transform="translate(-5.33 -19.5)" />
        <path
            d="M186.56,61.78a3,3,0,0,1-.28,1.33,2,2,0,0,1-.8.87,2.45,2.45,0,0,1-1.24.3,2.2,2.2,0,0,1-1.71-.66,2.62,2.62,0,0,1-.6-1.84,2.54,2.54,0,0,1,.61-1.81,2.24,2.24,0,0,1,1.71-.64A2.22,2.22,0,0,1,186,60,2.55,2.55,0,0,1,186.56,61.78Zm-.85,0a2.07,2.07,0,0,0-.37-1.33,1.31,1.31,0,0,0-1.09-.47,1.33,1.33,0,0,0-1.1.46,2.07,2.07,0,0,0-.38,1.33,2.14,2.14,0,0,0,.38,1.35,1.3,1.3,0,0,0,1.09.49,1.32,1.32,0,0,0,1.1-.47A2.17,2.17,0,0,0,185.71,61.78Z"
            transform="translate(-5.33 -19.5)" />
        <path
            d="M187.21,64.21v-.55a3.28,3.28,0,0,1,.48-.78,6.29,6.29,0,0,1,.84-.82,5.15,5.15,0,0,0,.83-.81,1,1,0,0,0,.2-.56.72.72,0,0,0-.2-.54.75.75,0,0,0-.55-.19.73.73,0,0,0-.78.73l-.79-.05a1.45,1.45,0,0,1,.48-1,1.59,1.59,0,0,1,1.08-.35,1.72,1.72,0,0,1,1.15.35,1.23,1.23,0,0,1,.41,1,1.36,1.36,0,0,1-.12.56,2.14,2.14,0,0,1-.34.52,6.07,6.07,0,0,1-.72.66,3.85,3.85,0,0,0-1.09,1.15h2.35v.66Z"
            transform="translate(-5.33 -19.5)" />
    </g>
    <g class="step6-8">
        <path
            d="M152.62,91.13a3,3,0,0,1-.28,1.33,2,2,0,0,1-.8.87,2.45,2.45,0,0,1-1.24.3A2.2,2.2,0,0,1,148.6,93a2.62,2.62,0,0,1-.6-1.84,2.54,2.54,0,0,1,.61-1.81,2.24,2.24,0,0,1,1.71-.64,2.22,2.22,0,0,1,1.71.65A2.55,2.55,0,0,1,152.62,91.13Zm-.85,0a2.07,2.07,0,0,0-.38-1.33,1.31,1.31,0,0,0-1.09-.47,1.33,1.33,0,0,0-1.1.46,2.07,2.07,0,0,0-.38,1.33,2.14,2.14,0,0,0,.38,1.35,1.3,1.3,0,0,0,1.09.49,1.32,1.32,0,0,0,1.1-.47A2.16,2.16,0,0,0,151.77,91.13Z"
            transform="translate(-5.33 -19.5)" />
        <path
            d="M156.51,92.23a1.29,1.29,0,0,1-.43,1,2.22,2.22,0,0,1-2.39,0,1.44,1.44,0,0,1-.51-1l.8-.07a.91.91,0,0,0,.27.59.9.9,0,0,0,.61.19.86.86,0,0,0,.62-.21.79.79,0,0,0,.22-.59.65.65,0,0,0-.27-.55,1.31,1.31,0,0,0-.78-.2h-.35v-.65h.33a1.13,1.13,0,0,0,.71-.19.66.66,0,0,0,.25-.55.74.74,0,0,0-.19-.55.76.76,0,0,0-.55-.18.71.71,0,0,0-.79.71l-.78-.06a1.38,1.38,0,0,1,.49-1,1.67,1.67,0,0,1,1.09-.34A1.69,1.69,0,0,1,156,89a1.17,1.17,0,0,1,.39.95,1.12,1.12,0,0,1-.24.73,1.27,1.27,0,0,1-.75.4h0a1.33,1.33,0,0,1,.83.36A1,1,0,0,1,156.51,92.23Z"
            transform="translate(-5.33 -19.5)" />
    </g>
    <g class="step6-8">
        <path
            d="M152.21,40.08a1.52,1.52,0,0,1-.2.79,1.37,1.37,0,0,1-.59.53,2.06,2.06,0,0,1-.92.19h-.72v1.82h-.83V38.61h1.52a2,2,0,0,1,1.29.38A1.36,1.36,0,0,1,152.21,40.08Zm-.83,0a.84.84,0,0,0-.25-.65,1.08,1.08,0,0,0-.76-.23h-.59V41h.62a1,1,0,0,0,.72-.24A.87.87,0,0,0,151.38,40.09Z"
            transform="translate(-5.33 -19.5)" />
        <path
            d="M154.17,38.61l1.15,2.83q.09.21.37,1,.1-.33.38-1l1.12-2.83h1.12v4.82h-.76V40.23q0-.21,0-.43v-.43l-.13.36-.23.59L156,43.42h-.63l-1.26-3.14q-.2-.51-.33-.91c0,.14,0,.28,0,.42s0,.28,0,.42v3.21H153V38.61Z"
            transform="translate(-5.33 -19.5)" />
        <path d="M159.4,42.79h1.25V39.33l-1.13.72v-.65l1.18-.79h.73v4.18h1.06v.63H159.4Z"
            transform="translate(-5.33 -19.5)" />
        <path
            d="M166.39,41a3.36,3.36,0,0,1-.42,1.85,1.4,1.4,0,0,1-1.25.63q-1.65,0-1.64-2.48a4.48,4.48,0,0,1,.18-1.4,1.6,1.6,0,0,1,.54-.81,1.55,1.55,0,0,1,.94-.26,1.38,1.38,0,0,1,1.24.61A3.44,3.44,0,0,1,166.39,41Zm-.79,0a5.36,5.36,0,0,0-.09-1.08,1.2,1.2,0,0,0-.27-.59.66.66,0,0,0-.5-.19.69.69,0,0,0-.68.43,3.66,3.66,0,0,0-.2,1.43,3.64,3.64,0,0,0,.2,1.41.71.71,0,0,0,1.32,0A3.54,3.54,0,0,0,165.6,41Z"
            transform="translate(-5.33 -19.5)" />
    </g>
    <g class="step6-8">
        <path
            d="M192,85.79a1.52,1.52,0,0,1-.2.79,1.37,1.37,0,0,1-.59.53,2.06,2.06,0,0,1-.92.19h-.72v1.82h-.83V84.31h1.52a2,2,0,0,1,1.29.38A1.35,1.35,0,0,1,192,85.79Zm-.83,0a.84.84,0,0,0-.25-.65,1.08,1.08,0,0,0-.76-.23h-.59v1.8h.62a1,1,0,0,0,.72-.24A.88.88,0,0,0,191.18,85.79Z"
            transform="translate(-5.33 -19.5)" />
        <path
            d="M194,84.31l1.15,2.83q.09.21.37,1,.1-.33.38-1L197,84.31h1.12v4.82h-.75V85.93q0-.21,0-.43c0-.14,0-.29,0-.43l-.13.36L197,86l-1.22,3.1h-.63L193.91,86q-.2-.51-.33-.91,0,.21,0,.42c0,.14,0,.28,0,.42v3.21h-.75V84.31Z"
            transform="translate(-5.33 -19.5)" />
        <path
            d="M199,89.13v-.55a3.28,3.28,0,0,1,.48-.78,6.29,6.29,0,0,1,.84-.82,5.15,5.15,0,0,0,.83-.81,1,1,0,0,0,.2-.56.72.72,0,0,0-.2-.54.75.75,0,0,0-.55-.19.73.73,0,0,0-.78.73l-.79-.05a1.45,1.45,0,0,1,.48-1,1.59,1.59,0,0,1,1.08-.35,1.72,1.72,0,0,1,1.15.35,1.23,1.23,0,0,1,.41,1,1.36,1.36,0,0,1-.12.56,2.14,2.14,0,0,1-.34.52,6.07,6.07,0,0,1-.72.66,3.85,3.85,0,0,0-1.09,1.15h2.35v.66Z"
            transform="translate(-5.33 -19.5)" />
        <path d="M203,89.13v-.9h.82v.9Z" transform="translate(-5.33 -19.5)" />
        <path
            d="M207.87,87.54a1.61,1.61,0,0,1-.46,1.21,1.74,1.74,0,0,1-1.26.44,1.71,1.71,0,0,1-1.07-.31,1.4,1.4,0,0,1-.5-.9l.79-.07a1.07,1.07,0,0,0,.17.39.64.64,0,0,0,.26.19,1,1,0,0,0,.39.07.82.82,0,0,0,.65-.26,1.11,1.11,0,0,0,.23-.75,1,1,0,0,0-.22-.67.78.78,0,0,0-.61-.25,1,1,0,0,0-.75.32h-.75l.15-2.65h2.71V85h-2l-.08,1.33a1.6,1.6,0,0,1,2,.13A1.58,1.58,0,0,1,207.87,87.54Z"
            transform="translate(-5.33 -19.5)" />
    </g>
    <g class="step6-8">
        <path
            d="M184,41.87a1.3,1.3,0,0,1-.44,1.06,1.93,1.93,0,0,1-1.27.37,1.86,1.86,0,0,1-1.15-.32,1.52,1.52,0,0,1-.55-1l.77-.13a.89.89,0,0,0,1,.78q.87,0,.87-.75a.66.66,0,0,0-.09-.35.7.7,0,0,0-.24-.23,1.56,1.56,0,0,0-.35-.16l-.44-.13a2.88,2.88,0,0,1-.81-.33,1.18,1.18,0,0,1-.39-.44,1.43,1.43,0,0,1-.13-.66,1.17,1.17,0,0,1,.4-.94,1.69,1.69,0,0,1,1.12-.34,1.83,1.83,0,0,1,1.07.27,1.43,1.43,0,0,1,.53.85l-.78.14a.77.77,0,0,0-.82-.66.76.76,0,0,0-.53.17.6.6,0,0,0-.19.47.64.64,0,0,0,.08.34.72.72,0,0,0,.25.23,3.47,3.47,0,0,0,.65.25,4.75,4.75,0,0,1,.8.31,1.38,1.38,0,0,1,.38.29,1.09,1.09,0,0,1,.21.37A1.53,1.53,0,0,1,184,41.87Z"
            transform="translate(-5.33 -19.5)" />
        <path
            d="M189.16,40.79a3,3,0,0,1-.28,1.33,2,2,0,0,1-.8.87,2.45,2.45,0,0,1-1.24.3,2.2,2.2,0,0,1-1.71-.66,2.62,2.62,0,0,1-.6-1.84,2.54,2.54,0,0,1,.61-1.81,2.24,2.24,0,0,1,1.71-.64,2.22,2.22,0,0,1,1.71.65A2.55,2.55,0,0,1,189.16,40.79Zm-.85,0a2.07,2.07,0,0,0-.37-1.33,1.31,1.31,0,0,0-1.09-.47,1.33,1.33,0,0,0-1.1.46,2.07,2.07,0,0,0-.38,1.33,2.14,2.14,0,0,0,.38,1.35,1.3,1.3,0,0,0,1.09.49,1.32,1.32,0,0,0,1.1-.47A2.17,2.17,0,0,0,188.31,40.79Z"
            transform="translate(-5.33 -19.5)" />
        <path
            d="M189.81,43.22v-.55a3.28,3.28,0,0,1,.48-.78,6.29,6.29,0,0,1,.84-.82,5.15,5.15,0,0,0,.83-.81,1,1,0,0,0,.2-.56.72.72,0,0,0-.2-.54.75.75,0,0,0-.55-.19.73.73,0,0,0-.78.73l-.79-.05a1.45,1.45,0,0,1,.48-1,1.59,1.59,0,0,1,1.08-.35,1.72,1.72,0,0,1,1.15.35,1.23,1.23,0,0,1,.41,1,1.36,1.36,0,0,1-.12.56,2.14,2.14,0,0,1-.34.52,6.07,6.07,0,0,1-.72.66,3.85,3.85,0,0,0-1.09,1.15h2.35v.66Z"
            transform="translate(-5.33 -19.5)" />
    </g><text x="-5.33" y="-19.5"></text>
    <path
        d="M36.49,140.27l.53.06h3.66v-3H38.27l-.47,0-.28-.31.64.06h5.44a3.7,3.7,0,0,1,.7-.78c.06,0,.16,0,.28.13l.31.27.38.32c.11.1.16.16.13.2s-.08.06-.17.06h-3a.38.38,0,0,1-.23.24v2.77h2.23l.67-.81c.08-.1.15-.15.2-.15s.13,0,.25.13l.42.35q.23.2.38.37c.1.11.14.19.13.24s-.07.08-.16.08h-9l-.38,0ZM38,132.89h6.5a2.17,2.17,0,0,1,.47-.48.42.42,0,0,1,.21.05q.34.2.91.62t.38.54a.52.52,0,0,1-.32.12l-.42,0a2,2,0,0,0-1.2.38l-.24.16a.1.1,0,0,1-.13,0s0-.09,0-.17l.11-.28.15-.32.15-.39h-6.5a2.42,2.42,0,0,1,.09.48,1.18,1.18,0,0,1-.11.49.94.94,0,0,1-.79.66q-.58.07-.69-.28a1,1,0,0,1,0-.57.74.74,0,0,1,.15-.28c.06-.07.21-.21.44-.41a1,1,0,0,0,.38-.64l0-.24c0-.14.06-.15.17,0A2.08,2.08,0,0,1,38,132.89Zm2.65,1.75q-.58.44-1.59,1.12a11.38,11.38,0,0,1-1.64,1l-.29.13a.4.4,0,0,1-.17.06.06.06,0,0,1-.05-.05s0-.1.16-.21l.13-.12.29-.26a10.42,10.42,0,0,0,1-1.18,11.85,11.85,0,0,0,.87-1.23l.15-.26.11-.2s.08,0,.17.06a1.92,1.92,0,0,0,.29.16c.16.08.37.19.64.36a1.68,1.68,0,0,1,.47.35c0,.08.06.13,0,.18A2.12,2.12,0,0,1,40.68,134.64Zm-.15-3.53-.17-.16c-.09-.07-.07-.12,0-.14l.51.08a2.29,2.29,0,0,1,.86.35.85.85,0,0,1,.41.78.86.86,0,0,1-.13.45.94.94,0,0,1-.37.3.65.65,0,0,1-.56,0,.52.52,0,0,1-.24-.15.86.86,0,0,1-.13-.21.66.66,0,0,1,0-.3l0-.31a1.2,1.2,0,0,0-.07-.37A.91.91,0,0,0,40.53,131.1Zm1.67,3.29-.4-.17c-.06,0-.08-.05-.07-.1s.2-.07.57-.08q.31,0,1.18.08a2,2,0,0,1,1.33.55,1.84,1.84,0,0,1,.54.84.69.69,0,0,1-.13.62.6.6,0,0,1-.52.23.71.71,0,0,1-.41-.15,6.45,6.45,0,0,1-.73-.81A3.6,3.6,0,0,0,42.2,134.39Z"
        transform="translate(-5.33 -19.5)" />
    <path
        d="M50.37,132.71h5a5.2,5.2,0,0,1,.85-.9.39.39,0,0,1,.23.1,5.61,5.61,0,0,1,.76.7c.1.14.15.22.13.25s-.05,0-.11,0h-7a13.27,13.27,0,0,1-2.41,2.43l-.28.2c-.05,0-.09,0-.13,0s0-.08,0-.15l.24-.3a8.17,8.17,0,0,0,.91-1.44,12.84,12.84,0,0,0,.58-1.39q.24-.68.32-1l.1-.37,0-.16q0-.09.16,0a6.16,6.16,0,0,0,.69.24,3,3,0,0,1,.77.32c.12.09.18.16.18.2a.16.16,0,0,1-.07.13,2,2,0,0,1-.35.16Q50.71,132.23,50.37,132.71ZM48,135.36l.68.05h5.47l.27-.38a.43.43,0,0,1,.17-.17.42.42,0,0,1,.24,0l.47.25a4.43,4.43,0,0,1,.49.29c.07.05.1.11.09.16s-.14.17-.39.36c0,.14,0,.29,0,.46a7.19,7.19,0,0,0,0,.9,5.39,5.39,0,0,0,.18,1.22,1.37,1.37,0,0,0,.44.7q.3.24.44.2c.08,0,.17-.12.27-.31s.17-.34.2-.43l.18-.48a.07.07,0,0,1,.08-.05s.06,0,0,.13l-.08.47a2.58,2.58,0,0,0-.06.54,1.56,1.56,0,0,0,.06.39,1.67,1.67,0,0,0,.17.38,1.62,1.62,0,0,1,.15.32.37.37,0,0,1,0,.25A.58.58,0,0,1,57,141a2.18,2.18,0,0,1-1.25-.36,2.43,2.43,0,0,1-1-1,4,4,0,0,1-.39-1.24,11.66,11.66,0,0,1-.1-1.48l0-1.27H48.78l-.49,0Zm2-1.27h4.44l.23-.25.42-.47a.26.26,0,0,1,.13-.1s.1,0,.19.1A7.13,7.13,0,0,1,56,134c.1.13.15.21.14.24s0,.05-.11.05h-6l-.52,0-.28-.29Z"
        transform="translate(-5.33 -19.5)" />
    <path
        d="M58.87,133.57a2.38,2.38,0,0,1,1,.33,1,1,0,0,1,.35.56.62.62,0,0,1-.17.61.68.68,0,0,1-.6.22.45.45,0,0,1-.35-.15.65.65,0,0,1-.1-.33l0-.3a1.71,1.71,0,0,0-.12-.38.71.71,0,0,0-.24-.31l-.1-.06a.1.1,0,0,1,0-.12s.06-.08.13-.08Zm2.63-.9.1-.25c0-.09.07-.12.12-.1s.06.11,0,.26l-.25.88-.16.47q-.13.41-.4,1.51t-.39,1.64a4,4,0,0,0-.11.95,2.39,2.39,0,0,0,.1.64l.19.64a2,2,0,0,1,.06.45.81.81,0,0,1-.23.56.76.76,0,0,1-.53.2.7.7,0,0,1-.51-.17.59.59,0,0,1-.21-.35,2.28,2.28,0,0,1,0-.57q0-.64,0-.83a1.17,1.17,0,0,0-.47-1l-.23-.13c-.06,0-.09-.07-.08-.11s0-.07.08-.07l.32,0a.5.5,0,0,0,.41-.11,4.81,4.81,0,0,0,.5-.83q.37-.7,1-2.2Zm-2.28-1.5-.1,0c-.07,0-.11-.07-.1-.11s0-.07.06-.08l.23,0a2.42,2.42,0,0,1,1.15.13q.56.2.64.55a1.11,1.11,0,0,1,0,.56.67.67,0,0,1-.69.49q-.27,0-.31-.06l-.25-.29a5.8,5.8,0,0,0-.25-.69A.81.81,0,0,0,59.22,131.17Zm4.65,5H66q.31-.42.4-.44a.58.58,0,0,1,.32.09l.3.14.47.28c.13.07.2.13.2.17s-.09.21-.3.32q-.06.51-.13.9t-.24,1.08a4.13,4.13,0,0,1-.39,1,1.8,1.8,0,0,1-.53.57,2.19,2.19,0,0,1-1,.28,1.81,1.81,0,0,1-.75,0,.1.1,0,0,1,0-.06l-.09-.39a1.07,1.07,0,0,0-.56-.64l-.28-.16c-.09,0-.13-.09-.11-.13s.08-.06.16,0l.72.1q1,.15,1.27-.21a3.83,3.83,0,0,0,.41-1.14,9.52,9.52,0,0,0,.21-1.12l0-.43H63.91a2.13,2.13,0,0,1-.69.44q-.11,0-.31-.19t-.44-.39c-.16-.13-.23-.22-.23-.28s0-.06.15-.13l.37-.23.49-1.18H62.19l-.56,0-.26-.3.74.06h4.64l.24-.28.32-.44c.08-.1.14-.15.19-.15a.59.59,0,0,1,.17.14l.33.35.31.35c.08.09.1.15.08.18s-.08.05-.18.05H64.81c-.06.11-.09.17-.11.17l-.23.1ZM66,131.87q.57-.85.71-.85t.53.49l.24.29c.08.1.11.17.09.21s-.07.06-.14.06H62.76l-.57,0-.25-.31.73.06Z"
        transform="translate(-5.33 -19.5)" />
    <path
        d="M73.76,137.11V137l-.05-1a.13.13,0,0,1,.1,0,4.1,4.1,0,0,1,1,.11q.42.11.47.19c0,.1-.06.21-.3.33v.55h2.48q.44-.58.55-.69a.32.32,0,0,1,.18-.12s.13,0,.24.13q.52.47.63.61c.08.09.11.16.1.21s0,.08-.07.08H75.26a3.1,3.1,0,0,0,.67.81,4.32,4.32,0,0,0,1.26.67,5.31,5.31,0,0,0,1.88.32h.3a.15.15,0,0,1,.14.08s0,.09-.11.13l-.25.1a1.19,1.19,0,0,0-.44.3,1.52,1.52,0,0,0-.25.37,2.31,2.31,0,0,0-.11.28.86.86,0,0,1-.08.18q0,.09-.27,0l-.41-.17a3.77,3.77,0,0,1-1.52-1,6.84,6.84,0,0,1-.69-1,2.55,2.55,0,0,1-.25-.61l-.11-.4H75v2l0,1.13a.74.74,0,0,1-.13.24q-.1.13-.71.12c-.21,0-.33,0-.38-.08a.39.39,0,0,1-.09-.18l.06-1.22v-1.2a8,8,0,0,1-2.3,1.71,13,13,0,0,1-1.55.64l-.33.1a.1.1,0,0,1-.13,0s0-.09.05-.13l.32-.18.43-.24q.18-.11.7-.5a6.23,6.23,0,0,0,1-.91,9.38,9.38,0,0,0,.86-1.21H70.19l-.44,0-.34-.31.72.06Zm-3.65-4.3-.17-.12c-.06,0-.09-.06-.1-.09a.4.4,0,0,1,0-.09s0-.07.12-.08a1.61,1.61,0,0,1,.32,0l.34,0a1.2,1.2,0,0,1,.67.34.88.88,0,0,1,.21.53.62.62,0,0,1-.17.48.59.59,0,0,1-.44.2.4.4,0,0,1-.35-.12.36.36,0,0,1-.09-.18,2.87,2.87,0,0,1,0-.3,1.54,1.54,0,0,0-.08-.33A.76.76,0,0,0,70.11,132.81Zm2.83-.76.29-.46c.06-.09.11-.12.16-.09s.06.08,0,.16l-.24.52-.38.74-.37.75-.39.77a3.23,3.23,0,0,0-.37,1.05,1.41,1.41,0,0,0,0,.46,1.9,1.9,0,0,1,.05.43.62.62,0,0,1-.19.36.66.66,0,0,1-.56.18.59.59,0,0,1-.45-.15.51.51,0,0,1-.16-.32,1.77,1.77,0,0,1,0-.41c0-.16,0-.27,0-.34a.91.91,0,0,0,0-.28.81.81,0,0,0-.3-.38l-.19-.13c-.11-.06-.14-.12-.11-.16a.17.17,0,0,1,.17,0l.33.08a.75.75,0,0,0,.62-.16,5.58,5.58,0,0,0,1-1.21Q72.69,132.43,72.93,132Zm-2-.83-.18-.13-.11,0-.11-.06a.11.11,0,0,1,0-.11s.11-.07.3-.06q.75.06,1.24.16t.48.73a.68.68,0,0,1-.2.45.67.67,0,0,1-.48.21.48.48,0,0,1-.27,0,.29.29,0,0,1-.14-.14c0-.05-.06-.18-.12-.38A1.2,1.2,0,0,0,70.94,131.22Zm2.83,1.67-.48.05-.29-.29.73,0,.53,0,0-.56v-.26l0-.29,0-.35,0-.26a.14.14,0,0,1,0-.1.16.16,0,0,1,.11,0,4.11,4.11,0,0,1,.88.11q.59.12.6.2c0,.05,0,.12-.11.19l-.18.15-.06,1.18.79,0q.24-.42.39-.45a.5.5,0,0,1,.21.05l.48.2q.48.25.49.39t-.38.33l-.11,1.5a.42.42,0,0,0,0,.3c0,.06.15.09.32.09a1.07,1.07,0,0,0,.74-.15,1.25,1.25,0,0,0,.3-.41,2.86,2.86,0,0,0,.16-.44l.12-.54c0-.07,0-.11.1-.1s.07,0,.06.13l-.05.45q0,.24,0,.39a.66.66,0,0,0,0,.21.49.49,0,0,0,.15.28l.14.15a.84.84,0,0,1,.13.32q0,.2-.24.45a2.26,2.26,0,0,1-1.42.3,4.65,4.65,0,0,1-1.07-.09.81.81,0,0,1-.47-.29.79.79,0,0,1-.11-.55l.15-2.34-.93.05q-.06.54-.13.9a6.11,6.11,0,0,1-.46,1.2q-.39.83-2.31,1.39l-.41.12c-.07,0-.12,0-.13-.06s0-.11.1-.16l.35-.16a2.6,2.6,0,0,0,.49-.33,4.58,4.58,0,0,0,.67-.66,2.35,2.35,0,0,0,.48-1q.13-.63.16-.81l0-.37Z"
        transform="translate(-5.33 -19.5)" />
    <path
        d="M84.61,133.89l-.1,0H83.39V136l1.33-.3.3-.09c.1,0,.16,0,.19,0s0,.09-.09.13l-.35.19-1.37.75V139l0,1.22a.71.71,0,0,1-.12.27c-.06.1-.24.15-.52.17a1,1,0,0,1-.48,0,.28.28,0,0,1-.08-.12l.06-1.48v-1.91l-.26.15-.42.23-.37.2-.25.14c-.06,0-.11,0-.12,0a.65.65,0,0,1-.08-.21l-.34-1a.57.57,0,0,1,0-.18s0,0,.13-.05l.23,0q.69-.06,1.53-.21v-2.3h-.53a8,8,0,0,1-.73,1.72l-.2.33-.16.23c-.07.1-.11.07-.13-.09l.1-.37.08-.46q0-.18.05-.61l0-.71q0-.52,0-.81l0-.44v-.38l0-.19a.14.14,0,0,1,.09-.06l.1,0,.29,0a4.38,4.38,0,0,1,.59.11q.37.09.38.23c0,.08-.05.14-.16.17s-.07.25-.09.32l-.08.35-.1.37h.48V132l-.05-1.11.15,0a4.31,4.31,0,0,1,1.22.21.33.33,0,0,1,.12.16c0,.11-.11.22-.34.31v2.13l.38-.58a.22.22,0,0,1,.17-.1q.1,0,.33.26a5.15,5.15,0,0,1,.39.48,10.34,10.34,0,0,0,.41-1.09q.17-.53.23-.81c0-.19.07-.36.09-.53l0-.32a.17.17,0,0,1,0-.11s.06,0,.14,0q.83.2,1.18.32t.35.23a.2.2,0,0,1-.11.18l-.26.16-.25.42-.3.57-.29.46h3l.2-.3c.06-.09.1-.13.14-.15a.36.36,0,0,1,.2.06l.35.16a5.38,5.38,0,0,1,.48.29c.22.14.32.25.32.33s-.12.19-.31.28q-.1,1.32-.2,2.52a19.06,19.06,0,0,1-.33,2.28,2,2,0,0,1-.79,1.41,2.42,2.42,0,0,1-.94.36q-.38,0-.42,0a.14.14,0,0,1,0-.1l-.06-.25a1,1,0,0,0-.57-.62l-.34-.16-.12-.06a.12.12,0,0,1,0-.07s0-.05.11-.05l.33,0,.34,0a2,2,0,0,0,.53,0,.72.72,0,0,0,.56-.37,3.46,3.46,0,0,0,.34-1q.15-.7.26-1.77t.13-1.44l.05-1.18h-.44c.16.11.25.2.24.27s-.06.13-.17.17q-.09.29-.41,1.64a5.45,5.45,0,0,1-.89,2.07,5.61,5.61,0,0,1-1.33,1.22,6.8,6.8,0,0,1-1.79.82l-.39.12-.17,0a.09.09,0,0,1-.06,0,.16.16,0,0,1,0-.06s.05-.06.17-.12l.39-.18a5.31,5.31,0,0,0,1.21-.88,5.37,5.37,0,0,0,1.2-1.56,7.46,7.46,0,0,0,.67-1.93q.21-1,.23-1.25l0-.33h-.32l.08.09a.15.15,0,0,1,0,.12s-.11.12-.28.22A10.86,10.86,0,0,1,86.3,136a4.66,4.66,0,0,1-1,1.36,6.25,6.25,0,0,1-1,.81l-.4.24a.69.69,0,0,1-.21.1l-.06,0a.07.07,0,0,1,0-.08l.14-.13.33-.34a5.35,5.35,0,0,0,1.44-2.5q.32-1.34.4-2H85.8a12.1,12.1,0,0,1-.77,1.05,6.12,6.12,0,0,1-.87.83l-.28.23q-.12.1-.18.09s-.06,0-.07,0,0,0,0,0l.1-.15.23-.32A10.65,10.65,0,0,0,84.61,133.89Z"
        transform="translate(-5.33 -19.5)" />
    <path
        d="M95.68,140.15v-3.27H93.09l-.56,0-.27-.31.73.06h2.7v-3H92.45l-.54,0-.29-.31.73.06H99l.48-.64q.29-.39.39-.41a.47.47,0,0,1,.29.12q.32.26.68.6t.33.44c0,.06-.08.1-.18.1H97.21a.57.57,0,0,1-.21.24v2.73h1.5L99,136q.23-.31.32-.32a.52.52,0,0,1,.28.12,7.06,7.06,0,0,1,.67.6c.21.21.3.34.28.4s-.08.08-.18.08H97v3.27h2.35l.44-.58q.29-.39.39-.4a.52.52,0,0,1,.29.12,5.77,5.77,0,0,1,.64.57c.22.23.32.37.3.42s-.08.08-.18.08h-9l-.61,0-.27-.31.82.08Zm-.81-9c-.09-.06-.12-.11-.1-.15s.08-.06.2-.05c.52.07.95.15,1.28.22a1.07,1.07,0,0,1,.74.58,1.47,1.47,0,0,1,.2.84,1.08,1.08,0,0,1-.29.59.8.8,0,0,1-.68.21.68.68,0,0,1-.51-.19.76.76,0,0,1-.19-.47v-.3a3.26,3.26,0,0,0-.1-.57,1,1,0,0,0-.39-.58Z"
        transform="translate(-5.33 -19.5)" />
    <path
        d="M104.89,135.22v.2c0,.19-.13.31-.4.37a1.8,1.8,0,0,1-.61.05.27.27,0,0,1-.19-.06.27.27,0,0,1,0-.13l0-.81v-1.36l0-.92,0,0,.17,0,1.11.4h.93v-1.17h-2.36l-.48,0-.32-.29.59.06h7.21q.48-.58.6-.75c.08-.11.15-.17.2-.17a.39.39,0,0,1,.13.1l.35.3a5.71,5.71,0,0,1,.45.4q.19.19.16.26s-.09.07-.2.06h-3a1,1,0,0,1-.21.25V133h.93c.23-.36.38-.54.45-.56a2.17,2.17,0,0,1,.75.31q.6.32.61.43s-.13.17-.38.39v1l0,.79q-.22.38-1.05.37c-.12,0-.2,0-.22-.05a.24.24,0,0,1,0-.14v-.24h-3a7.9,7.9,0,0,1,1,.4.2.2,0,0,1,.1.19q0,.11-.46.22a8.43,8.43,0,0,0-.64.82h3.63a4.58,4.58,0,0,1,.81-.91l.41.32a6.21,6.21,0,0,1,.54.48c.11.11.15.19.13.24s-.09.06-.2.06H110q.3.18.3.29c0,.08-.12.13-.34.18L109,138.6a6.32,6.32,0,0,1,1.68.58,1.05,1.05,0,0,1,.61,1,.73.73,0,0,1-.19.52.6.6,0,0,1-.43.18.73.73,0,0,1-.43-.1,5,5,0,0,1-.66-.57,4.43,4.43,0,0,0-1.32-.83,7.36,7.36,0,0,1-1.5.87,8.5,8.5,0,0,1-3.25.44h-.41a.08.08,0,0,1-.08-.07s0-.08.13-.12h.16l.26,0a9.05,9.05,0,0,0,1.58-.39,5.86,5.86,0,0,0,1.91-1.09,4.28,4.28,0,0,0-1.3-.21l-.35,0-.31,0q-.63,0-.74-.15a.36.36,0,0,1-.07-.27s.05-.09.14-.16a4.67,4.67,0,0,0,.45-.49q.32-.38.54-.68h-2.28l-.6,0-.25-.29.66.06h2.6a7.31,7.31,0,0,0,1-1.63Zm0-.21h1v-1.85h-1Zm1,3.44a13.13,13.13,0,0,1,1.69,0,6.55,6.55,0,0,0,.9-1.4H107Zm2-6.65h-.75a.47.47,0,0,1-.17.18v1h.92ZM107,135h.92v-1.83H107Zm2,0h1.08v-1.83H109Z"
        transform="translate(-5.33 -19.5)" />
    <path
        d="M117.59,131.78q-.42.6-.82,1.11h4l.2-.32a.4.4,0,0,1,.16-.17.43.43,0,0,1,.25,0,4.43,4.43,0,0,1,.91.46q.21.17.23.23c0,.07-.13.19-.38.34q0,.67,0,1.9a9.28,9.28,0,0,1-.18,1.88,2.47,2.47,0,0,1-.39.93,2,2,0,0,1-.71.52,1.59,1.59,0,0,1-.79.19.19.19,0,0,1-.11,0,.17.17,0,0,1-.06-.09l-.12-.39a.71.71,0,0,0-.52-.46l-.26-.08q-.13,0-.11-.1s0-.07.11-.07l.29,0a2,2,0,0,0,.9-.07,1,1,0,0,0,.49-.51,2.58,2.58,0,0,0,.2-1q0-.63,0-.79v-2.22H116.6a12.5,12.5,0,0,1-1,1.12l1,.43H118a1.81,1.81,0,0,1,.39-.49.53.53,0,0,1,.29.08q1,.46,1,.59c0,.07-.13.19-.38.34v1.11l.05.88a.59.59,0,0,1-.21.23,1.38,1.38,0,0,1-.68.08c-.21,0-.31-.08-.31-.24v-.33h-1.58v2a1,1,0,0,0,.17.53q.17.28,2.71.28a6.57,6.57,0,0,0,2.33-.23,1.52,1.52,0,0,0,.66-.53,4.62,4.62,0,0,0,.33-.72l.21-.6c0-.08.07-.12.12-.13s.08,0,.07.11l-.11.77a1.65,1.65,0,0,0,0,.62.67.67,0,0,0,.19.32l.16.15q.26.3-.09.69a1.94,1.94,0,0,1-.85.49,10.18,10.18,0,0,1-2.57.18,14,14,0,0,1-3.65-.25,1.54,1.54,0,0,1-.72-.51,1.52,1.52,0,0,1-.13-.77v-4.82a8,8,0,0,1-1.3,1.19l-.29.2a1.18,1.18,0,0,1-.3.18c-.05,0-.08,0-.09,0a.19.19,0,0,1,0-.12l.2-.25.3-.37a11.09,11.09,0,0,0,1.12-1.75,12.63,12.63,0,0,0,.92-2.12l.12-.38a.28.28,0,0,1,.06-.13.18.18,0,0,1,.11,0q1.46.43,1.58.49c.08,0,.13.08.13.12S117.88,131.68,117.59,131.78Zm-1,4.89h1.57v-1.82h-1.58Z"
        transform="translate(-5.33 -19.5)" />
    <path
        d="M125.9,133.17v-1l-.06-1.24c0-.06.06-.09.14-.09l.59.07a2.34,2.34,0,0,1,.61.13q.16.07.16.13a.17.17,0,0,1,0,.11,1.23,1.23,0,0,1-.29.23v1.62h.29q.46-.62.61-.62a2.74,2.74,0,0,1,.45.35q.4.34.37.41a.11.11,0,0,1-.11.07H127v1.7q.71-.19.9-.27l.4-.15c.08,0,.13,0,.15,0s0,.08,0,.11l-.4.28-.66.43-.34.25v4.09a.76.76,0,0,1-.09.4.83.83,0,0,1-.42.26,2.18,2.18,0,0,1-.76.12h-.11l-.05,0a.47.47,0,0,1,0-.2.68.68,0,0,0-.12-.36.91.91,0,0,0-.35-.29l-.33-.15c-.09,0-.13-.07-.12-.11s.06-.05.15,0l.45.05q.5.06.59,0a.44.44,0,0,0,.08-.29v-2.61l-.86.67-.17.14q-.1,0-.12-.13l-.24-1.34a.83.83,0,0,1,0-.1.06.06,0,0,1,0,0h.12l.41-.09a8.61,8.61,0,0,0,.84-.23v-2h-.7l-.43,0-.26-.29.59,0Zm4.3,1q0-1,.09-1.82l-2,0h-.49c-.12,0-.19,0-.2-.08s0-.1.13-.12l.4-.08a24.68,24.68,0,0,0,3.88-1l.35-.14.13-.08s.11,0,.18.05a1.73,1.73,0,0,0,.23.2l.53.46.45.42c.06.07.09.12.08.16a.09.09,0,0,1-.1,0l-.45,0h-1.64a.36.36,0,0,1,0,.12,1.58,1.58,0,0,1-.32.26l-.13,1.46h1.53l.44-.57c.1-.14.17-.21.22-.22s.13,0,.25.11.29.27.48.47.28.32.26.35-.05.05-.11.05h-3.09l-.18,2h1.05a1.88,1.88,0,0,1,.4-.48,2,2,0,0,1,.69.28q.58.3.6.4t-.26.35v2.31l0,.73a.54.54,0,0,1-.14.24,1,1,0,0,1-.57.15c-.31,0-.49,0-.53,0a.48.48,0,0,1-.07-.31v-.52h-2.91v.63a.59.59,0,0,1-.06.27q-.06.13-.51.17a1.06,1.06,0,0,1-.52,0,.32.32,0,0,1-.11-.16l0-1.11V137l0-1.16s.11,0,.23,0l1.05.55h.6l.1-2h-2.07l-.39,0-.26-.29.59.05Zm-.74,5.16h2.9v-2.71h-2.91Z"
        transform="translate(-5.33 -19.5)" />
    <path
        d="M138.57,139.1v.39h-3.42v-.39h.73A.23.23,0,0,0,136,139a.31.31,0,0,0,.08-.14,1.29,1.29,0,0,0,0-.29v-6.1a.53.53,0,0,0,0-.27.22.22,0,0,0-.12-.1.81.81,0,0,0-.22,0h-.58v-.38h4a3.51,3.51,0,0,1,.61,0,4.33,4.33,0,0,1,.6.16,1.67,1.67,0,0,1,.62.38,1.5,1.5,0,0,1,.41.6,2,2,0,0,1,.12.63,3,3,0,0,1,0,.44,3.16,3.16,0,0,1-.2.63,1.65,1.65,0,0,1-.48.65,2.24,2.24,0,0,1-.68.4,2.61,2.61,0,0,1-.56.15l-.56,0h-1.36v2.77a1.64,1.64,0,0,0,0,.26.32.32,0,0,0,.06.14.23.23,0,0,0,.13.08l.22,0Zm-.95-3.74h.68a2.65,2.65,0,0,0,.59-.06,1.19,1.19,0,0,0,.47-.21,1.09,1.09,0,0,0,.31-.42,1.82,1.82,0,0,0,.16-.6q0-.32,0-.58a1.66,1.66,0,0,0-.1-.57,1.55,1.55,0,0,0-.25-.41,1.11,1.11,0,0,0-.42-.31,1.78,1.78,0,0,0-.69-.11h-.77Z"
        transform="translate(-5.33 -19.5)" />
    <path
        d="M147.24,131.88h2.66v.25h-.19a.6.6,0,0,0-.21,0,.59.59,0,0,0-.17.1.49.49,0,0,0-.13.21.89.89,0,0,0-.05.32v5.69a1.65,1.65,0,0,0,0,.35.39.39,0,0,0,.08.17.33.33,0,0,0,.17.09l.24,0h.19v.37h-3v-.37h.19l.27,0a.25.25,0,0,0,.15-.08.56.56,0,0,0,.08-.24,1.69,1.69,0,0,0,0-.29v-6.25l-1.92,7.25h-.44l-1.94-6.91v5.82a3.53,3.53,0,0,0,0,.4.39.39,0,0,0,.11.23.5.5,0,0,0,.36.1h.46v.37H142.1v-.37h.24l.26,0a.31.31,0,0,0,.18-.1.42.42,0,0,0,.09-.21,2.58,2.58,0,0,0,0-.39V133a3.28,3.28,0,0,0,0-.43.55.55,0,0,0-.1-.25.48.48,0,0,0-.2-.16.62.62,0,0,0-.25-.05h-.26v-.25h2.47l1.39,4.94Z"
        transform="translate(-5.33 -19.5)" />
    <path
        d="M155.1,137.56l-.19,2h-4.28v-.18a2.64,2.64,0,0,1,.06-.41l.06-.33a3.34,3.34,0,0,1,.1-.39c.05-.18.1-.32.15-.44a3,3,0,0,1,.2-.42,4.1,4.1,0,0,1,.37-.54l.36-.43.46-.46a5.68,5.68,0,0,0,.55-.6,2.69,2.69,0,0,0,.34-.58,3,3,0,0,0,.18-.55,2.58,2.58,0,0,0,.05-.54,2,2,0,0,0-.09-.54,1.21,1.21,0,0,0-.23-.41,1.12,1.12,0,0,0-.28-.25,1,1,0,0,0-.26-.1,1.39,1.39,0,0,0-.31,0,1.31,1.31,0,0,0-.38.08.82.82,0,0,0-.3.18.78.78,0,0,0-.16.21.55.55,0,0,0-.05.21.21.21,0,0,0,.09.19.3.3,0,0,0,.15.06l.21,0a.73.73,0,0,1,.32.16.62.62,0,0,1,.14.47.79.79,0,0,1-.82.83.77.77,0,0,1-.6-.23.89.89,0,0,1-.23-.38,1.34,1.34,0,0,1-.07-.49,2.14,2.14,0,0,1,0-.37,1.74,1.74,0,0,1,.17-.47,1.49,1.49,0,0,1,.39-.47,2.16,2.16,0,0,1,.57-.34,1.94,1.94,0,0,1,.49-.15l.36,0a4.14,4.14,0,0,1,.66,0,2.38,2.38,0,0,1,.56.18,1.62,1.62,0,0,1,.5.34,2.19,2.19,0,0,1,.32.41,1.56,1.56,0,0,1,.18.45,2.24,2.24,0,0,1,.06.46c0,.15,0,.27,0,.36a2.5,2.5,0,0,1-.11.48,1.67,1.67,0,0,1-.3.54,2.52,2.52,0,0,1-.45.45q-.24.18-.76.51t-.81.56a4.42,4.42,0,0,0-.49.43,3.37,3.37,0,0,0-.35.44,2.08,2.08,0,0,0-.2.34,2.29,2.29,0,0,0-.09.27.4.4,0,0,0,0,.19s.08,0,.22,0H154l.28,0a.31.31,0,0,0,.17-.09.51.51,0,0,0,.12-.21l.08-.27,0-.21Z"
        transform="translate(-5.33 -19.5)" />
    <path
        d="M158.29,137.92a1,1,0,0,1,.68.27.89.89,0,0,1,.26.65.93.93,0,0,1-.93.91.92.92,0,0,1-.66-.24,1,1,0,0,1,0-1.34A.91.91,0,0,1,158.29,137.92Z"
        transform="translate(-5.33 -19.5)" />
    <path
        d="M162.06,131.81l.18.1.27.14a2.13,2.13,0,0,0,.39.1,4.17,4.17,0,0,0,.74.05h.49a2.85,2.85,0,0,0,.52-.07l.45-.14.3-.13.13-.08.1,0h.1s0,0,0,.12a1,1,0,0,1-.12.27l-.17.29a2.54,2.54,0,0,1-.2.25,2.22,2.22,0,0,1-.78.53,1.5,1.5,0,0,1-.32.09l-.39,0-.35,0-.76-.05-.29,0-.12,2.05.39-.28a1.62,1.62,0,0,1,.4-.2,2.86,2.86,0,0,1,.4-.1l.39,0a3.26,3.26,0,0,1,.52.05,2.32,2.32,0,0,1,.57.17,1.79,1.79,0,0,1,.53.4,1.87,1.87,0,0,1,.38.52,2.33,2.33,0,0,1,.15.48,3,3,0,0,1,.05.49,3.17,3.17,0,0,1,0,.53,2.7,2.7,0,0,1-.23.74,3.44,3.44,0,0,1-.39.61,2.33,2.33,0,0,1-.52.48,2,2,0,0,1-.51.26,2.8,2.8,0,0,1-.44.1,1.85,1.85,0,0,1-.37,0l-.44,0a2.12,2.12,0,0,1-.41-.09,2,2,0,0,1-.35-.17A1.54,1.54,0,0,1,162,139a1.38,1.38,0,0,1-.27-.45,1.46,1.46,0,0,1-.1-.52.94.94,0,0,1,.12-.47.63.63,0,0,1,.33-.29,1.14,1.14,0,0,1,.47-.07.6.6,0,0,1,.44.22.72.72,0,0,1,.18.49.64.64,0,0,1-.13.43,1.7,1.7,0,0,1-.22.2c-.06,0-.1.08-.11.1a.67.67,0,0,0,0,.13.3.3,0,0,0,.13.22.53.53,0,0,0,.23.14,1,1,0,0,0,.34.05,1,1,0,0,0,.37-.05,1,1,0,0,0,.65-.68,3.14,3.14,0,0,0,.17-.75,5.09,5.09,0,0,0,0-.75c0-.12,0-.27,0-.46a1.75,1.75,0,0,0-.12-.49,1.25,1.25,0,0,0-.27-.4,1,1,0,0,0-.38-.25,1.23,1.23,0,0,0-.41-.07,1.86,1.86,0,0,0-.39.05,1.71,1.71,0,0,0-.33.13,1.15,1.15,0,0,0-.27.18.79.79,0,0,0-.16.22.88.88,0,0,1-.1.17.19.19,0,0,1-.11.06.13.13,0,0,1-.12,0,.16.16,0,0,1,0-.13Z"
        transform="translate(-5.33 -19.5)" />
    <path
        d="M167.86,138.52a.15.15,0,0,1,0-.11s.07-.06.18-.08l.28,0,.4.09a3.17,3.17,0,0,1,.5.17,2.7,2.7,0,0,1,.52.28,1.49,1.49,0,0,1,.39.39,1.11,1.11,0,0,1,.18.56.82.82,0,0,1-.21.6.8.8,0,0,1-.6.29.74.74,0,0,1-.58-.2.75.75,0,0,1-.23-.44l-.05-.44a2.15,2.15,0,0,0-.14-.42,1.14,1.14,0,0,0-.18-.31l-.26-.25Z"
        transform="translate(-5.33 -19.5)" />
    <path
        d="M181.16,139.1v.39h-3.42v-.39h.72a.23.23,0,0,0,.14-.07.31.31,0,0,0,.08-.14,1.26,1.26,0,0,0,0-.29v-6.1a.52.52,0,0,0,0-.27.22.22,0,0,0-.12-.1.81.81,0,0,0-.22,0h-.58v-.38h4a3.52,3.52,0,0,1,.61,0,4.37,4.37,0,0,1,.6.16,1.67,1.67,0,0,1,.62.38,1.5,1.5,0,0,1,.41.6,2,2,0,0,1,.12.63,2.91,2.91,0,0,1,0,.44,3.07,3.07,0,0,1-.2.63,1.65,1.65,0,0,1-.48.65,2.24,2.24,0,0,1-.68.4,2.59,2.59,0,0,1-.56.15l-.56,0h-1.36v2.77a1.77,1.77,0,0,0,0,.26.33.33,0,0,0,.06.14.23.23,0,0,0,.13.08l.22,0Zm-.95-3.74h.68a2.64,2.64,0,0,0,.58-.06,1.19,1.19,0,0,0,.47-.21,1.09,1.09,0,0,0,.31-.42,1.82,1.82,0,0,0,.16-.6q0-.32,0-.58a1.67,1.67,0,0,0-.1-.57,1.55,1.55,0,0,0-.25-.41,1.11,1.11,0,0,0-.42-.31,1.79,1.79,0,0,0-.69-.11h-.77Z"
        transform="translate(-5.33 -19.5)" />
    <path
        d="M189.83,131.88h2.66v.25h-.19a.6.6,0,0,0-.21,0,.59.59,0,0,0-.17.1.5.5,0,0,0-.13.21.89.89,0,0,0-.05.32v5.69a1.61,1.61,0,0,0,0,.35.39.39,0,0,0,.08.17.33.33,0,0,0,.17.09l.24,0h.19v.37h-3v-.37h.19l.27,0a.25.25,0,0,0,.15-.08.54.54,0,0,0,.08-.24,1.69,1.69,0,0,0,0-.29v-6.25l-1.92,7.25h-.44l-1.94-6.91v5.82a3.29,3.29,0,0,0,0,.4.38.38,0,0,0,.11.23.5.5,0,0,0,.36.1h.46v.37h-2.15v-.37h.24l.26,0a.3.3,0,0,0,.18-.1.41.41,0,0,0,.09-.21,2.51,2.51,0,0,0,0-.39V133a3.19,3.19,0,0,0,0-.43.55.55,0,0,0-.1-.25.48.48,0,0,0-.2-.16.63.63,0,0,0-.25-.05h-.26v-.25h2.47l1.39,4.94Z"
        transform="translate(-5.33 -19.5)" />
    <path
        d="M193.54,133v-.49h.91a1.89,1.89,0,0,0,.41-.07,1.53,1.53,0,0,0,.41-.19,1.83,1.83,0,0,0,.33-.27l.17-.19h.38v6.42c0,.15,0,.29,0,.42a.58.58,0,0,0,.08.29.34.34,0,0,0,.21.13,1.38,1.38,0,0,0,.34,0h.55v.39h-3.88v-.39h.45a1.85,1.85,0,0,0,.35,0,.41.41,0,0,0,.26-.14.69.69,0,0,0,.1-.32,3.21,3.21,0,0,0,0-.39v-4.5a2,2,0,0,0,0-.33.57.57,0,0,0-.09-.24.28.28,0,0,0-.18-.11l-.32,0Z"
        transform="translate(-5.33 -19.5)" />
    <path
        d="M198.67,135.71c0-.17,0-.35,0-.56s0-.41,0-.58.06-.42.13-.71a3.23,3.23,0,0,1,.35-.9,2.27,2.27,0,0,1,.59-.71,1.67,1.67,0,0,1,.63-.32,2.55,2.55,0,0,1,.54-.06,2.85,2.85,0,0,1,.5.08,1.74,1.74,0,0,1,.57.26,1.7,1.7,0,0,1,.5.55,3.36,3.36,0,0,1,.33.73,6.24,6.24,0,0,1,.17.71,6.59,6.59,0,0,1,.08.69q0,.34,0,.64c0,.2,0,.46,0,.76s-.07.67-.12,1a4.11,4.11,0,0,1-.31,1,2.32,2.32,0,0,1-.58.82,1.76,1.76,0,0,1-.65.39,2.06,2.06,0,0,1-.57.09,1.58,1.58,0,0,1-.49,0,1.51,1.51,0,0,1-.44-.18,2.47,2.47,0,0,1-.48-.39,2.32,2.32,0,0,1-.44-.67,3.59,3.59,0,0,1-.27-.88,6.7,6.7,0,0,1-.1-.87C198.67,136.31,198.67,136,198.67,135.71Zm1.43.81c0,.59,0,1,0,1.13s0,.38,0,.63a1.92,1.92,0,0,0,.09.55.82.82,0,0,0,.21.31.57.57,0,0,0,.42.12.6.6,0,0,0,.41-.15.79.79,0,0,0,.23-.32,2.06,2.06,0,0,0,.1-.42,4.7,4.7,0,0,0,0-.52q0-.26,0-1t0-1.15q0-.4,0-1.25l0-.82c0-.2,0-.36,0-.48a3.55,3.55,0,0,0-.05-.38.87.87,0,0,0-.13-.33.57.57,0,0,0-.24-.2.71.71,0,0,0-.29-.06.81.81,0,0,0-.33.09.58.58,0,0,0-.22.2,1,1,0,0,0-.13.3,2.35,2.35,0,0,0-.07.39q0,.22,0,.67l-.05,1.63C200.11,135.62,200.1,136,200.1,136.52Z"
        transform="translate(-5.33 -19.5)" />
    <path
        d="M205,138.52a.15.15,0,0,1,0-.11s.07-.06.18-.08l.28,0,.4.09a3.17,3.17,0,0,1,.5.17,2.7,2.7,0,0,1,.52.28,1.49,1.49,0,0,1,.39.39,1.11,1.11,0,0,1,.18.56.82.82,0,0,1-.21.6.8.8,0,0,1-.6.29.74.74,0,0,1-.58-.2.75.75,0,0,1-.23-.44l-.05-.44a2.15,2.15,0,0,0-.14-.42,1.14,1.14,0,0,0-.18-.31l-.26-.25Z"
        transform="translate(-5.33 -19.5)" />
    <path
        d="M215.09,135.81c0-.12,0-.26,0-.42s0-.35.05-.59a4,4,0,0,1,.13-.64,3.26,3.26,0,0,1,.27-.63,3.19,3.19,0,0,1,.38-.57,3.54,3.54,0,0,1,.42-.41,3.13,3.13,0,0,1,.51-.34,4,4,0,0,1,.55-.25,2.64,2.64,0,0,1,.51-.13,3.25,3.25,0,0,1,1.28.06,2.89,2.89,0,0,1,.66.25,3.7,3.7,0,0,1,.56.36,3.9,3.9,0,0,1,.49.46,3,3,0,0,1,.42.61,2.91,2.91,0,0,1,.27.76,6.61,6.61,0,0,1,.12.8q0,.39,0,.59c0,.11,0,.25,0,.41s0,.33-.06.52a4,4,0,0,1-.11.54,3.62,3.62,0,0,1-.27.66,2.93,2.93,0,0,1-.44.65,2.59,2.59,0,0,1-.54.45,3.66,3.66,0,0,1-.56.29,3.78,3.78,0,0,1-.47.16l-.45.08-.39,0a2.38,2.38,0,0,1-.46,0,3,3,0,0,1-.54-.13,4.24,4.24,0,0,1-.61-.28,3,3,0,0,1-.6-.41,3.15,3.15,0,0,1-.48-.58,4.08,4.08,0,0,1-.37-.67,3.21,3.21,0,0,1-.18-.6,4.47,4.47,0,0,1-.08-.53C215.1,136.12,215.09,136,215.09,135.81Zm1.59.44c0,.19,0,.39,0,.62a6.51,6.51,0,0,0,.1.71,2.12,2.12,0,0,0,.16.54c.06.12.13.23.19.34a1.62,1.62,0,0,0,.28.33,1.31,1.31,0,0,0,.47.26,1.54,1.54,0,0,0,.55.09l.33,0a1.24,1.24,0,0,0,.39-.11,1.08,1.08,0,0,0,.37-.36,2.3,2.3,0,0,0,.31-.64,4.07,4.07,0,0,0,.15-.67c0-.2,0-.48.05-.83s0-.62,0-.79,0-.46,0-.71,0-.51,0-.77,0-.47-.07-.65a2.44,2.44,0,0,0-.13-.5,2,2,0,0,0-.19-.38,1.16,1.16,0,0,0-.28-.28,1.28,1.28,0,0,0-.41-.2,1.85,1.85,0,0,0-1,0,1.48,1.48,0,0,0-.4.19,1.4,1.4,0,0,0-.43.5,2.57,2.57,0,0,0-.29.81c-.05.3-.09.58-.12.84s0,.6-.06,1S216.68,136.21,216.68,136.25Z"
        transform="translate(-5.33 -19.5)" />
    <path
        d="M225.31,135.62l.44.1a2.44,2.44,0,0,1,.49.19,1.85,1.85,0,0,1,.53.39,1.83,1.83,0,0,1,.35.5,1.64,1.64,0,0,1,.12.64,2.06,2.06,0,0,1-.08.66,2.23,2.23,0,0,1-.38.63,1.62,1.62,0,0,1-.7.51,3.53,3.53,0,0,1-.76.2,3.28,3.28,0,0,1-1,0,2.3,2.3,0,0,1-.42-.1,2.65,2.65,0,0,1-.42-.21,1.24,1.24,0,0,1-.43-.42,1.51,1.51,0,0,1-.21-.45,1.69,1.69,0,0,1,0-.34,1.14,1.14,0,0,1,.1-.45.59.59,0,0,1,.32-.32,1,1,0,0,1,.39-.1.76.76,0,0,1,.53.22.65.65,0,0,1,.22.46.91.91,0,0,1,0,.37.8.8,0,0,1-.28.3l-.18.11-.07.06a.19.19,0,0,0,0,.09s0,.09.09.16a.76.76,0,0,0,.27.22.9.9,0,0,0,.42.07,1.1,1.1,0,0,0,.75-.25,1.34,1.34,0,0,0,.41-.62,2.71,2.71,0,0,0,.12-.84,3.3,3.3,0,0,0-.11-.76,1.26,1.26,0,0,0-.26-.54.71.71,0,0,0-.33-.22,1.81,1.81,0,0,0-.35-.05,1.6,1.6,0,0,0-.37,0,.62.62,0,0,1-.2,0,.23.23,0,0,1-.18-.08.29.29,0,0,1-.07-.18.2.2,0,0,1,.07-.17.36.36,0,0,1,.2-.08l.24,0,.25,0a.39.39,0,0,0,.15,0,.61.61,0,0,0,.18-.1,2.57,2.57,0,0,0,.33-.3,1.63,1.63,0,0,0,.33-.56,2,2,0,0,0,.13-.64,4,4,0,0,0,0-.5,1.87,1.87,0,0,0-.14-.5,1,1,0,0,0-.26-.35,1.19,1.19,0,0,0-.37-.2,1.14,1.14,0,0,0-.37-.07,1.76,1.76,0,0,0-.32.06.69.69,0,0,0-.3.17.27.27,0,0,0-.1.25.19.19,0,0,0,0,.09.3.3,0,0,0,.12.1l.17.12a.74.74,0,0,1,.21.24.81.81,0,0,1,0,.35.65.65,0,0,1-.23.45.84.84,0,0,1-1.07,0,1,1,0,0,1-.24-.36.92.92,0,0,1-.05-.37,1.39,1.39,0,0,1,0-.34,1.08,1.08,0,0,1,.19-.38,2.13,2.13,0,0,1,.35-.37,2.86,2.86,0,0,1,.51-.33,2.21,2.21,0,0,1,1-.14,3.6,3.6,0,0,1,.63.08,1.93,1.93,0,0,1,.6.24,2,2,0,0,1,.47.39,1.7,1.7,0,0,1,.29.46,1.67,1.67,0,0,1,.11.6,1.62,1.62,0,0,1-.18.76,2,2,0,0,1-.33.48,3.26,3.26,0,0,1-.44.38,2.76,2.76,0,0,1-.54.31Z"
        transform="translate(-5.33 -19.5)" />
    <path
        d="M229,138.52a.15.15,0,0,1,0-.11s.07-.06.18-.08l.28,0,.4.09a3.17,3.17,0,0,1,.5.17,2.7,2.7,0,0,1,.52.28,1.49,1.49,0,0,1,.39.39,1.11,1.11,0,0,1,.18.56.82.82,0,0,1-.21.6.8.8,0,0,1-.6.29.74.74,0,0,1-.58-.2.75.75,0,0,1-.23-.44l-.05-.44a2.15,2.15,0,0,0-.14-.42,1.14,1.14,0,0,0-.18-.31l-.26-.25Z"
        transform="translate(-5.33 -19.5)" />
    <path
        d="M239,136.68h.33a3.55,3.55,0,0,0,0,.35,3.13,3.13,0,0,0,.15.52,1.52,1.52,0,0,0,.3.52,3,3,0,0,0,.39.36,3.33,3.33,0,0,0,.5.32,2.34,2.34,0,0,0,.59.21,2.55,2.55,0,0,0,.53.06,1.62,1.62,0,0,0,.68-.11,1.36,1.36,0,0,0,.42-.26,1.3,1.3,0,0,0,.23-.31,1,1,0,0,0,.09-.45,1.12,1.12,0,0,0-.15-.55,1.31,1.31,0,0,0-.38-.4,5,5,0,0,0-.8-.4q-.56-.24-1-.38l-.56-.21a2.37,2.37,0,0,1-.4-.22,2.52,2.52,0,0,1-.4-.33,1.89,1.89,0,0,1-.29-.4,2,2,0,0,1-.19-.48,2,2,0,0,1-.06-.57,2,2,0,0,1,0-.21,2.6,2.6,0,0,1,0-.27,4.14,4.14,0,0,1,.12-.41,1.34,1.34,0,0,1,.27-.46,3.2,3.2,0,0,1,.42-.4,1.7,1.7,0,0,1,.52-.29,2.51,2.51,0,0,1,.45-.12l.37,0,.35,0a3.52,3.52,0,0,1,.45.11l.48.15.37.16.24.1a.43.43,0,0,0,.19,0,.15.15,0,0,0,.11,0,.3.3,0,0,0,.06-.15l.06-.45H244l.05,2.54h-.35c0-.15-.06-.3-.1-.46a1.69,1.69,0,0,0-.18-.46,1.54,1.54,0,0,0-.37-.43,3.11,3.11,0,0,0-.51-.35,3.72,3.72,0,0,0-.51-.23,2.13,2.13,0,0,0-.4-.11l-.28,0a1.65,1.65,0,0,0-.52.1,1.16,1.16,0,0,0-.42.27,1.38,1.38,0,0,0-.29.4,1,1,0,0,0-.1.41.73.73,0,0,0,.07.35,1,1,0,0,0,.22.32,1.8,1.8,0,0,0,.45.31q.3.15.72.32l1,.37.76.3a3.35,3.35,0,0,1,.47.27,1.85,1.85,0,0,1,.42.37,1.7,1.7,0,0,1,.27.55,2.3,2.3,0,0,1,.1.75,2.72,2.72,0,0,1-.17.78,2.26,2.26,0,0,1-.48.76,2,2,0,0,1-.83.52,3.1,3.1,0,0,1-.89.18,2.58,2.58,0,0,1-.47,0,2.16,2.16,0,0,1-.46-.12,5.84,5.84,0,0,1-.55-.25,6.52,6.52,0,0,1-.57-.32l-.32-.19-.1,0a.19.19,0,0,0-.11.05.31.31,0,0,0-.06.16,2.5,2.5,0,0,0,0,.31l0,.35H239Z"
        transform="translate(-5.33 -19.5)" />
    <path
        d="M245.27,135.81c0-.12,0-.26,0-.42s0-.35.05-.59a4,4,0,0,1,.13-.64,3.26,3.26,0,0,1,.27-.63,3.19,3.19,0,0,1,.38-.57,3.54,3.54,0,0,1,.42-.41,3.13,3.13,0,0,1,.51-.34,4,4,0,0,1,.55-.25,2.64,2.64,0,0,1,.51-.13,3.25,3.25,0,0,1,1.28.06,2.89,2.89,0,0,1,.66.25,3.7,3.7,0,0,1,.56.36,3.9,3.9,0,0,1,.49.46,3,3,0,0,1,.42.61,2.91,2.91,0,0,1,.27.76,6.61,6.61,0,0,1,.12.8q0,.39,0,.59c0,.11,0,.25,0,.41s0,.33-.06.52a4,4,0,0,1-.11.54,3.62,3.62,0,0,1-.27.66,2.93,2.93,0,0,1-.44.65,2.59,2.59,0,0,1-.54.45,3.66,3.66,0,0,1-.56.29,3.78,3.78,0,0,1-.47.16l-.45.08-.39,0a2.38,2.38,0,0,1-.46,0,3,3,0,0,1-.54-.13,4.24,4.24,0,0,1-.61-.28,3,3,0,0,1-.6-.41,3.15,3.15,0,0,1-.48-.58,4.08,4.08,0,0,1-.37-.67,3.21,3.21,0,0,1-.18-.6,4.47,4.47,0,0,1-.08-.53C245.27,136.12,245.27,136,245.27,135.81Zm1.59.44c0,.19,0,.39,0,.62a6.51,6.51,0,0,0,.1.71,2.12,2.12,0,0,0,.16.54c.06.12.13.23.19.34a1.62,1.62,0,0,0,.28.33,1.31,1.31,0,0,0,.47.26,1.54,1.54,0,0,0,.55.09l.33,0a1.24,1.24,0,0,0,.39-.11,1.08,1.08,0,0,0,.37-.36A2.3,2.3,0,0,0,250,138a4.07,4.07,0,0,0,.15-.67c0-.2,0-.48.05-.83s0-.62,0-.79,0-.46,0-.71,0-.51,0-.77,0-.47-.07-.65a2.44,2.44,0,0,0-.13-.5,2,2,0,0,0-.19-.38,1.16,1.16,0,0,0-.28-.28,1.28,1.28,0,0,0-.41-.2,1.85,1.85,0,0,0-1,0,1.48,1.48,0,0,0-.4.19,1.4,1.4,0,0,0-.43.5,2.57,2.57,0,0,0-.29.81c-.05.3-.09.58-.12.84s0,.6-.06,1S246.85,136.21,246.86,136.25Z"
        transform="translate(-5.33 -19.5)" />
    <path
        d="M257.42,137.56l-.19,2h-4.28v-.18a2.64,2.64,0,0,1,.06-.41l.06-.33a3.63,3.63,0,0,1,.1-.39c.05-.18.1-.32.15-.44a3,3,0,0,1,.2-.42,4.1,4.1,0,0,1,.37-.54q.23-.29.36-.43l.46-.46a5.68,5.68,0,0,0,.55-.6,2.69,2.69,0,0,0,.34-.58,3,3,0,0,0,.18-.55,2.58,2.58,0,0,0,.05-.54,2,2,0,0,0-.09-.54,1.21,1.21,0,0,0-.23-.41,1.12,1.12,0,0,0-.28-.25,1,1,0,0,0-.26-.1,1.39,1.39,0,0,0-.31,0,1.31,1.31,0,0,0-.38.08.83.83,0,0,0-.3.18.77.77,0,0,0-.16.21.54.54,0,0,0-.05.21.22.22,0,0,0,.09.19.3.3,0,0,0,.15.06l.21,0a.73.73,0,0,1,.32.16.62.62,0,0,1,.14.47.79.79,0,0,1-.82.83.77.77,0,0,1-.6-.23.9.9,0,0,1-.23-.38,1.37,1.37,0,0,1-.07-.49,2.15,2.15,0,0,1,0-.37,1.72,1.72,0,0,1,.17-.47,1.49,1.49,0,0,1,.39-.47,2.16,2.16,0,0,1,.57-.34,2,2,0,0,1,.49-.15l.36,0a4.14,4.14,0,0,1,.66,0,2.38,2.38,0,0,1,.56.18,1.62,1.62,0,0,1,.5.34,2.19,2.19,0,0,1,.32.41,1.56,1.56,0,0,1,.18.45,2.24,2.24,0,0,1,.06.46c0,.15,0,.27,0,.36a2.5,2.5,0,0,1-.11.48,1.67,1.67,0,0,1-.3.54,2.52,2.52,0,0,1-.45.45q-.24.18-.76.51t-.81.56a4.53,4.53,0,0,0-.49.43,3.48,3.48,0,0,0-.35.44,2.05,2.05,0,0,0-.2.34,2.39,2.39,0,0,0-.09.27.43.43,0,0,0,0,.19s.08,0,.22,0h2.42l.28,0a.31.31,0,0,0,.17-.09.51.51,0,0,0,.12-.21l.08-.27,0-.21Z"
        transform="translate(-5.33 -19.5)" />
    <path
        d="M259.18,138.52a.15.15,0,0,1,0-.11s.07-.06.18-.08l.28,0,.4.09a3.17,3.17,0,0,1,.5.17,2.7,2.7,0,0,1,.52.28,1.49,1.49,0,0,1,.39.39,1.11,1.11,0,0,1,.18.56.82.82,0,0,1-.21.6.8.8,0,0,1-.6.29.74.74,0,0,1-.58-.2.75.75,0,0,1-.23-.44l-.05-.44a2.15,2.15,0,0,0-.14-.42,1.14,1.14,0,0,0-.18-.31l-.26-.25Z"
        transform="translate(-5.33 -19.5)" />
    <path
        d="M273.77,131.74h2.56v.37h-.38a1.35,1.35,0,0,0-.35,0,.37.37,0,0,0-.19.1.49.49,0,0,0-.08.23,1.76,1.76,0,0,0,0,.28v6.76h-.62l-4.09-6.26v5.17a2,2,0,0,0,0,.31.53.53,0,0,0,.09.25.39.39,0,0,0,.2.12,1.15,1.15,0,0,0,.33,0h.49v.38h-2.59v-.38h.41a1,1,0,0,0,.28,0A.39.39,0,0,0,270,139a.49.49,0,0,0,.1-.21,1.53,1.53,0,0,0,0-.35v-5.33a3.55,3.55,0,0,0,0-.55.54.54,0,0,0-.16-.31.61.61,0,0,0-.42-.12h-.42v-.37h2.2l3.54,5.45v-4.44a1.75,1.75,0,0,0,0-.32.37.37,0,0,0-.09-.2.44.44,0,0,0-.18-.09.86.86,0,0,0-.23,0h-.58Z"
        transform="translate(-5.33 -19.5)" />
    <path
        d="M276.93,135.81c0-.12,0-.26,0-.42s0-.35.05-.59a4,4,0,0,1,.13-.64,3.26,3.26,0,0,1,.27-.63,3.19,3.19,0,0,1,.38-.57,3.54,3.54,0,0,1,.42-.41,3.13,3.13,0,0,1,.51-.34,4,4,0,0,1,.55-.25,2.64,2.64,0,0,1,.51-.13,3.25,3.25,0,0,1,1.28.06,2.89,2.89,0,0,1,.66.25,3.7,3.7,0,0,1,.56.36,3.9,3.9,0,0,1,.49.46,3,3,0,0,1,.42.61,2.91,2.91,0,0,1,.27.76,6.61,6.61,0,0,1,.12.8q0,.39,0,.59c0,.11,0,.25,0,.41s0,.33-.06.52a4,4,0,0,1-.11.54,3.62,3.62,0,0,1-.27.66,2.93,2.93,0,0,1-.44.65,2.59,2.59,0,0,1-.54.45,3.66,3.66,0,0,1-.56.29,3.78,3.78,0,0,1-.47.16l-.45.08-.39,0a2.38,2.38,0,0,1-.46,0,3,3,0,0,1-.54-.13,4.24,4.24,0,0,1-.61-.28,3,3,0,0,1-.6-.41,3.15,3.15,0,0,1-.48-.58,4.08,4.08,0,0,1-.37-.67,3.21,3.21,0,0,1-.18-.6,4.47,4.47,0,0,1-.08-.53C276.93,136.12,276.93,136,276.93,135.81Zm1.59.44c0,.19,0,.39,0,.62a6.51,6.51,0,0,0,.1.71,2.12,2.12,0,0,0,.16.54c.06.12.13.23.19.34a1.62,1.62,0,0,0,.28.33,1.31,1.31,0,0,0,.47.26,1.54,1.54,0,0,0,.55.09l.33,0A1.24,1.24,0,0,0,281,139a1.08,1.08,0,0,0,.37-.36,2.3,2.3,0,0,0,.31-.64,4.07,4.07,0,0,0,.15-.67c0-.2,0-.48.05-.83s0-.62,0-.79,0-.46,0-.71,0-.51,0-.77,0-.47-.07-.65a2.44,2.44,0,0,0-.13-.5,2,2,0,0,0-.19-.38,1.16,1.16,0,0,0-.28-.28,1.28,1.28,0,0,0-.41-.2,1.85,1.85,0,0,0-1,0,1.48,1.48,0,0,0-.4.19,1.4,1.4,0,0,0-.43.5,2.57,2.57,0,0,0-.29.81c-.05.3-.09.58-.12.84s0,.6-.06,1S278.51,136.21,278.52,136.25Z"
        transform="translate(-5.33 -19.5)" />
    <path
        d="M289.08,137.56l-.19,2h-4.28v-.18a2.64,2.64,0,0,1,.06-.41l.06-.33a3.63,3.63,0,0,1,.1-.39c.05-.18.1-.32.15-.44a3,3,0,0,1,.2-.42,4.1,4.1,0,0,1,.37-.54q.23-.29.36-.43l.46-.46a5.68,5.68,0,0,0,.55-.6,2.69,2.69,0,0,0,.34-.58,3,3,0,0,0,.18-.55,2.58,2.58,0,0,0,.05-.54,2,2,0,0,0-.09-.54,1.21,1.21,0,0,0-.23-.41,1.12,1.12,0,0,0-.28-.25,1,1,0,0,0-.26-.1,1.39,1.39,0,0,0-.31,0,1.31,1.31,0,0,0-.38.08.83.83,0,0,0-.3.18.77.77,0,0,0-.16.21.54.54,0,0,0-.05.21.22.22,0,0,0,.09.19.3.3,0,0,0,.15.06l.21,0a.73.73,0,0,1,.32.16.62.62,0,0,1,.14.47.79.79,0,0,1-.82.83.77.77,0,0,1-.6-.23.9.9,0,0,1-.23-.38,1.37,1.37,0,0,1-.07-.49,2.15,2.15,0,0,1,0-.37,1.72,1.72,0,0,1,.17-.47,1.49,1.49,0,0,1,.39-.47,2.16,2.16,0,0,1,.57-.34,2,2,0,0,1,.49-.15l.36,0a4.14,4.14,0,0,1,.66,0,2.38,2.38,0,0,1,.56.18,1.62,1.62,0,0,1,.5.34,2.19,2.19,0,0,1,.32.41,1.56,1.56,0,0,1,.18.45,2.24,2.24,0,0,1,.06.46c0,.15,0,.27,0,.36a2.5,2.5,0,0,1-.11.48,1.67,1.67,0,0,1-.3.54,2.52,2.52,0,0,1-.45.45q-.24.18-.76.51t-.81.56a4.53,4.53,0,0,0-.49.43,3.48,3.48,0,0,0-.35.44,2.05,2.05,0,0,0-.2.34,2.39,2.39,0,0,0-.09.27.43.43,0,0,0,0,.19s.08,0,.22,0H288l.28,0a.31.31,0,0,0,.17-.09.51.51,0,0,0,.12-.21l.08-.27,0-.21Z"
        transform="translate(-5.33 -19.5)" />
    <path
        d="M37.27,151.72a.15.15,0,0,1,0-.11s.07-.06.18-.08l.28,0,.4.09a3.21,3.21,0,0,1,.5.17,2.76,2.76,0,0,1,.52.28,1.5,1.5,0,0,1,.39.39,1.12,1.12,0,0,1,.18.56.82.82,0,0,1-.21.6.79.79,0,0,1-.6.29.74.74,0,0,1-.81-.64l-.05-.44a2.18,2.18,0,0,0-.14-.42,1.16,1.16,0,0,0-.18-.31l-.26-.25Z"
        transform="translate(-5.33 -19.5)" />
    <path
        d="M47.38,149q0-.47,0-.71a4,4,0,0,1,.08-.53,3.5,3.5,0,0,1,.16-.56,5.6,5.6,0,0,1,.25-.56,3.18,3.18,0,0,1,.32-.51,2.8,2.8,0,0,1,.42-.43,3.84,3.84,0,0,1,.5-.36,2.22,2.22,0,0,1,.51-.22l.45-.1.35,0,.25,0,.27,0,.27.06.41.14.38.14.28.11a.44.44,0,0,0,.18,0,.24.24,0,0,0,.16-.05.34.34,0,0,0,.1-.18l.08-.33h.35l.12,2.57h-.35c0-.06,0-.14,0-.25s0-.21-.06-.3a2.89,2.89,0,0,0-.11-.32,2,2,0,0,0-.21-.38,1.55,1.55,0,0,0-.37-.37,2.76,2.76,0,0,0-.5-.29,2.35,2.35,0,0,0-.48-.16l-.4-.05a1.57,1.57,0,0,0-.47.06,1.38,1.38,0,0,0-.39.2,1.4,1.4,0,0,0-.35.39,2.62,2.62,0,0,0-.27.54,4.5,4.5,0,0,0-.17.63,5.59,5.59,0,0,0-.1.68,7.55,7.55,0,0,0,0,.78q0,.33,0,.72c0,.26,0,.51.05.76a3,3,0,0,0,.16.69,2.5,2.5,0,0,0,.33.62,1.73,1.73,0,0,0,.48.46,2.07,2.07,0,0,0,.54.24,1.55,1.55,0,0,0,.48.06l.32,0a2,2,0,0,0,.41-.13,1.54,1.54,0,0,0,.4-.25,2.6,2.6,0,0,0,.34-.35,3,3,0,0,0,.27-.41l.2-.37.17-.35.29.16-.13.28-.09.19c-.05.1-.12.22-.2.36a3.74,3.74,0,0,1-.27.39,3.25,3.25,0,0,1-.38.38,2.5,2.5,0,0,1-.5.34,2.27,2.27,0,0,1-.57.2,2.94,2.94,0,0,1-.61.06,2.28,2.28,0,0,1-.41,0l-.5-.09a3.37,3.37,0,0,1-.75-.29,2.55,2.55,0,0,1-.76-.56,2.84,2.84,0,0,1-.49-.75,4.71,4.71,0,0,1-.27-.77,3.86,3.86,0,0,1-.11-.61Q47.39,149.37,47.38,149Z"
        transform="translate(-5.33 -19.5)" />
    <path
        d="M54.26,149q0-.18,0-.42t.05-.59a4,4,0,0,1,.13-.64,3.23,3.23,0,0,1,.27-.63,3.17,3.17,0,0,1,.38-.57,3.55,3.55,0,0,1,.42-.41,3.09,3.09,0,0,1,.51-.34,4,4,0,0,1,.55-.25,2.63,2.63,0,0,1,.51-.13,3.24,3.24,0,0,1,1.28.06,2.87,2.87,0,0,1,.66.25,3.63,3.63,0,0,1,.56.36,3.93,3.93,0,0,1,.49.46,3,3,0,0,1,.42.61,2.93,2.93,0,0,1,.27.76,6.71,6.71,0,0,1,.12.8q0,.39,0,.59c0,.11,0,.25,0,.41s0,.33-.06.52a4.12,4.12,0,0,1-.11.54,3.69,3.69,0,0,1-.27.66,2.94,2.94,0,0,1-.44.65,2.55,2.55,0,0,1-.54.45,3.65,3.65,0,0,1-.56.29,3.78,3.78,0,0,1-.47.16l-.45.08-.39,0a2.38,2.38,0,0,1-.46,0,3,3,0,0,1-.54-.13,4.24,4.24,0,0,1-.61-.28,3,3,0,0,1-.6-.41,3.09,3.09,0,0,1-.48-.58,3.94,3.94,0,0,1-.37-.67,3.18,3.18,0,0,1-.18-.6,4.35,4.35,0,0,1-.08-.53C54.27,149.32,54.26,149.17,54.26,149Zm1.59.44c0,.19,0,.39,0,.62a6.28,6.28,0,0,0,.1.71,2.13,2.13,0,0,0,.16.54c.06.12.13.23.19.34a1.64,1.64,0,0,0,.28.33,1.31,1.31,0,0,0,.47.26,1.54,1.54,0,0,0,.55.09l.33,0a1.26,1.26,0,0,0,.39-.11,1.08,1.08,0,0,0,.37-.36,2.27,2.27,0,0,0,.31-.64,4,4,0,0,0,.15-.67c0-.2,0-.48.05-.83s0-.62,0-.79,0-.46,0-.71,0-.51,0-.77,0-.47-.07-.65a2.53,2.53,0,0,0-.13-.5,2,2,0,0,0-.19-.38,1.17,1.17,0,0,0-.28-.28,1.28,1.28,0,0,0-.41-.2,1.9,1.9,0,0,0-.51-.06,1.88,1.88,0,0,0-.44.06,1.47,1.47,0,0,0-.4.19,1.4,1.4,0,0,0-.43.5,2.53,2.53,0,0,0-.28.81q-.08.45-.12.84t-.06,1Q55.84,149.38,55.85,149.45Z"
        transform="translate(-5.33 -19.5)" />
    <path
        d="M63.34,148.6h-.78l-.61,0-.24-.29.79.05h.73c.21-.3.35-.46.41-.47a.44.44,0,0,1,.26.08,10.23,10.23,0,0,1,.89.55.29.29,0,0,1,.11.16q0,.16-.39.34V152a8.15,8.15,0,0,0,1,.47,5.21,5.21,0,0,0,1.69.23q.4,0,1.81,0a11.27,11.27,0,0,0,2.48-.33l.38-.09c.07,0,.12,0,.15,0s0,.07,0,.12l-.24.21a.86.86,0,0,0-.19.28,1.33,1.33,0,0,0-.11.33,1.52,1.52,0,0,0,0,.37.48.48,0,0,1,0,.27c0,.06-.16.08-.35.06a9.45,9.45,0,0,0-1,0q-.68,0-2,0a14.62,14.62,0,0,1-1.8-.17,4.62,4.62,0,0,1-.82-.24,2,2,0,0,1-.6-.4l-.3-.3a.9.9,0,0,0-.69-.3,2.22,2.22,0,0,0-1.27,1l-.2.27q-.08.1-.12,0l-.42-1.18s0-.07,0-.09a.42.42,0,0,1,.15-.08l.35-.12q.69-.25,1-.33Zm1.46-2.75a.9.9,0,0,1-.23.6.8.8,0,0,1-.64.23q-.55,0-.6-.48a1.85,1.85,0,0,1,0-.3,2,2,0,0,0,0-.41,3.46,3.46,0,0,0-.15-.38,1.11,1.11,0,0,0-.26-.37l-.19-.17a.1.1,0,0,1,0-.09s.05,0,.15,0l.44,0a2.16,2.16,0,0,1,1,.43A1.13,1.13,0,0,1,64.8,145.85Zm3,3.65a11.56,11.56,0,0,0-1.25-1.28l-.62-.52a.13.13,0,0,1-.06-.12s.06-.05.16,0l.23.1q1.39.73,2,1.11a6,6,0,0,0,.62-2.09H66.16l-.87,0-.24-.31,1,.06h4c.19-.25.35-.46.46-.62s.2-.25.26-.25a.56.56,0,0,1,.27.1,4.2,4.2,0,0,1,.66.57c.19.21.28.33.25.37a.15.15,0,0,1-.13.05H69.58q.88.23.86.4c0,.11-.13.21-.33.28a8.51,8.51,0,0,1-.93,2.05,6.17,6.17,0,0,1,1.29,1.1,1.48,1.48,0,0,1,.36.68.91.91,0,0,1,0,.4.78.78,0,0,1-.7.54.46.46,0,0,1-.44-.12,3.77,3.77,0,0,1-.35-.66,3.25,3.25,0,0,0-.82-1,6.53,6.53,0,0,1-3.24,1.62L65,152c-.06,0-.09,0-.1,0s0-.07.07-.1l.23-.1A5.82,5.82,0,0,0,67.76,149.5Zm1.2-4.07a.92.92,0,0,1-.23.61.81.81,0,0,1-.63.24.79.79,0,0,1-.38-.07.4.4,0,0,1-.21-.19.93.93,0,0,1-.05-.29c0-.12,0-.29,0-.5a1.68,1.68,0,0,0-.1-.45,1.39,1.39,0,0,0-.17-.27.72.72,0,0,0-.17-.18l-.13-.1s0-.07.12-.08a3.51,3.51,0,0,1,.64.09,2.74,2.74,0,0,1,.9.39A.91.91,0,0,1,69,145.43Z"
        transform="translate(-5.33 -19.5)" />
    <path
        d="M72.83,147.24l.75.05h7.17l.5-.69c.13-.17.23-.26.31-.27a.54.54,0,0,1,.33.13,4.24,4.24,0,0,1,.79.67c.11.15.16.24.15.29s-.08.07-.18.07H73.72l-.64,0Zm4.33,2.4a14.43,14.43,0,0,1-1.46,2.07,13,13,0,0,1-1.13,1.11,9.37,9.37,0,0,1-.83.66l-.31.2c-.08,0-.14.06-.17,0s0-.09,0-.15l.29-.32a10.39,10.39,0,0,0,1.12-1.7,8.82,8.82,0,0,0,1-2.48l.06-.3,0-.16s.08,0,.16,0a9.45,9.45,0,0,1,1.25.51,1.65,1.65,0,0,1,.35.24.13.13,0,0,1,0,.13S77.39,149.55,77.16,149.63Zm0-5.32q.3.13.64.31a2,2,0,0,1,.65.6,1.26,1.26,0,0,1,.28.83.89.89,0,0,1-.3.64.86.86,0,0,1-.65.21.68.68,0,0,1-.54-.25.83.83,0,0,1-.15-.53l.06-.59a2,2,0,0,0,0-.58,2.37,2.37,0,0,0-.12-.31.81.81,0,0,0-.15-.22.23.23,0,0,1-.08-.18q0-.09.23,0ZM79.21,149A12.21,12.21,0,0,1,81,150.23a5.14,5.14,0,0,1,1.14,1.33,2.34,2.34,0,0,1,.4,1.19,1,1,0,0,1-.26.71.86.86,0,0,1-1.2-.09,3,3,0,0,1-.26-.93,4.59,4.59,0,0,0-.61-1.54,9.63,9.63,0,0,0-.83-1.25,4.68,4.68,0,0,0-.45-.49l-.18-.17a.12.12,0,0,1,0-.14s.09,0,.21,0Z"
        transform="translate(-5.33 -19.5)" />
    <path
        d="M85.65,147.44H84.58l-.45,0-.28-.31.62.06h1.25v-1.6l-1.34,0h-.25l-.17,0c-.06,0-.1,0-.1-.08s.06-.08.2-.11l.29-.06a10.86,10.86,0,0,0,2.61-1l.33-.17.1-.05a4.54,4.54,0,0,1,.49.35l.34.3q.48.41.41.5a.28.28,0,0,1-.24.1h-.32l-.29,0-.4,0-.32,0a1.66,1.66,0,0,1-.18.27v1.46q.5-.76.61-.77t.79.72V147l-.05-.63a.24.24,0,0,1,.18,0l1.08.46h.77v-1.62L90.19,144h.18q1.39.13,1.39.35t-.34.35v2.08h.82l.25-.35q.11-.15.19-.16l.4.13a2.76,2.76,0,0,1,.66.32q.27.18.28.26t-.39.39V150l0,.85q-.17.42-.91.39a.36.36,0,0,1-.28-.09.42.42,0,0,1-.08-.28v-.44h-1v2l.05,1.17a.66.66,0,0,1-.15.32c-.08.09-.3.14-.68.14-.21,0-.33,0-.38-.06a.36.36,0,0,1-.09-.17l.06-1.5v-1.89h-.88v.52a.69.69,0,0,1-.09.34q-.09.16-.75.12a.38.38,0,0,1-.25-.06.27.27,0,0,1-.07-.17l.05-.76v-.47a3,3,0,0,1-.23.43.45.45,0,0,1-.4.21.57.57,0,0,1-.41-.13.52.52,0,0,1-.16-.38l.06-.49a1.38,1.38,0,0,0,0-.37,1.24,1.24,0,0,0-.23-.44v3.46l.05,1.16a.71.71,0,0,1-.12.28.88.88,0,0,1-.52.19q-.43.07-.53,0a.41.41,0,0,1-.12-.24l.06-1.29v-2.15l-.55.6-.88.83-.17.16c-.13.12-.21.16-.24.11s0-.15.09-.3l.12-.18a9.35,9.35,0,0,0,.54-1q.29-.58.54-1.2A11.44,11.44,0,0,0,85.65,147.44Zm1.22,1a2.9,2.9,0,0,1,1,.56,1.26,1.26,0,0,1,.33.42l.09.32v-2.35H86.88Zm2.49,1.72h.88V147h-.88Zm2.05,0h1V147h-1Z"
        transform="translate(-5.33 -19.5)" />
    <path
        d="M96.42,153.65l.35-.38A2.42,2.42,0,0,0,97,153l.14-.25.06-.17a.37.37,0,0,0,0-.2.16.16,0,0,0,0-.08l-.07,0-.13,0a.26.26,0,0,1-.15,0,.82.82,0,0,1-.57-.28.85.85,0,0,1-.19-.55.76.76,0,0,1,.24-.55,1,1,0,0,1,.69-.27,1,1,0,0,1,.79.33,1.24,1.24,0,0,1,.34.87,1.8,1.8,0,0,1-.17.69,2.13,2.13,0,0,1-.42.62q-.26.26-.49.46a1.77,1.77,0,0,1-.36.25.47.47,0,0,1-.2,0,.13.13,0,0,1-.11-.06.11.11,0,0,1,0-.11A.33.33,0,0,1,96.42,153.65Z"
        transform="translate(-5.33 -19.5)" />
    <path
        d="M108.34,146.3h-1.45l-.53,0L106,146l.71.06h1.58v-.49l-.05-1.49s.09-.05.19-.05a7.74,7.74,0,0,1,1.2.16c.14,0,.21.09.21.14a.17.17,0,0,1,0,.12l-.29.24v1.39h2.27v-.62l-.06-1.39s.06,0,.13,0l.17,0,.64.07a4.42,4.42,0,0,1,.57.11c.07,0,.1.06.11.1a.18.18,0,0,1,0,.11,2.14,2.14,0,0,1-.29.23v1.42h.54l.55-.67c.12-.14.2-.21.24-.21a.38.38,0,0,1,.2.09l.42.36.32.32c.11.11.15.2.14.24s-.07.07-.17.07h-2.25v4.6h.82c.26-.29.45-.52.57-.68s.21-.24.26-.25a.36.36,0,0,1,.21.11q.73.64.84.78c.07.09.1.15.08.19s-.07.05-.17.05h-9.07l-.53,0-.35-.34.72.06h1.87Zm-.14,7a9.08,9.08,0,0,1-1.72.46l-.37.06c-.07,0-.11,0-.12,0s0-.08.07-.11l.32-.14a6.94,6.94,0,0,0,1.43-.86,5.11,5.11,0,0,0,1.13-1.12l.16-.24,0-.06s.11,0,.23.06a2.14,2.14,0,0,0,.33.19,3.47,3.47,0,0,1,.6.41c.21.17.31.29.32.34a.17.17,0,0,1,0,.12l-.24,0-.24,0Q109,153,108.2,153.31Zm1.38-5.69h2.27V146.3h-2.27Zm0,1.56h2.28v-1.35h-2.27Zm0,1.73h2.27v-1.53h-2.27Zm2.17.57a6.48,6.48,0,0,1,1.68.31,3.15,3.15,0,0,1,1.14.6,1.12,1.12,0,0,1,.4.75.71.71,0,0,1-.21.61.81.81,0,0,1-.52.22.66.66,0,0,1-.45-.1.92.92,0,0,1-.28-.32l-.16-.32a4.23,4.23,0,0,0-.46-.64,2.77,2.77,0,0,0-.7-.61,2.85,2.85,0,0,0-.52-.27.55.55,0,0,1-.19-.09.1.1,0,0,1,0-.09s0,0,.13,0Z"
        transform="translate(-5.33 -19.5)" />
    <path
        d="M121,146.51v-1.17L121,144a.1.1,0,0,1,0-.08s.06,0,.13,0a4.83,4.83,0,0,1,1.52.22.36.36,0,0,1,.08.17c0,.08-.12.19-.33.33v1.87h2.37a1.78,1.78,0,0,1,.42-.54.42.42,0,0,1,.29.06l.43.23.46.28q.3.17.12.3l-.26.23v1.87l0,.82a.82.82,0,0,1-.15.33q-.12.16-.61.19c-.33,0-.52,0-.56-.05a.6.6,0,0,1-.07-.36v-.41h-2.48v2.85l.08,1.25a1,1,0,0,1-.1.25c-.05.1-.27.16-.67.18s-.62,0-.66,0a.46.46,0,0,1-.08-.27l.08-1.33v-2.89h-2.46v.6a.41.41,0,0,1-.26.44,2.55,2.55,0,0,1-.62.11c-.24,0-.38,0-.42,0a.36.36,0,0,1-.08-.21l.05-1.07V147l-.06-1,.05-.05s.1,0,.24.06l1.17.52Zm-2.46,2.75H121v-2.55h-2.45Zm6.28-2.55h-2.48v2.55h2.48Z"
        transform="translate(-5.33 -19.5)" />
    <path
        d="M127.81,149q0-.18,0-.42t.05-.59a4,4,0,0,1,.13-.64,3.23,3.23,0,0,1,.27-.63,3.17,3.17,0,0,1,.38-.57,3.55,3.55,0,0,1,.42-.41,3.09,3.09,0,0,1,.51-.34,4,4,0,0,1,.55-.25,2.63,2.63,0,0,1,.51-.13,3.24,3.24,0,0,1,1.28.06,2.87,2.87,0,0,1,.66.25,3.63,3.63,0,0,1,.56.36,3.93,3.93,0,0,1,.49.46,3,3,0,0,1,.42.61,2.93,2.93,0,0,1,.27.76,6.71,6.71,0,0,1,.12.8q0,.39,0,.59c0,.11,0,.25,0,.41s0,.33-.06.52a4.12,4.12,0,0,1-.11.54,3.69,3.69,0,0,1-.27.66,2.94,2.94,0,0,1-.44.65,2.55,2.55,0,0,1-.54.45,3.65,3.65,0,0,1-.56.29,3.78,3.78,0,0,1-.47.16l-.45.08-.39,0a2.38,2.38,0,0,1-.46,0,3,3,0,0,1-.54-.13,4.24,4.24,0,0,1-.61-.28,3,3,0,0,1-.6-.41,3.09,3.09,0,0,1-.48-.58,3.94,3.94,0,0,1-.37-.67,3.18,3.18,0,0,1-.18-.6,4.35,4.35,0,0,1-.08-.53C127.82,149.32,127.81,149.17,127.81,149Zm1.59.44c0,.19,0,.39,0,.62a6.28,6.28,0,0,0,.1.71,2.13,2.13,0,0,0,.16.54c.06.12.13.23.19.34a1.64,1.64,0,0,0,.28.33,1.31,1.31,0,0,0,.47.26,1.54,1.54,0,0,0,.55.09l.33,0a1.26,1.26,0,0,0,.39-.11,1.08,1.08,0,0,0,.37-.36,2.27,2.27,0,0,0,.31-.64,4,4,0,0,0,.15-.67c0-.2,0-.48.05-.83s0-.62,0-.79,0-.46,0-.71,0-.51,0-.77,0-.47-.07-.65a2.53,2.53,0,0,0-.13-.5,2,2,0,0,0-.19-.38,1.17,1.17,0,0,0-.28-.28,1.28,1.28,0,0,0-.41-.2,1.9,1.9,0,0,0-.51-.06,1.88,1.88,0,0,0-.44.06,1.47,1.47,0,0,0-.4.19,1.4,1.4,0,0,0-.43.5,2.53,2.53,0,0,0-.28.81q-.08.45-.12.84t-.06,1Q129.39,149.38,129.4,149.45Z"
        transform="translate(-5.33 -19.5)" />
    <path
        d="M138,148.82l.44.1a2.43,2.43,0,0,1,.49.19,1.85,1.85,0,0,1,.53.39,1.8,1.8,0,0,1,.35.5,1.64,1.64,0,0,1,.12.64,2.08,2.08,0,0,1-.08.66,2.23,2.23,0,0,1-.38.63,1.62,1.62,0,0,1-.7.51,3.55,3.55,0,0,1-.76.2,3.28,3.28,0,0,1-1,0,2.3,2.3,0,0,1-.42-.1,2.67,2.67,0,0,1-.42-.21,1.24,1.24,0,0,1-.43-.42,1.49,1.49,0,0,1-.2-.45,1.62,1.62,0,0,1,0-.34,1.14,1.14,0,0,1,.1-.45.59.59,0,0,1,.32-.32,1,1,0,0,1,.39-.1.76.76,0,0,1,.53.22.65.65,0,0,1,.22.46.91.91,0,0,1,0,.37.8.8,0,0,1-.28.3l-.18.11-.07.06a.21.21,0,0,0,0,.09s0,.09.09.16a.76.76,0,0,0,.27.22.9.9,0,0,0,.42.07A1.11,1.11,0,0,0,138,152a1.34,1.34,0,0,0,.41-.62,2.72,2.72,0,0,0,.12-.84,3.33,3.33,0,0,0-.11-.76,1.25,1.25,0,0,0-.26-.54.71.71,0,0,0-.33-.22,1.83,1.83,0,0,0-.35-.05,1.59,1.59,0,0,0-.37,0,.62.62,0,0,1-.2,0,.23.23,0,0,1-.18-.08.29.29,0,0,1-.07-.18.19.19,0,0,1,.08-.17.36.36,0,0,1,.2-.08l.24,0,.25,0a.39.39,0,0,0,.15,0,.61.61,0,0,0,.18-.1,2.57,2.57,0,0,0,.33-.3,1.63,1.63,0,0,0,.33-.56,2,2,0,0,0,.13-.64,4.23,4.23,0,0,0,0-.5,1.87,1.87,0,0,0-.15-.5,1,1,0,0,0-.26-.35,1.19,1.19,0,0,0-.37-.2,1.14,1.14,0,0,0-.37-.07,1.77,1.77,0,0,0-.32.06.69.69,0,0,0-.3.17.27.27,0,0,0-.1.25.19.19,0,0,0,0,.09.29.29,0,0,0,.12.1l.17.12a.74.74,0,0,1,.21.24.81.81,0,0,1,0,.35.66.66,0,0,1-.23.45.84.84,0,0,1-1.07,0,1,1,0,0,1-.24-.36.92.92,0,0,1-.05-.37,1.43,1.43,0,0,1,0-.34,1.09,1.09,0,0,1,.19-.38,2.13,2.13,0,0,1,.35-.37,2.84,2.84,0,0,1,.51-.33,2.21,2.21,0,0,1,1-.14,3.6,3.6,0,0,1,.63.08,1.93,1.93,0,0,1,.6.24,2,2,0,0,1,.47.39,1.72,1.72,0,0,1,.3.46,1.7,1.7,0,0,1,.11.6,1.62,1.62,0,0,1-.18.76,2,2,0,0,1-.33.48,3.32,3.32,0,0,1-.44.38,2.79,2.79,0,0,1-.54.31Z"
        transform="translate(-5.33 -19.5)" />
    <path
        d="M144.9,149.36v-3.71l-.09-1.64s.1-.07.23-.06l.47,0a4.42,4.42,0,0,1,.88.15q.25.09.14.26l-.29.21v1.94h1.93l.47-.69c.12-.17.22-.27.3-.28a.55.55,0,0,1,.34.16,6.61,6.61,0,0,1,.83.72c.08.11.12.19.1.24s-.06.08-.13.08h-3.85v2.6h1.85q.31-.52.43-.54a.61.61,0,0,1,.35.11l.83.52a.23.23,0,0,1,.11.13q0,.14-.31.39v2.71l.05.79a.66.66,0,0,1-.12.34q-.11.16-.82.14c-.19,0-.31,0-.34-.08a.46.46,0,0,1-.05-.26v-.35h-4.83v.3q0,.36-.26.42a4.35,4.35,0,0,1-.62.08q-.36,0-.41-.07a.47.47,0,0,1-.06-.2l0-.9v-3l-.05-1.24,0-.05s.08,0,.19.06l1.22.68Zm3.32,3.7v-3.48h-4.83v3.48Z"
        transform="translate(-5.33 -19.5)" />
    <path
        d="M154,145.15v2.78h1.27l.49-.66c.09-.12.16-.18.21-.19a.39.39,0,0,1,.23.12q.82.76.74.85c0,.06-.09.09-.13.09H154v3.58q1.07-.27,2.35-.66l.47-.14a.07.07,0,0,1,.1,0s-.08.14-.31.28l-.48.31L154,153.06l-.41.29-.33.28s-.09.05-.11,0-.06-.08-.12-.24l-.43-1.06-.1-.21v-.06l.08-.08a.59.59,0,0,0,.14-.23,2,2,0,0,0,.06-.63v-5l-.08-1.6a.13.13,0,0,1,0-.07s.06,0,.16,0a9.27,9.27,0,0,1,1.16.2c.14,0,.22.1.23.16S154.17,145,154,145.15Zm4.32,3.41c.19-.17.36-.33.5-.47s.34-.37.61-.7.43-.54.5-.64l.21-.35c0-.09.08-.13.1-.13l.1,0,.28.2.42.31q.7.56.63.72t-.47.09l-.38.15-.81.38q-.65.31-1.71.7v2.74a1.18,1.18,0,0,0,.09.62,1.81,1.81,0,0,0,.83.11,2.5,2.5,0,0,0,1.26-.18,1.89,1.89,0,0,0,.6-.91l.25-.64.08-.21s.06-.06.09-.06.06,0,.08.08l0,.26-.06.45a3.6,3.6,0,0,0-.05.4,1.92,1.92,0,0,0,0,.35.46.46,0,0,0,.05.26l.18.24a.73.73,0,0,1,.07.26.67.67,0,0,1,0,.31.9.9,0,0,1-.69.49,9.37,9.37,0,0,1-1.93.12,8.15,8.15,0,0,1-1.29-.08.87.87,0,0,1-.56-.26.78.78,0,0,1-.14-.48V146l-.09-1.67a.26.26,0,0,1,.19-.06q1.38.12,1.42.37c0,.08-.1.18-.31.3Z"
        transform="translate(-5.33 -19.5)" />
    <path
        d="M167.89,148.27a.5.5,0,0,1-.15.19v3.08l.64-.12c.14,0,.22,0,.23,0a.1.1,0,0,1,0,.09l-.12,0-.73.31v1.46l.28-.17a3.9,3.9,0,0,0,.67-.6,4.84,4.84,0,0,0,.63-.79,4.2,4.2,0,0,1-.53-1.17,7.26,7.26,0,0,1-.18-.78l-.05-.39-.55,0-.25-.31.71.06h2l.23-.3a.27.27,0,0,1,.15-.12.46.46,0,0,1,.25.06l.34.14a3,3,0,0,1,.6.33c.13.1.2.17.2.2s-.13.23-.41.33a19.12,19.12,0,0,1-1.17,1.72,6.06,6.06,0,0,0,1.91.67l.34,0H173a.08.08,0,0,1,.05.09s0,.08-.13.12l-.31.18a1.47,1.47,0,0,0-.38.35,1.49,1.49,0,0,0-.25.38c0,.09-.06.14-.09.15a.21.21,0,0,1-.13,0,3.91,3.91,0,0,1-.83-.41,5.7,5.7,0,0,1-1-.75,6,6,0,0,1-1.8,1l-.35.11a.24.24,0,0,1,0,.12s-.05.09-.14.18a1.17,1.17,0,0,1-.67.17c-.31,0-.46-.06-.44-.27l0-1.16v-.37q-2,.73-2.42.91l-.39.18-.24.1a.42.42,0,0,1-.07-.13l-.4-.92c-.07-.15-.1-.23-.09-.25s.09,0,.23,0l.31,0,.75,0v-3.74h-.56l-.6,0-.25-.31.76.06h7.58q.52-.76.61-.77a.36.36,0,0,1,.23.09q.87.68.83.78c0,.07-.06.11-.1.11Zm1.8-1.1h-4v.32c0,.06-.06.14-.17.24a1.41,1.41,0,0,1-.83.12c-.14,0-.22,0-.25-.05a.33.33,0,0,1-.07-.12l.05-1v-1.54a6.06,6.06,0,0,0,0-.62q0-.25,0-.26l.19,0,1.27.35h3.62l.26-.35a.31.31,0,0,1,.19-.11,1.85,1.85,0,0,1,.72.27q.59.3.62.39t-.32.39v1.22l0,.88q-.16.33-.91.35c-.21,0-.34,0-.37-.05a.32.32,0,0,1,0-.17Zm-4.25,2.2h1.12v-1.11h-.95a.69.69,0,0,1-.17.23Zm0,1.2h1.12v-1h-1.12Zm1.13,1.16v-1h-1.12v1.1Zm-.83-5.93h4v-1h-4Zm0,1.16h4V146h-4Zm4.07,4.07c.12-.2.24-.4.34-.6a6.36,6.36,0,0,0,.38-1h-1.79a5.05,5.05,0,0,0,.43.85A3.46,3.46,0,0,0,169.82,151Z"
        transform="translate(-5.33 -19.5)" />
    <path
        d="M174.78,148l-.53,0-.29-.3.68.06h3.16c0-.24,0-.46,0-.67s0-.45,0-.71,0-.45,0-.87,0-.72,0-.9l0-.35,0-.21a.26.26,0,0,1,.13,0,6.84,6.84,0,0,1,1.56.23c.1.07.16.13.18.18s-.12.24-.39.43l0,.72-.09,1.43,0,.76h2.73a5.79,5.79,0,0,1,.78-.92s.13,0,.26.16l.42.34.31.29c.13.13.18.21.17.26s-.06.07-.15.07h-4.28a8.74,8.74,0,0,0,.66,1.63,5.16,5.16,0,0,0,1.55,1.69,5,5,0,0,0,2.17,1l.24,0c.1,0,.15.06.16.11s0,.09-.11.11l-.26.08a1.69,1.69,0,0,0-.6.35,1.36,1.36,0,0,0-.4.5c-.06.16-.11.24-.13.24a7.72,7.72,0,0,1-1.16-.63,3.82,3.82,0,0,1-1.61-2,12.08,12.08,0,0,1-.7-3.15H179q0,.31-.09,1.09a5.67,5.67,0,0,1-.42,1.64,4.19,4.19,0,0,1-.92,1.42,6,6,0,0,1-1.46,1,8.57,8.57,0,0,1-1.65.67l-.24.06-.16.05c-.13,0-.2,0-.21,0s.07-.12.24-.21l.2-.1a5.47,5.47,0,0,0,2.26-1.71,5.82,5.82,0,0,0,.88-1.82,10.58,10.58,0,0,0,.3-1.7l0-.39Z"
        transform="translate(-5.33 -19.5)" />
    <path
        d="M186.47,153.65l.35-.38A2.42,2.42,0,0,0,187,153l.14-.25.06-.17a.36.36,0,0,0,0-.2.14.14,0,0,0,0-.08l-.07,0-.13,0a.26.26,0,0,1-.15,0,.82.82,0,0,1-.57-.28.85.85,0,0,1-.19-.55.76.76,0,0,1,.24-.55,1.05,1.05,0,0,1,.69-.27,1,1,0,0,1,.79.33,1.24,1.24,0,0,1,.34.87,1.79,1.79,0,0,1-.17.69,2.13,2.13,0,0,1-.42.62q-.26.26-.49.46a1.73,1.73,0,0,1-.36.25.46.46,0,0,1-.2,0,.13.13,0,0,1-.11-.06.11.11,0,0,1,0-.11A.35.35,0,0,1,186.47,153.65Z"
        transform="translate(-5.33 -19.5)" />
    <path
        d="M198.22,146.45q.35.11.33.27a1.15,1.15,0,0,1-.2.25v5.48l.06,1a.7.7,0,0,1-.09.27c0,.07-.24.13-.58.18s-.54,0-.59,0a.43.43,0,0,1-.09-.26l.06-1.21v-4.63l-1,1-.26.25c-.06.06-.1.06-.12,0a.14.14,0,0,1,0-.15l.28-.42a12.61,12.61,0,0,0,.87-1.74,13.16,13.16,0,0,0,.76-2.17l.12-.5V144s.06,0,.13,0l.27.1.76.31q.61.24.52.47s-.15.1-.39.17Q198.59,145.86,198.22,146.45Zm.41,6.91.71.06h4.86q.72-.94.84-1a.41.41,0,0,1,.26.1,6.1,6.1,0,0,1,.58.57q.31.34.27.42a.16.16,0,0,1-.16.08H199.5l-.62,0Zm2.38-8.23h2.57l.32-.42a.49.49,0,0,1,.2-.19c.06,0,.18,0,.37.13a3.74,3.74,0,0,1,.93.67.27.27,0,0,1-.06.13l-.18.14-.16.12v4.39l.06,1.14a.61.61,0,0,1-.14.29,1,1,0,0,1-.58.17c-.32,0-.51,0-.56-.06a.39.39,0,0,1-.08-.27v-.42h-2.77v.45q0,.31-.21.39a1.88,1.88,0,0,1-.53.09.65.65,0,0,1-.39,0,.37.37,0,0,1-.11-.2l.06-1.4v-4.51l-.06-1.07c0-.08,0-.1.14-.05Zm-.06,2.84h2.77v-2.63h-2.77Zm2.77,2.77v-2.57h-2.76v2.57Z"
        transform="translate(-5.33 -19.5)" />
    <path
        d="M210,152.3v.39H206.6v-.39h.72a.23.23,0,0,0,.14-.07.31.31,0,0,0,.08-.14,1.26,1.26,0,0,0,0-.29v-6.1a.52.52,0,0,0,0-.27.22.22,0,0,0-.12-.1.81.81,0,0,0-.22,0h-.58v-.38h4a3.52,3.52,0,0,1,.61,0,4.37,4.37,0,0,1,.6.16,1.67,1.67,0,0,1,.62.38,1.5,1.5,0,0,1,.41.6,2,2,0,0,1,.12.63,2.91,2.91,0,0,1,0,.44,3.07,3.07,0,0,1-.2.63,1.65,1.65,0,0,1-.48.65,2.24,2.24,0,0,1-.68.4,2.59,2.59,0,0,1-.56.15l-.56,0h-1.36v2.77a1.77,1.77,0,0,0,0,.26.33.33,0,0,0,.06.14.23.23,0,0,0,.13.08l.22,0Zm-.95-3.74h.68a2.64,2.64,0,0,0,.58-.06,1.19,1.19,0,0,0,.47-.21,1.09,1.09,0,0,0,.31-.42,1.82,1.82,0,0,0,.16-.6q0-.32,0-.58a1.67,1.67,0,0,0-.1-.57,1.55,1.55,0,0,0-.25-.41,1.11,1.11,0,0,0-.42-.31,1.79,1.79,0,0,0-.69-.11h-.77Z"
        transform="translate(-5.33 -19.5)" />
    <path
        d="M218.68,145.08h2.66v.25h-.19a.6.6,0,0,0-.21,0,.59.59,0,0,0-.17.1.5.5,0,0,0-.13.21.89.89,0,0,0-.05.32v5.69a1.61,1.61,0,0,0,0,.35.39.39,0,0,0,.08.17.33.33,0,0,0,.17.09l.24,0h.19v.37h-3v-.37h.19l.27,0a.25.25,0,0,0,.15-.08A.54.54,0,0,0,219,152a1.69,1.69,0,0,0,0-.29v-6.25l-1.92,7.25h-.44l-1.94-6.91v5.82a3.29,3.29,0,0,0,0,.4.38.38,0,0,0,.11.23.5.5,0,0,0,.36.1h.46v.37h-2.15v-.37h.24l.26,0a.3.3,0,0,0,.18-.1.41.41,0,0,0,.09-.21,2.51,2.51,0,0,0,0-.39v-5.39a3.19,3.19,0,0,0,0-.43.55.55,0,0,0-.1-.25.48.48,0,0,0-.2-.16.63.63,0,0,0-.25-.05h-.26v-.25H216l1.39,4.94Z"
        transform="translate(-5.33 -19.5)" />
    <path
        d="M226.54,150.76l-.19,2h-4.28v-.18a2.64,2.64,0,0,1,.06-.41l.06-.33a3.63,3.63,0,0,1,.1-.39c.05-.18.1-.32.15-.44a3,3,0,0,1,.2-.42A4.1,4.1,0,0,1,223,150q.23-.29.36-.43l.46-.46a5.68,5.68,0,0,0,.55-.6,2.69,2.69,0,0,0,.34-.58,3,3,0,0,0,.18-.55,2.58,2.58,0,0,0,.05-.54,2,2,0,0,0-.09-.54,1.21,1.21,0,0,0-.23-.41,1.12,1.12,0,0,0-.28-.25,1,1,0,0,0-.26-.1,1.39,1.39,0,0,0-.31,0,1.31,1.31,0,0,0-.38.08.83.83,0,0,0-.3.18.77.77,0,0,0-.16.21.54.54,0,0,0-.05.21.22.22,0,0,0,.09.19.3.3,0,0,0,.15.06l.21,0a.73.73,0,0,1,.32.16.62.62,0,0,1,.14.47.79.79,0,0,1-.82.83.77.77,0,0,1-.6-.23.9.9,0,0,1-.23-.38,1.37,1.37,0,0,1-.07-.49,2.15,2.15,0,0,1,0-.37,1.72,1.72,0,0,1,.17-.47,1.49,1.49,0,0,1,.39-.47,2.16,2.16,0,0,1,.57-.34,2,2,0,0,1,.49-.15l.36,0a4.14,4.14,0,0,1,.66,0,2.38,2.38,0,0,1,.56.18,1.62,1.62,0,0,1,.5.34,2.19,2.19,0,0,1,.32.41,1.56,1.56,0,0,1,.18.45,2.24,2.24,0,0,1,.06.46c0,.15,0,.27,0,.36a2.5,2.5,0,0,1-.11.48,1.67,1.67,0,0,1-.3.54,2.52,2.52,0,0,1-.45.45q-.24.18-.76.51t-.81.56a4.53,4.53,0,0,0-.49.43,3.48,3.48,0,0,0-.35.44,2.05,2.05,0,0,0-.2.34,2.39,2.39,0,0,0-.09.27.43.43,0,0,0,0,.19s.08,0,.22,0h2.42l.28,0a.31.31,0,0,0,.17-.09.51.51,0,0,0,.12-.21l.08-.27,0-.21Z"
        transform="translate(-5.33 -19.5)" />
    <path
        d="M229.74,151.13a1,1,0,0,1,.68.27.89.89,0,0,1,.26.65.93.93,0,0,1-.93.91.92.92,0,0,1-.66-.24,1,1,0,0,1,0-1.34A.91.91,0,0,1,229.74,151.13Z"
        transform="translate(-5.33 -19.5)" />
    <path
        d="M233.51,145l.18.1.27.14a2.13,2.13,0,0,0,.39.1,4.17,4.17,0,0,0,.74.05h.49a2.85,2.85,0,0,0,.52-.07l.45-.14.3-.13L237,145l.1,0h.1s0,0,0,.12a1,1,0,0,1-.12.27l-.17.29a2.54,2.54,0,0,1-.2.25,2.22,2.22,0,0,1-.78.53,1.5,1.5,0,0,1-.32.09l-.39,0-.35,0-.76-.05-.29,0-.12,2.05.39-.28a1.62,1.62,0,0,1,.4-.2,2.86,2.86,0,0,1,.4-.1l.39,0a3.26,3.26,0,0,1,.52.05,2.32,2.32,0,0,1,.57.17,1.79,1.79,0,0,1,.53.4,1.87,1.87,0,0,1,.38.52,2.33,2.33,0,0,1,.15.48,3,3,0,0,1,.05.49,3.17,3.17,0,0,1,0,.53,2.7,2.7,0,0,1-.23.74,3.44,3.44,0,0,1-.39.61,2.33,2.33,0,0,1-.52.48,2,2,0,0,1-.51.26,2.8,2.8,0,0,1-.44.1,1.85,1.85,0,0,1-.37,0l-.44,0a2.12,2.12,0,0,1-.41-.09,2,2,0,0,1-.35-.17,1.54,1.54,0,0,1-.35-.29,1.38,1.38,0,0,1-.27-.45,1.46,1.46,0,0,1-.1-.52.94.94,0,0,1,.12-.47.63.63,0,0,1,.33-.29,1.14,1.14,0,0,1,.47-.07.6.6,0,0,1,.44.22.72.72,0,0,1,.18.49.64.64,0,0,1-.13.43,1.7,1.7,0,0,1-.22.2c-.06,0-.1.08-.11.1a.67.67,0,0,0,0,.13.3.3,0,0,0,.13.22.53.53,0,0,0,.23.14,1,1,0,0,0,.34.05,1,1,0,0,0,.37-.05,1,1,0,0,0,.65-.68,3.14,3.14,0,0,0,.17-.75,5.09,5.09,0,0,0,0-.75c0-.12,0-.27,0-.46a1.75,1.75,0,0,0-.12-.49,1.25,1.25,0,0,0-.27-.4,1,1,0,0,0-.38-.25,1.23,1.23,0,0,0-.41-.07,1.86,1.86,0,0,0-.39.05,1.71,1.71,0,0,0-.33.13,1.15,1.15,0,0,0-.27.18.79.79,0,0,0-.16.22.88.88,0,0,1-.1.17.19.19,0,0,1-.11.06.13.13,0,0,1-.12,0,.16.16,0,0,1,0-.13Z"
        transform="translate(-5.33 -19.5)" />
    <path
        d="M243.94,145.17a3.63,3.63,0,0,1,.79.37c.16.11.23.19.21.25a.19.19,0,0,1-.14.13l-.13,0-.14.05q-.39.52-.79,1.12a2,2,0,0,1,.48.18.18.18,0,0,1,.08.13s0,.09-.09.13l-.19.12v4.61l.06,1.2a.59.59,0,0,1-.15.35,1.19,1.19,0,0,1-.62.17c-.34,0-.53,0-.57,0a.57.57,0,0,1-.09-.23l.08-1.45V148.4a13.71,13.71,0,0,1-3.54,2.94l-.45.26c-.08,0-.13,0-.16,0s0-.08.06-.14l.45-.39a13.72,13.72,0,0,0,1.85-2,13.06,13.06,0,0,0,1.51-2.41,11.51,11.51,0,0,0,.6-1.45h-3.66l-.68,0-.28-.31.73.06h7.1a4.09,4.09,0,0,1,.75-.87.37.37,0,0,1,.25.05l.42.37a6,6,0,0,1,.45.42.19.19,0,0,1,.06.17s-.08.07-.18.07Zm.67,2.92q0-.1.23,0l1,.3a4.14,4.14,0,0,1,1.81,1.08,2.47,2.47,0,0,1,.87,1.33,1,1,0,0,1-.21.79.7.7,0,0,1-.59.23.74.74,0,0,1-.5-.24,2.86,2.86,0,0,1-.46-.77q-.25-.55-.47-1a2.92,2.92,0,0,0-.47-.68,6.72,6.72,0,0,0-.6-.54,3.06,3.06,0,0,0-.49-.35C244.63,148.2,244.59,148.15,244.6,148.1Z"
        transform="translate(-5.33 -19.5)" />
    <path
        d="M249.42,148.14l.73.06H251c.2-.3.34-.46.41-.46a2.09,2.09,0,0,1,.64.27c.36.19.54.32.56.41s-.1.2-.32.32v3a3.46,3.46,0,0,0,1.66.7,14.78,14.78,0,0,0,2.34.14,11.64,11.64,0,0,0,2.88-.21l.27-.08c.08,0,.13,0,.14,0a.1.1,0,0,1,0,.12l-.27.23a1.17,1.17,0,0,0-.26.32.82.82,0,0,0-.09.48c0,.19,0,.31,0,.35a1.36,1.36,0,0,1-.58,0,21.52,21.52,0,0,1-4.09-.27,3.74,3.74,0,0,1-1.11-.47,8.33,8.33,0,0,1-.75-.66,1.19,1.19,0,0,0-.71-.42,1.28,1.28,0,0,0-.63.39,2.89,2.89,0,0,0-.58.67l-.2.35c0,.08-.09.12-.11.12s-.06,0-.09-.15l-.44-1.15a.12.12,0,0,1,0-.1.24.24,0,0,1,.1-.08l.19-.09a6.67,6.67,0,0,1,1.28-.37v-3.24h-.91l-.59,0Zm2.94-2.38a.93.93,0,0,1-.25.63.69.69,0,0,1-.63.2.58.58,0,0,1-.33-.12.56.56,0,0,1-.18-.21.78.78,0,0,1-.05-.24l0-.38a1.22,1.22,0,0,0-.3-.68,2.64,2.64,0,0,0-.33-.31l-.12-.09a.12.12,0,0,1,0-.08s0-.05.16-.05a9.49,9.49,0,0,1,1.1.14,1,1,0,0,1,.81.54A1.71,1.71,0,0,1,252.36,145.75Zm-.15,1.36,1,.06h1.57c0-.35,0-.67,0-1s0-.55,0-.78l0-.3,0-.56-.05-.44a.31.31,0,0,1,.23,0q1.5.13,1.53.37s-.1.15-.31.3q0,1-.05,1.13l-.09,1.29h1.25l.45-.64c.11-.15.21-.24.28-.24a1.27,1.27,0,0,1,.38.21,3.43,3.43,0,0,1,.56.49c.17.18.24.29.21.33a.12.12,0,0,1-.1.06h-3l-.06.72-.1.68a9.14,9.14,0,0,1,2,.81,2.09,2.09,0,0,1,.78.81,1.81,1.81,0,0,1,.22.8.78.78,0,0,1-.24.58.7.7,0,0,1-.5.22.53.53,0,0,1-.4-.14,1.65,1.65,0,0,1-.27-.53q-.14-.39-.29-.75a3.51,3.51,0,0,0-.42-.72,6.49,6.49,0,0,0-.91-.91,4.51,4.51,0,0,1-.72,1.38,5.55,5.55,0,0,1-.95.85,3.86,3.86,0,0,1-1,.56l-.28.1c-.09,0-.15,0-.18,0s0-.09.08-.15l.28-.19a3.37,3.37,0,0,0,.92-.9,4.65,4.65,0,0,0,.56-1.25,6.26,6.26,0,0,0,.27-1.38l0-.56h-1.44l-.87,0Z"
        transform="translate(-5.33 -19.5)" />
    <path
        d="M262,146.84h-.9l-.47,0-.29-.3.72.06h1v-1.58l-.05-1a.14.14,0,0,1,.1-.05,3.87,3.87,0,0,1,.8.08q.63.1.62.24s-.11.14-.32.29v2h.34l.35-.44q.22-.28.33-.28c.14,0,.32.14.56.4s.36.41.34.46,0,.06-.07.06h-1.86v1.35q1.2.15,1.45.55a1.22,1.22,0,0,1,.23.67.62.62,0,0,1-.26.46.66.66,0,0,1-.45.17.51.51,0,0,1-.32-.11.38.38,0,0,1-.13-.22c0-.08,0-.23,0-.45a1.19,1.19,0,0,0-.12-.49,1.36,1.36,0,0,0-.37-.38v4l0,1.14a.51.51,0,0,1-.34.31,1.21,1.21,0,0,1-.56.07c-.19,0-.31-.09-.34-.24l.06-1.24V150a9.71,9.71,0,0,1-1.16,1.3l-.19.17c-.09.08-.16.11-.19.08s0-.07,0-.14l.13-.2a12.43,12.43,0,0,0,.6-1.4A16.5,16.5,0,0,0,262,146.84Zm4.29,3.21a11.76,11.76,0,0,1-1,1.52,6.06,6.06,0,0,1-1,1.11l-.48.4c-.06,0-.1.06-.14,0s0-.09,0-.17l.23-.31.2-.33c.1-.17.22-.4.36-.68a5.74,5.74,0,0,0,.38-1.06q.17-.64.23-.89l.06-.35v-.13a.09.09,0,0,1,.09,0c.06,0,.32.09.78.26s.69.29.68.38a.22.22,0,0,1-.16.19Zm2.61-2,.56-.69a.29.29,0,0,1,.18-.12.33.33,0,0,1,.2.08c.08.06.23.21.44.43s.31.37.29.42a.11.11,0,0,1-.11.09h-2.27a.73.73,0,0,1-.21.23v4.42a1.5,1.5,0,0,1-.1.56q-.1.26-.65.33a4.68,4.68,0,0,1-.69.06.23.23,0,0,1-.13,0,.12.12,0,0,1,0-.07,2.74,2.74,0,0,1,0-.3.49.49,0,0,0-.27-.4,2.09,2.09,0,0,0-.37-.19l-.39-.11c-.11,0-.15-.06-.13-.12a.12.12,0,0,1,.14-.08l.28,0a4.21,4.21,0,0,0,.83,0,.45.45,0,0,0,.32-.08.48.48,0,0,0,.07-.31v-4h-1.89l-.47,0-.3-.3.72.05Zm-.68-2.89a3.78,3.78,0,0,1,.73-.82.49.49,0,0,1,.29.14l.34.28q.47.42.43.52c0,.06-.06.1-.11.1h-4.42l-.47,0-.3-.31.72.06Zm.14,4.32a4.21,4.21,0,0,1,1.62,1,3.46,3.46,0,0,1,.54.76,1.5,1.5,0,0,1,.08.47,1.23,1.23,0,0,1,0,.42,1.21,1.21,0,0,1-.24.33.65.65,0,0,1-.9,0,1,1,0,0,1-.17-.47l-.06-.48a3.27,3.27,0,0,0-.37-1.08,3.83,3.83,0,0,0-.46-.67l-.21-.24a.05.05,0,0,1,0-.05S268.23,149.43,268.34,149.47Z"
        transform="translate(-5.33 -19.5)" />
    <path
        d="M273.66,146.38h.82q.17-.2.29-.37c.07-.11.14-.17.2-.17l.13,0,.31.12a3.86,3.86,0,0,1,.51.3q.34.22.35.27t-.35.39v4.59l.05,1a.58.58,0,0,1-.21.3,1.3,1.3,0,0,1-.39.13,1,1,0,0,1-.41,0c-.13,0-.21,0-.24-.11a.52.52,0,0,1,0-.25v-.37H273v.58a.39.39,0,0,1-.08.26.75.75,0,0,1-.36.16,1.56,1.56,0,0,1-.45.06c-.14,0-.23,0-.26-.07a.44.44,0,0,1-.05-.19l.05-1.34v-4.62l-.05-1.29s0,0,.1,0l1.2.54h.06q.07-.4.11-.61l.11-.84,0-.39v-.47h.11c.18,0,.49.12.92.24s.66.24.66.35-.15.18-.42.24Q274.4,145.3,273.66,146.38Zm1,2.67v-2.47H273V149ZM273,152.11h1.69v-2.86H273Zm6.65-5.37c.22-.37.37-.56.45-.57a1.93,1.93,0,0,1,.76.32c.38.22.58.36.59.43s-.13.18-.39.4c0,.44,0,.78,0,1s0,.64,0,1.17,0,1-.06,1.33-.05.79-.1,1.29a2.47,2.47,0,0,1-.34,1.14,1.65,1.65,0,0,1-.93.59q-.67.2-.77,0a.27.27,0,0,1,0-.13,1.87,1.87,0,0,0-.12-.4q-.11-.28-.71-.46l-.31-.09c-.1,0-.14-.06-.13-.12s.08-.08.22-.08l.45,0a2.63,2.63,0,0,0,.89,0,.85.85,0,0,0,.41-.3,1.81,1.81,0,0,0,.23-.9q.05-.68.08-1.36t0-1V147h-2.3a14.54,14.54,0,0,1-1,1.29l-.16.17-.15.16c-.07,0-.12.05-.15,0s0-.07,0-.14l.1-.18.11-.26.12-.24a5.18,5.18,0,0,0,.29-.83q.17-.59.29-1t.26-1.3l0-.27,0-.26a.46.46,0,0,1,.23,0l.81.19q.77.17.75.45,0,.13-.42.26l-.25.42-.41.74-.34.56Zm-2.7,2.09-.19-.17a.14.14,0,0,1-.06-.09s0,0,.1,0a3.47,3.47,0,0,1,1,.29,1.4,1.4,0,0,1,.82.67,1.75,1.75,0,0,1,.16.6,1.08,1.08,0,0,1-.22.57.71.71,0,0,1-.68.27c-.3,0-.48-.1-.53-.28a1.43,1.43,0,0,1-.06-.45v-.25a2.85,2.85,0,0,0,0-.5A1.13,1.13,0,0,0,276.93,148.84Z"
        transform="translate(-5.33 -19.5)" />
    <path
        d="M36.38,160.16l.55,0h.75v-1.45l-.06-1.21s.09-.05.18,0l.28,0q.94.15,1,.35t-.32.35v1.94h.05a2.21,2.21,0,0,1,.45-.54.34.34,0,0,1,.19.1c.2.2.33.34.39.41s.08.13.06.18a.11.11,0,0,1-.11.06h-1v3.23l.6-.15.33-.09c.12,0,.14,0,0,.14l-.15.1-.41.28-.91.61-.72.53-.26.19a.64.64,0,0,1-.2.12l0,0a1,1,0,0,1-.1-.2l-.42-1c0-.08-.05-.13,0-.14s.06,0,.17,0l.35,0c.11,0,.34,0,.7-.12v-3.44H37l-.39,0Zm4.74,0H42.7q0-.58,0-1t-.06-1.07l0-.5,0-.24s.08,0,.17,0l.39,0q1,.12,1,.32s-.09.15-.26.3c0,.21,0,.38,0,.49s0,.41,0,.89v.78h1l.35-.47q.25-.32.32-.32a.47.47,0,0,1,.24.12,8.05,8.05,0,0,1,.69.62q.1.12.08.19s-.06.07-.15.07H43.81c0,.28,0,.54,0,.79s0,.51.06.79a9.88,9.88,0,0,0,.18,1q.25-.56.32-.77t.17-.57l.12-.44,0-.21s.1,0,.23,0l.41.17.39.24c.26.16.38.28.38.38s-.13.17-.35.21q-.38.86-.49,1.08l-.7,1.26a4,4,0,0,0,.51.84q.34.44.55.41t.56-.61l.25-.41c0-.09.09-.12.12-.1a.09.09,0,0,1,0,.1l-.1.34-.13.38a1.81,1.81,0,0,0-.1.47.79.79,0,0,0,.11.42l.23.42q.18.57-.48.58a2,2,0,0,1-1.21-.49,3.59,3.59,0,0,1-1.1-1.43,6.76,6.76,0,0,1-1.55,1.12,6.38,6.38,0,0,1-1.47.57l-.23.05a.42.42,0,0,1-.16,0q-.08,0-.08-.06s.05-.08.17-.13l.15-.06a5.63,5.63,0,0,0,1.48-1,6.22,6.22,0,0,0,1.24-1.49,9.9,9.9,0,0,1-.42-1.67,15.25,15.25,0,0,1-.19-1.71l0-.53H41.09l0,1.42h.5a2.93,2.93,0,0,1,.33-.34.32.32,0,0,1,.15,0l.41.24q.38.22.39.35t-.21.26c0,.19,0,.35,0,.5s0,.42-.06.82-.08.71-.12.95a3.18,3.18,0,0,1-.25.75.74.74,0,0,1-.66.44q-.48,0-.49-.16a.9.9,0,0,1,0-.22q0-.21-.27-.39l-.11-.06a.1.1,0,0,1-.06-.11.06.06,0,0,1,.08-.05l.25.05a.4.4,0,0,0,.49-.24,3.34,3.34,0,0,0,.23-1.08q.07-.77.07-1.2V162H41q0,.24-.06,1a5.18,5.18,0,0,1-.27,1.39,3.47,3.47,0,0,1-.85,1.29,4.64,4.64,0,0,1-1.32,1l-.3.14-.17.09a.51.51,0,0,1-.17.06.1.1,0,0,1-.11,0s0-.1.15-.17l.18-.11s.24-.18.59-.47a2.94,2.94,0,0,0,.83-1.28,6.64,6.64,0,0,0,.38-1.66q.07-.82.07-1.42t0-1l0-.66-.05-.4s.09,0,.2,0Zm3-1.9-.11-.13q-.09-.1-.06-.16s.08-.05.2,0l.6.11a.76.76,0,0,1,.48.35,1,1,0,0,1,.18.52.68.68,0,0,1-.17.45.64.64,0,0,1-.4.21.46.46,0,0,1-.39-.11.44.44,0,0,1-.16-.24,2.56,2.56,0,0,1,0-.4A.78.78,0,0,0,44.14,158.23Z"
        transform="translate(-5.33 -19.5)" />
    <path
        d="M52.29,159.15a1,1,0,0,1-.27-.2.62.62,0,0,1-.11-.3l0-.46a1.12,1.12,0,0,0-.21-.57,1.63,1.63,0,0,0-.23-.24.94.94,0,0,1-.16-.16c-.06-.07,0-.1.2-.1l.59.1a2.43,2.43,0,0,1,.88.36.83.83,0,0,1,.39.78.88.88,0,0,1-.13.42,1.1,1.1,0,0,1-.56.36h3l.5-.69a.33.33,0,0,1,.2-.13.6.6,0,0,1,.34.15,4.9,4.9,0,0,1,.71.61c.08.1.11.17.09.21s-.08.06-.18.06H53.08c.19,0,.28.09.27.18s-.11.19-.31.3V161h1.8q.27-.46.37-.49a.55.55,0,0,1,.34.09q.74.4.84.48a.39.39,0,0,1,.12.13q0,.14-.29.37v3.31a2.12,2.12,0,0,1-.08.56q-.06.2-.58.37a1.16,1.16,0,0,1-.72.09.23.23,0,0,1-.15-.12l-.08-.24A1,1,0,0,0,54,165l-.29-.11c-.14,0-.21-.1-.2-.15s.1-.07.27-.06l.27,0a3.55,3.55,0,0,0,.72,0,.28.28,0,0,0,.19-.06.31.31,0,0,0,0-.2V161.2H53v4l.06,1.6A.71.71,0,0,1,53,167a.92.92,0,0,1-.55.15,1.21,1.21,0,0,1-.55,0,.39.39,0,0,1-.15-.2l.05-1.65V161.2H50v3.23l.05,1.14a.61.61,0,0,1-.11.21.74.74,0,0,1-.34.16,1.55,1.55,0,0,1-.48.06.51.51,0,0,1-.31-.06.39.39,0,0,1-.11-.14l.05-1.65v-2.2l-.05-1.36s.06,0,.12,0l1.27.45h1.7v-1.64H48.36l-.56,0-.26-.31.71.08Z"
        transform="translate(-5.33 -19.5)" />
    <path
        d="M63.45,161.47a.5.5,0,0,1-.15.19v3.08l.64-.12c.14,0,.22,0,.23,0a.1.1,0,0,1,0,.09l-.12,0-.73.31v1.46l.28-.17a3.92,3.92,0,0,0,.67-.6,4.88,4.88,0,0,0,.63-.79,4.18,4.18,0,0,1-.53-1.17,7.13,7.13,0,0,1-.18-.78l-.05-.39-.55,0-.25-.31.71.06h2l.23-.3a.27.27,0,0,1,.15-.12.46.46,0,0,1,.25.06l.34.14a3.06,3.06,0,0,1,.6.33c.13.1.2.17.2.2s-.13.23-.41.33a19.12,19.12,0,0,1-1.17,1.72,6.06,6.06,0,0,0,1.91.67l.34,0h.08a.08.08,0,0,1,.05.09s-.05.08-.13.12l-.31.18a1.48,1.48,0,0,0-.38.35,1.46,1.46,0,0,0-.25.38c0,.09-.06.14-.09.15a.21.21,0,0,1-.13,0,3.9,3.9,0,0,1-.83-.41,5.66,5.66,0,0,1-1-.75,6,6,0,0,1-1.8,1l-.35.11a.25.25,0,0,1,0,.12s-.05.09-.15.18a1.17,1.17,0,0,1-.67.17c-.31,0-.46-.06-.44-.27l0-1.16v-.37q-2,.73-2.42.91l-.39.18-.24.1s0,0-.07-.13l-.4-.92c-.07-.15-.1-.23-.09-.25s.09,0,.23,0l.31,0,.75,0v-3.74h-.56l-.6,0-.25-.31.76.06h7.58q.52-.76.61-.77a.36.36,0,0,1,.23.09q.87.68.83.78c0,.07-.06.11-.1.11Zm1.8-1.1h-4v.32c0,.06-.06.14-.17.24a1.41,1.41,0,0,1-.83.12c-.14,0-.22,0-.25-.05a.33.33,0,0,1-.07-.12l.05-1v-1.54a6,6,0,0,0,0-.62q0-.25,0-.26l.19,0,1.27.35h3.62l.26-.35a.31.31,0,0,1,.19-.11,1.85,1.85,0,0,1,.72.27q.59.3.62.39t-.32.39v1.22l0,.88q-.16.33-.91.35c-.21,0-.34,0-.37-.05a.31.31,0,0,1,0-.17ZM61,162.57h1.12v-1.11h-.95a.7.7,0,0,1-.17.23Zm0,1.2h1.12v-1H61Zm1.13,1.16v-1H61v1.1ZM61.3,159h4v-1h-4Zm0,1.16h4v-.95h-4Zm4.07,4.07c.12-.2.24-.4.34-.6a6.36,6.36,0,0,0,.38-1H64.29a5.05,5.05,0,0,0,.43.85A3.46,3.46,0,0,0,65.37,164.24Z"
        transform="translate(-5.33 -19.5)" />
    <path
        d="M74.19,161a.87.87,0,0,1-.54-.13.47.47,0,0,1-.15-.35.78.78,0,0,1,0-.22.94.94,0,0,0,0-.3,1.08,1.08,0,0,0-.24-.39,11.25,11.25,0,0,1-2.05,1.13l-.55.23c-.14.06-.22.06-.25,0s0-.1.09-.16l.38-.26a9.84,9.84,0,0,0,.86-.7,7.22,7.22,0,0,0,1-1.09,6.66,6.66,0,0,0,.62-1l.16-.33,0-.13c0-.09.16-.09.34,0q.74.31,1,.41c.2.07.31.15.31.25s-.17.19-.49.25l-.44.48h2q.18-.23.3-.39a.51.51,0,0,1,.2-.2q.09,0,.34.1,1.15.6,1.14.82t-.42.32a16.18,16.18,0,0,1-1.51,1.46,10.26,10.26,0,0,1-1.16.75c.68.16,1,.3,1,.41s0,.18-.08.19l-.35.12-.61.6h2q.31-.47.44-.52a.53.53,0,0,1,.38.1,6.71,6.71,0,0,1,.8.55c.25.2.38.34.39.41s-.14.28-.41.35A18.27,18.27,0,0,1,77,165.51a6.24,6.24,0,0,1-1.5.83,11.66,11.66,0,0,1-1.81.52,14.3,14.3,0,0,1-1.67.26q-.66.05-1.67.05H70c-.17,0-.24,0-.21-.1a.18.18,0,0,1,.15-.11l.41,0a10.21,10.21,0,0,0,2.9-.62q1-.43,1.82-.86-.55,0-.69-.11a.5.5,0,0,1-.16-.31,1.1,1.1,0,0,1,0-.39.5.5,0,0,0-.08-.42L74,164a6.13,6.13,0,0,1-1.1.61,7.7,7.7,0,0,1-1.46.5l-.43.1q-.16,0-.18,0a.1.1,0,0,1,.05-.12l.33-.17a7.4,7.4,0,0,0,1.7-1.14,17.29,17.29,0,0,0,1.57-1.78,15,15,0,0,1-2,.61q-.8.16-2.26.3l-.32,0c-.1,0-.15,0-.15-.06s0-.09.1-.11l.47-.12,1-.24A12.08,12.08,0,0,0,74.19,161Zm.45-.29a7.19,7.19,0,0,0,1-.85,11.85,11.85,0,0,0,.78-.92h-2.3l-.61.52a2.12,2.12,0,0,1,.94.32.66.66,0,0,1,.29.47A.8.8,0,0,1,74.64,160.75Zm-.4,3.05q.89.13,1.08.39a1,1,0,0,1,.21.49.92.92,0,0,1-.14.5,11.94,11.94,0,0,0,1.09-1q.33-.36.82-1H75Q74.67,163.47,74.24,163.8Z"
        transform="translate(-5.33 -19.5)" />
    <path
        d="M82.61,164.25a1.44,1.44,0,0,1,.69.18,1.31,1.31,0,0,1,.53.53,1.54,1.54,0,0,1,.2.73,1.36,1.36,0,0,1-.19.71,1.42,1.42,0,0,1-.52.54,1.31,1.31,0,0,1-.71.18,1.44,1.44,0,0,1-.73-.19,1.35,1.35,0,0,1-.52-.52,1.48,1.48,0,0,1-.18-.74,1.45,1.45,0,0,1,.19-.71,1.28,1.28,0,0,1,.54-.52A1.6,1.6,0,0,1,82.61,164.25Zm0,.44a1.14,1.14,0,0,0-.47.14.9.9,0,0,0-.38.35,1,1,0,0,0-.13.49.88.88,0,0,0,.13.49.92.92,0,0,0,.35.37,1,1,0,0,0,.49.13.89.89,0,0,0,.49-.12,1,1,0,0,0,.5-.88,1.05,1.05,0,0,0-.14-.48.93.93,0,0,0-.38-.36A1,1,0,0,0,82.6,164.69Z"
        transform="translate(-5.33 -19.5)" /><text x="-5.33" y="-19.5"></text>
</svg>