<svg id="图层_1" data-name="图层 1" xmlns="http://www.w3.org/2000/svg" viewBox="0 0 262.13 114.92">
    <defs>
        <style>
            .step21-1,
            .step21-2,
            .step21-3 {
                fill: #80b1d3;
            }

            .step21-2,
            .step21-3,
            .step21-4 {
                stroke: #ddd;
            }

            .step21-2,
            .step21-3 {
                stroke-opacity: 0;
            }

            .step21-3 {
                opacity: 0.38;
            }

            .step21-4 {
                fill: none;
            }
        </style>
    </defs>
    <title>step21</title>
    <rect class="step21-1" x="52.58" y="14.32" width="45" height="10" />
    <rect class="step21-1" x="0.08" y="1.32" width="29.5" height="10" />
    <path
        d="M34.37,19.9l-.31.39L33,21.68l-.4.52,1.35.12a7.5,7.5,0,0,0,.46-.87l.14-.35.06-.18h.09a5.28,5.28,0,0,1,.78.38q.64.34.63.47t-.43.2l-1.13,1.36q-.38.44-1.26,1.39l.7,0,1.3-.1.55,0a.16.16,0,0,1,.16.08c0,.05,0,.09-.09.12l-.68.24q-.92.32-2.27.9l-.55.24q-.27.12-.29.1L32.08,26l-.34-1-.06-.16.27-.1a1.91,1.91,0,0,0,.64-.45,7.14,7.14,0,0,0,1-1.49l-1.25.34-.23.06-.23.06s0,0,0-.06l-.33-1,0-.1a.1.1,0,0,1,0-.05s.06,0,.17-.06a.75.75,0,0,0,.37-.32,5.87,5.87,0,0,0,.51-1q.31-.68.45-1.07l.19-.55.06-.29h.06a4.71,4.71,0,0,1,.77.33q.66.32.67.44T34.37,19.9Zm-2.51,7.29.26,0a34.07,34.07,0,0,0,3.52-.6l.48-.11c.08,0,.13,0,.15.05s0,.09-.06.12l-.35.19-1.21.62q-1.06.53-1.91,1.06l-.26.16c-.11.06-.17.09-.19.09s0,0-.05-.09l-.49-1.3a.54.54,0,0,1,0-.13Zm6.6-7.4-1,1.71h2.36a2.07,2.07,0,0,1,.38-.52s.16,0,.33.1q.64.35.79.46t.16.18q0,.15-.29.35,0,.8,0,1.47t0,1.71q0,1-.09,1.63a2.94,2.94,0,0,1-.25,1,1.38,1.38,0,0,1-.44.54,3,3,0,0,1-.76.33,2.73,2.73,0,0,1-1,.14.27.27,0,0,1-.15,0,.15.15,0,0,1-.05-.06,1,1,0,0,1,0-.19,1.15,1.15,0,0,0-.12-.35,1,1,0,0,0-.21-.3,1.37,1.37,0,0,0-.3-.19l-.34-.16q-.22-.1-.17-.17a.12.12,0,0,1,.13-.06l.55.09q1.19.19,1.56-.17a1.67,1.67,0,0,0,.39-1.17q0-.81,0-2l0-1.25V21.7H37.33q-.26.39-.39.55t-1.05,1.23l-.3.34q-.14.16-.21.09c-.05,0-.05-.12,0-.2l.25-.45a9.83,9.83,0,0,0,.7-1.6q.25-.76.38-1.25t.21-.84l.08-.39,0-.31.05,0,.89.22q.86.22.88.42T38.46,19.79Zm-1.24,3.78a3.32,3.32,0,0,1,1.28.7,1.13,1.13,0,0,1,.27.67.78.78,0,0,1-.23.61.89.89,0,0,1-.57.28.58.58,0,0,1-.52-.2.61.61,0,0,1-.15-.4v-.55a1.87,1.87,0,0,0-.1-.52,1.9,1.9,0,0,0-.13-.3l-.23-.24a.1.1,0,0,1,0-.1s.06-.05.17,0Z"
        transform="translate(-31.42 -18.68)" />
    <path
        d="M42.86,21v-.49h.91a1.85,1.85,0,0,0,.41-.07,1.47,1.47,0,0,0,.41-.19,1.79,1.79,0,0,0,.33-.27l.17-.19h.38V26.2q0,.23,0,.42a.58.58,0,0,0,.08.29.34.34,0,0,0,.21.13,1.34,1.34,0,0,0,.34,0h.55v.39H42.77v-.39h.45a1.76,1.76,0,0,0,.35,0,.41.41,0,0,0,.26-.14.69.69,0,0,0,.1-.32,3.21,3.21,0,0,0,0-.39V21.7a2,2,0,0,0,0-.33.57.57,0,0,0-.09-.24.28.28,0,0,0-.18-.11l-.32,0Z"
        transform="translate(-31.42 -18.68)" />
    <path
        d="M48.47,19.81l.18.1.27.14a2,2,0,0,0,.39.1,4.18,4.18,0,0,0,.74.05h.49a2.76,2.76,0,0,0,.52-.07l.45-.14a1.75,1.75,0,0,0,.3-.13l.13-.08.1,0h.1s0,0,0,.12a1,1,0,0,1-.12.27l-.17.29a2.43,2.43,0,0,1-.2.25,1.91,1.91,0,0,1-.37.31,2,2,0,0,1-.42.22,1.57,1.57,0,0,1-.32.09l-.39,0-.35,0-.76-.05-.29,0-.12,2.05.39-.28a1.62,1.62,0,0,1,.4-.2l.4-.1.39,0a3.32,3.32,0,0,1,.52.05,2.37,2.37,0,0,1,.57.17,1.83,1.83,0,0,1,.53.4,1.86,1.86,0,0,1,.38.52,2.25,2.25,0,0,1,.15.48,3,3,0,0,1,.05.49,3.22,3.22,0,0,1,0,.53,2.71,2.71,0,0,1-.23.74,3.43,3.43,0,0,1-.39.61,2.32,2.32,0,0,1-.52.48,2,2,0,0,1-.51.26,2.8,2.8,0,0,1-.44.1,1.92,1.92,0,0,1-.37,0l-.44,0a2.18,2.18,0,0,1-.41-.09,2,2,0,0,1-.35-.17,1.55,1.55,0,0,1-.35-.3,1.35,1.35,0,0,1-.27-.45A1.46,1.46,0,0,1,48,26a.93.93,0,0,1,.12-.47.63.63,0,0,1,.33-.29,1.16,1.16,0,0,1,.47-.07.6.6,0,0,1,.44.22.72.72,0,0,1,.18.49.65.65,0,0,1-.13.43,1.69,1.69,0,0,1-.22.2c-.06,0-.1.08-.11.1a.61.61,0,0,0,0,.13.29.29,0,0,0,.13.22.52.52,0,0,0,.23.14,1,1,0,0,0,.34.05,1,1,0,0,0,.37-.05,1.1,1.1,0,0,0,.36-.2,1.12,1.12,0,0,0,.29-.47,3.24,3.24,0,0,0,.17-.75,5.21,5.21,0,0,0,0-.75q0-.18,0-.46a1.79,1.79,0,0,0-.12-.49,1.27,1.27,0,0,0-.27-.4,1,1,0,0,0-.38-.25,1.24,1.24,0,0,0-.41-.07,1.9,1.9,0,0,0-.39.05,1.78,1.78,0,0,0-.33.13,1.14,1.14,0,0,0-.27.18.78.78,0,0,0-.16.22.92.92,0,0,1-.1.17.2.2,0,0,1-.11.06.13.13,0,0,1-.12,0,.15.15,0,0,1,0-.13Z"
        transform="translate(-31.42 -18.68)" />
    <path
        d="M54.45,19.56a1,1,0,0,1,.4.1,1,1,0,0,1,.38.3,1.72,1.72,0,0,1,.24.45,3,3,0,0,1,.13.5,4.57,4.57,0,0,1,0,.67,4.5,4.5,0,0,1-.08.88,3.67,3.67,0,0,1-.14.49,1.51,1.51,0,0,1-.19.35,1.3,1.3,0,0,1-.34.31.85.85,0,0,1-.48.15.71.71,0,0,1-.44-.11,1.16,1.16,0,0,1-.31-.3,1.79,1.79,0,0,1-.21-.41,3.22,3.22,0,0,1-.15-.53,4.2,4.2,0,0,1-.06-.8,4.07,4.07,0,0,1,.08-.85,2.83,2.83,0,0,1,.2-.56,1.11,1.11,0,0,1,.38-.47A1,1,0,0,1,54.45,19.56Zm0,3.87a.37.37,0,0,0,.18-.06.48.48,0,0,0,.18-.25,1.84,1.84,0,0,0,.11-.46q0-.27,0-.83t0-1a2,2,0,0,0-.11-.59.63.63,0,0,0-.17-.25.28.28,0,0,0-.16-.06.37.37,0,0,0-.18.08.59.59,0,0,0-.16.26,1.83,1.83,0,0,0-.1.47q0,.27,0,.75t0,.76c0,.18,0,.36,0,.53a2.16,2.16,0,0,0,.09.44.43.43,0,0,0,.14.23A.22.22,0,0,0,54.42,23.42Zm-.34,5.16L58.54,19H59l-4.49,9.55Zm3.5-2.67a3.45,3.45,0,0,1,.05-.7,2.38,2.38,0,0,1,.22-.68,1.36,1.36,0,0,1,.38-.48.9.9,0,0,1,.53-.18.86.86,0,0,1,.53.18,1.23,1.23,0,0,1,.38.51,3.54,3.54,0,0,1,.2.62,3.11,3.11,0,0,1,.06.66,4.67,4.67,0,0,1-.07.7,3.05,3.05,0,0,1-.19.64,1.21,1.21,0,0,1-.4.51.91.91,0,0,1-.54.19.72.72,0,0,1-.42-.1,1.14,1.14,0,0,1-.34-.34,2.49,2.49,0,0,1-.28-.6A3,3,0,0,1,57.58,25.9Zm1.19,1.64a.35.35,0,0,0,.17-.07.54.54,0,0,0,.17-.32,2.87,2.87,0,0,0,.08-.56q0-.31,0-.71,0-.64,0-1a2,2,0,0,0-.08-.44.52.52,0,0,0-.14-.21.34.34,0,0,0-.18-.09.33.33,0,0,0-.18.07.49.49,0,0,0-.17.24,2.39,2.39,0,0,0-.11.51,5.64,5.64,0,0,0,0,.59q0,.25,0,.64t0,.67a1.36,1.36,0,0,0,.1.38.41.41,0,0,0,.16.21A.28.28,0,0,0,58.77,27.55Z"
        transform="translate(-31.42 -18.68)" />
    <path
        d="M62.79,21.18h.82q.17-.2.28-.37c.08-.11.14-.16.2-.17l.13,0,.31.12a4.08,4.08,0,0,1,.51.3q.34.22.35.27t-.35.39v4.59l.05,1a.58.58,0,0,1-.21.3,1.3,1.3,0,0,1-.39.13,1,1,0,0,1-.41,0q-.19,0-.24-.11a.51.51,0,0,1,0-.25v-.37H62.1v.58A.39.39,0,0,1,62,28a.75.75,0,0,1-.36.16,1.57,1.57,0,0,1-.45.06q-.22,0-.26-.07a.43.43,0,0,1-.05-.19l.05-1.34V22l-.05-1.29s0,0,.1,0l1.2.54h.06q.07-.4.11-.61l.11-.84,0-.39v-.47h.11q.27.05.92.24t.66.35q0,.15-.42.24Zm1,2.67V21.38H62.1v2.46ZM62.1,26.91h1.69V24.06H62.1Zm6.65-5.37q.33-.56.45-.57a1.94,1.94,0,0,1,.76.32q.57.33.59.44s-.13.18-.39.4q0,.66,0,1t0,1.17q0,.78-.06,1.33t-.1,1.29a2.48,2.48,0,0,1-.34,1.14,1.66,1.66,0,0,1-.93.59q-.67.2-.77,0a.27.27,0,0,1,0-.13,1.89,1.89,0,0,0-.12-.4q-.11-.28-.71-.46l-.31-.09c-.1,0-.15-.06-.13-.12s.08-.08.22-.08l.45,0a2.63,2.63,0,0,0,.89,0,.86.86,0,0,0,.41-.3,1.82,1.82,0,0,0,.23-.9q.05-.68.08-1.36t0-1V21.77h-2.3a14.64,14.64,0,0,1-1,1.29l-.16.17-.15.16q-.11.06-.15,0s0-.07,0-.14l.1-.18.11-.26.12-.24a5.28,5.28,0,0,0,.29-.83q.17-.6.29-1t.26-1.3l0-.27,0-.26a.47.47,0,0,1,.23,0l.81.19q.77.17.75.45t-.42.26l-.25.42-.41.74-.34.56Zm-2.7,2.09-.19-.17a.14.14,0,0,1-.06-.09s0,0,.1,0a3.45,3.45,0,0,1,1,.3,1.4,1.4,0,0,1,.82.67,1.75,1.75,0,0,1,.16.6,1.09,1.09,0,0,1-.22.57.71.71,0,0,1-.68.27q-.45,0-.53-.28a1.41,1.41,0,0,1-.06-.45v-.25a2.86,2.86,0,0,0,0-.5A1.13,1.13,0,0,0,66.05,23.64Z"
        transform="translate(-31.42 -18.68)" />
    <path
        d="M71.54,21.76l.55,0h.75V20.35l-.06-1.21s.09-.05.18,0l.28,0q.94.15,1,.35t-.32.35V21.8h.05a2.22,2.22,0,0,1,.45-.54.33.33,0,0,1,.19.1q.3.3.39.41T75,22a.11.11,0,0,1-.11.06h-1v3.23l.6-.15.33-.09c.12,0,.14,0,0,.14l-.15.1-.41.28-.91.61-.72.53-.26.19c-.11.09-.18.13-.2.12l0,0a1,1,0,0,1-.1-.2l-.42-1c0-.08-.05-.13,0-.15s.06,0,.17,0l.35,0a7,7,0,0,0,.7-.12V22h-.68l-.39,0Zm4.74,0h1.59q0-.58,0-1t-.06-1.07l0-.5,0-.24s.08,0,.17,0l.39,0q1,.12,1,.32t-.26.3c0,.21,0,.38,0,.49s0,.41,0,.89v.78h1l.35-.47q.25-.32.32-.32a.48.48,0,0,1,.24.12,8.11,8.11,0,0,1,.69.62q.1.12.08.19s-.06.07-.15.07H79q0,.42,0,.79t.06.79a9.87,9.87,0,0,0,.18,1q.25-.56.32-.77t.17-.57l.12-.44,0-.21s.1,0,.23,0l.41.17.39.24q.39.24.38.38t-.35.21q-.38.86-.49,1.08l-.7,1.26a4,4,0,0,0,.51.84q.34.44.55.41t.56-.61l.25-.41c0-.09.09-.12.12-.1a.09.09,0,0,1,0,.1l-.1.34-.13.38a1.82,1.82,0,0,0-.1.47.79.79,0,0,0,.11.42l.23.42q.18.57-.48.58a2,2,0,0,1-1.21-.49A3.6,3.6,0,0,1,79,26.83,6.77,6.77,0,0,1,77.43,28a6.37,6.37,0,0,1-1.47.57l-.23.05a.43.43,0,0,1-.16,0q-.08,0-.08-.06s.05-.08.17-.13l.15-.06a5.64,5.64,0,0,0,1.48-1,6.23,6.23,0,0,0,1.24-1.49,9.89,9.89,0,0,1-.42-1.67,15.25,15.25,0,0,1-.19-1.71l0-.53H76.26l0,1.42h.5a3,3,0,0,1,.33-.34.32.32,0,0,1,.15,0l.41.24q.38.22.39.35t-.21.26c0,.19,0,.35,0,.5s0,.42-.06.82-.08.71-.12.95a3.18,3.18,0,0,1-.25.75.73.73,0,0,1-.66.44q-.48,0-.49-.16a.9.9,0,0,1,0-.22q0-.21-.27-.39l-.11-.06a.1.1,0,0,1-.06-.11.06.06,0,0,1,.08-.05l.25.05a.4.4,0,0,0,.49-.24,3.34,3.34,0,0,0,.23-1.08q.07-.77.07-1.2v-.32h-.66q0,.24-.06,1A5.18,5.18,0,0,1,75.85,26,3.46,3.46,0,0,1,75,27.25a4.65,4.65,0,0,1-1.32,1l-.3.14-.17.09a.53.53,0,0,1-.17.06.1.1,0,0,1-.11,0s0-.1.15-.17l.18-.11s.24-.18.59-.47a2.94,2.94,0,0,0,.83-1.28,6.65,6.65,0,0,0,.38-1.66q.07-.82.07-1.42t0-1l0-.66-.05-.4s.09,0,.2,0Zm3-1.9-.11-.13c-.06-.06-.08-.12-.06-.16s.08-.05.2,0l.6.11a.76.76,0,0,1,.48.35,1,1,0,0,1,.18.52.68.68,0,0,1-.17.45.64.64,0,0,1-.4.21.46.46,0,0,1-.39-.11.44.44,0,0,1-.16-.24,2.55,2.55,0,0,1,0-.4A.78.78,0,0,0,79.31,19.83Z"
        transform="translate(-31.42 -18.68)" />
    <path
        d="M87.45,20.75a1,1,0,0,1-.27-.2.62.62,0,0,1-.11-.3l0-.46a1.12,1.12,0,0,0-.21-.57,1.65,1.65,0,0,0-.23-.24.89.89,0,0,1-.16-.16c-.06-.07,0-.1.2-.1l.59.1a2.44,2.44,0,0,1,.88.36.84.84,0,0,1,.39.78.88.88,0,0,1-.13.42,1.1,1.1,0,0,1-.56.36h3l.5-.69a.32.32,0,0,1,.2-.13.59.59,0,0,1,.34.15,5,5,0,0,1,.71.61q.11.15.09.21s-.08.06-.18.06H88.25q.28,0,.27.18t-.31.3V22.6H90q.27-.46.37-.49a.55.55,0,0,1,.34.09q.74.4.84.48a.4.4,0,0,1,.12.13q0,.14-.29.37v3.31a2.12,2.12,0,0,1-.08.56q-.06.2-.58.37a1.17,1.17,0,0,1-.72.09.23.23,0,0,1-.15-.12l-.08-.24a1,1,0,0,0-.64-.5l-.29-.11q-.22-.07-.2-.15s.1-.07.27-.06l.27,0a3.52,3.52,0,0,0,.72,0,.28.28,0,0,0,.19-.06.31.31,0,0,0,0-.2V22.8H88.2v4l.06,1.6a.72.72,0,0,1-.14.24.93.93,0,0,1-.55.15,1.23,1.23,0,0,1-.55,0,.4.4,0,0,1-.15-.2l.05-1.65V22.8H85.15V26l.05,1.14a.62.62,0,0,1-.11.21.76.76,0,0,1-.34.16,1.55,1.55,0,0,1-.48.06.51.51,0,0,1-.31-.06.39.39,0,0,1-.11-.14l.05-1.65v-2.2l-.05-1.36s.06,0,.12,0l1.27.45h1.7V21H83.53L83,21l-.26-.31.71.08Z"
        transform="translate(-31.42 -18.68)" />
    <path
        d="M99.15,19.6v3.73H101v-2L101,20.31a.16.16,0,0,1,0-.09s.06,0,.14,0a2.65,2.65,0,0,0,.44,0,3.07,3.07,0,0,1,.71.11c.23.06.35.12.36.17s-.1.24-.37.4v1.74l.06,1.06a.55.55,0,0,1-.1.23,1.49,1.49,0,0,1-.65.17q-.58.08-.58-.21v-.4H99.15V28h2.54V25.73l-.05-1.06c0-.06.08-.09.17-.08l.2,0,.73.1q.57.09.6.21t-.38.4v2l.06,1.06a.55.55,0,0,1-.1.23,1.5,1.5,0,0,1-.65.17q-.58.08-.58-.21v-.4h-6l-.3.32q-.15.17-.26.17t-.56-.33q-.45-.34-.43-.48a2.62,2.62,0,0,1,.32-.32v-2l-.06-1.08s.08-.07.18-.06l.72.06q.69.05.75.26t-.35.41V28h2.19V23.53H96.24q-.37.39-.46.39a1.68,1.68,0,0,1-.61-.29q-.49-.3-.45-.45l.11-.11.19-.16V21.28l-.06-1.07c0-.06.08-.08.18-.06l.16,0,.7.1q.56.09.61.2t-.37.41v2.46h1.62V20.15L97.81,19a.11.11,0,0,1,0-.07.29.29,0,0,1,.14,0l.19,0,.73.09q.58.09.62.2T99.15,19.6Z"
        transform="translate(-31.42 -18.68)" />
    <path
        d="M107.13,19.89a.66.66,0,0,1-.25.26v2.27h.18l.28-.35c.15-.18.25-.26.3-.27a.42.42,0,0,1,.23.1,2.66,2.66,0,0,1,.49.47q.11.16.09.21s-.05,0-.12,0h-1.46v2.44l1.1-.16.3-.05s.07,0,.09.06,0,.09-.06.12l-.43.23-1.13.59q-.86.44-1.12.59l-.52.3-.18.12c-.07,0-.11,0-.12,0l-.29-1.28c0-.09,0-.15,0-.16a.36.36,0,0,1,.16,0l.42,0a4.85,4.85,0,0,0,.7-.1V22.63h-.48l-.45,0-.32-.31.72.06h.54V19.89h-.63l-.45,0-.31-.3.72.06H107q.44-.65.54-.67a.34.34,0,0,1,.21.05q.13.1.45.39t.3.36a.08.08,0,0,1-.09.06Zm5.13,4.51q0,.14-.28.27V27a.61.61,0,0,0,.1.39q.1.12.75.11a1.06,1.06,0,0,0,.73-.19,1.64,1.64,0,0,0,.34-.48,4.21,4.21,0,0,0,.24-.61l.14-.49c0-.09.05-.12.1-.1a.1.1,0,0,1,.06.1l-.08.59a2.47,2.47,0,0,0,0,.63.79.79,0,0,0,.1.31,2.56,2.56,0,0,0,.21.28.52.52,0,0,1,.15.33.94.94,0,0,1-.28.47q-.27.3-1.85.29a3.44,3.44,0,0,1-1.33-.15.76.76,0,0,1-.34-.34,1.54,1.54,0,0,1-.08-.57V25.4a6.37,6.37,0,0,1-1,1.42,3.88,3.88,0,0,1-1.26.92,12.91,12.91,0,0,1-1.31.53,4.82,4.82,0,0,1-.88.23l-.39,0c-.06,0-.09,0-.09-.06s0-.08.12-.11l.35-.13a5.05,5.05,0,0,0,2.5-1.71,6.88,6.88,0,0,0,.93-1.61q.16-.52.26-1a9.48,9.48,0,0,0,.16-.94l.06-.73c0-.13,0-.22,0-.28v-.44l0-.83s0-.06.09-.06a7.08,7.08,0,0,1,.86.12q.69.12.68.31t-.32.26q0,.27-.05.62t-.12.95q-.09.59-.11.7l-.12.49Q112.25,24.24,112.26,24.4Zm.12-4.87q.27-.43.39-.46a.53.53,0,0,1,.33.06q.88.43.91.59t-.37.33v3.65l0,1.11a.51.51,0,0,1-.06.18.67.67,0,0,1-.28.15,1.26,1.26,0,0,1-.6,0q-.24,0-.28-.08a.39.39,0,0,1-.05-.17l0-1.24v-4h-2.8v4l0,1.12a.48.48,0,0,1-.08.16q-.05.08-.35.12a1.84,1.84,0,0,1-.49,0,.34.34,0,0,1-.21-.06.3.3,0,0,1-.06-.19l.06-1.18V20l-.05-1s0-.06.11,0l1.12.54Z"
        transform="translate(-31.42 -18.68)" />
    <path
        d="M120,19.74h2.56v.37h-.38a1.33,1.33,0,0,0-.35,0,.37.37,0,0,0-.19.1.48.48,0,0,0-.08.23,1.72,1.72,0,0,0,0,.28V27.5h-.62l-4.09-6.26v5.17a2,2,0,0,0,0,.31A.54.54,0,0,0,117,27a.39.39,0,0,0,.2.12,1.15,1.15,0,0,0,.33,0H118v.38h-2.59v-.38h.41a1,1,0,0,0,.28,0,.41.41,0,0,0,.19-.12.5.5,0,0,0,.1-.21,1.53,1.53,0,0,0,0-.35V21.08a3.55,3.55,0,0,0,0-.55.54.54,0,0,0-.16-.31.61.61,0,0,0-.42-.12h-.42v-.37h2.2l3.54,5.45V20.75a1.75,1.75,0,0,0,0-.32.36.36,0,0,0-.09-.2.44.44,0,0,0-.18-.09.86.86,0,0,0-.23,0H120Z"
        transform="translate(-31.42 -18.68)" />
    <path
        d="M123.18,23.81q0-.18,0-.42t.05-.59a4,4,0,0,1,.13-.64,3.25,3.25,0,0,1,.27-.63A3.19,3.19,0,0,1,124,21a3.52,3.52,0,0,1,.42-.41,3.08,3.08,0,0,1,.51-.34,4,4,0,0,1,.55-.25,2.78,2.78,0,0,1,.51-.13,3.26,3.26,0,0,1,1.28.06,2.87,2.87,0,0,1,.66.25,3.66,3.66,0,0,1,.56.36A4,4,0,0,1,129,21a3,3,0,0,1,.42.61,2.94,2.94,0,0,1,.27.76,6.69,6.69,0,0,1,.12.8q0,.39,0,.59t0,.41q0,.24-.06.52a4.15,4.15,0,0,1-.11.54,3.67,3.67,0,0,1-.27.66,3,3,0,0,1-.44.65,2.53,2.53,0,0,1-.54.45,3.7,3.7,0,0,1-.56.29,3.61,3.61,0,0,1-.47.16l-.45.08-.39,0a2.38,2.38,0,0,1-.46,0,3.11,3.11,0,0,1-.54-.13,4.24,4.24,0,0,1-.61-.28,3,3,0,0,1-.6-.41,3.06,3.06,0,0,1-.48-.58,3.92,3.92,0,0,1-.37-.67,3.16,3.16,0,0,1-.18-.6,4.33,4.33,0,0,1-.08-.53Q123.18,24,123.18,23.81Zm1.59.44q0,.28,0,.62a6.28,6.28,0,0,0,.1.71,2.1,2.1,0,0,0,.16.54q.09.18.19.34a1.62,1.62,0,0,0,.28.33,1.3,1.3,0,0,0,.47.26,1.54,1.54,0,0,0,.55.09l.33,0a1.24,1.24,0,0,0,.39-.11,1.07,1.07,0,0,0,.37-.36A2.25,2.25,0,0,0,128,26a4,4,0,0,0,.15-.67q0-.3.05-.83t0-.79q0-.33,0-.71t0-.77q0-.39-.07-.65a2.54,2.54,0,0,0-.13-.5,2,2,0,0,0-.19-.38,1.15,1.15,0,0,0-.28-.28,1.27,1.27,0,0,0-.41-.2,1.9,1.9,0,0,0-.51-.06,2,2,0,0,0-.44.06,1.53,1.53,0,0,0-.4.19,1.41,1.41,0,0,0-.43.5,2.53,2.53,0,0,0-.28.81q-.08.45-.12.84t-.06,1Q124.76,24.19,124.77,24.25Z"
        transform="translate(-31.42 -18.68)" />
    <path
        d="M135.33,25.56l-.19,2h-4.28v-.18a2.63,2.63,0,0,1,.06-.41l.06-.33a3.39,3.39,0,0,1,.1-.39q.08-.26.15-.44a2.93,2.93,0,0,1,.2-.42,4.13,4.13,0,0,1,.37-.54l.36-.43.46-.46a5.68,5.68,0,0,0,.55-.6,2.69,2.69,0,0,0,.34-.58,3,3,0,0,0,.18-.55,2.61,2.61,0,0,0,.05-.54,2,2,0,0,0-.09-.54,1.22,1.22,0,0,0-.23-.41,1.15,1.15,0,0,0-.28-.25,1,1,0,0,0-.26-.1,1.39,1.39,0,0,0-.31,0,1.3,1.3,0,0,0-.38.08.83.83,0,0,0-.3.18.8.8,0,0,0-.16.21.56.56,0,0,0-.05.21.21.21,0,0,0,.09.19.29.29,0,0,0,.15.06l.21,0a.76.76,0,0,1,.32.16.62.62,0,0,1,.14.47.79.79,0,0,1-.82.83.77.77,0,0,1-.6-.23.89.89,0,0,1-.23-.38,1.34,1.34,0,0,1-.07-.49,2.14,2.14,0,0,1,0-.37,1.74,1.74,0,0,1,.17-.47,1.49,1.49,0,0,1,.39-.47,2.17,2.17,0,0,1,.57-.34,1.88,1.88,0,0,1,.49-.15l.36,0a4.13,4.13,0,0,1,.66,0,2.41,2.41,0,0,1,.56.18,1.63,1.63,0,0,1,.5.34,2.19,2.19,0,0,1,.32.41,1.57,1.57,0,0,1,.18.45,2.36,2.36,0,0,1,.06.46q0,.22,0,.36a2.55,2.55,0,0,1-.11.48,1.68,1.68,0,0,1-.3.54,2.54,2.54,0,0,1-.45.45q-.24.18-.76.51t-.81.56a4.37,4.37,0,0,0-.49.44,3.37,3.37,0,0,0-.35.44,2.12,2.12,0,0,0-.2.34,2.32,2.32,0,0,0-.09.27.4.4,0,0,0,0,.19s.08,0,.22,0h2.42l.28,0a.31.31,0,0,0,.17-.09.51.51,0,0,0,.12-.21l.08-.27,0-.21Z"
        transform="translate(-31.42 -18.68)" />
    <path
        d="M136.21,21.82s0-.06.15-.05h.24a3.28,3.28,0,0,1,.82.22.71.71,0,0,1,.55.64.81.81,0,0,1-.2.64,1.15,1.15,0,0,1-.32.18.54.54,0,0,1-.64-.2.71.71,0,0,1-.11-.32l0-.19a1.15,1.15,0,0,0-.27-.68C136.27,21.95,136.21,21.86,136.21,21.82Zm3.09-1.58.12-.27c0-.06,0-.08.08-.05a.09.09,0,0,1,0,.1l-.06.26q-.1.39-.33,1.19t-.34,1.21q-.11.4-.35,1.48a13.9,13.9,0,0,0-.28,1.54,6,6,0,0,0,0,.75,1.84,1.84,0,0,0,0,.5l.12.37a3.1,3.1,0,0,1,.11.39.89.89,0,0,1,0,.35,1,1,0,0,1-.25.43.83.83,0,0,1-.68.23q-.46,0-.54-.24a1.51,1.51,0,0,1-.09-.33,3,3,0,0,1,0-.38q0-.28,0-.48a5,5,0,0,0,0-.55,2.64,2.64,0,0,0-.1-.5,1.79,1.79,0,0,0-.19-.37.87.87,0,0,0-.23-.26l-.11-.08a.11.11,0,0,1,0-.08s.06,0,.16,0l.18.05.17,0a.32.32,0,0,0,.26-.11,1,1,0,0,0,.21-.34q.09-.23.35-.78t.74-1.72Q138.8,21.38,139.3,20.24Zm-.52-.15a.86.86,0,0,1-.23.52.65.65,0,0,1-.56.24.51.51,0,0,1-.34-.12.55.55,0,0,1-.18-.26q0-.15-.12-.52a1.05,1.05,0,0,0-.31-.57l-.11-.09,0,0v0s0,0,0-.05a1,1,0,0,1,.42,0q1,0,1.24.41A1.3,1.3,0,0,1,138.79,20.09Zm2.38,1.26h-.73l.05.2a.79.79,0,0,1,0,.2,2.3,2.3,0,0,1-.1.52.87.87,0,0,1-.3.46.76.76,0,0,1-.49.16.63.63,0,0,1-.47-.2.52.52,0,0,1-.17-.41.51.51,0,0,1,.06-.21,1.19,1.19,0,0,1,.23-.29l.34-.35a1.31,1.31,0,0,0,.18-.32.86.86,0,0,0,.06-.34,1,1,0,0,1,0-.23s.05,0,.12,0a1.64,1.64,0,0,1,.39.62h.85q.13-.44.19-.69t.16-.68q.09-.43.11-.58l0-.35s.06-.05.17,0l.6.12q1,.22,1,.38t-.32.26q-.38.91-.62,1.58h1.8q.28-.43.39-.45a.43.43,0,0,1,.27.06l.61.41q.72.45.66.7t-.35.16h-.27a2.83,2.83,0,0,0-1.27.53l-.38.25c-.13.09-.2.11-.23.08a.12.12,0,0,1,0-.12l.21-.43a8.5,8.5,0,0,0,.4-1H142.6q0,.24,0,.54a8.67,8.67,0,0,0,.24,1,5.71,5.71,0,0,0,.34,1l.27.56a11.13,11.13,0,0,0,.93-1.27l.16-.27.06-.13q.09-.06.32.1l.53.37a3.15,3.15,0,0,1,.38.35c.12.13.18.22.16.26s-.2.13-.47.11q-.9.38-1.9.86a6.57,6.57,0,0,0,1.11,1.55q.45.4.83.68a3,3,0,0,0,.52.33l.19.09a.12.12,0,0,1,.08.12.09.09,0,0,1-.08.09l-.28.06a1.4,1.4,0,0,0-.62.28q-.18.17-.34.35c-.1.12-.17.18-.2.18s-.07,0-.1-.06a4.49,4.49,0,0,1-.85-1,10.25,10.25,0,0,1-.67-1.27,8.18,8.18,0,0,1-.54-1.86,14.05,14.05,0,0,1-.22-1.43l-.11-1.5a16.51,16.51,0,0,1-1,2l.32.12q.19.08,0,.24l-.17.14v3l1.61-.53c.07,0,.11,0,.12,0a.1.1,0,0,1,0,.1l-.38.31q-1.19,1-1.77,1.54l-.28.27c-.1.09-.16.14-.18.13s0,0-.05-.11l-.39-1.19q-.05-.15,0-.19l.16-.13a.34.34,0,0,0,.1-.28V24.86a7.85,7.85,0,0,1-1.57,1.3l-.3.17q-.1.05-.15,0s0-.11.07-.18l.17-.16a7.06,7.06,0,0,0,1.69-2.35Q140.85,22.33,141.17,21.35Z"
        transform="translate(-31.42 -18.68)" />
    <path
        d="M149.38,20.53h2.89a.84.84,0,0,1-.27-.2.65.65,0,0,1-.1-.38v-.37a1.42,1.42,0,0,0-.08-.38.47.47,0,0,0-.19-.27.78.78,0,0,1-.19-.15s0-.09.12-.11a3.34,3.34,0,0,1,.81.1,1.24,1.24,0,0,1,.82.45,1.06,1.06,0,0,1,.23.57.79.79,0,0,1-.52.73h2.57q.52-.85.65-.86a.51.51,0,0,1,.3.09,5.4,5.4,0,0,1,.64.52q.3.28.29.37c0,.06-.05.09-.13.09h-7.85q0,2.18-.07,3.21t-.11,1.7a4.33,4.33,0,0,1-.31,1.18,4.82,4.82,0,0,1-.58,1,4.73,4.73,0,0,1-.7.76l-.16.14q-.11.1-.15,0s0-.08,0-.15l.19-.29a3.16,3.16,0,0,0,.46-1.18,10.84,10.84,0,0,0,.16-1.31q0-.64.06-1.28,0-.83,0-1.9t0-1.42a4.59,4.59,0,0,0,0-.54l-.05-.45q0-.31,0-.33s.11,0,.27.09ZM152.24,27a5.35,5.35,0,0,1-.6-1,5.66,5.66,0,0,1-.4-1h-.33l-.69,0-.31-.29.82.05h3.05l.19-.28q.09-.15.16-.17a.46.46,0,0,1,.24.06q1.28.61,1.2.83t-.43.21a18.3,18.3,0,0,1-1.27,1.49,6.46,6.46,0,0,0,3,.54h.31c.07,0,.11,0,.12.06s0,.09-.11.13l-.27.14a1.84,1.84,0,0,0-.32.2,1.29,1.29,0,0,0-.4.54.69.69,0,0,0,0,.16v.12c0,.11-.14.14-.32.09A8.14,8.14,0,0,1,153,27.64a9.14,9.14,0,0,1-1.82.77,8.44,8.44,0,0,1-2.38.28h-.37c-.08,0-.11,0-.09-.07a.11.11,0,0,1,.08-.08l.35-.06.61-.11a6.28,6.28,0,0,0,1.4-.52A7.21,7.21,0,0,0,152.24,27Zm-2.75-4.8.77,0h.49v-.43l0-.85a.41.41,0,0,1,.2,0,9.34,9.34,0,0,1,1,.13c.11,0,.17.07.19.12s-.07.18-.24.29v.75h1.62V21.8l-.05-.77q0-.09.21-.06l.53,0q.71.1.73.26c0,.06-.08.15-.25.26v.69h.61q.43-.74.55-.75a.5.5,0,0,1,.29.1,3.46,3.46,0,0,1,.61.55q.16.2.13.26s-.06.06-.15.06h-2v.72l0,.67a.54.54,0,0,1-.27.27.82.82,0,0,1-.35.1q-.57,0-.57-.21v-.2h-1.62v.16a.29.29,0,0,1-.13.23,1,1,0,0,1-.53.13,1,1,0,0,1-.47,0,.29.29,0,0,1-.09-.18l.05-.76v-.88h-.37l-.69,0ZM153.83,25h-2.34a5.21,5.21,0,0,0,.3.52,4.27,4.27,0,0,0,1,.91A5.52,5.52,0,0,0,153.83,25Zm-1.91-1.41h1.61V22.42h-1.62Z"
        transform="translate(-31.42 -18.68)" />
    <path
        d="M160.41,26.38V23.06h-1.25l-.46,0-.32-.31.72.06h1.19V21.2h-.78l-.47,0-.32-.3.73.05h.85v-.85l-.06-1.21a.14.14,0,0,1,.1,0,5.65,5.65,0,0,1,.82.09q.54.09.57.17c0,.12-.08.23-.33.32V21h.3a4.78,4.78,0,0,1,.55-.68s.09,0,.17.08c.25.23.43.4.53.52s.15.2.13.23a.08.08,0,0,1-.09.05h-1.6v1.65h.3a4.8,4.8,0,0,1,.33-.44,1.81,1.81,0,0,1,.23-.25s0,0,.11.06l.28.23a2.83,2.83,0,0,1,.28.31q.15.19.13.24a.08.08,0,0,1-.09.05h-1.26a1.43,1.43,0,0,1-.24.31v1.49h.17q.48-.69.58-.69a.39.39,0,0,1,.24.1q.76.63.71.71t-.1.08h-1.6v2a3.48,3.48,0,0,0,.66.27,13.09,13.09,0,0,0,2.58.1q1.52,0,2.46-.11t1.06-.13l.2,0a.1.1,0,0,1,.11,0s0,.08-.1.14l-.11.08a1.18,1.18,0,0,0-.27.27,1.06,1.06,0,0,0-.16.36,1.69,1.69,0,0,0-.06.38.44.44,0,0,1,0,.23s-.12.05-.28,0l-2.54,0a9.26,9.26,0,0,1-3.35-.4,3.91,3.91,0,0,1-1-.77,2.34,2.34,0,0,1-.45-.63l-.41-.87a6.27,6.27,0,0,1-.28.8q-.17.38-.36.74a4.76,4.76,0,0,1-.42.64l-.24.3c-.06.07-.1.09-.12.06a.12.12,0,0,1,0-.12l.08-.25.25-.9a5.81,5.81,0,0,0,.18-1.11q0-.59.06-1.05t0-.63v-.66l0-.23c0-.06,0-.09.12-.08l.7.09q.63.06.66.27t-.31.3l-.08.55q-.06.39-.1.75a2.3,2.3,0,0,0,.16.37A5.08,5.08,0,0,0,160.41,26.38Zm6.07-6.71.23-.32c.08-.11.14-.17.2-.18a1.61,1.61,0,0,1,.67.31c.34.21.5.35.5.4s-.11.18-.32.3q-.09,1.27-.13,1.67a1.35,1.35,0,0,1-.24.66,1.16,1.16,0,0,1-.44.37,1.89,1.89,0,0,1-.51.16,1.48,1.48,0,0,1-.33,0,.19.19,0,0,1-.11,0l-.06-.05a1.5,1.5,0,0,1-.08-.33q-.05-.3-.52-.5l-.28-.12c-.06,0-.09-.06-.08-.1a.08.08,0,0,1,.09-.07l.37,0c.39.05.64,0,.76-.09a.8.8,0,0,0,.24-.38,3.81,3.81,0,0,0,.09-.68c0-.31,0-.47,0-.49v-.38h-1c0,.11,0,.17-.06.17l-.19.16a6.57,6.57,0,0,1-.26,1.18,3.9,3.9,0,0,1-.44.86,3.62,3.62,0,0,1-1,.89l1,.41h1.69q.32-.44.42-.46a1.57,1.57,0,0,1,.43.17l.56.28c.12.07.18.14.16.2s-.12.16-.3.27v1.74l.05.82a.69.69,0,0,1-.14.27q-.11.13-.58.15t-.48-.24v-.31h-1.89v.34q0,.25-.29.29a4.39,4.39,0,0,1-.51,0c-.15,0-.24,0-.27-.06a.33.33,0,0,1-.06-.17l.06-1.3V24.21l-.05-.95-.46.23-.29.1c-.18.06-.16,0,.05-.17l.18-.15a3,3,0,0,0,.62-.79,3.1,3.1,0,0,0,.4-1.13q.09-.6.12-1.08l0-.39h-.41l-.46,0-.32-.3.72.05Zm-1.93,6.57h1.89V23.77h-1.89Z"
        transform="translate(-31.42 -18.68)" />
    <path
        d="M170.77,21.64h-.9l-.47,0-.29-.3.72.06h1V19.86l-.05-1a.15.15,0,0,1,.1-.05,3.88,3.88,0,0,1,.8.08q.63.1.62.24s-.12.14-.32.29v2h.34l.35-.44q.22-.28.33-.28t.56.4c.24.26.36.41.34.46s0,.06-.07.06H172V23q1.2.15,1.45.55a1.22,1.22,0,0,1,.23.67.62.62,0,0,1-.26.46.67.67,0,0,1-.45.17.52.52,0,0,1-.32-.11.38.38,0,0,1-.13-.22c0-.08,0-.23,0-.45a1.19,1.19,0,0,0-.12-.49,1.36,1.36,0,0,0-.37-.38v4l0,1.14a.51.51,0,0,1-.34.31,1.21,1.21,0,0,1-.56.07c-.19,0-.31-.09-.34-.24l.06-1.24V24.84a9.68,9.68,0,0,1-1.16,1.3l-.19.17q-.14.12-.19.08s0-.07,0-.15l.13-.2a12.37,12.37,0,0,0,.6-1.4A16.48,16.48,0,0,0,170.77,21.64Zm4.29,3.21a11.74,11.74,0,0,1-1,1.52,6.07,6.07,0,0,1-1,1.11l-.48.4c-.06,0-.1.06-.14,0s0-.09,0-.17l.23-.31.2-.33c.1-.17.22-.4.36-.68a5.81,5.81,0,0,0,.38-1.06q.17-.64.23-.89l.06-.35V24a.09.09,0,0,1,.09,0q.08,0,.78.26c.47.17.69.29.68.38a.22.22,0,0,1-.16.19Zm2.61-2,.56-.69a.29.29,0,0,1,.18-.12.33.33,0,0,1,.2.08c.08.06.23.21.44.44s.31.37.29.42a.11.11,0,0,1-.11.09H177a.72.72,0,0,1-.21.23V27.7a1.5,1.5,0,0,1-.1.56c-.07.17-.28.28-.65.33a4.68,4.68,0,0,1-.69.06.24.24,0,0,1-.13,0,.12.12,0,0,1,0-.08,2.46,2.46,0,0,1,0-.3.49.49,0,0,0-.27-.4,2.07,2.07,0,0,0-.37-.19l-.39-.11q-.16,0-.13-.12a.12.12,0,0,1,.14-.08l.28,0a4.25,4.25,0,0,0,.83,0,.46.46,0,0,0,.32-.08.48.48,0,0,0,.07-.31v-4h-1.89l-.47,0-.3-.3.72.05ZM177,20a3.76,3.76,0,0,1,.73-.82.49.49,0,0,1,.29.14l.34.28q.47.42.43.52c0,.06-.06.1-.11.1h-4.42l-.47,0-.3-.31.72.06Zm.14,4.32a4.2,4.2,0,0,1,1.62,1,3.49,3.49,0,0,1,.54.76,1.5,1.5,0,0,1,.08.47,1.25,1.25,0,0,1,0,.42,1.21,1.21,0,0,1-.24.33.65.65,0,0,1-.9,0,1,1,0,0,1-.17-.47l-.06-.48a3.27,3.27,0,0,0-.37-1.08,3.83,3.83,0,0,0-.46-.67l-.21-.24a.05.05,0,0,1,0-.05S177,24.23,177.13,24.27Z"
        transform="translate(-31.42 -18.68)" />
    <path
        d="M181.84,28.45l.35-.38a2.42,2.42,0,0,0,.19-.27l.14-.25.06-.17a.36.36,0,0,0,0-.2.15.15,0,0,0,0-.08l-.07,0-.13,0a.27.27,0,0,1-.15,0,.82.82,0,0,1-.57-.28.85.85,0,0,1-.19-.55.76.76,0,0,1,.24-.55,1.05,1.05,0,0,1,.69-.27,1,1,0,0,1,.79.33,1.24,1.24,0,0,1,.34.87,1.81,1.81,0,0,1-.17.69,2.14,2.14,0,0,1-.42.62q-.26.26-.49.46a1.75,1.75,0,0,1-.36.25.46.46,0,0,1-.2,0,.13.13,0,0,1-.11-.06.12.12,0,0,1,0-.11A.32.32,0,0,1,181.84,28.45Z"
        transform="translate(-31.42 -18.68)" />
    <path
        d="M195.71,22.62l-.23-.3-.28-.38a10.69,10.69,0,0,1-.56-1.07q-.7.7-1.18,1.13a8.13,8.13,0,0,1-1.16.85l-.41.26c-.11.07-.18.08-.2,0a.11.11,0,0,1,0-.13l.29-.3a10.87,10.87,0,0,0,1-1.35,11.68,11.68,0,0,0,1.11-2.08l.13-.32,0-.2.05,0a3.41,3.41,0,0,1,1,.24q.83.27.84.39t-.47.26l-.44.58h2.5a1.93,1.93,0,0,1,.53-.5.58.58,0,0,1,.38.12,3.59,3.59,0,0,1,1,.75q0,.24-.46.38-1.22,1.22-1.9,1.83a8.92,8.92,0,0,0,1.88.67,8.06,8.06,0,0,0,1.87.24h.26c.09,0,.13,0,.15.06s0,.09-.09.13l-.23.15a1.89,1.89,0,0,0-.21.2,1.21,1.21,0,0,0-.23.4,1.56,1.56,0,0,0-.11.41.36.36,0,0,1,0,.18s-.08,0-.17,0a5.71,5.71,0,0,1-1.32-.38,11.1,11.1,0,0,1-1.36-.59,13.12,13.12,0,0,1-1.24-.83,19.33,19.33,0,0,1-2.73,1.36l.93.41h3.18a1.7,1.7,0,0,1,.39-.5.6.6,0,0,1,.36.1q.67.35.8.45c.09.06.14.11.15.15s-.1.19-.29.34v2l.08.73a.34.34,0,0,1-.1.17,1.32,1.32,0,0,1-.42.14,5,5,0,0,1-.57.1c-.14,0-.21-.08-.21-.28v-.31h-3.45v.28q0,.1-.16.22a1.31,1.31,0,0,1-.69.13.55.55,0,0,1-.31,0,.35.35,0,0,1-.13-.18l.09-.92v-2l-.06-.81q-.82.28-1.4.42l-.48.12c-.09,0-.15,0-.18,0s0-.1.09-.15l.29-.13q1.17-.52,1.54-.71t1.11-.66A10,10,0,0,0,195.71,22.62ZM194.54,28H198V25.38h-3.45Zm1.75-5.89q.51-.5.76-.78a10.13,10.13,0,0,0,.73-1h-2.71l-.16.19a5.71,5.71,0,0,0,.62.94A3,3,0,0,0,196.29,22.13Z"
        transform="translate(-31.42 -18.68)" />
    <path
        d="M202.2,21.76l.55,0h.75V20.35l-.06-1.21s.09-.05.18,0l.28,0q.94.15,1,.35t-.32.35V21.8h.05a2.22,2.22,0,0,1,.45-.54.33.33,0,0,1,.19.1q.3.3.39.41t.06.18a.11.11,0,0,1-.11.06h-1v3.23l.6-.15.33-.09c.12,0,.14,0,0,.14l-.15.1-.41.28-.91.61-.72.53-.26.19c-.11.09-.18.13-.2.12l0,0a1,1,0,0,1-.1-.2l-.42-1c0-.08,0-.13,0-.15s.06,0,.17,0l.35,0a7,7,0,0,0,.7-.12V22h-.68l-.39,0Zm4.74,0h1.59l0-1q0-.39-.06-1.07l0-.5,0-.24s.08,0,.17,0l.39,0q1,.12,1,.32t-.26.3c0,.21,0,.38,0,.49s0,.41,0,.89v.78h1l.35-.47q.25-.32.32-.32a.48.48,0,0,1,.24.12,7.9,7.9,0,0,1,.69.62c.07.08.1.15.08.19s-.06.07-.15.07h-2.51c0,.28,0,.54,0,.79s0,.51.06.79a10.17,10.17,0,0,0,.18,1q.25-.56.32-.77t.17-.57l.12-.44,0-.21s.1,0,.23,0l.41.17.39.24q.39.24.38.38t-.35.21q-.38.86-.49,1.08l-.7,1.26a4,4,0,0,0,.51.84q.34.44.55.41t.56-.61l.25-.41c0-.09.09-.12.12-.1a.09.09,0,0,1,0,.1l-.1.34-.13.38a1.82,1.82,0,0,0-.1.47.79.79,0,0,0,.11.42l.23.42q.18.57-.48.58a2,2,0,0,1-1.21-.49,3.61,3.61,0,0,1-1.1-1.43A6.77,6.77,0,0,1,208.08,28a6.36,6.36,0,0,1-1.47.57l-.23.05a.43.43,0,0,1-.16,0s-.08,0-.08-.06.05-.08.17-.13l.15-.06a5.64,5.64,0,0,0,1.48-1,6.22,6.22,0,0,0,1.24-1.49,10,10,0,0,1-.42-1.67,15.25,15.25,0,0,1-.19-1.71l0-.53h-1.62l0,1.42h.5a3,3,0,0,1,.33-.34.32.32,0,0,1,.15,0l.41.24q.38.22.39.35c0,.09-.07.18-.21.26s0,.35,0,.5,0,.42-.06.82-.08.71-.12.95a3.15,3.15,0,0,1-.25.75.73.73,0,0,1-.66.44q-.48,0-.49-.16a1,1,0,0,1,0-.22c0-.14-.09-.27-.27-.39l-.11-.06a.1.1,0,0,1-.06-.11.06.06,0,0,1,.08-.05l.25.05a.4.4,0,0,0,.49-.24,3.32,3.32,0,0,0,.22-1.08q.07-.77.07-1.2v-.32h-.66q0,.24-.06,1a5.16,5.16,0,0,1-.27,1.39,3.47,3.47,0,0,1-.85,1.29,4.66,4.66,0,0,1-1.32,1l-.3.14-.17.09a.53.53,0,0,1-.17.06.1.1,0,0,1-.11,0s0-.1.14-.17l.18-.11s.24-.18.59-.47a2.93,2.93,0,0,0,.83-1.28,6.58,6.58,0,0,0,.38-1.66q.07-.82.07-1.42c0-.4,0-.74,0-1l0-.66-.05-.4s.09,0,.2,0Zm3-1.9-.11-.13c-.06-.06-.08-.12-.06-.16s.08-.05.2,0l.6.11a.76.76,0,0,1,.48.35,1,1,0,0,1,.18.52.68.68,0,0,1-.17.45.64.64,0,0,1-.4.21.46.46,0,0,1-.39-.11.44.44,0,0,1-.16-.24,2.58,2.58,0,0,1,0-.4A.78.78,0,0,0,210,19.83Z"
        transform="translate(-31.42 -18.68)" />
    <path
        d="M218.11,20.75a1,1,0,0,1-.27-.2.61.61,0,0,1-.11-.3l0-.46a1.11,1.11,0,0,0-.21-.57,1.63,1.63,0,0,0-.23-.24.92.92,0,0,1-.16-.16c-.06-.07,0-.1.2-.1l.59.1a2.43,2.43,0,0,1,.88.36.83.83,0,0,1,.39.78.87.87,0,0,1-.13.42,1.1,1.1,0,0,1-.56.36h3l.5-.69a.32.32,0,0,1,.2-.13.59.59,0,0,1,.34.15,5,5,0,0,1,.71.61c.07.1.11.17.09.21s-.08.06-.18.06H218.9c.19,0,.28.09.27.18s-.11.19-.31.3V22.6h1.8q.27-.46.37-.49a.55.55,0,0,1,.34.09q.74.4.84.48a.4.4,0,0,1,.12.13q0,.14-.29.37v3.31A2.1,2.1,0,0,1,222,27q-.06.2-.58.37a1.17,1.17,0,0,1-.72.09.23.23,0,0,1-.15-.12l-.08-.24a1,1,0,0,0-.64-.5l-.29-.11c-.14,0-.21-.1-.2-.15s.1-.07.27-.06l.27,0a3.52,3.52,0,0,0,.72,0,.27.27,0,0,0,.19-.06.31.31,0,0,0,0-.2V22.8h-1.93v4l.06,1.6a.71.71,0,0,1-.14.24.93.93,0,0,1-.55.15,1.23,1.23,0,0,1-.55,0,.4.4,0,0,1-.15-.2l.05-1.65V22.8h-1.78V26l.05,1.14a.62.62,0,0,1-.11.21.76.76,0,0,1-.34.16,1.54,1.54,0,0,1-.48.06.51.51,0,0,1-.31-.06.39.39,0,0,1-.11-.14l.05-1.65v-2.2l-.05-1.36s.06,0,.12,0l1.27.45h1.7V21h-3.41l-.56,0-.26-.31.71.08Z"
        transform="translate(-31.42 -18.68)" />
    <path
        d="M228.68,19.74h2.56v.37h-.38a1.33,1.33,0,0,0-.35,0,.37.37,0,0,0-.19.1.49.49,0,0,0-.08.23,1.76,1.76,0,0,0,0,.28V27.5h-.62l-4.09-6.26v5.17a2,2,0,0,0,0,.31.53.53,0,0,0,.09.25.39.39,0,0,0,.2.12,1.15,1.15,0,0,0,.33,0h.49v.38H224v-.38h.41a1,1,0,0,0,.28,0,.4.4,0,0,0,.19-.12.5.5,0,0,0,.1-.21,1.53,1.53,0,0,0,0-.35V21.08a3.55,3.55,0,0,0,0-.55.54.54,0,0,0-.16-.31.61.61,0,0,0-.42-.12H224v-.37h2.2l3.54,5.45V20.75a1.75,1.75,0,0,0,0-.32.36.36,0,0,0-.09-.2.44.44,0,0,0-.18-.09.86.86,0,0,0-.23,0h-.58Z"
        transform="translate(-31.42 -18.68)" />
    <path
        d="M231.84,23.81c0-.12,0-.26,0-.42s0-.35.05-.59a4,4,0,0,1,.13-.64,3.28,3.28,0,0,1,.27-.63,3.22,3.22,0,0,1,.38-.57,3.51,3.51,0,0,1,.42-.41,3.13,3.13,0,0,1,.51-.34,4,4,0,0,1,.55-.25,2.79,2.79,0,0,1,.51-.13,3.26,3.26,0,0,1,1.28.06,2.89,2.89,0,0,1,.66.25,3.74,3.74,0,0,1,.56.36,3.94,3.94,0,0,1,.49.46,3,3,0,0,1,.42.61,2.92,2.92,0,0,1,.27.76,6.59,6.59,0,0,1,.12.8q0,.39,0,.59t0,.41c0,.16,0,.33-.06.52a4,4,0,0,1-.11.54,3.61,3.61,0,0,1-.27.66,3,3,0,0,1-.44.65,2.57,2.57,0,0,1-.54.45,3.7,3.7,0,0,1-.56.29,3.61,3.61,0,0,1-.47.16l-.45.08-.39,0a2.38,2.38,0,0,1-.46,0,3.1,3.1,0,0,1-.54-.13,4.24,4.24,0,0,1-.61-.28,3,3,0,0,1-.6-.41,3.12,3.12,0,0,1-.48-.58,4.06,4.06,0,0,1-.37-.67,3.2,3.2,0,0,1-.18-.6,4.45,4.45,0,0,1-.08-.53C231.84,24.12,231.84,24,231.84,23.81Zm1.59.44q0,.28,0,.62a6.51,6.51,0,0,0,.1.71,2.1,2.1,0,0,0,.16.54q.09.18.19.34a1.61,1.61,0,0,0,.28.33,1.3,1.3,0,0,0,.47.26,1.54,1.54,0,0,0,.55.09l.33,0a1.23,1.23,0,0,0,.39-.11,1.07,1.07,0,0,0,.37-.36,2.28,2.28,0,0,0,.31-.64,4.05,4.05,0,0,0,.15-.67c0-.2,0-.48.05-.83s0-.62,0-.79,0-.46,0-.71,0-.51,0-.77,0-.47-.07-.65a2.44,2.44,0,0,0-.13-.5,2,2,0,0,0-.19-.38,1.14,1.14,0,0,0-.28-.28,1.27,1.27,0,0,0-.41-.2,1.89,1.89,0,0,0-.51-.06,2,2,0,0,0-.44.06,1.54,1.54,0,0,0-.4.19,1.41,1.41,0,0,0-.43.5,2.57,2.57,0,0,0-.29.81c-.05.3-.09.58-.12.84s0,.6-.06,1S233.42,24.21,233.43,24.25Z"
        transform="translate(-31.42 -18.68)" />
    <path
        d="M244,25.56l-.19,2h-4.28v-.18a2.63,2.63,0,0,1,.06-.41l.06-.33a3.69,3.69,0,0,1,.1-.39c.05-.18.1-.32.15-.44a3,3,0,0,1,.2-.42,4.14,4.14,0,0,1,.37-.54q.23-.29.36-.43l.46-.46a5.68,5.68,0,0,0,.55-.6,2.67,2.67,0,0,0,.34-.58,3,3,0,0,0,.18-.55,2.58,2.58,0,0,0,.05-.54,2,2,0,0,0-.09-.54,1.21,1.21,0,0,0-.23-.41,1.16,1.16,0,0,0-.28-.25,1,1,0,0,0-.26-.1,1.39,1.39,0,0,0-.31,0,1.31,1.31,0,0,0-.38.08.84.84,0,0,0-.3.18.8.8,0,0,0-.16.21.55.55,0,0,0-.05.21.22.22,0,0,0,.09.19.29.29,0,0,0,.15.06l.21,0a.75.75,0,0,1,.32.16.62.62,0,0,1,.14.47.79.79,0,0,1-.82.83.77.77,0,0,1-.6-.23.9.9,0,0,1-.23-.38,1.37,1.37,0,0,1-.07-.49,2.15,2.15,0,0,1,0-.37,1.73,1.73,0,0,1,.17-.47,1.49,1.49,0,0,1,.39-.47,2.17,2.17,0,0,1,.57-.34,1.9,1.9,0,0,1,.49-.15l.36,0a4.14,4.14,0,0,1,.66,0,2.41,2.41,0,0,1,.56.18,1.62,1.62,0,0,1,.5.34,2.16,2.16,0,0,1,.32.41,1.54,1.54,0,0,1,.18.45,2.25,2.25,0,0,1,.06.46c0,.15,0,.27,0,.36a2.51,2.51,0,0,1-.11.48,1.68,1.68,0,0,1-.3.54,2.53,2.53,0,0,1-.45.45q-.24.18-.76.51t-.81.56a4.43,4.43,0,0,0-.49.44,3.44,3.44,0,0,0-.35.44,2.09,2.09,0,0,0-.2.34,2.42,2.42,0,0,0-.09.27.42.42,0,0,0,0,.19s.08,0,.22,0h2.42l.28,0a.31.31,0,0,0,.17-.09.51.51,0,0,0,.12-.21l.08-.27,0-.21Z"
        transform="translate(-31.42 -18.68)" />
    <path
        d="M252.6,21.18h.82q.17-.2.29-.37c.07-.11.14-.16.2-.17l.13,0,.31.12a4,4,0,0,1,.51.3q.34.22.35.27t-.35.39v4.59l.05,1a.58.58,0,0,1-.21.3,1.3,1.3,0,0,1-.39.13,1,1,0,0,1-.41,0c-.13,0-.21-.05-.24-.11a.52.52,0,0,1,0-.25v-.37h-1.69v.58a.39.39,0,0,1-.08.26.76.76,0,0,1-.36.16,1.57,1.57,0,0,1-.45.06q-.22,0-.26-.07a.44.44,0,0,1-.05-.19l.05-1.34V22l-.05-1.29s0,0,.1,0l1.2.54h.06q.07-.4.11-.61l.11-.84c0-.19,0-.31,0-.39v-.47h.11q.27.05.92.24t.66.35q0,.15-.42.24Q253.34,20.1,252.6,21.18Zm1,2.67V21.38h-1.69v2.46Zm-1.69,3.06h1.69V24.06h-1.69Zm6.65-5.37q.33-.56.45-.57a1.93,1.93,0,0,1,.76.32q.58.33.59.44s-.13.18-.39.4c0,.44,0,.78,0,1s0,.64,0,1.17,0,1-.06,1.33-.05.79-.1,1.29a2.47,2.47,0,0,1-.34,1.14,1.66,1.66,0,0,1-.93.59q-.67.2-.77,0a.27.27,0,0,1,0-.13,1.86,1.86,0,0,0-.12-.4q-.11-.28-.71-.46l-.31-.09c-.1,0-.14-.06-.13-.12s.08-.08.22-.08l.45,0a2.63,2.63,0,0,0,.89,0,.85.85,0,0,0,.41-.3,1.81,1.81,0,0,0,.23-.9q.05-.68.08-1.36t0-1V21.77h-2.3a14.54,14.54,0,0,1-1,1.29l-.16.17-.15.16c-.07,0-.12.05-.15,0s0-.07,0-.14l.1-.18.11-.26.12-.24a5.18,5.18,0,0,0,.29-.83q.17-.6.29-1t.26-1.3l0-.27,0-.26a.47.47,0,0,1,.23,0l.81.19q.77.17.75.45t-.42.26l-.25.42-.41.74-.34.56Zm-2.7,2.09-.19-.17a.13.13,0,0,1-.06-.09s0,0,.1,0a3.44,3.44,0,0,1,1,.3,1.4,1.4,0,0,1,.82.67,1.75,1.75,0,0,1,.16.6,1.08,1.08,0,0,1-.22.57.71.71,0,0,1-.68.27q-.45,0-.53-.28a1.43,1.43,0,0,1-.06-.45v-.25a2.86,2.86,0,0,0,0-.5A1.13,1.13,0,0,0,255.87,23.64Z"
        transform="translate(-31.42 -18.68)" />
    <path
        d="M265.73,24.65V20h-3l-.49,0-.32-.3.71.06h6.2q.36-.45.54-.69c.11-.16.2-.24.25-.24a.44.44,0,0,1,.23.09,5.44,5.44,0,0,1,.69.62q.26.28.24.35s-.08.07-.18.07H267v4.6h2.49a5.4,5.4,0,0,1,.78-.93q.09,0,.26.11a6.87,6.87,0,0,1,.71.65c.14.15.2.25.18.3s-.08.07-.18.07H267v2.3l.08,1.16a.82.82,0,0,1-.13.34q-.11.17-.63.17c-.35,0-.54,0-.59-.09a.56.56,0,0,1-.09-.26l.09-1.36V24.85H262.1l-.44,0-.31-.3.66.06Zm-2.58-3.32q1.72.8,1.67,1.5a1.59,1.59,0,0,1-.3,1,.76.76,0,0,1-.6.24q-.56,0-.63-.37a2.08,2.08,0,0,1,0-.69,4.5,4.5,0,0,0,.05-.48,1.12,1.12,0,0,0-.06-.37,1.85,1.85,0,0,0-.23-.45,1.59,1.59,0,0,0-.21-.24.2.2,0,0,1-.09-.16q0-.08.22,0ZM268,24l-.3.26c-.06.05-.11.06-.15,0s0-.09,0-.18l.13-.23q.06-.12.47-1t.5-1.15l.14-.44,0-.13s.09-.05.19,0q1.4.67,1.39.9a.2.2,0,0,1-.09.14l-.24.06-.26.06Q269,23.06,268,24Z"
        transform="translate(-31.42 -18.68)" />
    <path
        d="M272.41,21.9l.56,0h1V20L273.88,19a.16.16,0,0,1,.16-.05q1,.18,1.15.24c.11,0,.17.09.18.15s-.1.21-.31.35V22h.15l.3-.43c.08-.11.15-.17.2-.18a.35.35,0,0,1,.2.07l.27.26a3,3,0,0,1,.26.29.14.14,0,0,1,0,.13.09.09,0,0,1-.1.06h-1.31v3.07l1.26-.28.26-.06c.06,0,.1,0,.12.05s0,.08-.13.13l-.32.16-1.08.56-1.49.84-.38.2-.23.15c-.06,0-.09,0-.11,0a.62.62,0,0,1-.08-.23l-.26-.95a.48.48,0,0,1,0-.18l.06-.05.23,0,.31,0,.77-.1V22.15H273l-.39,0Zm6.41-2.12q-.56,1.17-.91,1.75h2.89a2.33,2.33,0,0,1,.4-.49.34.34,0,0,1,.2,0q1.07.52,1.08.68t-.35.41q0,.6,0,.89l0,1.29q0,.84-.08,1.29t-.14,1.11a3.75,3.75,0,0,1-.35,1.16,1.52,1.52,0,0,1-1,.73q-.71.23-.84.12a.12.12,0,0,1-.06-.06,1.35,1.35,0,0,1,0-.24,1.2,1.2,0,0,0-.17-.47,1.09,1.09,0,0,0-.64-.43l-.24-.08c-.06,0-.09,0-.08-.09a.1.1,0,0,1,.11-.07l.49.05a1.94,1.94,0,0,0,1.15-.07,1.66,1.66,0,0,0,.44-.84,8.24,8.24,0,0,0,.23-2q0-1.34,0-2.15v-.57h-3.15a8.68,8.68,0,0,1-1.53,1.88l-.14.13-.13.09a.08.08,0,0,1-.08,0s0-.05,0-.12l.1-.14.1-.16a10.26,10.26,0,0,0,.74-1.65,12.84,12.84,0,0,0,.55-1.85,5,5,0,0,0,.14-.92c0-.09,0-.14.08-.15l.82.22q.79.22.8.4T278.82,19.78Zm-2.18,7-.32-1-.06-.19.05,0h.19l.42,0a18.19,18.19,0,0,0,2.61-.41l.6-.13c.32-.06.43-.06.33,0a1.82,1.82,0,0,1-.33.21l-.7.34-.82.43-1,.53-.53.31-.29.17-.08,0A.71.71,0,0,1,276.64,26.73Zm.74-3.73a.24.24,0,0,1-.06-.14s.1,0,.3,0l.38.1a1.66,1.66,0,0,1,.77.43.85.85,0,0,1,.27.67.68.68,0,0,1-.16.39.8.8,0,0,1-.4.23.5.5,0,0,1-.48-.1.4.4,0,0,1-.18-.24,2.84,2.84,0,0,1,0-.47,1.13,1.13,0,0,0-.16-.59l-.18-.23Z"
        transform="translate(-31.42 -18.68)" />
    <path
        d="M283.37,21.82s0-.06.15-.05h.24a3.29,3.29,0,0,1,.82.22.71.71,0,0,1,.55.64.8.8,0,0,1-.2.64,1.14,1.14,0,0,1-.32.18.54.54,0,0,1-.64-.2.72.72,0,0,1-.11-.32l0-.19a1.15,1.15,0,0,0-.27-.68Q283.37,21.89,283.37,21.82Zm3.09-1.58.12-.27c0-.06,0-.08.08-.05a.09.09,0,0,1,0,.1l-.06.26q-.1.39-.33,1.19T286,22.68q-.11.4-.35,1.48a13.7,13.7,0,0,0-.29,1.54,6.17,6.17,0,0,0,0,.75,1.89,1.89,0,0,0,0,.5l.12.37a2.93,2.93,0,0,1,.11.39.88.88,0,0,1,0,.35,1,1,0,0,1-.25.43.83.83,0,0,1-.68.23q-.46,0-.54-.24a1.6,1.6,0,0,1-.09-.33,3.36,3.36,0,0,1,0-.38c0-.19,0-.35,0-.48a5.16,5.16,0,0,0,0-.55,2.61,2.61,0,0,0-.1-.5,1.84,1.84,0,0,0-.19-.37.85.85,0,0,0-.23-.26l-.11-.08a.12.12,0,0,1,0-.08s.05,0,.16,0l.18.05.17,0a.32.32,0,0,0,.26-.11,1,1,0,0,0,.21-.34q.09-.23.35-.78t.74-1.72Q286,21.38,286.46,20.24Zm-.52-.15a.85.85,0,0,1-.23.52.65.65,0,0,1-.56.24.51.51,0,0,1-.34-.12.55.55,0,0,1-.18-.26q0-.15-.12-.52a1,1,0,0,0-.31-.57l-.11-.09,0,0v0s0,0,0-.05a1,1,0,0,1,.42,0q1,0,1.24.41A1.29,1.29,0,0,1,285.94,20.09Zm2.38,1.26h-.73l.05.2a.77.77,0,0,1,0,.2,2.25,2.25,0,0,1-.1.52.87.87,0,0,1-.3.46.76.76,0,0,1-.49.16.63.63,0,0,1-.47-.2.52.52,0,0,1-.17-.41.51.51,0,0,1,.06-.21,1.19,1.19,0,0,1,.23-.29l.34-.35a1.31,1.31,0,0,0,.18-.32.88.88,0,0,0,.06-.34,1,1,0,0,1,0-.23s.05,0,.12,0a1.63,1.63,0,0,1,.39.62h.85q.13-.44.19-.69t.16-.68q.09-.43.11-.58l0-.35s.06-.05.17,0l.6.12q1,.22,1,.38t-.32.26q-.38.91-.62,1.58h1.8q.28-.43.39-.45a.43.43,0,0,1,.27.06l.61.41q.72.45.66.7t-.35.16h-.27a2.83,2.83,0,0,0-1.27.53l-.38.25c-.13.09-.2.11-.23.08a.12.12,0,0,1,0-.12l.21-.43a8.41,8.41,0,0,0,.4-1h-1.79c0,.16,0,.34,0,.54a9,9,0,0,0,.24,1,5.78,5.78,0,0,0,.34,1l.27.56a11.13,11.13,0,0,0,.93-1.27l.16-.27.06-.13q.09-.06.32.1l.53.37a3.15,3.15,0,0,1,.38.35c.12.13.18.22.16.26s-.2.13-.47.11q-.9.38-1.9.86a6.57,6.57,0,0,0,1.11,1.55q.45.4.83.68a3,3,0,0,0,.52.33l.19.09a.12.12,0,0,1,.08.12.09.09,0,0,1-.08.09l-.28.06a1.4,1.4,0,0,0-.62.28c-.12.11-.23.23-.34.35s-.17.18-.2.18-.07,0-.1-.06a4.51,4.51,0,0,1-.85-1,10.31,10.31,0,0,1-.67-1.27,8.29,8.29,0,0,1-.54-1.86,14.3,14.3,0,0,1-.22-1.43l-.11-1.5a16.44,16.44,0,0,1-1,2l.32.12q.19.08,0,.24l-.17.14v3l1.61-.53c.07,0,.11,0,.12,0a.1.1,0,0,1,0,.1l-.38.31q-1.19,1-1.77,1.54l-.28.27c-.1.09-.16.14-.18.13s0,0-.05-.11l-.39-1.19q-.05-.15,0-.19l.16-.13a.34.34,0,0,0,.1-.28V24.86a7.85,7.85,0,0,1-1.57,1.3l-.3.17c-.06,0-.11,0-.15,0s0-.11.07-.18l.17-.16a7,7,0,0,0,1.69-2.35Q288,22.33,288.33,21.35Z"
        transform="translate(-31.42 -18.68)" />
    <path
        d="M33.56,35.53h2.89a.84.84,0,0,1-.27-.2.65.65,0,0,1-.1-.38v-.37a1.42,1.42,0,0,0-.08-.38.47.47,0,0,0-.19-.27.78.78,0,0,1-.19-.15s0-.09.12-.11a3.34,3.34,0,0,1,.81.1,1.24,1.24,0,0,1,.82.45,1.06,1.06,0,0,1,.23.57.79.79,0,0,1-.52.73h2.57q.52-.85.65-.86a.51.51,0,0,1,.3.09,5.4,5.4,0,0,1,.64.52q.3.28.29.37c0,.06-.05.09-.13.09H33.52q0,2.18-.07,3.21t-.11,1.7A4.33,4.33,0,0,1,33,41.83a4.82,4.82,0,0,1-.58,1,4.73,4.73,0,0,1-.7.76l-.16.14q-.11.1-.15,0s0-.08,0-.15l.19-.29a3.16,3.16,0,0,0,.46-1.18,10.84,10.84,0,0,0,.16-1.31q0-.64.06-1.28,0-.83,0-1.9t0-1.42a4.59,4.59,0,0,0,0-.54l-.05-.45q0-.31,0-.33s.11,0,.27.09ZM36.41,42a5.35,5.35,0,0,1-.6-1,5.66,5.66,0,0,1-.4-1h-.33l-.69,0-.31-.29.82.05H38l.19-.28q.09-.15.16-.17a.46.46,0,0,1,.24.06q1.28.61,1.2.83t-.43.21A18.3,18.3,0,0,1,38,41.9a6.46,6.46,0,0,0,3,.54h.31c.07,0,.11,0,.12.06s0,.09-.11.13l-.27.14a1.84,1.84,0,0,0-.32.2,1.29,1.29,0,0,0-.4.54.69.69,0,0,0,0,.16v.12c0,.11-.14.14-.32.09a8.14,8.14,0,0,1-2.76-1.24,9.14,9.14,0,0,1-1.82.77A8.44,8.44,0,0,1,33,43.7h-.37c-.08,0-.11,0-.09-.07a.11.11,0,0,1,.08-.08l.35-.06.61-.11a6.28,6.28,0,0,0,1.4-.52A7.21,7.21,0,0,0,36.41,42Zm-2.75-4.8.77,0h.49v-.43l0-.85a.41.41,0,0,1,.2,0,9.34,9.34,0,0,1,1,.13c.11,0,.17.07.19.12s-.07.18-.24.29v.75h1.62V36.8L37.66,36q0-.09.21-.06l.53,0q.71.1.73.26c0,.06-.08.15-.25.26v.69h.61q.43-.74.55-.75a.5.5,0,0,1,.29.1,3.46,3.46,0,0,1,.61.55q.16.2.13.26s-.06.06-.15.06h-2v.72l0,.67a.54.54,0,0,1-.27.27.82.82,0,0,1-.35.1q-.57,0-.57-.21v-.2H36.09v.16a.29.29,0,0,1-.13.23,1,1,0,0,1-.53.13,1,1,0,0,1-.47,0,.29.29,0,0,1-.09-.18l.05-.76v-.88h-.37l-.69,0ZM38,40H35.66a5.21,5.21,0,0,0,.3.52,4.27,4.27,0,0,0,1,.91A5.52,5.52,0,0,0,38,40Zm-1.91-1.41H37.7V37.42H36.09Z"
        transform="translate(-31.42 -18.68)" />
    <path
        d="M44.52,35v2.78h1.27l.49-.66q.13-.18.21-.19a.39.39,0,0,1,.23.12q.82.76.74.85c-.05.06-.09.09-.13.09H44.52v3.58q1.07-.27,2.35-.66l.47-.14a.08.08,0,0,1,.1,0s-.08.14-.31.28l-.48.31-2.12,1.48-.41.29-.33.28c-.05,0-.09.05-.11,0s-.06-.08-.12-.24l-.43-1.06-.1-.21v-.06l.08-.08a.58.58,0,0,0,.14-.23,2,2,0,0,0,.06-.63V36l-.08-1.6a.14.14,0,0,1,0-.07s.06,0,.16,0a9.35,9.35,0,0,1,1.15.2c.14,0,.22.1.23.16S44.72,34.82,44.52,35Zm4.32,3.41.5-.47q.21-.21.61-.7t.5-.64l.21-.35c0-.09.08-.13.1-.13l.1,0,.28.2.42.31q.7.56.63.72t-.47.09l-.38.15-.81.38q-.66.31-1.71.7v2.74a1.18,1.18,0,0,0,.09.62,1.82,1.82,0,0,0,.83.11A2.5,2.5,0,0,0,51,41.91a1.89,1.89,0,0,0,.6-.91l.25-.64.08-.21s.06-.06.09-.06.06,0,.08.08l0,.26-.06.45a3.51,3.51,0,0,0-.05.4,1.88,1.88,0,0,0,0,.35.46.46,0,0,0,.05.26l.18.24a.76.76,0,0,1,.07.26.69.69,0,0,1,0,.31.9.9,0,0,1-.69.49,9.37,9.37,0,0,1-1.93.12,8.14,8.14,0,0,1-1.29-.08.88.88,0,0,1-.56-.26.78.78,0,0,1-.14-.48V35.82l-.09-1.67a.26.26,0,0,1,.19-.06q1.37.12,1.42.37t-.31.3Z"
        transform="translate(-31.42 -18.68)" />
    <path
        d="M58,40.56l-.19,2H53.54v-.18a2.63,2.63,0,0,1,.06-.41l.06-.33a3.39,3.39,0,0,1,.1-.39q.08-.26.15-.44a2.93,2.93,0,0,1,.2-.42,4.13,4.13,0,0,1,.37-.54l.36-.43.46-.46a5.68,5.68,0,0,0,.55-.6,2.69,2.69,0,0,0,.34-.58,3,3,0,0,0,.18-.55,2.61,2.61,0,0,0,.05-.54,2,2,0,0,0-.09-.54,1.22,1.22,0,0,0-.23-.41,1.15,1.15,0,0,0-.28-.25,1,1,0,0,0-.26-.1,1.39,1.39,0,0,0-.31,0,1.3,1.3,0,0,0-.38.08.83.83,0,0,0-.3.18.8.8,0,0,0-.16.21.56.56,0,0,0-.05.21.21.21,0,0,0,.09.19.29.29,0,0,0,.15.06l.21,0a.76.76,0,0,1,.32.16.62.62,0,0,1,.14.47.79.79,0,0,1-.82.83.77.77,0,0,1-.6-.23.89.89,0,0,1-.23-.38,1.34,1.34,0,0,1-.07-.49,2.14,2.14,0,0,1,0-.37,1.74,1.74,0,0,1,.17-.47,1.49,1.49,0,0,1,.39-.47,2.17,2.17,0,0,1,.57-.34,1.88,1.88,0,0,1,.49-.15l.36,0a4.13,4.13,0,0,1,.66,0,2.41,2.41,0,0,1,.56.18,1.63,1.63,0,0,1,.5.34,2.19,2.19,0,0,1,.32.41,1.57,1.57,0,0,1,.18.45,2.36,2.36,0,0,1,.06.46q0,.22,0,.36a2.55,2.55,0,0,1-.11.48,1.68,1.68,0,0,1-.3.54,2.54,2.54,0,0,1-.45.45q-.24.18-.76.51t-.81.56a4.37,4.37,0,0,0-.49.44,3.37,3.37,0,0,0-.35.44,2.12,2.12,0,0,0-.2.34,2.32,2.32,0,0,0-.09.27.4.4,0,0,0,0,.19s.08,0,.22,0h2.42l.28,0a.31.31,0,0,0,.17-.09.51.51,0,0,0,.12-.21l.08-.27,0-.21Z"
        transform="translate(-31.42 -18.68)" />
    <path
        d="M59,38.71q0-.25,0-.56t0-.59q0-.27.13-.71a3.25,3.25,0,0,1,.35-.9,2.26,2.26,0,0,1,.59-.71,1.66,1.66,0,0,1,.63-.32,2.56,2.56,0,0,1,.54-.06,2.9,2.9,0,0,1,.5.08,1.74,1.74,0,0,1,.57.26,1.69,1.69,0,0,1,.5.55,3.31,3.31,0,0,1,.33.73,5.92,5.92,0,0,1,.17.71,6.61,6.61,0,0,1,.08.69q0,.34,0,.64t0,.76q0,.51-.12,1a4.08,4.08,0,0,1-.31,1,2.36,2.36,0,0,1-.58.82,1.77,1.77,0,0,1-.65.39,2.08,2.08,0,0,1-.57.09,1.64,1.64,0,0,1-.49,0,1.53,1.53,0,0,1-.44-.18,2.43,2.43,0,0,1-.48-.39,2.31,2.31,0,0,1-.44-.67,3.58,3.58,0,0,1-.27-.88,6.73,6.73,0,0,1-.1-.87Q59,39.17,59,38.71Zm1.43.81q0,.88,0,1.13t0,.63a1.9,1.9,0,0,0,.09.55.84.84,0,0,0,.21.31.57.57,0,0,0,.42.12.61.61,0,0,0,.41-.15.79.79,0,0,0,.23-.32,2.12,2.12,0,0,0,.1-.42,4.91,4.91,0,0,0,0-.52q0-.26,0-1l0-1.15q0-.4,0-1.25,0-.52,0-.82c0-.2,0-.36,0-.48a3.7,3.7,0,0,0-.05-.38.88.88,0,0,0-.13-.33.58.58,0,0,0-.24-.2.72.72,0,0,0-.3-.06.81.81,0,0,0-.33.09.59.59,0,0,0-.23.2,1.06,1.06,0,0,0-.13.3,2.39,2.39,0,0,0-.07.39q0,.22,0,.67l-.05,1.63Q60.42,38.7,60.41,39.52Z"
        transform="translate(-31.42 -18.68)" />
    <path
        d="M64.86,36v-.49h.91a1.85,1.85,0,0,0,.41-.07,1.47,1.47,0,0,0,.41-.19,1.79,1.79,0,0,0,.33-.27l.17-.19h.38V41.2q0,.23,0,.42a.58.58,0,0,0,.08.29.34.34,0,0,0,.21.13,1.34,1.34,0,0,0,.34,0h.55v.39H64.77v-.39h.45a1.76,1.76,0,0,0,.35,0,.41.41,0,0,0,.26-.14.69.69,0,0,0,.1-.32,3.21,3.21,0,0,0,0-.39V36.7a2,2,0,0,0,0-.33.57.57,0,0,0-.09-.24.28.28,0,0,0-.18-.11l-.32,0Z"
        transform="translate(-31.42 -18.68)" />
    <path
        d="M70.29,34.92h4.14v.47l-.22.27A3.44,3.44,0,0,0,74,36a5,5,0,0,0-.24.45l-.23.47q-.07.15-.23.58t-.24.69a6.21,6.21,0,0,0-.14.63q-.06.37-.09.68a6,6,0,0,0,0,.69,4.1,4.1,0,0,0,.05.7l.08.47q0,.22,0,.48a.82.82,0,0,1-.19.52.67.67,0,0,1-.59.25.71.71,0,0,1-.47-.17.88.88,0,0,1-.28-.44,2.1,2.1,0,0,1-.09-.56,2.53,2.53,0,0,1,0-.55,4.94,4.94,0,0,1,.15-.67,7.53,7.53,0,0,1,.24-.73q.12-.31.49-1.08l.48-1,.37-.7.27-.49H71.15a.52.52,0,0,0-.32.09.5.5,0,0,0-.18.25l-.13.42a2.34,2.34,0,0,0-.08.3l0,.17-.34,0Z"
        transform="translate(-31.42 -18.68)" />
    <path
        d="M75.33,40.38l.67.06h1.4V38.52l0-1.05,0,0,.3.09,1.07.4h1.45v-2H78.33a15.93,15.93,0,0,1-1.13,1.4A12.66,12.66,0,0,1,76,38.42l-.31.26c-.06.05-.1.06-.14,0s0-.09,0-.15l.31-.41.34-.53q.25-.39.55-.94a7.44,7.44,0,0,0,.55-1.36q.25-.82.32-1.06l.09-.37v-.1a.08.08,0,0,1,.05,0,2.81,2.81,0,0,1,.92.26,2.26,2.26,0,0,1,.82.41.21.21,0,0,1,0,.19c0,.06-.17.11-.41.16l-.62.91H83l.54-.68c.11-.15.19-.22.24-.23a.43.43,0,0,1,.21.09,5.46,5.46,0,0,1,.76.64q.21.24.19.31c0,.05-.08.08-.18.08H81.82a1.53,1.53,0,0,1-.31.28v1.75h1.1a3.71,3.71,0,0,1,.73-.89.37.37,0,0,1,.26.09,4.28,4.28,0,0,1,.67.61c.15.18.21.29.19.33s-.1.07-.23.07H81.51v2.31h2.07q.67-.91.82-.91a2.32,2.32,0,0,1,.4.27,3.88,3.88,0,0,1,.54.49q.2.23.18.29s-.08.06-.18.06H81.51v1.62l.06,1.17a.77.77,0,0,1-.12.31q-.1.16-.85.15c-.21,0-.33,0-.38-.07a.38.38,0,0,1-.09-.2l.08-1.25V40.66H76.15l-.58,0Zm3.34.06h1.54V38.09H78.67Z"
        transform="translate(-31.42 -18.68)" />
    <path
        d="M89.27,35.89H87l-.34,0-.31-.3.73.06h2.27a7.2,7.2,0,0,0,.49-1.3l.15-.54v-.11l.06,0,.52.1q.48.1.77.19l.45.15c.13,0,.19.09.2.13a.16.16,0,0,1,0,.12,1.53,1.53,0,0,1-.41.17l-.66,1.1h3.64l.51-.69c.11-.15.19-.23.24-.23a.39.39,0,0,1,.21.09,5.63,5.63,0,0,1,.92.77.39.39,0,0,1,.08.2s-.07.05-.18.05H90.79q-.44.69-.89,1.3l.5.23h2.88a2.23,2.23,0,0,1,.42-.49A.43.43,0,0,1,94,37a3.6,3.6,0,0,1,1,.6q0,.14-.32.38v5q0,.59-.37.69a5.46,5.46,0,0,1-.84.16q-.47.05-.52,0a.38.38,0,0,1,0-.16,1.23,1.23,0,0,0-.13-.37.82.82,0,0,0-.46-.37L92,42.75c-.09,0-.12-.06-.11-.11s.08-.06.2-.05l.42,0q.74.06.83,0a.51.51,0,0,0,.09-.33V40.88H90.34v1.69l.05.92a.54.54,0,0,1-.15.26q-.12.12-.83.11a.5.5,0,0,1-.3-.06.38.38,0,0,1-.08-.26l.06-1.12v-4.3a11.56,11.56,0,0,1-2.2,1.78l-.29.17q-.11.06-.16,0s0-.08.06-.16l.28-.26a6.23,6.23,0,0,0,.76-.88q.44-.59.82-1.2A17.17,17.17,0,0,0,89.27,35.89ZM93.42,39V37.61H90.34V39Zm-3.08,1.63h3.08V39.24H90.34Z"
        transform="translate(-31.42 -18.68)" />
    <path
        d="M99.65,35a6,6,0,0,0,1.36-.82l.29-.25c.06-.06.11-.08.15-.08a.66.66,0,0,1,.14.13l.5.48q.48.47.43.57t-.32.1l-.35,0-2.17.14,0,1.65h1q.33-.43.42-.45a.49.49,0,0,1,.27.05l.52.3a1.33,1.33,0,0,1,.4.29q0,.17-.3.35v1.32l0,.82a.65.65,0,0,1-.5.32,1.86,1.86,0,0,1-.5,0q-.23,0-.23-.23v-.43H99.65q0,.28-.1.81A3.68,3.68,0,0,1,99,41.51a5.94,5.94,0,0,1-1.09,1.35l-.34.31c-.06.06-.11.07-.14,0a.1.1,0,0,1,0-.12l.26-.38a4.92,4.92,0,0,0,.45-.92,6,6,0,0,0,.34-1.36,15,15,0,0,0,.07-2.2q0-1.46-.05-2.28l0-.87,0-.42a.12.12,0,0,1,0-.05s.1,0,.29.09Zm4.42,0q.28-.12.79-.4a6.35,6.35,0,0,0,.65-.39l.25-.19.15-.12H106l.49.42a5.82,5.82,0,0,1,.61.57c.09.11.12.18.1.21s-.07.05-.17.05l-.55,0-1.17,0-1.26,0,0,2.25h1.74a3.61,3.61,0,0,1,.69-.87.4.4,0,0,1,.26.12l.43.38q.45.42.41.49a.16.16,0,0,1-.15.08h-1a.65.65,0,0,1-.23.24v4.33l.06,1.07a.74.74,0,0,1-.13.28q-.11.16-.62.16t-.57-.08a.45.45,0,0,1-.06-.22l.09-1.24V37.7H104l-.06,1a9.09,9.09,0,0,1-.18,1.21,3.38,3.38,0,0,1-.77,1.46,4.49,4.49,0,0,1-1.64,1.2,11.06,11.06,0,0,1-1.68.63l-.37.1c-.07,0-.12,0-.13,0s0-.09.1-.12l.4-.17a6,6,0,0,0,1.5-.93,4.79,4.79,0,0,0,1-1.13,3.52,3.52,0,0,0,.45-1.27,12.38,12.38,0,0,0,.11-2q0-1.23,0-1.77l0-.82,0-.61s.11,0,.26,0Zm-4.4,4.16h1.16v-2H99.69Z"
        transform="translate(-31.42 -18.68)" />
    <path
        d="M108.46,34.81l.93.06h6.82l.55-.74c.13-.17.23-.26.29-.26a.47.47,0,0,1,.26.1l.46.38a3.64,3.64,0,0,1,.5.48c.09.11.12.18.1.22s-.07.05-.16.05h-4a.41.41,0,0,1-.31.3v2.13a9.84,9.84,0,0,1,1.66.41,1.82,1.82,0,0,1,1.07.82,1.47,1.47,0,0,1,.22.95.9.9,0,0,1-.27.49.69.69,0,0,1-.52.18.66.66,0,0,1-.52-.19,2.09,2.09,0,0,1-.28-.73,2.1,2.1,0,0,0-.47-.92,4.82,4.82,0,0,0-.89-.75v4.3l.08,1.3a.6.6,0,0,1-.11.27.57.57,0,0,1-.38.16l-.56.05c-.18,0-.29,0-.32-.07a.47.47,0,0,1-.06-.23l.1-1.5v-7h-3.16l-.71,0Z"
        transform="translate(-31.42 -18.68)" />
    <path
        d="M120.71,34.86v7.25l.06,1.33a.59.59,0,0,1-.54.38q-.44.07-.53,0a.39.39,0,0,1-.11-.23l.08-1.44V35.63l-.05-1.49s.1,0,.23,0l1,.47h.76l.21-.34q.09-.15.17-.16a1.94,1.94,0,0,1,.75.3q.53.3.53.46t-.45.27q-.67,1.09-1.1,2a3.37,3.37,0,0,1,1.18,1.28,2.77,2.77,0,0,1,.22,1.16,1.65,1.65,0,0,1-.59,1.39,1.27,1.27,0,0,1-.87.31.11.11,0,0,1-.08,0,.35.35,0,0,1,0-.18,1,1,0,0,0-.15-.39.7.7,0,0,0-.32-.32l-.19-.08c-.09,0-.13-.07-.12-.11s.07-.07.17-.07h.2a.88.88,0,0,0,.68-.31,1.43,1.43,0,0,0,.29-1,2,2,0,0,0-.44-1.25l-.16-.21-.14-.14a1,1,0,0,1,0-.25l.09-.4.08-.58.09-.64,0-.49Zm5.85,0a2.36,2.36,0,0,0,.23-.24.4.4,0,0,1,.18-.15.56.56,0,0,1,.26.06q.9.42,1,.5c.09.05.13.11.14.16s-.15.21-.45.31q-.63.7-1.26,1.28a9.32,9.32,0,0,0,2.51.53l.32,0c.06,0,.1,0,.1.08s0,.09-.1.12l-.23.12a1.32,1.32,0,0,0-.44.37,1.64,1.64,0,0,0-.26.44c0,.13-.1.19-.17.19a4.19,4.19,0,0,1-1-.33,4.25,4.25,0,0,1-1.47-1,9,9,0,0,1-2.11,1.1l-.33.12-.23.09c-.11,0-.17,0-.18,0s0-.08.11-.12l.17-.1.29-.19a7.43,7.43,0,0,0,1.71-1.51,6.22,6.22,0,0,1-.61-1.36,7.6,7.6,0,0,1-1.55,1.54L123,37a.92.92,0,0,1-.25.15q-.09,0-.11,0s0-.08.09-.16l.16-.17.24-.31a5.85,5.85,0,0,0,.55-.93,7.83,7.83,0,0,0,.34-.78q.07-.23.18-.59l.12-.43a.33.33,0,0,1,0-.1h.1a7.12,7.12,0,0,1,1.11.2q.4.12.42.17t-.39.28l-.38.52Zm-2.38,4.8-.58,0-.29-.31.75.06h1.48V39l-.05-.76s0-.07.1-.06h.28l.56.09q.47.06.52.19t-.31.32v.67h.64q.23-.28.35-.46t.19-.19s.12,0,.23.09a4.3,4.3,0,0,1,.49.42q.19.2.19.27c0,.05,0,.08-.13.08h-2v1.86h.89q.45-.6.56-.72a.34.34,0,0,1,.18-.12.45.45,0,0,1,.23.11l.37.28q.56.47.51.57a.17.17,0,0,1-.17.1h-2.58v.82l.06,1a.48.48,0,0,1-.07.19q-.06.1-.49.13a1.12,1.12,0,0,1-.52,0,.36.36,0,0,1-.13-.2l.06-1.11V41.7h-1.39l-.34.26a.33.33,0,0,1-.23.08q-.11,0-.46-.35t-.34-.39s.13-.11.4-.23l.25-.63.11-.41a.16.16,0,0,1,.09,0l.63.15q.59.15.61.22t-.31.27l-.34.87h1.32V39.63Zm2.44-4.6H125l-.05.06a4.36,4.36,0,0,0,.81,1.16A8.34,8.34,0,0,0,126.62,35Z"
        transform="translate(-31.42 -18.68)" />
    <path
        d="M132.61,40.85a1.44,1.44,0,0,1,.69.18,1.31,1.31,0,0,1,.53.53,1.54,1.54,0,0,1,.2.73,1.36,1.36,0,0,1-.19.71,1.42,1.42,0,0,1-.52.54,1.31,1.31,0,0,1-.71.18,1.44,1.44,0,0,1-.73-.19,1.35,1.35,0,0,1-.52-.52,1.48,1.48,0,0,1-.18-.74,1.45,1.45,0,0,1,.19-.71,1.28,1.28,0,0,1,.54-.52A1.62,1.62,0,0,1,132.61,40.85Zm0,.44a1.14,1.14,0,0,0-.47.14.9.9,0,0,0-.38.35,1,1,0,0,0-.13.49.88.88,0,0,0,.13.49.92.92,0,0,0,.35.37,1,1,0,0,0,.49.13.89.89,0,0,0,.49-.12,1,1,0,0,0,.5-.88,1.05,1.05,0,0,0-.14-.48.94.94,0,0,0-.38-.36A1,1,0,0,0,132.6,41.29Z"
        transform="translate(-31.42 -18.68)" />
    <rect class="step21-2" x="189.39" y="44.4" width="54.61" height="11.38" />
    <rect class="step21-3" x="97.23" y="44.4" width="54.61" height="11.38" />
    <path
        d="M131.56,86.31q.27-.4.34-.42a.32.32,0,0,1,.21,0,6.7,6.7,0,0,1,.73.41.33.33,0,0,1,.1.12q0,.09-.3.31v7.09a1,1,0,0,1-.09.45.55.55,0,0,1-.38.25,3.63,3.63,0,0,1-.54.1c-.17,0-.26,0-.29,0a.77.77,0,0,1,0-.32.59.59,0,0,0-.37-.49l-.26-.13c-.07,0-.11-.07-.1-.1s0-.06.12-.06l.28,0q.52,0,.6,0a.63.63,0,0,0,.08-.41V90.78h-.86l-.12.82a8,8,0,0,1-.27,1.09,5.88,5.88,0,0,1-.88,1.61l-.16.22c0,.06-.08.08-.1,0a.1.1,0,0,1,0-.11l.16-.37a6.63,6.63,0,0,0,.22-.71,7.07,7.07,0,0,0,.2-1.32q.05-.8,0-2.67t0-2.26l0-.81,0-.44,0,0,.17.06.93.4Zm-.76,4.29h.85v-2h-.84Zm0-2.17h.84V86.49h-.83Zm1.87-.91.53,0h1.63v-.91l-.06-1a.14.14,0,0,1,.12,0l.4,0q1,.08.8.35l-.24.18v1.4H137q.55-.75.66-.76a.4.4,0,0,1,.24.09c.58.45.86.71.83.77s-.06.09-.11.09h-2.76v1.57h.9L137,89a.36.36,0,0,1,.17-.15.43.43,0,0,1,.24.07l.67.41q.17.11.17.21c0,.06-.1.15-.29.27v2.9a.87.87,0,0,1-.1.46.61.61,0,0,1-.33.23l-.5.09q-.3.06-.34,0a.6.6,0,0,1,0-.17.79.79,0,0,0-.14-.34.85.85,0,0,0-.23-.23L136,92.6c-.05,0-.08-.05-.07-.08s0,0,.11,0l.32,0a.74.74,0,0,0,.39,0c.06,0,.09-.13.09-.28V89.52h-1v4l.06,1a.55.55,0,0,1-.08.17q-.05.08-.47.15t-.5,0a.35.35,0,0,1-.08-.22l.06-1v-4h-.72v2.9l0,.78a.56.56,0,0,1-.14.24.71.71,0,0,1-.46.12c-.23,0-.37,0-.41-.06a.33.33,0,0,1-.05-.21l0-.81V90l-.06-1s.07,0,.15,0l.94.39h.66V87.76h-1.45l-.45,0Z"
        transform="translate(-31.42 -18.68)" />
    <path
        d="M141.26,91.47v-4h-.94l-.53,0-.27-.28.69.06h2.49l.33-.45q.2-.29.29-.29a.38.38,0,0,1,.22.08q.89.67.84.77c0,.06-.07.09-.12.09h-1.63a.75.75,0,0,1-.24.26v3.56q.89-.09,1.29-.16l.67-.11a.11.11,0,0,1,.13.05s0,.08-.11.12l-.65.25q-1.35.52-2.29.91l-1.3.54s-.07,0-.08,0a.36.36,0,0,1-.06-.13l-.42-1.1a.27.27,0,0,1,0-.12.11.11,0,0,1,0-.05h1Zm2.37-3.15-.53,0-.28-.29.7.06,1.38,0c0-.26,0-.56,0-.9s0-.58,0-.71l0-.88s0-.07.08-.06l.27,0c.14,0,.41.06.79.14s.59.15.62.23-.11.22-.41.36l-.09,1.78,1.15,0,.21-.33q.11-.16.21-.17a2.32,2.32,0,0,1,.67.31q.54.31.55.44t-.34.31q0,.55,0,1.25t0,1.1q0,.4-.1,1.16a7.9,7.9,0,0,1-.21,1.3,1.62,1.62,0,0,1-.46.82,1.93,1.93,0,0,1-.75.41,2.36,2.36,0,0,1-.7.12l-.12,0a.13.13,0,0,1-.07,0,2.39,2.39,0,0,1-.1-.42q-.07-.38-.62-.58l-.4-.14c-.09,0-.13-.06-.12-.11s.06-.06.16,0l.48.09a2,2,0,0,0,1.2,0,1,1,0,0,0,.42-.67,7.71,7.71,0,0,0,.18-1.13q.06-.65.09-1.26t0-1.46v-.73h-1.29l0,.71q0,.48-.13,1.3a7,7,0,0,1-.34,1.44,5.1,5.1,0,0,1-.85,1.38,5.56,5.56,0,0,1-2.3,1.41l-.31.12-.23.09c-.1,0-.15,0-.17,0s0-.07.08-.12l.21-.12.29-.18q.17-.11.63-.48a5.19,5.19,0,0,0,.89-.91,4.14,4.14,0,0,0,.66-1.29,7,7,0,0,0,.31-1.46q.07-.72.09-1.3l0-.58Z"
        transform="translate(-31.42 -18.68)" />
    <path
        d="M153.34,87.87a2.94,2.94,0,0,0-.19-.49,1.44,1.44,0,0,0-.18-.27l-.1-.13a.06.06,0,0,1,0-.08s.08,0,.17,0l.21.06a2.44,2.44,0,0,1,1.11.6,1,1,0,0,1,.25.66.83.83,0,0,1-.19.54.57.57,0,0,1-.46.2.52.52,0,0,1-.56-.54v-.27q-1.6.34-2.74.66l-.21.06a.32.32,0,0,1-.15,0s0,0,0-.06l-.34-1a.14.14,0,0,1,0-.1.67.67,0,0,1,.2-.1,3.72,3.72,0,0,0,.51-.29,3.21,3.21,0,0,0,.77-1.42l.1-.28,0-.09h.07a8.33,8.33,0,0,1,.9.21A1.57,1.57,0,0,1,153,86a.12.12,0,0,1,0,.12q-.07.14-.48.21L151,87.81Zm-1.79,4.37V93.5l.05.84a.52.52,0,0,1-.11.24c-.06.07-.22.11-.5.12s-.43,0-.46-.05a.34.34,0,0,1-.05-.18l.06-.95V90.06l-.06-1,0,0,.17.05.91.39h1.31q.23-.37.37-.4a.44.44,0,0,1,.22.07l.39.18.25.15c.12.07.19.14.19.2s-.08.14-.25.25v3.91a1.24,1.24,0,0,1-.09.52c-.06.13-.28.22-.66.29s-.59.06-.63,0,0-.05,0-.12a.78.78,0,0,0,0-.26l-.09-.17a.59.59,0,0,0-.24-.17l-.34-.14c-.07,0-.09,0-.07-.09a.1.1,0,0,1,.1-.06l.37,0q.46,0,.54,0a.3.3,0,0,0,.08-.23V92.24Zm0-1.49H153v-1.1h-1.45ZM153,92V90.94h-1.45V92Zm2.92-4.56a9,9,0,0,0,1.14-.88l.18-.17.19-.2h.06a3.25,3.25,0,0,1,.59.41q.5.39.49.46a.18.18,0,0,1-.06.09h-.36q-1.48.39-2.23.55v.6a.4.4,0,0,0,.08.26q.08.1.58.12a5.85,5.85,0,0,0,.79,0,1.22,1.22,0,0,0,.77-.27,1.84,1.84,0,0,0,.35-.51l.2-.42c0-.05,0-.08.08-.06s.05,0,0,.11l-.07.43a1.19,1.19,0,0,0,0,.35.48.48,0,0,0,.09.21l.11.15a.5.5,0,0,1,.11.3.62.62,0,0,1-.08.19.93.93,0,0,1-.36.29,3.36,3.36,0,0,1-1.25.19,5.43,5.43,0,0,1-1.81-.12,1,1,0,0,1-.58-.42,1.5,1.5,0,0,1-.11-.62V86.73l-.06-1s.08-.06.17,0l.36,0q.79.09.83.19a.2.2,0,0,1,0,.17l-.24.18Zm.19,4.28a9.46,9.46,0,0,0,1.23-1.15l.21-.24.13-.13h.06a4.1,4.1,0,0,1,.47.33,6.15,6.15,0,0,1,.54.45c.09.09.13.16.13.21a.13.13,0,0,1-.06.08h-.31l-.45.13-1.08.34-.87.25v1.07a.38.38,0,0,0,.09.25q.1.11.54.13a4.94,4.94,0,0,0,.6,0,1.51,1.51,0,0,0,.65-.16.83.83,0,0,0,.24-.22,4.9,4.9,0,0,0,.24-.48l.24-.54c0-.05,0-.08.08-.06s.05,0,0,.09l-.12.66a1.19,1.19,0,0,0,0,.35.38.38,0,0,0,.1.21l.12.15a.47.47,0,0,1,.1.3,1.11,1.11,0,0,1-.11.26q-.1.19-.63.31a8.32,8.32,0,0,1-1.71.09,2.4,2.4,0,0,1-.94-.15.78.78,0,0,1-.43-.39,1.65,1.65,0,0,1-.1-.63V90.9l-.06-1s.08-.06.17,0l.31,0q.81.09.85.19a.19.19,0,0,1,0,.17.9.9,0,0,1-.24.18Z"
        transform="translate(-31.42 -18.68)" />
    <path
        d="M162,87.73h.76q.16-.19.26-.34t.18-.16l.12,0,.29.11a3.75,3.75,0,0,1,.48.27c.21.14.32.22.32.25s-.11.18-.33.36v4.27l.05,1a.54.54,0,0,1-.2.28,1.18,1.18,0,0,1-.37.12,1,1,0,0,1-.38,0c-.12,0-.2,0-.22-.1a.47.47,0,0,1,0-.23v-.34h-1.57v.54a.36.36,0,0,1-.08.25.7.7,0,0,1-.33.15,1.45,1.45,0,0,1-.42.05q-.2,0-.24-.06a.42.42,0,0,1,0-.18l0-1.25v-4.3l0-1.2s0,0,.09,0l1.12.5h.06c0-.25.08-.44.1-.57l.1-.78c0-.17,0-.29,0-.36v-.44h.1c.17,0,.45.11.86.23s.61.22.61.32-.14.17-.39.22Zm.93,2.49v-2.3h-1.57v2.29Zm-1.57,2.85h1.57V90.41h-1.57Zm6.19-5q.31-.52.42-.53a1.79,1.79,0,0,1,.71.29q.53.3.54.4s-.12.16-.36.37q0,.61,0,1t0,1.08q0,.73-.05,1.24t-.09,1.21a2.3,2.3,0,0,1-.32,1.06,1.55,1.55,0,0,1-.87.55q-.62.18-.72,0a.25.25,0,0,1,0-.12,1.75,1.75,0,0,0-.11-.37q-.1-.27-.66-.42l-.29-.08c-.09,0-.13-.06-.12-.11s.08-.08.21-.07l.42,0a2.46,2.46,0,0,0,.83,0,.8.8,0,0,0,.38-.28,1.68,1.68,0,0,0,.21-.84q0-.63.08-1.26t0-.94v-2h-2.14a13.82,13.82,0,0,1-.94,1.2l-.15.16-.14.15q-.1.06-.13,0s0-.06,0-.13l.09-.17.1-.24.11-.22a5,5,0,0,0,.27-.77q.16-.55.27-1t.24-1.21l0-.25,0-.24a.43.43,0,0,1,.21,0l.75.17q.71.16.69.42c0,.08-.14.16-.39.24l-.23.39-.38.69-.32.52ZM165,90l-.18-.16a.13.13,0,0,1-.05-.08s0,0,.09,0a3.22,3.22,0,0,1,.93.28,1.3,1.3,0,0,1,.76.62,1.61,1.61,0,0,1,.15.55,1,1,0,0,1-.21.53.66.66,0,0,1-.63.25q-.42,0-.49-.26a1.3,1.3,0,0,1-.06-.42V91a2.65,2.65,0,0,0,0-.47A1.05,1.05,0,0,0,165,90Z"
        transform="translate(-31.42 -18.68)" />
    <path
        d="M172.64,88.56q-.6.62-1.14,1.08t-.68.55l-.29.19a.76.76,0,0,1-.18.1s-.06,0-.08,0,0-.05,0-.12l.11-.14.21-.3a6.47,6.47,0,0,0,.58-1.08c.18-.42.29-.69.31-.79l.07-.33c0-.08.08-.09.21,0l.35.15q.81.38.83.53T172.64,88.56Zm1.81-1.15a.52.52,0,0,1-.22.21v1.51l0,.92a.59.59,0,0,1-.14.27c-.08.09-.31.13-.71.12a.41.41,0,0,1-.28-.06.31.31,0,0,1-.06-.19l.06-.94V87.41h-2.06l-.51,0-.27-.29.69.07h3.66a1.33,1.33,0,0,1-.24-.17.58.58,0,0,1-.15-.36l0-.2a1,1,0,0,0-.4-.75l-.16-.11c-.07,0-.1-.08-.08-.13s.13-.06.34,0q1.26.12,1.48.44a1.19,1.19,0,0,1,.23.56.8.8,0,0,1-.09.44,1,1,0,0,1-.32.33h2.28a3.87,3.87,0,0,1,.66-.83c.07,0,.17,0,.31.12q.83.65.79.77c0,.08-.07.13-.12.13h-2.5a.68.68,0,0,1-.1.16l-.16.1v1.4l.06,1.06a.65.65,0,0,1-.14.21.79.79,0,0,1-.46.1.88.88,0,0,1-.46,0,.37.37,0,0,1-.12-.17l.06-1V87.41Zm-1.73,3.44h-.9l-.51,0-.27-.29.69.06h4.5l.24-.25a.53.53,0,0,1,.21-.15.42.42,0,0,1,.23.06q.2.12.68.46c.32.23.48.38.47.46s-.2.18-.53.21A16.76,16.76,0,0,1,175.8,93a8.25,8.25,0,0,0,1.59.29,10.56,10.56,0,0,0,1.71,0l.36,0a.09.09,0,0,1,.08,0s0,.08-.11.14l-.17.12a1.22,1.22,0,0,0-.31.32,2.36,2.36,0,0,0-.2.37,1.43,1.43,0,0,0-.1.28.51.51,0,0,1-.05.17s-.09.05-.21,0a18.54,18.54,0,0,1-2.15-.42,6.07,6.07,0,0,1-1.47-.71,9.9,9.9,0,0,1-3.63,1h-.32l-.22,0c-.11,0-.16,0-.17-.06s0-.07.12-.1l.27,0,.31-.07a7.41,7.41,0,0,0,1.52-.54A7.21,7.21,0,0,0,174,93a5.48,5.48,0,0,1-.84-1.3l-.37-.85Zm3.54,0H173a6.08,6.08,0,0,0,.81,1,9.31,9.31,0,0,0,.88.69A8.24,8.24,0,0,0,176.26,90.85Zm.76-2.42-.24-.12c-.09,0-.12-.09-.09-.14s.12-.08.29-.06l.54.07a2.33,2.33,0,0,1,1.5.63,1.49,1.49,0,0,1,.37.85.63.63,0,0,1-.3.59.62.62,0,0,1-.62.05.61.61,0,0,1-.26-.19,4.05,4.05,0,0,1-.31-.73A1.71,1.71,0,0,0,177,88.43Z"
        transform="translate(-31.42 -18.68)" />
    <path
        d="M184.17,86.56q-.42.69-.9,1.41.42.13.42.26t-.25.28v4.8l.05,1a.79.79,0,0,1-.08.21c0,.07-.22.12-.55.15s-.51,0-.54,0a.34.34,0,0,1-.06-.17l.06-1.26V89.18a14.58,14.58,0,0,1-1.51,1.38l-.3.23c-.06,0-.1.05-.13,0s0-.07,0-.12l.31-.37a8.46,8.46,0,0,0,.83-1.27q.45-.8.8-1.62a10,10,0,0,0,.5-1.34l.08-.31,0-.15s.06-.05.13,0l.64.26.73.3c.12.05.17.13.16.23S184.46,86.52,184.17,86.56Zm2.43,2.7a9.64,9.64,0,0,0,1.26-1.32l.21-.29.06-.09.06,0,.22.15q.2.15.64.54t.41.51-.54.12l-.6.4-.79.54a9.78,9.78,0,0,1-.94.58v2.45a.55.55,0,0,0,.14.43,1.73,1.73,0,0,0,.88.12,2.22,2.22,0,0,0,1-.15,2.59,2.59,0,0,0,.6-1.09l.21-.56c0-.06.05-.09.1-.08s.07.05,0,.14l-.1.46a4.08,4.08,0,0,0-.08.44,1.32,1.32,0,0,0,0,.25.66.66,0,0,0,.06.3l.21.25a.7.7,0,0,1,.19.34.54.54,0,0,1,0,.31.93.93,0,0,1-.78.5,8.84,8.84,0,0,1-1.58.06,5.16,5.16,0,0,1-1.58-.16.68.68,0,0,1-.33-.31,1.75,1.75,0,0,1-.08-.62V90.88a11.55,11.55,0,0,1-1.24.44l-.42.1a.11.11,0,0,1-.14,0c0-.05,0-.1.08-.14l.34-.16c.09,0,.31-.17.67-.39a6,6,0,0,0,.71-.48V87.33l-.07-1.53c0-.05.06-.08.15-.07l.48,0,.34.06a2.77,2.77,0,0,1,.39.1c.1,0,.15.07.15.11a.15.15,0,0,1,0,.1,1.86,1.86,0,0,1-.27.21Z"
        transform="translate(-31.42 -18.68)" />
    <path
        d="M133.23,100v-.89l0-1.15a.13.13,0,0,1,.09,0,3.7,3.7,0,0,1,.69.05,2.87,2.87,0,0,1,.63.12.23.23,0,0,1,.08.1q0,.14-.3.36V100h2.21l.18-.23.36-.5a.39.39,0,0,1,.18-.16s.13,0,.25.12l.5.36q.53.44.5.53a.12.12,0,0,1-.12.08h-4.06v1.72h.92l.21-.25a.38.38,0,0,1,.23-.17,2.42,2.42,0,0,1,.55.24,5.14,5.14,0,0,1,.67.38c.13.1.19.17.18.24s-.07.11-.19.14l-.27.09a13.72,13.72,0,0,1-1.9,2.33,9.12,9.12,0,0,0,1.34.57,6.18,6.18,0,0,0,1.2.24,6.84,6.84,0,0,0,.82.06h.27a.13.13,0,0,1,.14.08c0,.05,0,.1-.12.14l-.19.08a1.45,1.45,0,0,0-.24.14,1,1,0,0,0-.25.3,1.45,1.45,0,0,0-.17.38,1.23,1.23,0,0,1-.06.21s-.06,0-.12,0a8.88,8.88,0,0,1-1.57-.47,8.67,8.67,0,0,1-1.93-1q-.81.46-1.39.74a6.35,6.35,0,0,1-1.45.45,10.08,10.08,0,0,1-1.21.2l-.39,0c-.1,0-.15,0-.16-.08s0-.11.11-.12l.38-.09a8.23,8.23,0,0,0,1.32-.45,6.5,6.5,0,0,0,1.17-.6,9.58,9.58,0,0,0,.88-.7,8.32,8.32,0,0,1-.67-.87,3.22,3.22,0,0,1-.41-1,5.15,5.15,0,0,1-.16-.74l0-.33h-.71l-.43,0-.3-.28.67.06h2.13v-1.72H130l-.43,0-.3-.28.67,0Zm2.12,2.11h-3.26a5.8,5.8,0,0,0,.29.74,2.94,2.94,0,0,0,.63.83,4.64,4.64,0,0,0,.83.67,7.91,7.91,0,0,0,.81-1A12,12,0,0,0,135.35,102.08Z"
        transform="translate(-31.42 -18.68)" />
    <path
        d="M142.22,99.59h4.65a4.94,4.94,0,0,1,.79-.83.35.35,0,0,1,.21.09,5.14,5.14,0,0,1,.71.65c.1.13.14.21.13.24s0,0-.1,0h-6.53a12.37,12.37,0,0,1-2.24,2.26l-.26.19s-.09,0-.12,0,0-.07,0-.14l.22-.28a7.65,7.65,0,0,0,.85-1.34,12,12,0,0,0,.54-1.29c.15-.42.25-.73.3-.93l.09-.34,0-.15c0-.05.06-.06.15,0a5.72,5.72,0,0,0,.64.22,2.74,2.74,0,0,1,.72.3q.17.12.17.18a.15.15,0,0,1-.06.12,1.88,1.88,0,0,1-.33.15Q142.53,99.14,142.22,99.59ZM140,102l.63,0h5.09l.25-.35a.41.41,0,0,1,.16-.16.39.39,0,0,1,.22,0l.44.24a4.08,4.08,0,0,1,.46.27.17.17,0,0,1,.08.15s-.13.16-.36.33c0,.13,0,.27,0,.43a6.84,6.84,0,0,0,0,.84,5,5,0,0,0,.17,1.14,1.28,1.28,0,0,0,.41.65q.28.22.41.19c.07,0,.16-.11.25-.29s.16-.31.19-.4l.17-.45a.06.06,0,0,1,.08,0s.05,0,0,.12l-.07.44a2.39,2.39,0,0,0-.05.5,1.45,1.45,0,0,0,.05.37,1.53,1.53,0,0,0,.16.35,1.46,1.46,0,0,1,.14.3.34.34,0,0,1,0,.23c-.07.17-.25.26-.52.27a2,2,0,0,1-1.16-.33,2.25,2.25,0,0,1-.92-.93,3.71,3.71,0,0,1-.36-1.15,11,11,0,0,1-.09-1.38l0-1.18h-5.08l-.46,0Zm1.82-1.18H146l.21-.23.39-.44a.24.24,0,0,1,.13-.09s.09,0,.17.09a6.5,6.5,0,0,1,.63.59c.1.12.14.19.13.22s0,0-.1,0H142l-.48,0-.26-.27Z"
        transform="translate(-31.42 -18.68)" />
    <path
        d="M152,98.91h1.31l.31-.39q.18-.24.25-.25s.13,0,.25.15l.31.28.19.19c.07.07.1.13.09.17s-.06.06-.13.06h-2.16a2.15,2.15,0,0,1,.85.53.77.77,0,0,1,.16.43.65.65,0,0,1-.2.48.81.81,0,0,1-.56.18c-.25,0-.39-.16-.4-.47a1.81,1.81,0,0,1,0-.34,1.27,1.27,0,0,0,0-.41,1.4,1.4,0,0,0-.09-.2,1.36,1.36,0,0,0-.12-.2h-.25q-.44.54-.91,1a7.08,7.08,0,0,1-.64.63L150,101c-.09.07-.15.08-.19.05s0-.09,0-.17l.2-.27a5.57,5.57,0,0,0,.5-1,8.11,8.11,0,0,0,.44-1.27l.07-.3,0-.22s.05-.05.11,0l.27.08.55.13q.51.12.56.24t-.36.3Zm-.78,2.52h6.15l.24-.32a.38.38,0,0,1,.17-.16c.05,0,.15,0,.29.12l.45.29a1.69,1.69,0,0,1,.39.3.43.43,0,0,1,.11.26c0,.09-.07.15-.22.17a.64.64,0,0,1-.21,0h-.29a1.92,1.92,0,0,0-.85.27l-.22.13s-.07,0-.09,0,0-.08,0-.15l.1-.22.15-.3.09-.21h-6.24a3.64,3.64,0,0,1,.06.38,1,1,0,0,1-.06.38,1.06,1.06,0,0,1-.26.41.7.7,0,0,1-.5.2.64.64,0,0,1-.49-.17.51.51,0,0,1-.17-.35.64.64,0,0,1,0-.28,1.69,1.69,0,0,1,.37-.33,1.36,1.36,0,0,0,.4-.4,1,1,0,0,0,.08-.33,2.52,2.52,0,0,1,0-.31c0-.08.08-.05.19.08Zm4.62,2.58h-3.12v.88h3.49c.16-.26.28-.4.35-.43s.2,0,.37.1a7.71,7.71,0,0,1,.67.4.29.29,0,0,1,.11.13c0,.09-.07.18-.24.28V106l0,.71c-.08.19-.29.29-.64.31s-.45,0-.49,0a.23.23,0,0,1-.06-.15v-.29h-3.6v.24c0,.05,0,.13-.14.24s-.33.14-.71.13a.44.44,0,0,1-.24,0,.38.38,0,0,1-.1-.12l.05-1.19V103l-.05-.91.06,0,.27.11.93.37h2.94a1.63,1.63,0,0,1,.34-.44.5.5,0,0,1,.29.07l.3.13q.52.25.55.38c0,.09-.06.18-.21.26v.47l0,.63q-.17.3-.87.31c-.21,0-.31-.05-.31-.18Zm0-1.26h-3.12v1.06h3.12Zm-3.12,3.6h3.6v-1.26h-3.6Zm1.64-6.35q.24-.47.32-.66t.21-.55l.17-.48.05-.19.06-.33h.08l.55.13a3.58,3.58,0,0,1,.66.21c.11.06.17.11.16.16s-.12.14-.31.19l-.44.48h1.5l.33-.43c.13-.17.22-.26.27-.27s.13,0,.23.11a5.6,5.6,0,0,1,.55.51q.14.17.12.23s-.06.06-.13.06h-2.22q1.08.33,1.1.78a.86.86,0,0,1-.13.61.78.78,0,0,1-.37.22.5.5,0,0,1-.42-.07.51.51,0,0,1-.25-.46,1.28,1.28,0,0,1,0-.24,1.35,1.35,0,0,0,0-.35,1.86,1.86,0,0,0-.28-.49h-.47l-1,1q.61.41.41.81a.67.67,0,0,1-.5.44.58.58,0,0,1-.48-.14.43.43,0,0,1-.13-.17.37.37,0,0,1,0-.12s0,0,0-.13,0-.15,0-.17a1.59,1.59,0,0,0-.07-.26.7.7,0,0,0-.11-.22l-.12-.1c-.07-.08,0-.13.09-.14l.32,0Z"
        transform="translate(-31.42 -18.68)" />
    <path
        d="M160.76,102.86q.1-1.4.11-1.64v-.73l-.62.66-.2.21c0,.05-.09.07-.12,0s0-.08,0-.15l.18-.3q.1-.16.41-.85a6.79,6.79,0,0,0,.46-1.37l.07-.38.08-.42v-.09s0-.06.12,0a4.38,4.38,0,0,1,1.3.39q0,.11,0,.16a.84.84,0,0,1-.28.15q-.36.57-.73,1.09h2.13l.36-.51c.09-.12.16-.19.21-.19a.41.41,0,0,1,.22.1,6.67,6.67,0,0,1,.52.48c.14.15.2.24.19.27s0,.05-.1.05h-3.68l-.49.63.9.36h1.7a1.44,1.44,0,0,1,.33-.4.32.32,0,0,1,.21,0l.43.24c.28.15.42.25.42.31s-.09.15-.25.28l-.08,1.69.31-.41c.07-.11.13-.16.17-.17s.1,0,.17.09a4.19,4.19,0,0,1,.37.41c.07.09.1.15.09.18s0,0-.12,0h-1l-.06,1.07-.08.94q.24-.27.36-.43c.08-.11.14-.16.17-.17a.27.27,0,0,1,.16.07,3.07,3.07,0,0,1,.41.4c.13.15.18.24.17.27a.1.1,0,0,1-.09,0h-1.18c0,.2-.11.44-.2.73a1.45,1.45,0,0,1-.62.78,1.52,1.52,0,0,1-.88.33l-.09,0a.63.63,0,0,1-.08-.18.94.94,0,0,0-.17-.3,1,1,0,0,0-.29-.24l-.28-.14c-.07,0-.1-.07-.08-.1a.1.1,0,0,1,.1-.05l.31,0a1,1,0,0,0,.82-.19,1.18,1.18,0,0,0,.3-.41l.08-.25h-1.9a2.82,2.82,0,0,1-.42.37.26.26,0,0,1-.16-.06,2.56,2.56,0,0,1-.39-.3q-.29-.25-.27-.37s.11-.12.32-.27c0-.45.08-.72.09-.81l.07-.76h-.25l-.44,0-.23-.27.47,0Zm.71,2.21h1.95l0-.37c0-.08,0-.45.08-1.09l0-.55h-1.91Zm.22-2.2h1.9l.06-1.89h-1.81Zm.57.53q.84.33.83.91a.56.56,0,0,1-.14.38.53.53,0,0,1-.35.17.35.35,0,0,1-.33-.12.49.49,0,0,1-.12-.27,1,1,0,0,1,0-.24,1.44,1.44,0,0,0,0-.33,1.56,1.56,0,0,0,0-.18.61.61,0,0,0,0-.14l-.06-.1a.12.12,0,0,1,0-.1s0,0,.09,0Zm.15-2.13a1.5,1.5,0,0,1,.64.42.8.8,0,0,1,.19.49.57.57,0,0,1-.14.38.53.53,0,0,1-.35.17.35.35,0,0,1-.33-.12.48.48,0,0,1-.12-.27,1,1,0,0,1,0-.24,1.5,1.5,0,0,0,0-.33s0-.11,0-.17a1.07,1.07,0,0,0,0-.14l-.06-.1s0-.08,0-.1,0,0,.09,0ZM167,98.4q-.43,1.1-.87,2.08h1.67l.42-.52c.09-.11.16-.17.21-.18s.12,0,.23.09a4,4,0,0,1,.5.46c.15.16.22.26.21.3s0,.05-.05.05h-1.4a3.5,3.5,0,0,1,.5.24.12.12,0,0,1,0,.11s-.07.09-.19.14q-.15.82-.31,1.54a9.94,9.94,0,0,1-.29,1l-.25.71a4.07,4.07,0,0,0,1.75,1.23l.3.11a.1.1,0,0,1,0,.07s0,.06,0,.07l-.31.14a1.27,1.27,0,0,0-.33.22l-.24.25a1.45,1.45,0,0,0-.17.25c0,.08-.08.13-.11.13s-.08,0-.14-.07a3.63,3.63,0,0,1-.5-.44q-.17-.19-.85-1.06a6.64,6.64,0,0,1-2.28,1.65l-.38.15q-.13.05-.16,0s0-.07.06-.11l.32-.21a10.52,10.52,0,0,0,.86-.7,4.89,4.89,0,0,0,1.13-1.61,8.31,8.31,0,0,1-.44-1.42,8.55,8.55,0,0,1-.15-1.09l-.06-.73-.41.73c0,.07-.08.1-.13.09s-.07-.05,0-.11l.12-.44c0-.15.1-.41.18-.78s.14-.63.16-.79.06-.46.11-.88l.09-.82,0-.33v-.2h.17a4.73,4.73,0,0,1,.82.15,1.23,1.23,0,0,1,.48.18.14.14,0,0,1,0,.13A.85.85,0,0,1,167,98.4Zm-1.12,2.6c0,.17.08.45.15.83a9,9,0,0,0,.67,1.75,10,10,0,0,0,.25-1.17q.06-.45.15-1.74H166Z"
        transform="translate(-31.42 -18.68)" />
    <path
        d="M172.21,99.36h3q0-.29-.1-.64c0-.23-.06-.4-.08-.5a1.78,1.78,0,0,0,0-.22s0-.07,0-.08.06,0,.14,0q1.12,0,1.17.22c0,.09-.05.19-.22.3l.07.94h1.94a4.12,4.12,0,0,1,.55-.7.18.18,0,0,1,.14,0,1.73,1.73,0,0,1,.24.25l.31.38c.05.09.07.14,0,.17a.14.14,0,0,1-.12,0h-3.09c0,.15,0,.29,0,.41s.06.33.13.63a3.5,3.5,0,0,0,.2.65l.17.41.24-.45.14-.25.14-.33a4.11,4.11,0,0,0,.16-.41c0-.08.06-.13.12-.15l.13,0,.52.21.4.21c.21.12.3.21.27.27s-.15.13-.34.14a15.27,15.27,0,0,1-1.24,1.46,2.92,2.92,0,0,0,.75.58.87.87,0,0,0,.62.16.4.4,0,0,0,.19-.15,5.3,5.3,0,0,0,.39-.72l.1-.21c0-.06.06-.08.1-.07s.05.08,0,.21l-.07.38a2.72,2.72,0,0,0-.06.58.76.76,0,0,0,.1.4l.15.25a.43.43,0,0,1,0,.36.48.48,0,0,1-.33.23,2,2,0,0,1-1.29-.24,4.2,4.2,0,0,1-1.43-1.09,5.79,5.79,0,0,1-1,.64l-.2.1-.16.09c-.05,0-.1,0-.13,0s0-.08,0-.14l.15-.15a5,5,0,0,0,.39-.43l.46-.63a7.3,7.3,0,0,1-.39-.89q-.11-.31-.2-.7t-.26-1.39h-3v1.89a7.75,7.75,0,0,1,0,.85,7,7,0,0,1-.27,1.17,3.73,3.73,0,0,1-1.25,1.6l-.13.11q-.11.09-.15,0a.13.13,0,0,1,0-.14l.15-.22a2.71,2.71,0,0,0,.25-.5c.08-.21.17-.46.25-.75a4.33,4.33,0,0,0,.15-1c0-.36,0-.73,0-1.1V99.95L171,99c0-.12,0-.16.14-.11Zm-.57,5.44,0-.14q0-.31.17,0l.06.13a2.14,2.14,0,0,1,.16.64,3.89,3.89,0,0,1,0,.68,1,1,0,0,1-.3.61.71.71,0,0,1-.57.26.67.67,0,0,1-.46-.21.56.56,0,0,1-.13-.46.55.55,0,0,1,.11-.3,1.73,1.73,0,0,1,.39-.34,1.22,1.22,0,0,0,.4-.41A1.32,1.32,0,0,0,171.64,104.8Zm2.28-4.3.14-.14.17-.24c.1-.14.17-.21.21-.2a2,2,0,0,1,.32.35q.27.33.25.38s-.08,0-.21,0h-1.88l-.51,0-.23-.28.67.06Zm.15,2.73h-.85v.17a.34.34,0,0,1-.13.23.65.65,0,0,1-.52.07.31.31,0,0,1-.2-.06.28.28,0,0,1-.07-.1l0-.67v-1.11l-.06-.63,0,0,.12.06.83.37H174c.15-.23.28-.34.38-.34l.09,0,.41.21q.36.18.36.27s-.07.11-.18.2v.72l0,.58a.5.5,0,0,1-.11.17.88.88,0,0,1-.48.12q-.41,0-.41-.18Zm-.25,1.63v.77a.77.77,0,0,0,.09.44q.09.12,1.07.12a2.68,2.68,0,0,0,1.31-.15.86.86,0,0,0,.26-.33c0-.11.1-.3.17-.57l.15-.6c0-.08.06-.11.12-.1s.08.07.08.18l0,.53a.71.71,0,0,0,.1.49l.24.29a.74.74,0,0,1,.16.38.48.48,0,0,1-.14.38q-.4.44-2.71.4a4.23,4.23,0,0,1-1.5-.17.78.78,0,0,1-.38-.3,1.23,1.23,0,0,1-.05-.42v-.91l0-.87s.08-.06.17-.06a5,5,0,0,1,.84.1q.31.07.33.16C174,104.67,174,104.76,173.82,104.86Zm-.6-1.82h.85v-1.3h-.85Zm1.21,1.22-.13-.09a.15.15,0,0,1-.08-.1s0-.06.08-.07l.23,0a3.27,3.27,0,0,1,.63.08.74.74,0,0,1,.62.49.68.68,0,0,1,0,.66.5.5,0,0,1-.54.2.46.46,0,0,1-.37-.21,1.76,1.76,0,0,1-.12-.47A.65.65,0,0,0,174.43,104.26Zm2.23-6-.16-.06a.09.09,0,0,1-.07-.09s0-.08.07-.09l.15,0a2.3,2.3,0,0,1,.46,0,1.2,1.2,0,0,1,.42.07.87.87,0,0,1,.29.2.58.58,0,0,1,.16.36.44.44,0,0,1-.09.36.67.67,0,0,1-.33.19.4.4,0,0,1-.42-.16.42.42,0,0,1-.12-.21l0-.15A.59.59,0,0,0,176.66,98.27Zm1,6.61-.12-.07s-.05,0,0-.09.06-.07.13-.06l.18,0a2.77,2.77,0,0,1,1.15.43,1.14,1.14,0,0,1,.56,1,.84.84,0,0,1-.17.49.53.53,0,0,1-.47.2.43.43,0,0,1-.37-.14.81.81,0,0,1-.13-.23c0-.06-.07-.3-.14-.71A1.26,1.26,0,0,0,177.65,104.88Z"
        transform="translate(-31.42 -18.68)" />
    <path
        d="M131.35,116.72a.89.89,0,0,1,.63.25.82.82,0,0,1,.25.61.89.89,0,0,1-1.48.62.91.91,0,0,1,0-1.25A.85.85,0,0,1,131.35,116.72Z"
        transform="translate(-31.42 -18.68)" />
    <path
        d="M136.47,116.72a.89.89,0,0,1,.63.25.82.82,0,0,1,.25.61.89.89,0,0,1-1.48.62.91.91,0,0,1,0-1.25A.85.85,0,0,1,136.47,116.72Z"
        transform="translate(-31.42 -18.68)" />
    <path
        d="M141.59,116.72a.89.89,0,0,1,.63.25.82.82,0,0,1,.25.61.89.89,0,0,1-1.48.62.91.91,0,0,1,0-1.25A.85.85,0,0,1,141.59,116.72Z"
        transform="translate(-31.42 -18.68)" />
    <path
        d="M222.59,88.78v6.75l.06,1.24a.55.55,0,0,1-.5.36c-.27,0-.44,0-.49,0a.36.36,0,0,1-.1-.21l.07-1.34V89.5l0-1.39s.1,0,.21,0l.93.44h.71l.2-.32c.05-.09.11-.14.16-.15a1.8,1.8,0,0,1,.69.27q.5.28.49.42t-.42.25q-.62,1-1,1.83a3.14,3.14,0,0,1,1.09,1.19,2.56,2.56,0,0,1,.21,1.08,1.54,1.54,0,0,1-.55,1.29,1.18,1.18,0,0,1-.81.29.1.1,0,0,1-.07,0,.31.31,0,0,1,0-.17.93.93,0,0,0-.14-.37.65.65,0,0,0-.3-.29l-.18-.07c-.09,0-.12-.06-.11-.11s.07-.07.16-.07H223a.82.82,0,0,0,.63-.29,1.33,1.33,0,0,0,.27-.89,1.89,1.89,0,0,0-.41-1.17l-.15-.2L223.2,91a.87.87,0,0,1,0-.23l.08-.37.07-.54.08-.6,0-.46Zm5.45,0a2.15,2.15,0,0,0,.21-.22.38.38,0,0,1,.16-.14.52.52,0,0,1,.25.06q.84.39,1,.46c.08.05.12.1.13.15s-.14.2-.42.29q-.59.65-1.17,1.19a8.69,8.69,0,0,0,2.34.49l.3,0c.06,0,.09,0,.09.08s0,.08-.09.12l-.21.11a1.22,1.22,0,0,0-.41.35,1.52,1.52,0,0,0-.24.4c0,.12-.09.18-.16.18a5,5,0,0,1-2.3-1.21,8.37,8.37,0,0,1-2,1l-.31.11-.21.08c-.11,0-.16,0-.17,0s0-.07.11-.11l.16-.09.27-.18A6.93,6.93,0,0,0,227,90.45a5.81,5.81,0,0,1-.57-1.27A7.05,7.05,0,0,1,225,90.61l-.24.17a.86.86,0,0,1-.24.13c-.06,0-.09,0-.1,0s0-.08.08-.15l.15-.16.22-.29a5.52,5.52,0,0,0,.51-.86,7.52,7.52,0,0,0,.32-.73l.17-.55.11-.4a.31.31,0,0,1,0-.09h.09a6.63,6.63,0,0,1,1,.19q.37.11.39.16t-.36.26l-.35.48Zm-2.22,4.47-.54,0L225,93l.7.06h1.38V92.6l0-.71s0-.07.09-.06h.26l.52.08q.44.06.48.18t-.29.3V93h.6q.21-.26.33-.42c.08-.11.14-.17.18-.18s.12,0,.22.08a4,4,0,0,1,.46.39c.12.12.18.21.17.26s0,.07-.12.07H228.1v1.73h.83c.28-.37.46-.6.52-.67a.32.32,0,0,1,.17-.12.41.41,0,0,1,.22.1l.34.26q.52.44.47.53a.16.16,0,0,1-.16.09h-2.4v.76l.06.95a.45.45,0,0,1-.06.18c0,.06-.19.1-.46.13a1,1,0,0,1-.49,0A.33.33,0,0,1,227,97l.06-1v-.78H225.8l-.32.24a.3.3,0,0,1-.21.07q-.1,0-.42-.33c-.22-.21-.32-.33-.32-.36s.12-.1.37-.21l.23-.59.1-.38.08,0,.59.13c.37.09.56.16.57.21s-.09.15-.29.25l-.32.81h1.23V93.22Zm2.27-4.28h-1.51l-.05.06a4.07,4.07,0,0,0,.75,1.08A7.72,7.72,0,0,0,228.09,88.94Z"
        transform="translate(-31.42 -18.68)" />
    <path
        d="M233.86,90.32q.36.09.36.27c0,.08-.08.15-.21.22V95.5l.06,1.13a.49.49,0,0,1-.16.2.7.7,0,0,1-.29.1l-.41,0c-.15,0-.25,0-.29-.07a.35.35,0,0,1-.07-.21l.08-1.18V91.68q-.64.8-.9,1.06l-.21.21c-.05.05-.09.06-.12,0s0-.08,0-.15l.19-.32a15.23,15.23,0,0,0,.88-1.86,10.88,10.88,0,0,0,.68-2.3l.09-.53c0-.07.05-.09.14-.08a3,3,0,0,1,.5.18l.46.19a1.51,1.51,0,0,1,.31.17q.21.13.16.25s-.14.1-.36.17Q234.34,89.52,233.86,90.32Zm4.69-1c.07.05.11.1.12.14a.16.16,0,0,1-.06.12l-.12.08-.07,0c0,.17,0,.35,0,.52s0,.47,0,.88l0,.57h.88q.57-.78.72-.78a2.35,2.35,0,0,1,.53.41q.45.4.42.49a.15.15,0,0,1-.16.09h-2.36a8.92,8.92,0,0,0,.3,1.3,5.64,5.64,0,0,0,.54,1.18,2.79,2.79,0,0,0,.54.73c.13.1.23.14.29.13a.32.32,0,0,0,.17-.11,3.25,3.25,0,0,0,.34-.65l.18-.41c0-.07.06-.09.1-.07a.08.08,0,0,1,0,.11l-.12.43c0,.09-.06.22-.1.4a2.4,2.4,0,0,0-.06.43,1.3,1.3,0,0,0,.06.4l.13.4a.54.54,0,0,1,0,.27q-.11.25-.52.2a2,2,0,0,1-1.41-.85,5.28,5.28,0,0,1-.79-1.24l-.19-.47q-1.85,1.72-2.11,2l-.22.26q-.19.22-.26.07l-.52-1a.19.19,0,0,1,0-.11s0-.06.08-.1a.53.53,0,0,0,.11-.12.7.7,0,0,0,0-.27V90L235,88.94q0-.09.17,0l1,.47a13.6,13.6,0,0,0,1.81-.7q.41-.22.78-.46l.25-.16a.34.34,0,0,1,.14-.06l.55.41a4.56,4.56,0,0,1,.63.5c.05.07.07.12.05.15a.09.09,0,0,1-.08,0l-.36,0Zm-2.45,2.36h1.36q-.06-.91-.06-1.09l0-1.12-1.28.11Zm0,3.11q.9-.4,1.84-.91a7.42,7.42,0,0,1-.25-.81q-.07-.3-.21-1.18H236.1Zm1,.57a1.92,1.92,0,0,1,1,.43.89.89,0,0,1,.23.58.68.68,0,0,1-.19.51.59.59,0,0,1-.51.16.52.52,0,0,1-.34-.14.62.62,0,0,1-.15-.36v-.41a.78.78,0,0,0-.18-.52l-.17-.14s0-.07,0-.1,0,0,.11,0Z"
        transform="translate(-31.42 -18.68)" />
    <path
        d="M244.2,88.59q.27-.4.34-.42a.32.32,0,0,1,.21,0,6.7,6.7,0,0,1,.73.41.33.33,0,0,1,.1.12q0,.09-.3.31v7.09a1,1,0,0,1-.09.45.55.55,0,0,1-.38.25,3.63,3.63,0,0,1-.54.1c-.17,0-.26,0-.29,0a.77.77,0,0,1,0-.32.59.59,0,0,0-.37-.49L243.3,96c-.07,0-.11-.07-.1-.1s0-.06.12-.06l.28,0q.52,0,.6,0a.63.63,0,0,0,.08-.41V93.06h-.86l-.12.82A8,8,0,0,1,243,95a5.88,5.88,0,0,1-.88,1.61l-.16.22c0,.06-.08.08-.1,0a.1.1,0,0,1,0-.11l.16-.37a6.63,6.63,0,0,0,.22-.71,7.07,7.07,0,0,0,.2-1.32q.05-.8,0-2.67t0-2.26l0-.81,0-.44,0,0,.17.06.93.4Zm-.76,4.29h.85v-2h-.84Zm0-2.17h.84V88.77h-.83Zm1.87-.91.53,0h1.63v-.91l-.06-1a.14.14,0,0,1,.12,0l.4,0q1,.08.8.35l-.24.18v1.4h1.15q.55-.75.66-.75a.4.4,0,0,1,.24.08c.58.45.86.71.83.78s-.06.09-.11.09h-2.76v1.57h.9l.25-.33a.37.37,0,0,1,.17-.15.44.44,0,0,1,.24.08l.67.41q.17.11.17.21c0,.06-.1.15-.29.27V95a.87.87,0,0,1-.1.46.61.61,0,0,1-.33.23l-.5.09q-.3.06-.34,0a.6.6,0,0,1,0-.17.79.79,0,0,0-.14-.34.85.85,0,0,0-.23-.23l-.27-.15c-.05,0-.08-.05-.07-.08s0,0,.11,0l.32,0a.74.74,0,0,0,.39,0c.06,0,.09-.13.09-.28V91.8h-1v4l.06,1a.55.55,0,0,1-.08.17q-.05.08-.47.15t-.5,0a.35.35,0,0,1-.08-.22l.06-1v-4h-.72v2.9l0,.78a.56.56,0,0,1-.14.24.71.71,0,0,1-.46.12c-.23,0-.37,0-.41-.06a.33.33,0,0,1-.05-.21l0-.81v-2.5l-.06-1s.07,0,.15,0l.94.39h.66V90H246l-.45,0Z"
        transform="translate(-31.42 -18.68)" />
    <path
        d="M253.89,93.75v-4H253l-.53,0-.27-.28.69.06h2.49c.09-.11.2-.26.33-.45s.23-.29.29-.3a.38.38,0,0,1,.22.08q.89.67.84.77c0,.06-.07.09-.12.09h-1.63A.75.75,0,0,1,255,90v3.56q.89-.09,1.29-.16l.67-.11a.11.11,0,0,1,.13.05s0,.08-.11.12l-.65.25q-1.35.52-2.29.91l-1.3.54s-.07,0-.08,0a.36.36,0,0,1-.06-.13l-.42-1.1a.27.27,0,0,1,0-.12.11.11,0,0,1,0-.05h1Zm2.37-3.15-.53,0-.28-.29.7.06,1.38,0c0-.26,0-.56,0-.91s0-.58,0-.7l0-.88s0-.07.08-.06l.27,0c.14,0,.41.06.79.14s.59.15.62.23-.11.22-.41.36l-.09,1.78,1.15,0,.21-.33c.07-.11.14-.17.21-.17a2.31,2.31,0,0,1,.67.31q.54.31.55.45t-.34.31q0,.55,0,1.25t0,1.1q0,.4-.1,1.16a7.9,7.9,0,0,1-.21,1.3,1.62,1.62,0,0,1-.46.82,1.93,1.93,0,0,1-.75.41,2.36,2.36,0,0,1-.7.12l-.12,0a.13.13,0,0,1-.07,0,2.39,2.39,0,0,1-.1-.42q-.07-.38-.62-.58l-.4-.14c-.09,0-.13-.06-.12-.11s.06-.06.16,0l.48.09a2,2,0,0,0,1.2,0,1,1,0,0,0,.42-.67,7.71,7.71,0,0,0,.18-1.13q.06-.65.09-1.26t0-1.46v-.73h-1.29l0,.71q0,.48-.13,1.3a7,7,0,0,1-.34,1.44,5.1,5.1,0,0,1-.85,1.38,5.56,5.56,0,0,1-2.3,1.41l-.31.12-.23.09c-.1,0-.15,0-.17,0s0-.07.08-.12l.21-.12.29-.18q.17-.11.63-.48a5.19,5.19,0,0,0,.89-.91,4.14,4.14,0,0,0,.66-1.29,7,7,0,0,0,.31-1.46q.07-.72.09-1.3l0-.58Z"
        transform="translate(-31.42 -18.68)" />
    <path
        d="M266,90.15a2.9,2.9,0,0,0-.19-.5,1.43,1.43,0,0,0-.18-.26l-.1-.13a.06.06,0,0,1,0-.08s.08,0,.17,0l.21.06a2.43,2.43,0,0,1,1.11.6,1,1,0,0,1,.25.66.83.83,0,0,1-.19.54.57.57,0,0,1-.46.2.52.52,0,0,1-.56-.54v-.27q-1.6.34-2.74.66l-.21.06a.32.32,0,0,1-.15,0s0,0,0-.06l-.34-1a.14.14,0,0,1,0-.09.67.67,0,0,1,.2-.1,3.72,3.72,0,0,0,.51-.29,3.21,3.21,0,0,0,.77-1.42l.1-.28,0-.09h.07a8.33,8.33,0,0,1,.9.21,1.57,1.57,0,0,1,.53.21.12.12,0,0,1,0,.12q-.07.14-.48.21l-1.57,1.48Zm-1.79,4.37v1.26l.05.84a.52.52,0,0,1-.11.24c-.06.07-.22.11-.5.12s-.43,0-.46-.05a.34.34,0,0,1-.05-.18l.06-.95V92.34l-.06-1,0,0,.17.06.91.39h1.31q.23-.37.37-.4a.47.47,0,0,1,.22.07l.39.18.25.15c.12.07.19.14.19.2s-.08.14-.25.25v3.91a1.24,1.24,0,0,1-.09.52c-.06.13-.28.22-.66.29s-.59.06-.63,0,0-.05,0-.12a.78.78,0,0,0,0-.26l-.09-.17a.59.59,0,0,0-.24-.17L264.6,96c-.07,0-.09,0-.07-.09a.1.1,0,0,1,.1-.06l.37,0q.46,0,.54,0a.3.3,0,0,0,.08-.23V94.52Zm0-1.49h1.45v-1.1h-1.45Zm1.45,1.3V93.22h-1.45v1.1Zm2.92-4.56a9,9,0,0,0,1.14-.88l.18-.17.19-.2h.06a3.25,3.25,0,0,1,.59.41c.33.26.5.41.49.46a.18.18,0,0,1-.06.09h-.36q-1.48.39-2.23.55v.6a.4.4,0,0,0,.08.26q.08.1.58.12a5.86,5.86,0,0,0,.79,0,1.23,1.23,0,0,0,.77-.27,1.84,1.84,0,0,0,.35-.51l.2-.42c0-.05,0-.08.08-.07s.05,0,0,.12l-.07.43a1.19,1.19,0,0,0,0,.36.48.48,0,0,0,.09.21l.11.15a.5.5,0,0,1,.11.3.62.62,0,0,1-.08.19.93.93,0,0,1-.36.29A3.36,3.36,0,0,1,270,92a5.43,5.43,0,0,1-1.81-.12,1,1,0,0,1-.58-.42,1.5,1.5,0,0,1-.11-.62V89l-.06-1s.08-.06.17,0l.36,0q.79.09.83.19a.2.2,0,0,1,0,.17l-.24.18Zm.19,4.28A9.46,9.46,0,0,0,270,92.9l.21-.24.13-.13h.06a4.1,4.1,0,0,1,.47.33,6.15,6.15,0,0,1,.54.45c.09.09.13.16.13.21a.13.13,0,0,1-.06.08h-.31l-.45.13-1.08.34-.87.25v1.07a.38.38,0,0,0,.09.25q.1.11.54.13a4.94,4.94,0,0,0,.6,0,1.51,1.51,0,0,0,.65-.16.83.83,0,0,0,.24-.22,4.9,4.9,0,0,0,.24-.48l.24-.54c0-.05,0-.08.08-.06s.05,0,0,.09l-.12.66a1.19,1.19,0,0,0,0,.35.38.38,0,0,0,.1.21l.12.15a.47.47,0,0,1,.1.3,1.11,1.11,0,0,1-.11.26q-.1.19-.63.31a8.32,8.32,0,0,1-1.71.09,2.4,2.4,0,0,1-.94-.15.78.78,0,0,1-.43-.39,1.65,1.65,0,0,1-.1-.63V93.18l-.06-1s.08-.06.17,0l.31,0q.81.09.85.19a.19.19,0,0,1,0,.17.9.9,0,0,1-.24.18Z"
        transform="translate(-31.42 -18.68)" />
    <path
        d="M223.51,106.71a.89.89,0,0,1,.63.25.82.82,0,0,1,.25.61.89.89,0,0,1-1.48.62.91.91,0,0,1,0-1.25A.85.85,0,0,1,223.51,106.71Z"
        transform="translate(-31.42 -18.68)" />
    <path
        d="M228.63,106.71a.89.89,0,0,1,.63.25.82.82,0,0,1,.25.61.89.89,0,0,1-1.48.62.91.91,0,0,1,0-1.25A.85.85,0,0,1,228.63,106.71Z"
        transform="translate(-31.42 -18.68)" />
    <path
        d="M233.75,106.71a.89.89,0,0,1,.63.25.82.82,0,0,1,.25.61.89.89,0,0,1-1.48.62.91.91,0,0,1,0-1.25A.85.85,0,0,1,233.75,106.71Z"
        transform="translate(-31.42 -18.68)" />
    <path
        d="M238.87,106.71a.89.89,0,0,1,.63.25.82.82,0,0,1,.25.61.89.89,0,0,1-1.48.62.91.91,0,0,1,0-1.25A.85.85,0,0,1,238.87,106.71Z"
        transform="translate(-31.42 -18.68)" />
    <path
        d="M244,106.71a.89.89,0,0,1,.63.25.82.82,0,0,1,.25.61.89.89,0,0,1-1.48.62.91.91,0,0,1,0-1.25A.85.85,0,0,1,244,106.71Z"
        transform="translate(-31.42 -18.68)" />
    <path
        d="M249.11,106.71a.89.89,0,0,1,.63.25.82.82,0,0,1,.25.61.89.89,0,0,1-1.48.62.91.91,0,0,1,0-1.25A.85.85,0,0,1,249.11,106.71Z"
        transform="translate(-31.42 -18.68)" />
    <path
        d="M133.57,71.77l-.42,0-.26-.28.49.06h1.15v-1l0-1.13h0a13.22,13.22,0,0,1-1,1.25l-.16.16c-.09.09-.16.13-.2.09s-.05-.06,0-.08a1.08,1.08,0,0,1,.07-.16l.09-.18a8.61,8.61,0,0,0,.57-1.5q.22-.8.26-1c0-.16.06-.33.08-.51l0-.21,0-.27h.1l.4.17.71.29q.3.14.32.28c0,.11-.12.18-.37.23q-.38.71-.74,1.29h1.1l.34-.44c.13-.17.23-.26.3-.26s.25.14.5.41.36.41.33.44a.13.13,0,0,1-.1,0h-1.21a.5.5,0,0,1-.17.23q0,.88,0,1.08l0,.82h.14l.42-.62c.07-.11.13-.17.18-.17a.34.34,0,0,1,.21.1,6.68,6.68,0,0,1,.47.48c.17.19.25.31.24.34a.09.09,0,0,1-.08.06h-1.57c0,.21,0,.39,0,.53s0,.38-.09.73l.44.18a4.38,4.38,0,0,1,.67.4,1,1,0,0,1,.46.79.88.88,0,0,1-.2.69.65.65,0,0,1-.5.19.44.44,0,0,1-.38-.17.78.78,0,0,1-.1-.39l0-.35a2.56,2.56,0,0,0-.12-.61,1.6,1.6,0,0,0-.3-.51q-.1.39-.27.88a3.2,3.2,0,0,1-.73,1.08,4.78,4.78,0,0,1-1,.83l-.15.09a.41.41,0,0,1-.16.06.11.11,0,0,1-.09,0s0-.06,0-.13l.12-.12.1-.12a4.27,4.27,0,0,0,.95-1.95,11.4,11.4,0,0,0,.22-1.7v-.38Zm6.06,4q.23-.64.34-1t.18-.73l.09-.43,0-.22,0-.25h.06a6.37,6.37,0,0,1,.73.26q.6.24.57.4t-.38.24l-.39.6-.46.74-.27.42h.68a4.2,4.2,0,0,1,.68-.91c.06,0,.14,0,.25.14l.35.35.28.33c.09.11.13.19.11.23a.11.11,0,0,1-.11.06h-5.48l-.41,0-.26-.29.61.06Zm-2.14-7.63h3a5,5,0,0,1,.65-.9s.11,0,.21.12l.44.36.33.33c.09.1.13.17.11.22s-.07.07-.15.07h-4.43l-.4,0L137,68Zm.06,5.51-.08-.1c-.09-.1-.06-.15.07-.15a1.2,1.2,0,0,1,.34.12,4.74,4.74,0,0,1,.56.31,1.09,1.09,0,0,1,.45.51,1.63,1.63,0,0,1,.13.54.67.67,0,0,1-.66.64.63.63,0,0,1-.44-.15.56.56,0,0,1-.15-.45l.06-.45a1.23,1.23,0,0,0,0-.37A1.57,1.57,0,0,0,137.55,73.61Zm2.83-1.19h-1.81v.23a.53.53,0,0,1-.11.32.61.61,0,0,1-.49.16.89.89,0,0,1-.45,0,.32.32,0,0,1-.09-.21l0-.93V70l0-.83s.06,0,.15,0l1.09.52h1.54l.24-.37c.07-.1.13-.16.18-.17a2.17,2.17,0,0,1,.69.29c.38.2.57.34.57.41s-.11.17-.32.34V71.9l0,.69a.64.64,0,0,1-.33.33,1.2,1.2,0,0,1-.58.11c-.15,0-.24,0-.27-.09a.47.47,0,0,1-.06-.25Zm-1.81-.21h1.81V69.84h-1.81Z"
        transform="translate(-31.42 -18.68)" />
    <path
        d="M143.64,75.54l-.27.15c-.07,0-.11,0-.12,0s0-.1.06-.16l.19-.19q.22-.22.4-.44a4.35,4.35,0,0,0,.42-.65q.23-.44.28-.56l.13-.34,0-.07.06,0,.08,0,.22.08a4,4,0,0,1,.53.27,2.71,2.71,0,0,1,.39.24.11.11,0,0,1,0,.1A.16.16,0,0,1,146,74l-.15,0-.16,0A15.43,15.43,0,0,1,143.64,75.54Zm.22-2.7h.56V68.9H144l-.36,0-.26-.27.5,0h.59v-.58l-.06-1s.07-.06.16-.06q1.15.1,1.21.22a.22.22,0,0,1,0,.18l-.24.18V68.7h.89v-.54l-.06-1s.08-.06.17,0l.66.08c.35,0,.54.09.57.15a.2.2,0,0,1,0,.17.75.75,0,0,1-.24.19v1h.08l.36-.44q.14-.17.22-.17a4.1,4.1,0,0,1,.53.41q.48.4.17.4h-1.36v3.94l.43-.5c.09-.11.16-.16.22-.17a4,4,0,0,1,.85.67q0-.69,0-1.08t0-1.67q0-1.28,0-1.71l0-.78,0-.49a.21.21,0,0,1,.15,0l1.11.5h1q.33-.44.42-.46c.11,0,.32.07.64.28s.48.34.48.41-.1.17-.3.29v6.94a1.44,1.44,0,0,1-.1.62q-.1.2-.65.33t-.66,0s0,0,0-.06l0-.18a.94.94,0,0,0-.15-.33.65.65,0,0,0-.26-.24l-.41-.18c-.07,0-.09-.06-.08-.09a.08.08,0,0,1,.08-.06l.36,0q.62.07.7,0a.48.48,0,0,0,.09-.33V72.23h-1.22c0,.31-.06.66-.11,1a3.64,3.64,0,0,1-.55,1.34A4.35,4.35,0,0,1,147.84,76l-.31.18c-.07,0-.11,0-.14,0s0-.09,0-.14l.28-.24a3.13,3.13,0,0,0,1-1.27,4.74,4.74,0,0,0,.3-1.21l0-.32h-5l-.47,0-.29-.27ZM145.51,70h.89V68.9h-.89Zm.89,1.38V70.2h-.89v1.18Zm-.89,1.46h.89V71.57h-.89Zm1.16.6.62.12a1.83,1.83,0,0,1,.73.35.9.9,0,0,1,.41.63.78.78,0,0,1-.13.55.56.56,0,0,1-.42.24.58.58,0,0,1-.42-.11.43.43,0,0,1-.14-.13,2.36,2.36,0,0,1-.11-.33,2.88,2.88,0,0,0-.24-.54,1.41,1.41,0,0,0-.39-.45l-.29-.23a.12.12,0,0,1,0-.1s.05,0,.14,0ZM150.08,72h1.21V70H150.1Zm0-2.27h1.17V67.82h-1.18Z"
        transform="translate(-31.42 -18.68)" />
    <path
        d="M155,69.37V68.28l-.06-1.16c0-.05.06-.08.13-.07h.27l.38.06a1.84,1.84,0,0,1,.48.11c.09,0,.14.08.14.12a.16.16,0,0,1,0,.1,1.21,1.21,0,0,1-.26.21v1.71l.37-.46c.08-.11.15-.17.2-.17a.31.31,0,0,1,.2.09l.35.35q.28.28.25.33a.09.09,0,0,1-.09.05h-1.27v1.27l.91-.34.3-.12c.1,0,.16,0,.18,0s0,.09-.09.15l-.3.21-1,.75v3.95a.69.69,0,0,1-.09.38.84.84,0,0,1-.42.26,1.69,1.69,0,0,1-.68.1.21.21,0,0,1-.14,0,.35.35,0,0,1,0-.19.57.57,0,0,0-.14-.33,1,1,0,0,0-.32-.27l-.39-.18c-.07,0-.1-.06-.08-.1s.07-.06.14,0l.42,0c.35,0,.54,0,.59,0a.61.61,0,0,0,.08-.29V72.19L154,73c-.09.07-.15.06-.16,0l-.28-1.18a.67.67,0,0,1,0-.16s0,0,.13,0l.3-.06a8.57,8.57,0,0,0,1.06-.3V69.56h-.81l-.4,0-.24-.27.55,0Zm4.23,5.25c-.47-.14-.84-.24-1.12-.3a2.66,2.66,0,0,1-.69,0q-.23,0-.27-.13a.25.25,0,0,1,0-.18l.42-.51.43-.7h-.8l-.48,0-.27-.29.63.06h1l.25-.46q.1-.2.32-.79H157.5l-.44,0-.28-.27.58,0h2.49l.14-.58c.05-.22.12-.63.2-1.23l0-.24V69s.06-.06.15,0l.63.15q.62.14.62.32a.17.17,0,0,1-.06.1,1.43,1.43,0,0,1-.31.14q-.46.7-.91,1.46h.92l.43-.55c.1-.12.17-.18.22-.19a.33.33,0,0,1,.18.06,3.56,3.56,0,0,1,.5.47q.26.29.24.34a.1.1,0,0,1-.1.05h-3c.22.06.33.13.32.22s-.11.14-.31.17q-.27.47-.51.86h2.11l.44-.54c.1-.12.17-.19.21-.19a.31.31,0,0,1,.17.06,3.59,3.59,0,0,1,.52.48c.16.18.24.29.22.33a.1.1,0,0,1-.1,0h-1.35c.17.09.25.17.23.25s-.11.12-.27.13q-.45.77-.73,1.21a4.32,4.32,0,0,1,1.26.56.87.87,0,0,1,.47.79,1,1,0,0,1-.29.49q-.26.28-.83-.19l-.42-.4a4.52,4.52,0,0,0-.8-.57,4.75,4.75,0,0,1-1.56.81,8,8,0,0,1-2.15.33h-.29c-.07,0-.12,0-.13-.06s0-.08.1-.09l.3,0a6.83,6.83,0,0,0,.77-.22q.63-.2,1-.35A4.56,4.56,0,0,0,159.23,74.62Zm-2.27-6,.64,0h3.45l.43-.55c.1-.12.17-.18.22-.18a.32.32,0,0,1,.18.06,4,4,0,0,1,.46.44q.29.31.27.36a.08.08,0,0,1-.09.05h-4.77l-.51,0Zm1.26.47a1.78,1.78,0,0,1,.85.58.84.84,0,0,1,.15.77.72.72,0,0,1-.25.34.52.52,0,0,1-.48.08.47.47,0,0,1-.38-.38.82.82,0,0,1,0-.36,1.8,1.8,0,0,0,.06-.39.83.83,0,0,0-.07-.27.66.66,0,0,0-.15-.22c-.06-.06-.09-.11-.09-.14a.08.08,0,0,1,0-.06.33.33,0,0,1,.16,0Zm.1,5,1.24,0q.23-.36.39-.67a6.48,6.48,0,0,0,.3-.73h-1.11Zm.54-7.2q1.45.15,1.42,1.07a.7.7,0,0,1-.19.44.61.61,0,0,1-.47.18.52.52,0,0,1-.32-.07.54.54,0,0,1-.18-.21.92.92,0,0,1-.07-.4,1.64,1.64,0,0,0-.07-.48.48.48,0,0,0-.26-.3q-.2-.1-.21-.15a.09.09,0,0,1,0-.08.3.3,0,0,1,.17,0Z"
        transform="translate(-31.42 -18.68)" />
    <path
        d="M165.66,68.43h.82l.3-.31A.43.43,0,0,1,167,68s.13,0,.25.1l.42.25a1.76,1.76,0,0,1,.28.23q.12.13.11.19s-.06.08-.14.09l-.36.06q-.37.29-1,.93h.67l.2-.21a.41.41,0,0,1,.18-.14,1.82,1.82,0,0,1,.37.15,2.68,2.68,0,0,1,.43.23c.07.06.11.1.1.15s-.09.11-.25.22v5.24a1.5,1.5,0,0,1-.11.49q-.11.3-1,.3a.23.23,0,0,1-.15,0,.15.15,0,0,1-.05-.08,2.72,2.72,0,0,1-.06-.31q0-.26-.48-.45l-.24-.1c-.06,0-.08,0-.08-.09s0-.06.12-.05l.4.05q.45.06.56,0a.39.39,0,0,0,.11-.3v-2h-.53v.84l0,.87c-.07.18-.27.27-.6.26-.14,0-.23,0-.26-.06a.36.36,0,0,1-.08-.15l0-.92v-.83h-.48q0,.25,0,.6a3.92,3.92,0,0,1-.17.81,3.53,3.53,0,0,1-.28.7,5.12,5.12,0,0,1-.34.51,3.85,3.85,0,0,1-.33.4l-.19.19c-.07.07-.13.1-.16.08s0-.07,0-.14l.09-.16a2.85,2.85,0,0,0,.19-.48q.11-.36.16-.58a5.91,5.91,0,0,0,.09-.58l0-.44,0-.5c0-.21,0-.35,0-.42V70.78l0-.8-.32.34-.26.22s-.08.05-.12,0,0-.06,0-.12l.2-.35a7.49,7.49,0,0,0,.73-1.68q.23-.81.28-1l.07-.34a.41.41,0,0,1,0-.14s0,0,.12,0l.21.06.52.16.5.17c.08,0,.12.08.12.13s0,.1-.13.13l-.25.1Q165.91,68,165.66,68.43Zm-.84,1.12.63.29h.61l.16-.34q.06-.15.32-.87h-1l-.39.5Zm.52,3.17h.48V71.45h-.47Zm0-1.46h.46V70h-.45Zm1.33,0h.53V70h-.35c0,.09,0,.13,0,.13l-.13.08Zm0,1.46h.53V71.45h-.53Zm3.38-.1h-.52V73a.27.27,0,0,1-.21.26,1,1,0,0,1-.42.07c-.15,0-.25,0-.29-.06a.31.31,0,0,1-.07-.14l.06-1.1V70.32l0-1a.08.08,0,0,1,.11,0l.94.45h.45V68.13l0-1a.12.12,0,0,1,.09,0,4.55,4.55,0,0,1,.73.07q.42.07.44.17c0,.07-.08.16-.27.29v2h.51l.21-.26a.36.36,0,0,1,.16-.14,1.56,1.56,0,0,1,.57.24q.48.26.49.34c0,.09-.09.18-.28.25V72l0,.79a.35.35,0,0,1,0,.18.67.67,0,0,1-.21.13,1,1,0,0,1-.47.06c-.23,0-.34-.09-.34-.24v-.28H171v2l.9-.06a2.71,2.71,0,0,0-.25-.72,3.68,3.68,0,0,0-.21-.34.31.31,0,0,1-.08-.16s0-.06.13,0a4.09,4.09,0,0,1,.52.3,3.52,3.52,0,0,1,.79.7,1.33,1.33,0,0,1,.36.9,1,1,0,0,1-.17.49.54.54,0,0,1-.47.25.55.55,0,0,1-.46-.17.46.46,0,0,1-.12-.3l0-.37,0-.31-.53.2-1.07.37-.84.29-.5.18-.19.08h-.06a.78.78,0,0,1-.06-.19l-.27-.88a.21.21,0,0,1,0-.12s.06,0,.15,0h.94l.59,0Zm-.52-.2h.52V69.9h-.52Zm1.46,0h.63V69.9H171Z"
        transform="translate(-31.42 -18.68)" />
    <path
        d="M222.87,71.27l.67.06h1.28V68.07l-.06-1.2s.05,0,.12,0l.31,0a6.46,6.46,0,0,1,.66.1,1.34,1.34,0,0,1,.43.11.22.22,0,0,1,0,.08s-.1.14-.31.3v3.1a14.54,14.54,0,0,0,1.86-1.81,16.37,16.37,0,0,0,1-1.31l.18-.28a.41.41,0,0,1,.09-.12s.06,0,.13,0a5.51,5.51,0,0,1,.81.59q.43.37.42.49a.19.19,0,0,1,0,.07,2.54,2.54,0,0,1-.47.08q-1.07.88-1.89,1.43A18.58,18.58,0,0,1,226,70.89v.44h4.07l.59-.77q.18-.23.25-.24s.12,0,.23.09l.44.39a5.92,5.92,0,0,1,.46.44c.09.1.13.17.11.21s-.07.06-.15.06h-4.14a3.7,3.7,0,0,0,1.49,2,7.87,7.87,0,0,0,1.63.81,5.26,5.26,0,0,0,.94.23l.39,0c.07,0,.1,0,.1.06s0,.06-.08.08l-.35.13a1.09,1.09,0,0,0-.59.49,3.51,3.51,0,0,0-.21.43c0,.06,0,.1-.06.1a2.22,2.22,0,0,1-.75-.34,6,6,0,0,1-1.22-.92,4.82,4.82,0,0,1-.95-1.29,5.74,5.74,0,0,1-.51-1.33l-.13-.52H226v2.93q.79-.24,1.6-.54l.44-.16c.09,0,.14,0,.15,0a.1.1,0,0,1,0,.11l-.49.35a18.12,18.12,0,0,0-1.94,1.62l-.3.28a.56.56,0,0,1-.15.11s0,0-.06-.05l-.66-1.08a.2.2,0,0,1-.06-.12s0-.07.13-.13a.51.51,0,0,0,.17-.21,1.43,1.43,0,0,0,0-.45V71.52h-1.21l-.54,0Z"
        transform="translate(-31.42 -18.68)" />
    <path
        d="M233.52,75.54l-.27.15c-.07,0-.11,0-.12,0s0-.1.06-.16l.19-.19q.22-.22.4-.44a4.35,4.35,0,0,0,.42-.65q.23-.44.28-.56l.13-.34,0-.07.06,0,.08,0,.22.08a4,4,0,0,1,.53.27,2.71,2.71,0,0,1,.39.24.11.11,0,0,1,0,.1.16.16,0,0,1-.08.08l-.15,0-.16,0A15.43,15.43,0,0,1,233.52,75.54Zm.22-2.7h.56V68.9h-.47l-.36,0-.26-.27.5,0h.59v-.58l-.06-1s.07-.06.16-.06q1.15.1,1.21.22a.22.22,0,0,1,0,.18l-.24.18V68.7h.89v-.54l-.06-1s.08-.06.17,0l.66.08c.35,0,.54.09.57.15a.2.2,0,0,1,0,.17.75.75,0,0,1-.24.19v1h.08l.36-.44q.14-.17.22-.17a4.1,4.1,0,0,1,.53.41q.48.4.17.4h-1.36v3.94l.43-.5c.09-.11.16-.16.22-.17a4,4,0,0,1,.85.67q0-.69,0-1.08t0-1.67q0-1.28,0-1.71l0-.78,0-.49a.21.21,0,0,1,.15,0l1.11.5h1q.33-.44.42-.46c.11,0,.32.07.64.28s.48.34.48.41-.1.17-.3.29v6.94a1.44,1.44,0,0,1-.1.62q-.1.2-.65.33t-.66,0s0,0,0-.06l0-.18a.94.94,0,0,0-.15-.33.65.65,0,0,0-.26-.24l-.41-.18c-.07,0-.09-.06-.08-.09a.08.08,0,0,1,.08-.06l.36,0q.62.07.7,0a.48.48,0,0,0,.09-.33V72.23H240c0,.31-.06.66-.11,1a3.64,3.64,0,0,1-.55,1.34A4.35,4.35,0,0,1,237.72,76l-.31.18c-.07,0-.11,0-.14,0s0-.09,0-.14l.28-.24a3.13,3.13,0,0,0,1-1.27,4.74,4.74,0,0,0,.3-1.21l0-.32h-5l-.47,0-.29-.27ZM235.39,70h.89V68.9h-.89Zm.89,1.38V70.2h-.89v1.18Zm-.89,1.46h.89V71.57h-.89Zm1.16.6.62.12a1.83,1.83,0,0,1,.73.35.9.9,0,0,1,.41.63.78.78,0,0,1-.13.55.56.56,0,0,1-.42.24.58.58,0,0,1-.42-.11.43.43,0,0,1-.14-.13,2.36,2.36,0,0,1-.11-.33,2.88,2.88,0,0,0-.24-.54,1.41,1.41,0,0,0-.39-.45l-.29-.23a.12.12,0,0,1,0-.1s.05,0,.14,0ZM240,72h1.21V70H240Zm0-2.27h1.17V67.82H240Z"
        transform="translate(-31.42 -18.68)" />
    <path
        d="M244.88,69.37V68.28l-.06-1.16c0-.05.06-.08.13-.07h.27l.38.06a1.84,1.84,0,0,1,.48.11c.09,0,.14.08.14.12a.16.16,0,0,1,0,.1,1.21,1.21,0,0,1-.26.21v1.71l.37-.46c.08-.11.15-.17.2-.17a.31.31,0,0,1,.2.09l.35.35q.28.28.25.33a.09.09,0,0,1-.09.05h-1.27v1.27l.91-.34.3-.12c.1,0,.16,0,.18,0s0,.09-.09.15l-.3.21-1,.75v3.95a.69.69,0,0,1-.09.38.84.84,0,0,1-.42.26,1.69,1.69,0,0,1-.68.1.21.21,0,0,1-.14,0,.35.35,0,0,1,0-.19.57.57,0,0,0-.14-.33,1,1,0,0,0-.32-.27l-.39-.18c-.07,0-.1-.06-.08-.1s.07-.06.14,0l.42,0c.35,0,.54,0,.59,0a.61.61,0,0,0,.08-.29V72.19l-1,.77c-.09.07-.15.06-.16,0l-.28-1.18a.67.67,0,0,1,0-.16s0,0,.13,0l.3-.06a8.57,8.57,0,0,0,1.06-.3V69.56h-.81l-.4,0-.24-.27.55,0Zm4.23,5.25c-.47-.14-.84-.24-1.12-.3a2.66,2.66,0,0,1-.69,0q-.23,0-.27-.13a.25.25,0,0,1,0-.18l.42-.51.43-.7h-.8l-.48,0-.27-.29.63.06h1l.25-.46q.1-.2.32-.79h-1.19l-.44,0-.28-.27.58,0h2.49l.14-.58c.05-.22.12-.63.2-1.23l0-.24V69s.06-.06.15,0l.63.15q.62.14.62.32a.17.17,0,0,1-.06.1,1.43,1.43,0,0,1-.31.14q-.46.7-.91,1.46h.92l.43-.55c.1-.12.17-.18.22-.19a.33.33,0,0,1,.18.06,3.56,3.56,0,0,1,.5.47q.26.29.24.34a.1.1,0,0,1-.1.05h-3c.22.06.33.13.32.22s-.11.14-.31.17q-.27.47-.51.86h2.11l.44-.54c.1-.12.17-.19.21-.19a.31.31,0,0,1,.17.06,3.59,3.59,0,0,1,.52.48c.16.18.24.29.22.33a.1.1,0,0,1-.1,0h-1.35c.17.09.25.17.23.25s-.11.12-.27.13q-.45.77-.73,1.21a4.32,4.32,0,0,1,1.26.56.87.87,0,0,1,.47.79,1,1,0,0,1-.29.49q-.26.28-.83-.19l-.42-.4A4.52,4.52,0,0,0,250,75a4.75,4.75,0,0,1-1.56.81,8,8,0,0,1-2.15.33H246c-.07,0-.12,0-.13-.06s0-.08.1-.09l.3,0a6.83,6.83,0,0,0,.77-.22q.63-.2,1-.35A4.56,4.56,0,0,0,249.11,74.62Zm-2.27-6,.64,0h3.45l.43-.55c.1-.12.17-.18.22-.18a.32.32,0,0,1,.18.06,4,4,0,0,1,.46.44q.29.31.27.36a.08.08,0,0,1-.09.05h-4.77l-.51,0Zm1.26.47a1.78,1.78,0,0,1,.85.58.84.84,0,0,1,.15.77.72.72,0,0,1-.25.34.52.52,0,0,1-.48.08.47.47,0,0,1-.38-.38.82.82,0,0,1,0-.36,1.8,1.8,0,0,0,.06-.39.83.83,0,0,0-.07-.27.66.66,0,0,0-.15-.22c-.06-.06-.09-.11-.09-.14a.08.08,0,0,1,0-.06.33.33,0,0,1,.16,0Zm.1,5,1.24,0q.23-.36.39-.67a6.48,6.48,0,0,0,.3-.73H249Zm.54-7.2q1.45.15,1.42,1.07a.7.7,0,0,1-.19.44.61.61,0,0,1-.47.18.52.52,0,0,1-.32-.07.54.54,0,0,1-.18-.21.92.92,0,0,1-.07-.4,1.64,1.64,0,0,0-.07-.48.48.48,0,0,0-.26-.3q-.2-.1-.21-.15a.09.09,0,0,1,0-.08.3.3,0,0,1,.17,0Z"
        transform="translate(-31.42 -18.68)" />
    <path
        d="M255.54,68.43h.82l.3-.31a.43.43,0,0,1,.17-.13s.13,0,.25.1l.42.25a1.76,1.76,0,0,1,.28.23q.12.13.11.19s-.06.08-.14.09l-.36.06q-.37.29-1,.93H257l.2-.21a.41.41,0,0,1,.18-.14,1.82,1.82,0,0,1,.37.15,2.68,2.68,0,0,1,.43.23c.07.06.11.1.1.15s-.09.11-.25.22v5.24A1.5,1.5,0,0,1,258,76q-.11.3-1,.3a.23.23,0,0,1-.15,0,.15.15,0,0,1-.05-.08,2.72,2.72,0,0,1-.06-.31q0-.26-.48-.45l-.24-.1c-.06,0-.08,0-.08-.09s0-.06.12-.05l.4.05q.45.06.56,0a.39.39,0,0,0,.11-.3v-2h-.53v.84l0,.87c-.07.18-.27.27-.6.26-.14,0-.23,0-.26-.06a.36.36,0,0,1-.08-.15l0-.92v-.83h-.48q0,.25,0,.6a3.92,3.92,0,0,1-.17.81,3.53,3.53,0,0,1-.28.7,5.12,5.12,0,0,1-.34.51,3.85,3.85,0,0,1-.33.4l-.19.19c-.07.07-.13.1-.16.08s0-.07,0-.14l.09-.16a2.85,2.85,0,0,0,.19-.48q.11-.36.16-.58a5.91,5.91,0,0,0,.09-.58l0-.44,0-.5c0-.21,0-.35,0-.42V70.78l0-.8-.32.34-.26.22s-.08.05-.12,0,0-.06,0-.12l.2-.35a7.49,7.49,0,0,0,.73-1.68q.23-.81.28-1l.07-.34a.41.41,0,0,1,0-.14s0,0,.12,0l.21.06.52.16.5.17c.08,0,.12.08.12.13s0,.1-.13.13l-.25.1Q255.79,68,255.54,68.43Zm-.84,1.12.63.29h.61l.16-.34q.06-.15.32-.87h-1l-.39.5Zm.52,3.17h.48V71.45h-.47Zm0-1.46h.46V70h-.45Zm1.33,0h.53V70h-.35c0,.09,0,.13,0,.13l-.13.08Zm0,1.46h.53V71.45h-.53Zm3.38-.1h-.52V73a.27.27,0,0,1-.21.26,1,1,0,0,1-.42.07c-.15,0-.25,0-.29-.06a.31.31,0,0,1-.07-.14l.06-1.1V70.32l0-1a.08.08,0,0,1,.11,0l.94.45H260V68.13l0-1a.12.12,0,0,1,.09,0,4.55,4.55,0,0,1,.73.07q.42.07.44.17c0,.07-.08.16-.27.29v2h.51l.21-.26a.36.36,0,0,1,.16-.14,1.56,1.56,0,0,1,.57.24q.48.26.49.34c0,.09-.09.18-.28.25V72l0,.79a.35.35,0,0,1,0,.18.67.67,0,0,1-.21.13,1,1,0,0,1-.47.06c-.23,0-.34-.09-.34-.24v-.28h-.63v2l.9-.06a2.71,2.71,0,0,0-.25-.72,3.68,3.68,0,0,0-.21-.34.31.31,0,0,1-.08-.16s0-.06.13,0a4.09,4.09,0,0,1,.52.3,3.52,3.52,0,0,1,.79.7,1.33,1.33,0,0,1,.36.9,1,1,0,0,1-.17.49.54.54,0,0,1-.47.25.55.55,0,0,1-.46-.17.46.46,0,0,1-.12-.3l0-.37,0-.31-.53.2-1.07.37-.84.29-.5.18-.19.08h-.06a.78.78,0,0,1-.06-.19l-.27-.88a.21.21,0,0,1,0-.12s.06,0,.15,0h.94l.59,0Zm-.52-.2H260V69.9h-.52Zm1.46,0h.63V69.9h-.63Z"
        transform="translate(-31.42 -18.68)" />
    <rect class="step21-4" x="88.58" y="37.32" width="169.5" height="77.1" />
</svg>