<svg id="图层_1" data-name="图层 1" xmlns="http://www.w3.org/2000/svg" viewBox="0 0 261.6 116.6">
    <defs>
        <style>
            .step18-1,
            .step18-2,
            .step18-3 {
                fill: #fb8072;
            }

            .step18-2,
            .step18-3,
            .step18-4 {
                stroke: #ddd;
            }

            .step18-2,
            .step18-3 {
                stroke-opacity: 0;
            }

            .step18-3 {
                opacity: 0.38;
            }

            .step18-4 {
                fill: none;
            }
        </style>
    </defs>
    <title>step18</title>
    <rect class="step18-1" x="111.1" y="16" width="44.5" height="12" />
    <rect class="step18-1" x="10.6" y="17" width="45" height="10" />
    <rect class="step18-1" x="0.1" width="46.5" height="12" />
    <path
        d="M34.9,21a3.69,3.69,0,0,1,.79.37q.24.17.21.25a.2.2,0,0,1-.14.13l-.13,0-.14.05q-.39.52-.79,1.12a2.05,2.05,0,0,1,.48.18.19.19,0,0,1,.08.13c0,.05,0,.09-.09.13l-.19.12V28.1L35,29.3a.6.6,0,0,1-.15.35,1.21,1.21,0,0,1-.62.17q-.51.05-.57,0a.56.56,0,0,1-.09-.23l.08-1.45V24.2a13.72,13.72,0,0,1-3.54,2.94l-.45.26c-.08,0-.13,0-.16,0s0-.08.06-.14l.45-.39a13.66,13.66,0,0,0,1.85-2,13.09,13.09,0,0,0,1.51-2.41A11.57,11.57,0,0,0,34,21H30.35l-.68,0-.28-.31.73.06h7.1a4.07,4.07,0,0,1,.75-.87.38.38,0,0,1,.25.05l.42.37a5.81,5.81,0,0,1,.45.42.19.19,0,0,1,.06.17S39.09,21,39,21Zm.67,2.92q0-.1.23,0l1,.3a4.16,4.16,0,0,1,1.81,1.08,2.48,2.48,0,0,1,.86,1.33,1,1,0,0,1-.21.79.7.7,0,0,1-.59.23.74.74,0,0,1-.5-.24,2.88,2.88,0,0,1-.46-.77q-.25-.55-.47-1a3,3,0,0,0-.47-.68,7,7,0,0,0-.6-.54,3.12,3.12,0,0,0-.49-.35C35.59,24,35.55,24,35.56,23.9Z"
        transform="translate(-29.4 -18)" />
    <path
        d="M43.73,27.49a4.31,4.31,0,0,0,1,.57V23.25H43.37v.41c0,.12-.1.21-.3.28a1.91,1.91,0,0,1-.6.1q-.25,0-.32-.08a.5.5,0,0,1-.09-.15l.06-1.26V21.12l-.05-1.07s.06-.05.13,0l1.2.49H47l.26-.34A.42.42,0,0,1,47.5,20a1.72,1.72,0,0,1,.73.32,2.18,2.18,0,0,1,.58.4q0,.11-.3.31v1.41l.05,1q-.08.33-.62.38a1.25,1.25,0,0,1-.67,0c-.08-.06-.12-.12-.12-.17v-.33h-.92a.69.69,0,0,1-.25.3v2.14h1.35a4.34,4.34,0,0,1,.78-.9c.06,0,.15,0,.25.15l.46.39q.61.57.32.57H46v2.4a13.33,13.33,0,0,0,2.59-.06,11.46,11.46,0,0,0,1.48-.29l.28-.09c.06,0,.09,0,.11,0s0,.07,0,.13l-.16.17a1.31,1.31,0,0,0-.26.42,1.92,1.92,0,0,0-.1.37,1.12,1.12,0,0,0,0,.23c0,.06,0,.12,0,.18a.22.22,0,0,1,0,.13,3,3,0,0,1-1.2.13q-.42,0-1.91,0A4.13,4.13,0,0,1,44.59,29a5,5,0,0,1-1-.86A5.9,5.9,0,0,1,43,27.09a6.29,6.29,0,0,1-1.2,1.49,8.59,8.59,0,0,1-.78.63l-.34.2q-.08.05-.11,0a.1.1,0,0,1,0-.12l.33-.38a5.9,5.9,0,0,0,.43-.62,6.52,6.52,0,0,0,.52-1A10,10,0,0,0,42.22,26q.18-.7.21-.88t.08-.48l0-.37c0-.06.06-.08.15-.05l.36.11.5.17.43.15q.21.06.22.17c0,.07,0,.13-.12.18l-.24.13-.2.47-.28.68-.28.58A4.41,4.41,0,0,0,43.73,27.49ZM43.37,23h3.78V20.72H43.37Z"
        transform="translate(-29.4 -18)" />
    <path
        d="M51.48,24.71q0-.25,0-.56t0-.59q0-.27.13-.71A3.25,3.25,0,0,1,52,22a2.26,2.26,0,0,1,.59-.71,1.66,1.66,0,0,1,.63-.32,2.56,2.56,0,0,1,.54-.06,2.9,2.9,0,0,1,.5.08,1.74,1.74,0,0,1,.57.26,1.69,1.69,0,0,1,.5.55,3.31,3.31,0,0,1,.33.73,5.92,5.92,0,0,1,.17.71,6.61,6.61,0,0,1,.08.69q0,.34,0,.64t0,.76q0,.51-.12,1a4.08,4.08,0,0,1-.31,1,2.36,2.36,0,0,1-.58.82,1.77,1.77,0,0,1-.65.39,2.08,2.08,0,0,1-.57.09,1.64,1.64,0,0,1-.49,0,1.53,1.53,0,0,1-.44-.18,2.43,2.43,0,0,1-.48-.39,2.31,2.31,0,0,1-.44-.67,3.58,3.58,0,0,1-.27-.88,6.73,6.73,0,0,1-.1-.87Q51.48,25.17,51.48,24.71Zm1.43.81q0,.88,0,1.13t0,.63a1.9,1.9,0,0,0,.09.55.84.84,0,0,0,.21.31.57.57,0,0,0,.42.12.61.61,0,0,0,.41-.15.79.79,0,0,0,.23-.32,2.12,2.12,0,0,0,.1-.42,4.91,4.91,0,0,0,0-.52q0-.26,0-1l0-1.15q0-.4,0-1.25,0-.52,0-.82c0-.2,0-.36,0-.48a3.7,3.7,0,0,0-.05-.38.88.88,0,0,0-.13-.33.58.58,0,0,0-.24-.2.72.72,0,0,0-.3-.06.81.81,0,0,0-.33.09.59.59,0,0,0-.23.2,1.06,1.06,0,0,0-.13.3,2.39,2.39,0,0,0-.07.39q0,.22,0,.67l-.05,1.63Q52.92,24.7,52.91,25.52Z"
        transform="translate(-29.4 -18)" />
    <path
        d="M59.2,26.93a1,1,0,0,1,.68.27.88.88,0,0,1,.26.65,1,1,0,0,1-1.59.67,1,1,0,0,1,0-1.34A.91.91,0,0,1,59.2,26.93Z"
        transform="translate(-29.4 -18)" />
    <path
        d="M62.86,22v-.49h.91a1.85,1.85,0,0,0,.41-.07,1.47,1.47,0,0,0,.41-.19,1.79,1.79,0,0,0,.33-.27l.17-.19h.38V27.2q0,.23,0,.42a.58.58,0,0,0,.08.29.34.34,0,0,0,.21.13,1.34,1.34,0,0,0,.34,0h.55v.39H62.77v-.39h.45a1.76,1.76,0,0,0,.35,0,.41.41,0,0,0,.26-.14.69.69,0,0,0,.1-.32,3.21,3.21,0,0,0,0-.39V22.7a2,2,0,0,0,0-.33.57.57,0,0,0-.09-.24.28.28,0,0,0-.18-.11l-.32,0Z"
        transform="translate(-29.4 -18)" />
    <path
        d="M69,20.56a1,1,0,0,1,.4.1,1,1,0,0,1,.38.3,1.72,1.72,0,0,1,.24.45,3,3,0,0,1,.13.5,4.57,4.57,0,0,1,0,.67,4.5,4.5,0,0,1-.08.88,3.67,3.67,0,0,1-.14.49,1.51,1.51,0,0,1-.19.35,1.3,1.3,0,0,1-.34.31.85.85,0,0,1-.48.15.71.71,0,0,1-.44-.11,1.16,1.16,0,0,1-.31-.3,1.79,1.79,0,0,1-.21-.41,3.22,3.22,0,0,1-.15-.53,4.2,4.2,0,0,1-.06-.8,4.07,4.07,0,0,1,.08-.85,2.83,2.83,0,0,1,.2-.56,1.11,1.11,0,0,1,.38-.47A1,1,0,0,1,69,20.56Zm0,3.87a.37.37,0,0,0,.18-.06.48.48,0,0,0,.18-.25,1.84,1.84,0,0,0,.11-.46q0-.27,0-.83t0-1a2,2,0,0,0-.11-.59.63.63,0,0,0-.17-.25.28.28,0,0,0-.16-.06.37.37,0,0,0-.18.08.59.59,0,0,0-.16.26,1.83,1.83,0,0,0-.1.47q0,.27,0,.75t0,.76c0,.18,0,.36,0,.53a2.16,2.16,0,0,0,.09.44.43.43,0,0,0,.14.23A.22.22,0,0,0,68.92,24.42Zm-.34,5.16L73,20h.5l-4.49,9.55Zm3.5-2.67a3.45,3.45,0,0,1,.05-.7,2.38,2.38,0,0,1,.22-.68,1.36,1.36,0,0,1,.38-.48.9.9,0,0,1,.53-.18.86.86,0,0,1,.53.18,1.23,1.23,0,0,1,.38.51,3.54,3.54,0,0,1,.2.62,3.11,3.11,0,0,1,.06.66,4.67,4.67,0,0,1-.07.7,3.05,3.05,0,0,1-.19.64,1.21,1.21,0,0,1-.4.51.91.91,0,0,1-.54.19.72.72,0,0,1-.42-.1,1.14,1.14,0,0,1-.34-.34,2.49,2.49,0,0,1-.28-.6A3,3,0,0,1,72.08,26.9Zm1.19,1.64a.35.35,0,0,0,.17-.07.54.54,0,0,0,.17-.32,2.87,2.87,0,0,0,.08-.56q0-.31,0-.71,0-.64,0-1a2,2,0,0,0-.08-.44.52.52,0,0,0-.14-.21.34.34,0,0,0-.18-.09.33.33,0,0,0-.18.07.49.49,0,0,0-.17.24,2.39,2.39,0,0,0-.11.51,5.64,5.64,0,0,0,0,.59q0,.25,0,.64t0,.67a1.36,1.36,0,0,0,.1.38.41.41,0,0,0,.16.21A.28.28,0,0,0,73.27,28.55Z"
        transform="translate(-29.4 -18)" />
    <path
        d="M77.29,22.18h.82q.17-.2.28-.37c.08-.11.14-.16.2-.17l.13,0,.31.12a4.08,4.08,0,0,1,.51.3q.34.22.35.27t-.35.39v4.59l.05,1a.58.58,0,0,1-.21.3,1.3,1.3,0,0,1-.39.13,1,1,0,0,1-.41,0q-.19,0-.24-.11a.51.51,0,0,1,0-.25v-.37H76.6v.58a.39.39,0,0,1-.08.26.75.75,0,0,1-.36.16,1.57,1.57,0,0,1-.45.06q-.22,0-.26-.07a.43.43,0,0,1-.05-.19l.05-1.34V23l-.05-1.29s0,0,.1,0l1.2.54h.06q.07-.4.11-.61l.11-.84,0-.39v-.47h.11q.27.05.92.24t.66.35q0,.15-.42.24Zm1,2.67V22.38H76.6v2.46ZM76.6,27.91h1.69V25.06H76.6Zm6.65-5.37q.33-.56.45-.57a1.94,1.94,0,0,1,.76.32q.57.33.59.44s-.13.18-.39.4q0,.66,0,1t0,1.17q0,.78-.06,1.33t-.1,1.29a2.48,2.48,0,0,1-.34,1.14,1.66,1.66,0,0,1-.93.59q-.67.2-.77,0a.27.27,0,0,1,0-.13,1.89,1.89,0,0,0-.12-.4q-.11-.28-.71-.46l-.31-.09c-.1,0-.15-.06-.13-.12s.08-.08.22-.08l.45,0a2.63,2.63,0,0,0,.89,0,.86.86,0,0,0,.41-.3,1.82,1.82,0,0,0,.23-.9q.05-.68.08-1.36t0-1V22.77h-2.3a14.64,14.64,0,0,1-1,1.29l-.16.17-.15.16q-.11.06-.15,0s0-.07,0-.14l.1-.18.11-.26L80,23.6a5.28,5.28,0,0,0,.29-.83q.17-.6.29-1t.26-1.3l0-.27,0-.26a.47.47,0,0,1,.23,0l.81.19q.77.17.75.45t-.42.26l-.25.42-.41.74-.34.56Zm-2.7,2.09-.19-.17a.14.14,0,0,1-.06-.09s0,0,.1,0a3.45,3.45,0,0,1,1,.3,1.4,1.4,0,0,1,.82.67,1.75,1.75,0,0,1,.16.6,1.09,1.09,0,0,1-.22.57.71.71,0,0,1-.68.27q-.45,0-.53-.28a1.41,1.41,0,0,1-.06-.45v-.25a2.86,2.86,0,0,0,0-.5A1.13,1.13,0,0,0,80.55,24.64Z"
        transform="translate(-29.4 -18)" />
    <path
        d="M86,22.76l.55,0h.75V21.35l-.06-1.21s.09-.05.18,0l.28,0q.94.15,1,.35t-.32.35V22.8h.05a2.22,2.22,0,0,1,.45-.54.33.33,0,0,1,.19.1q.3.3.39.41t.06.18a.11.11,0,0,1-.11.06h-1v3.23l.6-.15.33-.09c.12,0,.14,0,0,.14l-.15.1-.41.28-.91.61-.72.53-.26.19c-.11.09-.18.13-.2.12l0,0a1,1,0,0,1-.1-.2l-.42-1c0-.08-.05-.13,0-.15s.06,0,.17,0l.35,0a7,7,0,0,0,.7-.12V23h-.68l-.39,0Zm4.74,0h1.59q0-.58,0-1t-.06-1.07l0-.5,0-.24s.08,0,.17,0l.39,0q1,.12,1,.32t-.26.3c0,.21,0,.38,0,.49s0,.41,0,.89v.78h1l.35-.47q.25-.32.32-.32a.48.48,0,0,1,.24.12,8.11,8.11,0,0,1,.69.62q.1.12.08.19S96.07,23,96,23H93.47q0,.42,0,.79t.06.79a9.87,9.87,0,0,0,.18,1q.25-.56.32-.77t.17-.57l.12-.44,0-.21s.1,0,.23,0l.41.17.39.24q.39.24.38.38t-.35.21q-.38.86-.49,1.08l-.7,1.26a4,4,0,0,0,.51.84q.34.44.55.41t.56-.61l.25-.41c0-.09.09-.12.12-.1a.09.09,0,0,1,0,.1l-.1.34-.13.38a1.82,1.82,0,0,0-.1.47.79.79,0,0,0,.11.42l.23.42q.18.57-.48.58a2,2,0,0,1-1.21-.49,3.6,3.6,0,0,1-1.1-1.43A6.77,6.77,0,0,1,91.93,29a6.37,6.37,0,0,1-1.47.57l-.23.05a.43.43,0,0,1-.16,0q-.08,0-.08-.06s.05-.08.17-.13l.15-.06a5.64,5.64,0,0,0,1.48-1A6.23,6.23,0,0,0,93,26.85a9.89,9.89,0,0,1-.42-1.67,15.25,15.25,0,0,1-.19-1.71l0-.53H90.76l0,1.42h.5a3,3,0,0,1,.33-.34.32.32,0,0,1,.15,0l.41.24q.38.22.39.35t-.21.26c0,.19,0,.35,0,.5s0,.42-.06.82-.08.71-.12.95a3.18,3.18,0,0,1-.25.75.73.73,0,0,1-.66.44q-.48,0-.49-.16a.9.9,0,0,1,0-.22q0-.21-.27-.39l-.11-.06a.1.1,0,0,1-.06-.11.06.06,0,0,1,.08-.05l.25.05a.4.4,0,0,0,.49-.24,3.34,3.34,0,0,0,.23-1.08q.07-.77.07-1.2v-.32h-.66q0,.24-.06,1A5.18,5.18,0,0,1,90.35,27a3.46,3.46,0,0,1-.85,1.29,4.65,4.65,0,0,1-1.32,1l-.3.14-.17.09a.53.53,0,0,1-.17.06.1.1,0,0,1-.11,0s0-.1.15-.17l.18-.11s.24-.18.59-.47a2.94,2.94,0,0,0,.83-1.28,6.65,6.65,0,0,0,.38-1.66q.07-.82.07-1.42t0-1l0-.66-.05-.4s.09,0,.2,0Zm3-1.9-.11-.13c-.06-.06-.08-.12-.06-.16s.08-.05.2,0l.6.11a.76.76,0,0,1,.48.35,1,1,0,0,1,.18.52.68.68,0,0,1-.17.45.64.64,0,0,1-.4.21.46.46,0,0,1-.39-.11A.44.44,0,0,1,94,21.8a2.55,2.55,0,0,1,0-.4A.78.78,0,0,0,93.81,20.83Z"
        transform="translate(-29.4 -18)" />
    <path
        d="M102,21.75a1,1,0,0,1-.27-.2.62.62,0,0,1-.11-.3l0-.46a1.12,1.12,0,0,0-.21-.57,1.65,1.65,0,0,0-.23-.24.89.89,0,0,1-.16-.16c-.06-.07,0-.1.2-.1l.59.1a2.44,2.44,0,0,1,.88.36A.84.84,0,0,1,103,21a.88.88,0,0,1-.13.42,1.1,1.1,0,0,1-.56.36h3l.5-.69a.32.32,0,0,1,.2-.13.59.59,0,0,1,.34.15,5,5,0,0,1,.71.61q.11.15.09.21s-.08.06-.18.06h-4.17q.28,0,.27.18t-.31.3V23.6h1.8q.27-.46.37-.49a.55.55,0,0,1,.34.09q.74.4.84.48a.4.4,0,0,1,.12.13q0,.14-.29.37v3.31a2.12,2.12,0,0,1-.08.56q-.06.2-.58.37a1.17,1.17,0,0,1-.72.09.23.23,0,0,1-.15-.12l-.08-.24a1,1,0,0,0-.64-.5l-.29-.11q-.22-.07-.2-.15s.1-.07.27-.06l.27,0a3.52,3.52,0,0,0,.72,0,.28.28,0,0,0,.19-.06.31.31,0,0,0,0-.2V23.8H102.7v4l.06,1.6a.72.72,0,0,1-.14.24.93.93,0,0,1-.55.15,1.23,1.23,0,0,1-.55,0,.4.4,0,0,1-.15-.2l.05-1.65V23.8H99.65V27l.05,1.14a.62.62,0,0,1-.11.21.76.76,0,0,1-.34.16,1.55,1.55,0,0,1-.48.06.51.51,0,0,1-.31-.06.39.39,0,0,1-.11-.14l.05-1.65v-2.2l-.05-1.36s.06,0,.12,0l1.27.45h1.7V22H98l-.56,0-.26-.31.71.08Z"
        transform="translate(-29.4 -18)" />
    <path
        d="M113.65,20.6v3.73h1.89v-2l-.05-1.05a.16.16,0,0,1,0-.09s.06,0,.14,0a2.65,2.65,0,0,0,.44,0,3.07,3.07,0,0,1,.71.11c.23.06.35.12.36.17s-.1.24-.37.4v1.74l.06,1.06a.55.55,0,0,1-.1.23,1.49,1.49,0,0,1-.65.17q-.58.08-.58-.21v-.4h-1.89V29h2.54V26.73l-.05-1.06c0-.06.08-.09.17-.08l.2,0,.73.1q.57.09.6.21t-.38.4v2l.06,1.06a.55.55,0,0,1-.1.23,1.5,1.5,0,0,1-.65.17q-.58.08-.58-.21v-.4h-6l-.3.32q-.15.17-.26.17t-.56-.33q-.45-.34-.43-.48a2.62,2.62,0,0,1,.32-.32v-2l-.06-1.08s.08-.07.18-.06l.72.06q.69.05.75.26t-.35.41V29h2.19V24.53h-1.62q-.37.39-.46.39a1.68,1.68,0,0,1-.61-.29q-.49-.3-.45-.45l.11-.11.19-.16V22.28l-.06-1.07c0-.06.08-.08.18-.06l.16,0,.7.1q.56.09.61.2t-.37.41v2.46h1.62V21.15L112.31,20a.11.11,0,0,1,0-.07.29.29,0,0,1,.14,0l.19,0,.73.09q.58.09.62.2T113.65,20.6Z"
        transform="translate(-29.4 -18)" />
    <path
        d="M121.63,20.89a.66.66,0,0,1-.25.26v2.27h.18l.28-.35c.15-.18.25-.26.3-.27a.42.42,0,0,1,.23.1,2.66,2.66,0,0,1,.49.47q.11.16.09.21s-.05,0-.12,0h-1.46v2.44l1.1-.16.3-.05s.07,0,.09.06,0,.09-.06.12l-.43.23-1.13.59q-.86.44-1.12.59l-.52.3-.18.12c-.07,0-.11,0-.12,0L119,26.53c0-.09,0-.15,0-.16a.36.36,0,0,1,.16,0l.42,0a4.85,4.85,0,0,0,.7-.1V23.63h-.48l-.45,0-.32-.31.72.06h.54V20.89h-.63l-.45,0-.31-.3.72.06h1.88q.44-.65.54-.67a.34.34,0,0,1,.21.05q.13.1.45.39t.3.36a.08.08,0,0,1-.09.06Zm5.13,4.51q0,.14-.28.27V28a.61.61,0,0,0,.1.39q.1.12.75.11a1.06,1.06,0,0,0,.73-.19,1.64,1.64,0,0,0,.34-.48,4.21,4.21,0,0,0,.24-.61l.14-.49c0-.09.05-.12.1-.1a.1.1,0,0,1,.06.1l-.08.59a2.47,2.47,0,0,0,0,.63.79.79,0,0,0,.1.31,2.56,2.56,0,0,0,.21.28.52.52,0,0,1,.15.33.94.94,0,0,1-.28.47q-.27.3-1.85.29a3.44,3.44,0,0,1-1.33-.15.76.76,0,0,1-.34-.34,1.54,1.54,0,0,1-.08-.57V26.4a6.37,6.37,0,0,1-1,1.42,3.88,3.88,0,0,1-1.26.92,12.91,12.91,0,0,1-1.31.53,4.82,4.82,0,0,1-.88.23l-.39,0c-.06,0-.09,0-.09-.06s0-.08.12-.11l.35-.13a5.05,5.05,0,0,0,2.5-1.71,6.88,6.88,0,0,0,.93-1.61q.16-.52.26-1a9.48,9.48,0,0,0,.16-.94l.06-.73c0-.13,0-.22,0-.28v-.44l0-.83s0-.06.09-.06a7.08,7.08,0,0,1,.86.12q.69.12.68.31t-.32.26q0,.27-.05.62t-.12.95q-.09.59-.11.7l-.12.49Q126.75,25.24,126.76,25.4Zm.12-4.87q.27-.43.39-.46a.53.53,0,0,1,.33.06q.88.43.91.59t-.37.33v3.65l0,1.11a.51.51,0,0,1-.06.18.67.67,0,0,1-.28.15,1.26,1.26,0,0,1-.6,0q-.24,0-.28-.08a.39.39,0,0,1-.05-.17l0-1.24v-4h-2.8v4l0,1.12a.48.48,0,0,1-.08.16q-.05.08-.35.12a1.84,1.84,0,0,1-.49,0,.34.34,0,0,1-.21-.06.3.3,0,0,1-.06-.19l.06-1.18V21L123,20s0-.06.11,0l1.12.54Z"
        transform="translate(-29.4 -18)" />
    <path
        d="M130,25.68h.33a3.55,3.55,0,0,0,0,.35,3.15,3.15,0,0,0,.15.52,1.53,1.53,0,0,0,.3.52,3.1,3.1,0,0,0,.39.36,3.27,3.27,0,0,0,.5.32,2.34,2.34,0,0,0,.59.21,2.55,2.55,0,0,0,.53.06,1.61,1.61,0,0,0,.68-.11,1.33,1.33,0,0,0,.42-.26,1.26,1.26,0,0,0,.23-.31,1,1,0,0,0,.09-.45,1.13,1.13,0,0,0-.15-.55,1.3,1.3,0,0,0-.38-.4,4.91,4.91,0,0,0-.8-.4q-.56-.24-1-.38l-.56-.21a2.37,2.37,0,0,1-.4-.23,2.48,2.48,0,0,1-.4-.33,1.89,1.89,0,0,1-.3-.4,2,2,0,0,1-.19-.48A2,2,0,0,1,130,23a1.92,1.92,0,0,1,0-.21,2.6,2.6,0,0,1,0-.27,4.13,4.13,0,0,1,.12-.41,1.33,1.33,0,0,1,.27-.46,3.24,3.24,0,0,1,.42-.4,1.72,1.72,0,0,1,.52-.28,2.51,2.51,0,0,1,.45-.12l.37,0,.35,0,.45.11.48.15.37.16.24.1a.42.42,0,0,0,.19,0,.15.15,0,0,0,.11,0,.3.3,0,0,0,.06-.15l.06-.45h.35l.05,2.54h-.35q0-.23-.1-.46a1.73,1.73,0,0,0-.18-.46,1.59,1.59,0,0,0-.38-.43,3.17,3.17,0,0,0-.51-.35,3.83,3.83,0,0,0-.51-.23,2.22,2.22,0,0,0-.4-.11l-.28,0a1.67,1.67,0,0,0-.52.1,1.17,1.17,0,0,0-.42.27,1.39,1.39,0,0,0-.28.4,1,1,0,0,0-.1.41.72.72,0,0,0,.07.35,1,1,0,0,0,.22.32,1.77,1.77,0,0,0,.45.31q.3.15.72.32l1,.37.76.3a3.38,3.38,0,0,1,.47.27,1.87,1.87,0,0,1,.42.37,1.7,1.7,0,0,1,.27.55,2.27,2.27,0,0,1,.1.75,2.73,2.73,0,0,1-.17.78,2.26,2.26,0,0,1-.48.76,2,2,0,0,1-.83.52,3.1,3.1,0,0,1-.89.18,2.57,2.57,0,0,1-.47,0,2.19,2.19,0,0,1-.46-.12,5.84,5.84,0,0,1-.55-.25q-.32-.16-.57-.32l-.32-.19-.1,0a.19.19,0,0,0-.11.05.31.31,0,0,0-.06.16,2.5,2.5,0,0,0,0,.31l0,.35H130Z"
        transform="translate(-29.4 -18)" />
    <path
        d="M136.21,24.81q0-.18,0-.42t.05-.59a4,4,0,0,1,.13-.64,3.25,3.25,0,0,1,.27-.63,3.19,3.19,0,0,1,.38-.57,3.52,3.52,0,0,1,.42-.41,3.08,3.08,0,0,1,.51-.34,4,4,0,0,1,.55-.25,2.78,2.78,0,0,1,.51-.13,3.26,3.26,0,0,1,1.28.06,2.87,2.87,0,0,1,.66.25,3.66,3.66,0,0,1,.56.36A4,4,0,0,1,142,22a3,3,0,0,1,.42.61,2.94,2.94,0,0,1,.27.76,6.69,6.69,0,0,1,.12.8q0,.39,0,.59t0,.41q0,.24-.06.52a4.15,4.15,0,0,1-.11.54,3.67,3.67,0,0,1-.27.66,3,3,0,0,1-.44.65,2.53,2.53,0,0,1-.54.45,3.7,3.7,0,0,1-.56.29,3.61,3.61,0,0,1-.47.16l-.45.08-.39,0a2.38,2.38,0,0,1-.46,0,3.11,3.11,0,0,1-.54-.13,4.24,4.24,0,0,1-.61-.28,3,3,0,0,1-.6-.41,3.06,3.06,0,0,1-.48-.58,3.92,3.92,0,0,1-.37-.67,3.16,3.16,0,0,1-.18-.6,4.33,4.33,0,0,1-.08-.53Q136.21,25,136.21,24.81Zm1.59.44q0,.28,0,.62a6.28,6.28,0,0,0,.1.71,2.1,2.1,0,0,0,.16.54q.09.18.19.34a1.62,1.62,0,0,0,.28.33,1.3,1.3,0,0,0,.47.26,1.54,1.54,0,0,0,.55.09l.33,0a1.24,1.24,0,0,0,.39-.11,1.07,1.07,0,0,0,.37-.36A2.25,2.25,0,0,0,141,27a4,4,0,0,0,.15-.67q0-.3.05-.83t0-.79q0-.33,0-.71t0-.77q0-.39-.07-.65a2.54,2.54,0,0,0-.13-.5,2,2,0,0,0-.19-.38,1.15,1.15,0,0,0-.28-.28,1.27,1.27,0,0,0-.41-.2,1.9,1.9,0,0,0-.51-.06,2,2,0,0,0-.44.06,1.53,1.53,0,0,0-.4.19,1.41,1.41,0,0,0-.43.5,2.53,2.53,0,0,0-.28.81q-.08.45-.12.84t-.06,1Q137.79,25.19,137.8,25.25Z"
        transform="translate(-29.4 -18)" />
    <path
        d="M148.36,26.56l-.19,2h-4.28v-.18a2.63,2.63,0,0,1,.06-.41l.06-.33a3.39,3.39,0,0,1,.1-.39q.08-.26.15-.44a2.93,2.93,0,0,1,.2-.42,4.13,4.13,0,0,1,.37-.54l.36-.43.46-.46a5.68,5.68,0,0,0,.55-.6,2.69,2.69,0,0,0,.34-.58,3,3,0,0,0,.18-.55,2.61,2.61,0,0,0,.05-.54,2,2,0,0,0-.09-.54,1.22,1.22,0,0,0-.23-.41,1.15,1.15,0,0,0-.28-.25,1,1,0,0,0-.26-.1,1.39,1.39,0,0,0-.31,0,1.3,1.3,0,0,0-.38.08.83.83,0,0,0-.3.18.8.8,0,0,0-.16.21.56.56,0,0,0-.05.21.21.21,0,0,0,.09.19.29.29,0,0,0,.15.06l.21,0a.76.76,0,0,1,.32.16.62.62,0,0,1,.14.47.79.79,0,0,1-.82.83.77.77,0,0,1-.6-.23.89.89,0,0,1-.23-.38,1.34,1.34,0,0,1-.07-.49,2.14,2.14,0,0,1,0-.37,1.74,1.74,0,0,1,.17-.47,1.49,1.49,0,0,1,.39-.47,2.17,2.17,0,0,1,.57-.34,1.88,1.88,0,0,1,.49-.15l.36,0a4.13,4.13,0,0,1,.66,0,2.41,2.41,0,0,1,.56.18,1.63,1.63,0,0,1,.5.34,2.19,2.19,0,0,1,.32.41,1.57,1.57,0,0,1,.18.45,2.36,2.36,0,0,1,.06.46q0,.22,0,.36a2.55,2.55,0,0,1-.11.48,1.68,1.68,0,0,1-.3.54,2.54,2.54,0,0,1-.45.45q-.24.18-.76.51t-.81.56a4.37,4.37,0,0,0-.49.44,3.37,3.37,0,0,0-.35.44,2.12,2.12,0,0,0-.2.34,2.32,2.32,0,0,0-.09.27.4.4,0,0,0,0,.19s.08,0,.22,0h2.42l.28,0a.31.31,0,0,0,.17-.09.51.51,0,0,0,.12-.21l.08-.27,0-.21Z"
        transform="translate(-29.4 -18)" />
    <path
        d="M149.24,22.82s0-.06.15-.05h.24a3.28,3.28,0,0,1,.82.22.71.71,0,0,1,.55.64.81.81,0,0,1-.2.64,1.15,1.15,0,0,1-.32.18.54.54,0,0,1-.64-.2.71.71,0,0,1-.11-.32l0-.19a1.15,1.15,0,0,0-.27-.68C149.3,22.95,149.24,22.86,149.24,22.82Zm3.09-1.58.12-.27c0-.06,0-.08.08-.05a.09.09,0,0,1,0,.1l-.06.26q-.1.39-.33,1.19t-.34,1.21q-.11.4-.35,1.48a13.9,13.9,0,0,0-.28,1.54,6,6,0,0,0,0,.75,1.84,1.84,0,0,0,0,.5l.12.37a3.1,3.1,0,0,1,.11.39.89.89,0,0,1,0,.35,1,1,0,0,1-.25.43.83.83,0,0,1-.68.23q-.46,0-.54-.24a1.51,1.51,0,0,1-.09-.33,3,3,0,0,1,0-.38q0-.28,0-.48a5,5,0,0,0,0-.55,2.64,2.64,0,0,0-.1-.5,1.79,1.79,0,0,0-.19-.37.87.87,0,0,0-.23-.26l-.11-.08a.11.11,0,0,1,0-.08s.06,0,.16,0l.18.05.17,0a.32.32,0,0,0,.26-.11,1,1,0,0,0,.21-.34q.09-.23.35-.78t.74-1.72Q151.83,22.38,152.33,21.24Zm-.52-.15a.86.86,0,0,1-.23.52.65.65,0,0,1-.56.24.51.51,0,0,1-.34-.12.55.55,0,0,1-.18-.26q0-.15-.12-.52a1.05,1.05,0,0,0-.31-.57l-.11-.09,0,0v0s0,0,0-.05a1,1,0,0,1,.42,0q1,0,1.24.41A1.3,1.3,0,0,1,151.82,21.09Zm2.38,1.26h-.73l.05.2a.79.79,0,0,1,0,.2,2.3,2.3,0,0,1-.1.52.87.87,0,0,1-.3.46.76.76,0,0,1-.49.16.63.63,0,0,1-.47-.2.52.52,0,0,1-.17-.41.51.51,0,0,1,.06-.21,1.19,1.19,0,0,1,.23-.29l.34-.35a1.31,1.31,0,0,0,.18-.32.86.86,0,0,0,.06-.34,1,1,0,0,1,0-.23s.05,0,.12,0a1.64,1.64,0,0,1,.39.62h.85q.13-.44.19-.69t.16-.68q.09-.43.11-.58l0-.35s.06-.05.17,0l.6.12q1,.22,1,.38t-.32.26q-.38.91-.62,1.58h1.8q.28-.43.39-.45a.43.43,0,0,1,.27.06l.61.41q.72.45.66.7t-.35.16h-.27a2.83,2.83,0,0,0-1.27.53l-.38.25c-.13.09-.2.11-.23.08a.12.12,0,0,1,0-.12l.21-.43a8.5,8.5,0,0,0,.4-1h-1.79q0,.24,0,.54a8.67,8.67,0,0,0,.24,1,5.71,5.71,0,0,0,.34,1l.27.56a11.13,11.13,0,0,0,.93-1.27l.16-.27.06-.13q.09-.06.32.1l.53.37a3.15,3.15,0,0,1,.38.35c.12.13.18.22.16.26s-.2.13-.47.11q-.9.38-1.9.86a6.57,6.57,0,0,0,1.11,1.55q.45.4.83.68a3,3,0,0,0,.52.33l.19.09a.12.12,0,0,1,.08.12.09.09,0,0,1-.08.09l-.28.06a1.4,1.4,0,0,0-.62.28q-.18.17-.34.35c-.1.12-.17.18-.2.18s-.07,0-.1-.06a4.49,4.49,0,0,1-.85-1,10.25,10.25,0,0,1-.67-1.27,8.18,8.18,0,0,1-.54-1.86,14.05,14.05,0,0,1-.22-1.43l-.11-1.5a16.51,16.51,0,0,1-1,2l.32.12q.19.08,0,.24l-.17.14v3l1.61-.53c.07,0,.11,0,.12,0a.1.1,0,0,1,0,.1l-.38.31q-1.19,1-1.77,1.54l-.28.27c-.1.09-.16.14-.18.13s0,0-.05-.11l-.39-1.19q-.05-.15,0-.19l.16-.13a.34.34,0,0,0,.1-.28V25.86a7.85,7.85,0,0,1-1.57,1.3l-.3.17q-.1.05-.15,0s0-.11.07-.18l.17-.16a7.06,7.06,0,0,0,1.69-2.35Q153.88,23.33,154.2,22.35Z"
        transform="translate(-29.4 -18)" />
    <path
        d="M162.41,21.53h2.89a.85.85,0,0,1-.27-.2.65.65,0,0,1-.1-.38v-.37a1.38,1.38,0,0,0-.08-.38.47.47,0,0,0-.19-.27.8.8,0,0,1-.19-.15s0-.09.12-.11a3.34,3.34,0,0,1,.81.1,1.24,1.24,0,0,1,.82.45,1.06,1.06,0,0,1,.23.57.79.79,0,0,1-.52.73h2.57q.52-.85.65-.86a.51.51,0,0,1,.29.09,5.48,5.48,0,0,1,.64.52q.3.28.29.37c0,.06,0,.09-.13.09h-7.85q0,2.18-.07,3.21t-.11,1.7a4.33,4.33,0,0,1-.31,1.18,4.82,4.82,0,0,1-.58,1,4.73,4.73,0,0,1-.7.76l-.16.14q-.11.1-.15,0s0-.08,0-.15l.19-.29a3.16,3.16,0,0,0,.46-1.18,10.94,10.94,0,0,0,.16-1.31q0-.64.06-1.28,0-.83,0-1.9t0-1.42a4.61,4.61,0,0,0,0-.54l-.05-.45c0-.21,0-.32,0-.33s.11,0,.27.09ZM165.26,28a5.38,5.38,0,0,1-.6-1,5.63,5.63,0,0,1-.4-1h-.33l-.69,0-.31-.29.82.05h3.05a3.31,3.31,0,0,0,.19-.28c.06-.1.12-.16.16-.17a.46.46,0,0,1,.24.06q1.28.61,1.2.83c0,.09-.18.17-.43.21a18.2,18.2,0,0,1-1.27,1.49,6.46,6.46,0,0,0,3,.54h.31c.07,0,.11,0,.12.06s0,.09-.11.13l-.27.14a1.81,1.81,0,0,0-.32.2,1.22,1.22,0,0,0-.25.26,1.19,1.19,0,0,0-.15.27.65.65,0,0,0,0,.16v.12c0,.11-.14.14-.32.09a8.14,8.14,0,0,1-2.76-1.24,9.16,9.16,0,0,1-1.82.77,8.45,8.45,0,0,1-2.38.28h-.37c-.08,0-.11,0-.09-.07a.11.11,0,0,1,.08-.08l.35-.06.61-.11a6.3,6.3,0,0,0,1.4-.52A7.21,7.21,0,0,0,165.26,28Zm-2.75-4.8.77,0h.49v-.43l0-.85a.41.41,0,0,1,.2,0,9.32,9.32,0,0,1,1,.13c.11,0,.17.07.19.12s-.07.18-.24.29v.75h1.62V22.8l-.05-.77c0-.06.09-.08.21-.06l.53,0q.71.1.73.26c0,.06-.08.15-.25.26v.69h.61q.43-.74.55-.75a.5.5,0,0,1,.29.1,3.49,3.49,0,0,1,.61.55c.1.14.15.22.13.26s-.06.06-.15.06h-2v.72l0,.67a.54.54,0,0,1-.27.27.82.82,0,0,1-.35.1q-.57,0-.57-.21v-.2h-1.62v.16a.29.29,0,0,1-.13.23,1,1,0,0,1-.53.13,1,1,0,0,1-.47,0,.29.29,0,0,1-.09-.18l.05-.76v-.88h-.37l-.69,0ZM166.85,26h-2.34a5.23,5.23,0,0,0,.3.52,4.25,4.25,0,0,0,1,.91A5.52,5.52,0,0,0,166.85,26Zm-1.91-1.41h1.61V23.42h-1.62Z"
        transform="translate(-29.4 -18)" />
    <path
        d="M173.44,27.38V24.06h-1.25l-.46,0-.32-.31.72.06h1.19V22.2h-.78l-.47,0-.32-.3.73.05h.85v-.85l-.06-1.21a.14.14,0,0,1,.1,0,5.66,5.66,0,0,1,.82.09c.36.06.55.11.57.17s-.08.23-.33.32V22h.3a4.78,4.78,0,0,1,.55-.68s.09,0,.17.08c.25.23.43.4.53.52s.15.2.13.23a.08.08,0,0,1-.09.05h-1.6v1.65h.3a5,5,0,0,1,.33-.44,1.81,1.81,0,0,1,.23-.25s0,0,.11.06l.28.23a2.83,2.83,0,0,1,.28.31q.15.19.13.24a.08.08,0,0,1-.09.05h-1.26a1.43,1.43,0,0,1-.24.31v1.49h.17q.48-.69.58-.69a.39.39,0,0,1,.24.1q.76.63.71.71t-.1.08h-1.6v2a3.49,3.49,0,0,0,.66.27,13.08,13.08,0,0,0,2.58.1q1.52,0,2.46-.11t1.06-.13l.2,0a.1.1,0,0,1,.11,0s0,.08-.1.14l-.11.08a1.18,1.18,0,0,0-.27.27,1.06,1.06,0,0,0-.16.36,1.76,1.76,0,0,0-.06.38.45.45,0,0,1,0,.23s-.12.05-.28,0l-2.54,0a9.27,9.27,0,0,1-3.35-.4,3.91,3.91,0,0,1-1-.77,2.36,2.36,0,0,1-.45-.63l-.41-.87a6.34,6.34,0,0,1-.28.8q-.17.38-.36.74a4.76,4.76,0,0,1-.42.64l-.24.3q-.09.11-.12.06a.12.12,0,0,1,0-.12l.08-.25c.07-.25.15-.55.25-.9a5.81,5.81,0,0,0,.18-1.11q0-.59.06-1.05c0-.31,0-.52,0-.63v-.66l0-.23c0-.06,0-.09.12-.08l.7.09c.42,0,.64.13.66.27s-.1.18-.31.3l-.08.55q-.06.39-.1.75a2.3,2.3,0,0,0,.16.37A5.08,5.08,0,0,0,173.44,27.38Zm6.07-6.71.23-.32c.07-.11.14-.17.2-.18a1.61,1.61,0,0,1,.67.31q.51.32.5.4t-.32.3q-.09,1.27-.13,1.67a1.33,1.33,0,0,1-.24.66,1.17,1.17,0,0,1-.43.37,1.92,1.92,0,0,1-.51.16,1.48,1.48,0,0,1-.33,0,.19.19,0,0,1-.11,0L179,24a1.57,1.57,0,0,1-.08-.33q-.05-.3-.52-.5l-.28-.12c-.06,0-.09-.06-.08-.1a.08.08,0,0,1,.09-.07l.37,0c.39.05.64,0,.76-.09a.83.83,0,0,0,.24-.38,3.83,3.83,0,0,0,.09-.68c0-.31,0-.47,0-.49v-.38h-1a.46.46,0,0,1-.06.17l-.19.16a6.64,6.64,0,0,1-.26,1.18,3.81,3.81,0,0,1-.43.86,3.62,3.62,0,0,1-1,.89l1,.41h1.69q.32-.44.42-.46a1.6,1.6,0,0,1,.44.17q.38.18.56.28c.12.07.17.14.16.2s-.12.16-.3.27v1.74l.05.82a.69.69,0,0,1-.14.27q-.11.13-.59.15t-.48-.24v-.31h-1.89v.34q0,.25-.29.29l-.51,0c-.15,0-.24,0-.27-.06a.34.34,0,0,1-.06-.17l.06-1.3V25.21l-.05-.95-.46.23-.29.1q-.27.1.05-.17l.18-.15a3,3,0,0,0,.62-.79,3.08,3.08,0,0,0,.4-1.13q.08-.6.12-1.08l0-.39h-.41l-.46,0-.32-.3.72.05Zm-1.93,6.57h1.89V24.77h-1.89Z"
        transform="translate(-29.4 -18)" />
    <path
        d="M183.79,22.64h-.9l-.47,0-.29-.3.72.06h1V20.86l-.05-1a.15.15,0,0,1,.1-.05,3.87,3.87,0,0,1,.8.08q.63.1.62.24s-.11.14-.32.29v2h.34l.35-.44q.22-.28.33-.28c.14,0,.32.14.56.4s.36.41.34.46,0,.06-.07.06H185V24q1.2.15,1.45.55a1.22,1.22,0,0,1,.23.67.62.62,0,0,1-.26.46.67.67,0,0,1-.45.17.52.52,0,0,1-.32-.11.38.38,0,0,1-.13-.22c0-.08,0-.23,0-.45a1.19,1.19,0,0,0-.12-.49,1.36,1.36,0,0,0-.37-.38v4l0,1.14a.51.51,0,0,1-.34.31,1.21,1.21,0,0,1-.56.07c-.19,0-.31-.09-.34-.24l.06-1.24V25.84a9.68,9.68,0,0,1-1.16,1.3l-.19.17q-.14.12-.19.08s0-.07,0-.15l.13-.2a12.06,12.06,0,0,0,.6-1.4A16.32,16.32,0,0,0,183.79,22.64Zm4.29,3.21a11.74,11.74,0,0,1-1,1.52,6.07,6.07,0,0,1-1,1.11l-.48.4c-.06,0-.1.06-.14,0s0-.09,0-.17l.23-.31.2-.33c.1-.17.22-.4.36-.68a5.74,5.74,0,0,0,.38-1.06q.17-.64.23-.89l.06-.35V25a.09.09,0,0,1,.09,0c.06,0,.32.09.78.26s.69.29.68.38a.22.22,0,0,1-.16.19Zm2.61-2,.56-.69a.29.29,0,0,1,.18-.12.33.33,0,0,1,.2.08q.12.1.44.44t.29.42a.11.11,0,0,1-.11.09H190a.72.72,0,0,1-.21.23V28.7a1.5,1.5,0,0,1-.1.56q-.1.26-.65.33a4.68,4.68,0,0,1-.69.06.24.24,0,0,1-.13,0,.12.12,0,0,1,0-.08,2.71,2.71,0,0,1,0-.3.49.49,0,0,0-.27-.4,2.07,2.07,0,0,0-.37-.19l-.39-.11q-.16,0-.13-.12a.12.12,0,0,1,.14-.08l.28,0a4.25,4.25,0,0,0,.83,0,.45.45,0,0,0,.32-.08.48.48,0,0,0,.07-.31v-4h-1.89l-.47,0-.3-.3.72.05ZM190,21a3.79,3.79,0,0,1,.73-.82.49.49,0,0,1,.29.14l.34.28q.47.42.43.52c0,.06-.06.1-.11.1h-4.42l-.47,0-.3-.31.72.06Zm.14,4.32a4.2,4.2,0,0,1,1.62,1,3.45,3.45,0,0,1,.54.76,1.5,1.5,0,0,1,.08.47,1.22,1.22,0,0,1,0,.42,1.21,1.21,0,0,1-.24.33.65.65,0,0,1-.9,0,1,1,0,0,1-.17-.47l-.06-.48a3.27,3.27,0,0,0-.37-1.08,3.83,3.83,0,0,0-.46-.67l-.21-.24a.05.05,0,0,1,0-.05S190,25.23,190.15,25.27Z"
        transform="translate(-29.4 -18)" />
    <path
        d="M194.87,29.45l.35-.38a2.42,2.42,0,0,0,.19-.27l.14-.25.06-.17a.36.36,0,0,0,0-.2.14.14,0,0,0,0-.08l-.07,0-.13,0a.27.27,0,0,1-.15,0,.82.82,0,0,1-.57-.28.85.85,0,0,1-.19-.55.76.76,0,0,1,.24-.55,1.05,1.05,0,0,1,.69-.27,1,1,0,0,1,.79.33,1.24,1.24,0,0,1,.34.87,1.79,1.79,0,0,1-.17.69A2.14,2.14,0,0,1,196,29q-.26.26-.49.46a1.72,1.72,0,0,1-.36.25.46.46,0,0,1-.2,0,.13.13,0,0,1-.11-.06.12.12,0,0,1,0-.11A.36.36,0,0,1,194.87,29.45Z"
        transform="translate(-29.4 -18)" />
    <path
        d="M205.78,24.4H205l-.61,0-.24-.29.79.05h.73q.32-.45.41-.47a.43.43,0,0,1,.26.08,10.42,10.42,0,0,1,.89.55.29.29,0,0,1,.11.16q0,.16-.39.34v2.93a8.19,8.19,0,0,0,1,.47,5.21,5.21,0,0,0,1.69.23q.4,0,1.81,0a11.35,11.35,0,0,0,2.48-.33l.38-.09c.07,0,.12,0,.15,0s0,.07,0,.12l-.24.21a.88.88,0,0,0-.19.28,1.36,1.36,0,0,0-.11.33,1.49,1.49,0,0,0,0,.37.48.48,0,0,1,0,.27c0,.06-.16.08-.35.06a9.56,9.56,0,0,0-1,0q-.68,0-2,0a14.48,14.48,0,0,1-1.8-.17,4.56,4.56,0,0,1-.82-.24,2,2,0,0,1-.6-.4l-.3-.3a.89.89,0,0,0-.69-.3,2.22,2.22,0,0,0-1.27,1l-.2.27c0,.06-.09.05-.12,0l-.42-1.18s0-.07,0-.09a.41.41,0,0,1,.15-.08l.35-.12q.69-.25,1-.33Zm1.46-2.75a.89.89,0,0,1-.23.6.79.79,0,0,1-.64.23q-.55,0-.6-.48a2,2,0,0,1,0-.3,2,2,0,0,0,0-.41,3.4,3.4,0,0,0-.15-.38,1.09,1.09,0,0,0-.26-.37l-.19-.17a.11.11,0,0,1,0-.09s.05,0,.15,0l.43,0a2.17,2.17,0,0,1,1,.44A1.13,1.13,0,0,1,207.25,21.65Zm3,3.65A11.42,11.42,0,0,0,209,24l-.62-.52a.13.13,0,0,1-.06-.12s.05-.05.16,0l.23.1q1.39.73,2,1.11a6,6,0,0,0,.62-2.09h-2.66l-.87,0-.24-.31,1,.06h4q.29-.38.46-.62t.26-.25a.57.57,0,0,1,.27.1,4.23,4.23,0,0,1,.66.57q.29.31.25.37a.15.15,0,0,1-.13.05H212q.88.23.86.4c0,.11-.12.21-.33.28a8.51,8.51,0,0,1-.93,2.05,6.2,6.2,0,0,1,1.29,1.1,1.48,1.48,0,0,1,.36.68.92.92,0,0,1,0,.4.78.78,0,0,1-.7.54.46.46,0,0,1-.43-.12,3.71,3.71,0,0,1-.36-.66,3.25,3.25,0,0,0-.82-1,6.52,6.52,0,0,1-3.24,1.62l-.21,0c-.06,0-.09,0-.1,0s0-.07.07-.1l.23-.1A5.82,5.82,0,0,0,210.21,25.3Zm1.2-4.07a.91.91,0,0,1-.23.61.81.81,0,0,1-.63.24.77.77,0,0,1-.38-.07.39.39,0,0,1-.21-.19,1,1,0,0,1-.05-.29c0-.12,0-.29,0-.5a1.65,1.65,0,0,0-.1-.45,1.5,1.5,0,0,0-.17-.27.75.75,0,0,0-.17-.18.55.55,0,0,1-.13-.1s0-.07.12-.08a3.51,3.51,0,0,1,.64.09,2.71,2.71,0,0,1,.9.39A.91.91,0,0,1,211.41,21.23Z"
        transform="translate(-29.4 -18)" />
    <path
        d="M216.14,24.94V22.38l0-1.31s.08-.06.18-.05.47.07.74.13a1.5,1.5,0,0,1,.45.14.15.15,0,0,1,0,.11c0,.07-.11.16-.28.26v3.12l.72-.13V21.44l-.08-1.31c0-.06.07-.08.17-.06l.26,0,.61.12c.29.07.43.14.43.22s-.11.14-.31.25v1.8h.34c.27-.43.44-.65.49-.65a.32.32,0,0,1,.2.09q.17.16.39.4c.14.16.2.26.18.3a.12.12,0,0,1-.12.06H219v1.73l.62-.1.37-.07.48-.1c.08,0,.13,0,.15,0s0,.09-.1.12l-.41.18-2.15,1-1.61.73-.33.17c-.11.06-.18,0-.2-.06l-.35-1a.72.72,0,0,1,0-.21.08.08,0,0,1,0-.06h.17ZM215.53,29l.81.06h6.75l.51-.63c.12-.15.21-.23.26-.23a.47.47,0,0,1,.26.12,8.9,8.9,0,0,1,.68.61c.14.15.2.24.18.28s-.09.05-.19.05h-8.31l-.67,0ZM222,27l.5-.6c.11-.13.19-.2.24-.21s.15,0,.29.12l.32.27a2.77,2.77,0,0,1,.35.34q.13.16.1.21s-.09.06-.19.06h-6.09l-.59,0-.29-.3.84.06Zm-.12-4a13.07,13.07,0,0,0,1.57-1.45l.32-.37.06-.09h.08a2.2,2.2,0,0,1,.48.43l.39.45c.14.17.21.28.19.33a.24.24,0,0,1-.07.12,2.23,2.23,0,0,1-.5,0,19.05,19.05,0,0,1-2.51.95v.89a.82.82,0,0,0,.11.48q.11.15,1,.13a6.79,6.79,0,0,0,.83,0,.8.8,0,0,0,.38-.16,1.2,1.2,0,0,0,.29-.32,2.37,2.37,0,0,0,.2-.39l.19-.56c0-.07.05-.1.1-.09s.06.06.05.13l0,.27a4.13,4.13,0,0,0-.1.82.42.42,0,0,0,.12.28l.15.16a.46.46,0,0,1,.06.31.65.65,0,0,1-.31.41,1.59,1.59,0,0,1-.75.22q-.48,0-1.47,0-1.46,0-1.69-.32a1.5,1.5,0,0,1-.23-.9v-3.3L220.65,20c0-.06.13-.08.25-.06l.78.16c.34.08.51.17.5.26s-.12.2-.33.3Z"
        transform="translate(-29.4 -18)" />
    <path
        d="M226.23,22.76l.55,0h.75V21.35l-.06-1.21s.09-.05.18,0l.28,0q.94.15,1,.35t-.32.35V22.8h.05a2.22,2.22,0,0,1,.45-.54.33.33,0,0,1,.19.1q.3.3.39.41t.06.18a.11.11,0,0,1-.11.06h-1v3.23l.6-.15.33-.09c.12,0,.14,0,0,.14l-.15.1-.41.28-.91.61-.72.53-.26.19c-.11.09-.18.13-.2.12l0,0a1,1,0,0,1-.1-.2l-.42-1c0-.08,0-.13,0-.15s.06,0,.17,0l.35,0a7,7,0,0,0,.7-.12V23h-.68l-.39,0Zm4.74,0h1.59l0-1q0-.39-.06-1.07l0-.5,0-.24s.08,0,.17,0l.39,0q1,.12,1,.32t-.26.3c0,.21,0,.38,0,.49s0,.41,0,.89v.78h1l.35-.47q.25-.32.32-.32a.48.48,0,0,1,.24.12,7.9,7.9,0,0,1,.69.62c.07.08.1.15.08.19s-.06.07-.15.07h-2.51c0,.28,0,.54,0,.79s0,.51.06.79a10.17,10.17,0,0,0,.18,1q.25-.56.32-.77t.17-.57l.12-.44,0-.21s.1,0,.23,0l.41.17.39.24q.39.24.38.38t-.35.21q-.38.86-.49,1.08l-.7,1.26a4,4,0,0,0,.51.84q.34.44.55.41t.56-.61l.25-.41c0-.09.09-.12.12-.1a.09.09,0,0,1,0,.1l-.1.34-.13.38a1.82,1.82,0,0,0-.1.47.79.79,0,0,0,.11.42l.23.42q.18.57-.48.58a2,2,0,0,1-1.21-.49,3.61,3.61,0,0,1-1.1-1.43A6.77,6.77,0,0,1,232.11,29a6.36,6.36,0,0,1-1.47.57l-.23.05a.43.43,0,0,1-.16,0s-.08,0-.08-.06.05-.08.17-.13l.15-.06a5.64,5.64,0,0,0,1.48-1,6.22,6.22,0,0,0,1.24-1.49,10,10,0,0,1-.42-1.67,15.25,15.25,0,0,1-.19-1.71l0-.53h-1.62l0,1.42h.5a3,3,0,0,1,.33-.34.32.32,0,0,1,.15,0l.41.24q.38.22.39.35c0,.09-.07.18-.21.26s0,.35,0,.5,0,.42-.06.82-.08.71-.12.95a3.15,3.15,0,0,1-.25.75.73.73,0,0,1-.66.44q-.48,0-.49-.16a1,1,0,0,1,0-.22c0-.14-.09-.27-.27-.39l-.11-.06a.1.1,0,0,1-.06-.11.06.06,0,0,1,.08-.05l.25.05a.4.4,0,0,0,.49-.24,3.32,3.32,0,0,0,.22-1.08q.07-.77.07-1.2v-.32h-.66q0,.24-.06,1a5.16,5.16,0,0,1-.27,1.39,3.47,3.47,0,0,1-.85,1.29,4.66,4.66,0,0,1-1.32,1l-.3.14-.17.09a.53.53,0,0,1-.17.06.1.1,0,0,1-.11,0s0-.1.14-.17l.18-.11s.24-.18.59-.47a2.93,2.93,0,0,0,.83-1.28,6.58,6.58,0,0,0,.38-1.66q.07-.82.07-1.42c0-.4,0-.74,0-1l0-.66-.05-.4s.09,0,.2,0Zm3-1.9-.11-.13c-.06-.06-.08-.12-.06-.16s.08-.05.2,0l.6.11a.76.76,0,0,1,.48.35,1,1,0,0,1,.18.52.68.68,0,0,1-.17.45.64.64,0,0,1-.4.21.46.46,0,0,1-.39-.11.44.44,0,0,1-.16-.24,2.58,2.58,0,0,1,0-.4A.78.78,0,0,0,234,20.83Z"
        transform="translate(-29.4 -18)" />
    <path
        d="M242.14,21.75a1,1,0,0,1-.27-.2.61.61,0,0,1-.11-.3l0-.46a1.11,1.11,0,0,0-.21-.57,1.63,1.63,0,0,0-.23-.24.92.92,0,0,1-.16-.16c-.06-.07,0-.1.2-.1l.59.1a2.43,2.43,0,0,1,.88.36.83.83,0,0,1,.39.78.87.87,0,0,1-.13.42,1.1,1.1,0,0,1-.56.36h3l.5-.69a.32.32,0,0,1,.2-.13.59.59,0,0,1,.34.15,5,5,0,0,1,.71.61c.07.1.11.17.09.21s-.08.06-.18.06h-4.17c.19,0,.28.09.27.18s-.11.19-.31.3V23.6h1.8q.27-.46.37-.49a.55.55,0,0,1,.34.09q.74.4.84.48a.4.4,0,0,1,.12.13q0,.14-.29.37v3.31A2.1,2.1,0,0,1,246,28q-.06.2-.58.37a1.17,1.17,0,0,1-.72.09.23.23,0,0,1-.15-.12l-.08-.24a1,1,0,0,0-.64-.5l-.29-.11c-.14,0-.21-.1-.2-.15s.1-.07.27-.06l.27,0a3.52,3.52,0,0,0,.72,0,.27.27,0,0,0,.19-.06.31.31,0,0,0,0-.2V23.8h-1.93v4l.06,1.6a.71.71,0,0,1-.14.24.93.93,0,0,1-.55.15,1.23,1.23,0,0,1-.55,0,.4.4,0,0,1-.15-.2l.05-1.65V23.8h-1.78V27l.05,1.14a.62.62,0,0,1-.11.21.76.76,0,0,1-.34.16,1.54,1.54,0,0,1-.48.06.51.51,0,0,1-.31-.06.39.39,0,0,1-.11-.14l.05-1.65v-2.2l-.05-1.36s.06,0,.12,0l1.27.45h1.7V22h-3.41l-.56,0-.26-.31.71.08Z"
        transform="translate(-29.4 -18)" />
    <path
        d="M252.53,29.15V25.88h-2.59l-.56,0-.27-.31.73.06h2.7v-3H249.3l-.54,0-.29-.31.73.06h6.61l.48-.64q.29-.39.39-.41a.46.46,0,0,1,.29.12q.32.26.68.6t.33.44c0,.06-.08.1-.18.1h-3.74a.57.57,0,0,1-.21.24v2.73h1.5l.5-.67q.23-.31.32-.32a.52.52,0,0,1,.28.12,7.19,7.19,0,0,1,.67.6q.31.32.28.4c0,.05-.08.08-.18.08h-3.37v3.27h2.35l.44-.59q.29-.39.39-.4a.51.51,0,0,1,.29.12,5.55,5.55,0,0,1,.64.57q.33.34.3.42c0,.05-.08.08-.18.08h-9l-.61,0-.27-.31.82.08Zm-.81-9q-.13-.09-.1-.15s.08-.06.2-.05q.78.11,1.28.22a1.06,1.06,0,0,1,.74.57,1.46,1.46,0,0,1,.2.84,1.08,1.08,0,0,1-.29.59.8.8,0,0,1-.68.21.68.68,0,0,1-.51-.19.76.76,0,0,1-.19-.47v-.3a3.18,3.18,0,0,0-.1-.57,1,1,0,0,0-.39-.58Z"
        transform="translate(-29.4 -18)" />
    <path
        d="M261.74,24.22v.2c0,.19-.13.31-.4.37a1.8,1.8,0,0,1-.61.05.19.19,0,0,1-.24-.19l0-.81V22.48l0-.92,0,0,.17,0,1.11.4h.93V20.79h-2.36l-.48,0-.32-.29.59.06h7.21q.48-.58.6-.75c.08-.11.15-.17.2-.17a.4.4,0,0,1,.13.1l.35.3a5.91,5.91,0,0,1,.45.4q.19.19.16.26s-.09.07-.2.06h-3a1,1,0,0,1-.21.25V22h.93q.34-.54.45-.56a2.16,2.16,0,0,1,.75.31q.6.32.61.43s-.12.17-.38.39v1l0,.79q-.22.38-1.05.37c-.12,0-.2,0-.22-.05a.24.24,0,0,1,0-.14v-.24h-3a7.61,7.61,0,0,1,1,.4.2.2,0,0,1,.1.19c0,.08-.16.15-.46.22a8.49,8.49,0,0,0-.64.82h3.63a4.58,4.58,0,0,1,.81-.91l.41.32a6.09,6.09,0,0,1,.54.48q.16.17.13.24s-.09.06-.2.06h-2.44q.3.18.29.3c0,.08-.12.13-.34.18l-.89,1.08a6.32,6.32,0,0,1,1.68.59,1.05,1.05,0,0,1,.61,1,.72.72,0,0,1-.19.52.6.6,0,0,1-.43.18.74.74,0,0,1-.43-.1,5.15,5.15,0,0,1-.66-.57,4.43,4.43,0,0,0-1.32-.83,7.35,7.35,0,0,1-1.5.87,8.52,8.52,0,0,1-3.25.44H260a.08.08,0,0,1-.08-.07s0-.08.13-.12h.16l.26,0A9.09,9.09,0,0,0,262,29,5.85,5.85,0,0,0,264,27.95a4.29,4.29,0,0,0-1.3-.21l-.35,0-.31,0q-.63,0-.74-.15a.36.36,0,0,1-.07-.27s.05-.09.14-.16a4.7,4.7,0,0,0,.45-.49q.32-.38.54-.68H260l-.6,0-.25-.29.66.06h2.6a7.28,7.28,0,0,0,1-1.63Zm0-.21h1V22.16h-1Zm1,3.44a13.31,13.31,0,0,1,1.69,0,6.54,6.54,0,0,0,.9-1.4H263.8Zm2-6.65H264a.46.46,0,0,1-.17.18v1h.92ZM263.83,24h.92V22.18h-.92Zm2,0H267V22.18h-1.08Z"
        transform="translate(-29.4 -18)" />
    <path
        d="M273.61,26.85h-2.4l-.46,0-.32-.3.72.06h3.7v-.18q0-.34,0-.61a1,1,0,0,1,0-.28l.1,0q1.3.12,1.33.24c0,.06-.07.19-.24.39v.47h2.66a4.61,4.61,0,0,1,.78-.77,2.17,2.17,0,0,1,.53.43q.45.42.43.48s0,.06-.07.06h-4a4.14,4.14,0,0,0,2,1.17,8,8,0,0,0,1.73.34h.4c.06,0,.08,0,.08.07a.09.09,0,0,1-.06.08l-.2.09a2.66,2.66,0,0,0-.38.27.81.81,0,0,0-.32.54c0,.21-.07.32-.12.31a2.89,2.89,0,0,1-1.4-.55,4.6,4.6,0,0,1-1.22-1.1,5.12,5.12,0,0,1-.66-1.23H276v1.42l0,1.29a.53.53,0,0,1-.23.25,1.07,1.07,0,0,1-.54.14c-.23,0-.37,0-.41-.08a.55.55,0,0,1-.09-.18l.06-1.43v-.81a15.13,15.13,0,0,1-1.67,1.17,9.64,9.64,0,0,1-2.51,1l-.29.08c-.06,0-.11,0-.13,0s0-.08.09-.12l.32-.16,1.07-.65A6.65,6.65,0,0,0,273.61,26.85Zm.45-6.18-.71.92.23.21h4.19a4.69,4.69,0,0,1,.78-.77c.06,0,.15,0,.28.14q.82.67.77.75c0,.06-.06.09-.1.09h-3.06c0,.09,0,.13,0,.13l-.19.17V23h1.26a5.47,5.47,0,0,1,.68-.7s.11,0,.19.09q.52.44.65.58c.09.09.12.16.1.19a.09.09,0,0,1-.08,0h-2.8v.9h1.4l.53-.59a.29.29,0,0,1,.15-.1.36.36,0,0,1,.19.08q.85.66.79.73c0,.05-.07.08-.11.08h-3v1h2l.56-.6c.09-.1.17-.16.22-.16a.5.5,0,0,1,.26.13,9.09,9.09,0,0,1,.68.61c.07.08.1.14.08.18a.09.09,0,0,1-.08.05h-6.42v.35a.24.24,0,0,1-.06.12.64.64,0,0,1-.12.12.9.9,0,0,1-.32.08,1.63,1.63,0,0,1-.35,0,.32.32,0,0,1-.2-.06.3.3,0,0,1-.08-.12l0-1.24V22.7L272,23l-.27.24-.78.55-.31.21c-.07.05-.12.06-.13,0s0-.09.06-.15l.26-.29a6.83,6.83,0,0,0,.84-1.21q.43-.76.5-.91l.26-.62q.19-.46.25-.64l.13-.39,0-.13.05,0a6.22,6.22,0,0,1,.72.28,6.33,6.33,0,0,1,.77.36c.07.05.1.1.1.13s-.06.08-.16.11ZM273.47,23h1.6V22h-1.6Zm0,1.11h1.6v-.9h-1.6Zm0,1.18h1.6v-1h-1.6Zm1.44-5.17-.06-.06a.13.13,0,0,1,0-.08s0-.07.08-.08l.62.11a1,1,0,0,1,.79.48,1.36,1.36,0,0,1,.2.57.82.82,0,0,1-.21.48.64.64,0,0,1-.53.2c-.4,0-.61-.18-.62-.54a1.15,1.15,0,0,1,0-.28,1,1,0,0,0,0-.25l-.05-.21A.94.94,0,0,0,274.91,20.1Z"
        transform="translate(-29.4 -18)" />
    <path
        d="M285.49,22.31V21.14l-.06-1.32a.1.1,0,0,1,0-.08.23.23,0,0,1,.13,0,4.82,4.82,0,0,1,1.52.22.36.36,0,0,1,.08.17q0,.12-.33.33v1.87h2.37a1.79,1.79,0,0,1,.42-.54.42.42,0,0,1,.29.06l.43.23.46.28c.2.11.24.21.12.3l-.26.23v1.87l0,.82a.81.81,0,0,1-.15.33q-.12.16-.61.19c-.33,0-.52,0-.56-.05a.6.6,0,0,1-.07-.36v-.41h-2.48V28.1l.08,1.25a1,1,0,0,1-.1.25c0,.1-.27.16-.67.18s-.62,0-.66,0a.46.46,0,0,1-.08-.27l.08-1.33V25.25H283v.6a.41.41,0,0,1-.26.44,2.54,2.54,0,0,1-.62.11c-.24,0-.38,0-.42,0a.36.36,0,0,1-.08-.21l.05-1.07V22.79l-.06-1,.05-.05s.1,0,.24.06l1.17.52ZM283,25.06h2.46V22.51H283Zm6.28-2.55h-2.48v2.55h2.48Z"
        transform="translate(-29.4 -18)" />
    <path
        d="M29.45,39.16l.72.06h3.6v-3.1h-2.7l-.67,0-.3-.31.74.06H36.5q.67-.91.82-.91a2.11,2.11,0,0,1,.48.35,6.38,6.38,0,0,1,.53.49q.13.15.11.21s-.08.07-.18.07H35.33a.54.54,0,0,1-.05.13.8.8,0,0,1-.24.17v2.79h2.31l.56-.71c.13-.17.22-.26.28-.26a.49.49,0,0,1,.26.11,6.1,6.1,0,0,1,.74.66q.25.27.23.34s-.08.07-.18.07H35v4.18a1.75,1.75,0,0,1-.12.7q-.12.26-.88.34a2.08,2.08,0,0,1-.82,0,.17.17,0,0,1-.05-.12l0-.23A.81.81,0,0,0,33,44a1,1,0,0,0-.46-.29l-.47-.17c-.09,0-.12-.07-.1-.12s.07-.07.16-.06l.46.06a1.93,1.93,0,0,0,1,0,.55.55,0,0,0,.16-.46V39.44H30.41l-.61,0Z"
        transform="translate(-29.4 -18)" />
    <path
        d="M40.56,41.62l-.17-.13a.1.1,0,0,1,0-.11s0-.06.11-.06l.33,0a.71.71,0,0,0,.34,0A13.5,13.5,0,0,0,42.2,39l1.11-2.66q.06-.16.15-.12t0,.15l-.71,2.44q-.47,1.61-.61,2.29T42,42a1.79,1.79,0,0,0,0,.52,2.56,2.56,0,0,0,.2.67,2.16,2.16,0,0,1,.19.62.68.68,0,0,1-.2.52.76.76,0,0,1-.6.26.81.81,0,0,1-.63-.21.59.59,0,0,1-.21-.42,5.07,5.07,0,0,1,.13-.72,1.92,1.92,0,0,0,0-1A1.27,1.27,0,0,0,40.56,41.62Zm.19-4.18a8,8,0,0,1,.89.24q.51.17.44.85a.8.8,0,0,1-.2.43.59.59,0,0,1-.45.2A.48.48,0,0,1,41,39a.46.46,0,0,1-.11-.28l0-.43a1,1,0,0,0-.3-.58l-.1-.1a.15.15,0,0,1-.06-.13s0-.07.12-.06Zm.5-2.46-.09-.08a.08.08,0,0,1,0-.09s.07,0,.19,0h.09l.63.06a.85.85,0,0,1,.79.47A1.78,1.78,0,0,1,43,36a.66.66,0,0,1-.71.71.56.56,0,0,1-.29,0,.45.45,0,0,1-.19-.19.8.8,0,0,1-.1-.28l0-.32A1.28,1.28,0,0,0,41.26,35Zm2.37,4.63q-.44.41-.82.72l-.19.16c-.06.06-.11.07-.14,0a.12.12,0,0,1,0-.15l.11-.16a11.66,11.66,0,0,0,.77-1.29q.25-.5.54-1.24t.37-1l.13-.47a2.57,2.57,0,0,0,.09-.33v-.12c0-.06,0-.09.12-.09l.55.19a4.33,4.33,0,0,1,.82.35q.31.18.3.32t-.46.2q-1,1.39-1.29,1.76t-.86,1l.69.06h2.93q.32-.46.46-.44a3.61,3.61,0,0,1,.68.48q.56.45.56.52t-.32.25q0,.47-.07.84l0,.59q0,.22-.1.8a7.61,7.61,0,0,1-.21,1,1.61,1.61,0,0,1-.48.77,1.44,1.44,0,0,1-.91.34q-.56,0-.63-.06a.74.74,0,0,1-.08-.26A2.15,2.15,0,0,0,46,44a.94.94,0,0,0-.37-.4l-.35-.21a.09.09,0,0,1-.06-.11c0-.05,0-.07.1-.06l.41.08a3.92,3.92,0,0,0,.77.1.49.49,0,0,0,.49-.28,4.77,4.77,0,0,0,.21-1q.1-.73.16-1.47l.05-.84H46.2l0,.13s-.08.11-.2.18q-.18,1-.34,1.63a4,4,0,0,1-.7,1.41,4.45,4.45,0,0,1-2,1.31l-.23.09q-.15.05-.17,0s0-.1.08-.15l.16-.12A3.83,3.83,0,0,0,43.88,43a5.82,5.82,0,0,0,.45-1.09,7.45,7.45,0,0,0,.19-.84q.05-.34.15-1.32h-.1l-.66,0Zm4.24-2.55q.4.91,2.69,1.43l.24.05a.12.12,0,0,1,.06.09s0,.09-.12.13l-.16.08a1.47,1.47,0,0,0-.52.38,2.37,2.37,0,0,0-.25.35l-.1.2c0,.08-.08.12-.11.13s-.08,0-.15,0a6.55,6.55,0,0,1-.86-.56,3.14,3.14,0,0,1-.81-.84,6.05,6.05,0,0,1-.49-1q-.21-.52-.3-.82t-.14-.58l-.12-.54a1.06,1.06,0,0,0-.12-.31l-.13-.16q-.18-.3.18-.28a3.48,3.48,0,0,1,.68.14q.4.12.3.31l-.14.1-.18.11A7.92,7.92,0,0,0,47.87,37.07Z"
        transform="translate(-29.4 -18)" />
    <path
        d="M51.49,37.6a.08.08,0,0,1,0,0,1.48,1.48,0,0,1,.41-.06,1.37,1.37,0,0,1,1,.24.87.87,0,0,1,.37.56.86.86,0,0,1-.08.5.6.6,0,0,1-.62.35.41.41,0,0,1-.32-.12.54.54,0,0,1-.11-.25l-.05-.3a1.47,1.47,0,0,0-.2-.44,1.05,1.05,0,0,0-.25-.28C51.53,37.7,51.49,37.65,51.49,37.6Zm1,5.1a1.27,1.27,0,0,0-.06-.44,1.47,1.47,0,0,0-.17-.26,1.52,1.52,0,0,0-.19-.21l-.28-.18c-.09-.09-.08-.15.05-.17l.18,0,.27,0a.54.54,0,0,0,.28,0,1.33,1.33,0,0,0,.28-.46q.19-.41,1.34-3.64l.12-.33a.08.08,0,0,1,.1-.06c.05,0,.07.06.06.16l-.05.25-.15.83-.19.88-.23,1.25q-.15.77-.16.89l-.06.55c0,.15,0,.26,0,.34a2.16,2.16,0,0,0,0,.36,4.94,4.94,0,0,0,.11.82,3.08,3.08,0,0,1,.09.53.87.87,0,0,1-.23.59.78.78,0,0,1-.6.23q-.48,0-.59-.27a1.23,1.23,0,0,1-.09-.55,1.69,1.69,0,0,1,.05-.34l.09-.3A4.1,4.1,0,0,0,52.5,42.7Zm1.8-6.92a.75.75,0,0,1-.19.63.67.67,0,0,1-.52.23.55.55,0,0,1-.35-.1.6.6,0,0,1-.18-.2,2.48,2.48,0,0,1-.12-.48,1.09,1.09,0,0,0-.23-.55,2.69,2.69,0,0,0-.28-.27c-.08-.06-.12-.11-.1-.14s.14-.07.39-.06a2,2,0,0,1,1.21.33A1,1,0,0,1,54.31,35.78Zm5.55-.34a1.6,1.6,0,0,1,.33-.49.39.39,0,0,1,.22,0q1.07.47,1.1.64t-.21.27v1.75l.06.92a.5.5,0,0,1-.34.36,1.59,1.59,0,0,1-.64.1Q60,39,60,38.75v-.14H56.11v.11q0,.29-.69.33-.34,0-.43-.06a.4.4,0,0,1-.11-.19L55,37.71V36l-.06-1a.27.27,0,0,1,.24,0l1.1.43Zm-.18,6.94H56.41v.95l.06,1q-.14.56-1,.48a.37.37,0,0,1-.23-.07.37.37,0,0,1-.06-.25l.06-1.39V40.26l-.06-1.07a.12.12,0,0,1,.06,0l.17,0,1.19.34h3a1.93,1.93,0,0,1,.3-.45s.13,0,.28.06a5.92,5.92,0,0,0,.64.25q.47.16.46.37T61,40v3.75a2.72,2.72,0,0,1-.08.66q-.08.3-.53.4a3.83,3.83,0,0,1-.7.11q-.25,0-.27,0s0-.07,0-.17a.55.55,0,0,0-.06-.32,1.13,1.13,0,0,0-.66-.5l-.25-.08c-.09,0-.13-.06-.12-.1s.06-.07.16-.07l.4,0q.63,0,.7,0a.54.54,0,0,0,.06-.32Zm-3.57-6.72v1.22h1.36V35.65Zm0,2.75h1.36V37.08H56.11Zm.3,2.47h3.27V39.71H56.41Zm0,1.3h3.27v-1.1H56.41Zm2.15-5.3H60V35.65H58.78a1.29,1.29,0,0,1-.21.23Zm0,1.53H60V37.08H58.56Z"
        transform="translate(-29.4 -18)" />
    <path
        d="M66.75,40.65V36h-3l-.49,0-.32-.3.71.06h6.2q.36-.45.54-.69t.25-.24a.44.44,0,0,1,.23.09,5.44,5.44,0,0,1,.69.62q.26.28.24.35s-.08.07-.18.07H68v4.6h2.49a5.38,5.38,0,0,1,.78-.93q.09,0,.26.11a7,7,0,0,1,.71.65q.2.23.18.3s-.08.07-.18.07H68v2.3l.08,1.16a.82.82,0,0,1-.13.34q-.11.17-.63.17t-.59-.09a.56.56,0,0,1-.09-.26l.09-1.36V40.85H63.12l-.44,0-.31-.3.66.06Zm-2.58-3.32q1.72.8,1.67,1.5a1.6,1.6,0,0,1-.3,1,.76.76,0,0,1-.6.24q-.56,0-.63-.37a2,2,0,0,1,0-.69,4.71,4.71,0,0,0,.05-.48,1.11,1.11,0,0,0-.06-.37,1.89,1.89,0,0,0-.23-.45,1.59,1.59,0,0,0-.21-.24.2.2,0,0,1-.09-.16q0-.08.22,0ZM69,40l-.3.26c-.06.05-.11.06-.15,0s0-.09,0-.18l.13-.23q.06-.12.47-1t.5-1.15l.14-.44,0-.13s.09-.05.19,0q1.4.67,1.39.9a.2.2,0,0,1-.09.14l-.24.06-.26.06Q70,39.06,69,40Z"
        transform="translate(-29.4 -18)" />
    <path
        d="M75.93,35.73h5.65l.56-.68c.12-.14.2-.2.25-.2a2.42,2.42,0,0,1,.66.45q.54.44.5.54t-.08.1H79a3.05,3.05,0,0,1,.86.23.22.22,0,0,1,.1.18q0,.09-.46.23l-.61.76h1.78a2.3,2.3,0,0,1,.49-.56.58.58,0,0,1,.33.08q.85.43.92.61t-.34.46v1.89l0,.74q-.05.39-.68.39t-.63-.24v-.33h-.73a.82.82,0,0,1-.16.25v3.18a1.28,1.28,0,0,1-.07.4q-.07.21-.49.34a2.69,2.69,0,0,1-.72.13q-.3,0-.34,0a.67.67,0,0,1-.09-.25A.8.8,0,0,0,78,44a1.52,1.52,0,0,0-.33-.24l-.34-.13-.16-.06c-.05,0-.07,0-.07-.09s0-.06.1-.05l.71.1q.68.1.75,0a.58.58,0,0,0,.08-.31V40.38h-1v.18a.26.26,0,0,1-.24.28,3.26,3.26,0,0,1-.53,0q-.29,0-.34,0a.36.36,0,0,1-.08-.2l0-.9V37.67l0-.78,0,0a1.08,1.08,0,0,1,.32.1l.89.38h.43q.11-.36.15-.57t.12-.82h-2.6l0,.81q0,.26,0,.89t0,1.31q0,.68-.06,1.28A10.36,10.36,0,0,1,75.39,42a5.84,5.84,0,0,1-1.54,2.43l-.23.24s-.08.06-.11,0a.11.11,0,0,1,0-.12l.17-.29a5.06,5.06,0,0,0,.26-.55,7.18,7.18,0,0,0,.29-.86,9.9,9.9,0,0,0,.23-1.63q.09-1.14.1-1.49t0-1.2q0-1.13,0-1.43t0-.74l0-.6-.08-.52c0-.06.1-.06.29,0ZM78,42a12.64,12.64,0,0,1-1.75,1.36l-.89.53a3.71,3.71,0,0,1-.53.28l-.28.11q-.09,0-.11,0s0-.07,0-.1l.25-.19A7.57,7.57,0,0,0,76,42.76a6.18,6.18,0,0,0,.85-1.31l.12-.28L77,41h.05a2,2,0,0,1,.8.4q.59.4.59.49T78,42Zm-.35-3.29h3.15v-1.2H77.69Zm3.15,1.41V39H77.69v1.2Zm-.55,1.38a.1.1,0,0,1,0-.06s0,0,.09,0l1.15.16a2.14,2.14,0,0,1,1.5.7,1.83,1.83,0,0,1,.4.8,1.29,1.29,0,0,1,0,.43.9.9,0,0,1-.25.37.6.6,0,0,1-.53.12.54.54,0,0,1-.38-.17,1.68,1.68,0,0,1-.22-.42,4.76,4.76,0,0,0-.41-.76A2.38,2.38,0,0,0,81,42a4.68,4.68,0,0,0-.5-.31C80.36,41.59,80.29,41.55,80.29,41.54Z"
        transform="translate(-29.4 -18)" />
    <path
        d="M86,44.45l.35-.38a2.42,2.42,0,0,0,.19-.27l.14-.25.06-.17a.37.37,0,0,0,0-.2.15.15,0,0,0,0-.08l-.07,0-.13,0a.27.27,0,0,1-.15,0,.82.82,0,0,1-.57-.28.85.85,0,0,1-.19-.55.76.76,0,0,1,.24-.55,1,1,0,0,1,.69-.27,1,1,0,0,1,.79.33,1.24,1.24,0,0,1,.34.87,1.8,1.8,0,0,1-.17.69,2.14,2.14,0,0,1-.42.62q-.26.26-.49.46a1.76,1.76,0,0,1-.36.25.47.47,0,0,1-.2,0,.13.13,0,0,1-.11-.06.11.11,0,0,1,0-.11A.33.33,0,0,1,86,44.45Z"
        transform="translate(-29.4 -18)" />
    <path
        d="M99.75,40.65V36h-3l-.49,0-.32-.3.71.06h6.2q.36-.45.54-.69t.25-.24a.44.44,0,0,1,.23.09,5.44,5.44,0,0,1,.69.62q.26.28.24.35s-.08.07-.18.07H101v4.6h2.49a5.38,5.38,0,0,1,.78-.93q.09,0,.26.11a7,7,0,0,1,.71.65q.2.23.18.3s-.08.07-.18.07H101v2.3l.08,1.16a.82.82,0,0,1-.13.34q-.11.17-.63.17t-.59-.09a.56.56,0,0,1-.09-.26l.09-1.36V40.85H96.12l-.44,0-.31-.3.66.06Zm-2.58-3.32q1.72.8,1.67,1.5a1.6,1.6,0,0,1-.3,1,.76.76,0,0,1-.6.24q-.56,0-.63-.37a2,2,0,0,1,0-.69,4.71,4.71,0,0,0,.05-.48,1.11,1.11,0,0,0-.06-.37,1.89,1.89,0,0,0-.23-.45,1.59,1.59,0,0,0-.21-.24.2.2,0,0,1-.09-.16q0-.08.22,0ZM102,40l-.3.26c-.06.05-.11.06-.15,0s0-.09,0-.18l.13-.23q.06-.12.47-1t.5-1.15l.14-.44,0-.13s.09-.05.19,0q1.4.67,1.39.9a.2.2,0,0,1-.09.14l-.24.06-.26.06Q103,39.06,102,40Z"
        transform="translate(-29.4 -18)" />
    <path
        d="M106.43,37.9l.56,0h1V36L107.9,35a.16.16,0,0,1,.16-.05q1,.18,1.15.24c.11,0,.17.09.18.15s-.1.21-.31.35V38h.15l.3-.43c.08-.11.15-.17.2-.18a.35.35,0,0,1,.2.07l.27.26a3.24,3.24,0,0,1,.26.29.14.14,0,0,1,0,.13.09.09,0,0,1-.1.06h-1.31v3.07l1.26-.28.26-.06c.06,0,.1,0,.12.05s0,.08-.13.13l-.32.16-1.08.56-1.49.84-.38.2-.23.15q-.09,0-.11,0a.62.62,0,0,1-.08-.23l-.26-.95a.47.47,0,0,1,0-.18l.06-.05.23,0,.31,0,.77-.1V38.15h-.91l-.39,0Zm6.41-2.12q-.56,1.17-.91,1.75h2.89a2.34,2.34,0,0,1,.4-.49.34.34,0,0,1,.2,0q1.07.52,1.08.68t-.35.41q0,.6,0,.89l0,1.29q0,.84-.08,1.29t-.14,1.11a3.78,3.78,0,0,1-.35,1.16,1.52,1.52,0,0,1-1,.73q-.71.23-.84.12a.12.12,0,0,1-.06-.06,1.31,1.31,0,0,1,0-.24,1.19,1.19,0,0,0-.17-.47,1.09,1.09,0,0,0-.64-.43l-.24-.08c-.06,0-.09,0-.08-.09a.1.1,0,0,1,.11-.07l.49.05a2,2,0,0,0,1.15-.07,1.67,1.67,0,0,0,.44-.84,8.21,8.21,0,0,0,.23-2q0-1.34,0-2.15v-.57H111.8a8.68,8.68,0,0,1-1.53,1.88l-.14.13-.13.09a.08.08,0,0,1-.08,0s0-.05,0-.12l.1-.14.1-.16a10.39,10.39,0,0,0,.74-1.65,12.82,12.82,0,0,0,.55-1.85,5.15,5.15,0,0,0,.14-.92c0-.09,0-.14.08-.15l.82.22q.79.22.8.4T112.84,35.78Zm-2.18,7-.32-1-.06-.19.05,0h.19l.42,0a18.19,18.19,0,0,0,2.61-.41l.6-.13q.47-.1.33,0a1.84,1.84,0,0,1-.33.21l-.7.34-.82.43-1,.53-.53.31-.29.17-.08,0A.69.69,0,0,1,110.66,42.73ZM111.4,39a.24.24,0,0,1-.06-.14s.09,0,.3,0l.38.1a1.67,1.67,0,0,1,.77.43.86.86,0,0,1,.27.67.68.68,0,0,1-.16.39.8.8,0,0,1-.4.23.5.5,0,0,1-.48-.1.4.4,0,0,1-.18-.24,2.88,2.88,0,0,1,0-.47,1.15,1.15,0,0,0-.16-.59l-.18-.23Z"
        transform="translate(-29.4 -18)" />
    <path
        d="M117.39,37.82s0-.06.15-.05h.24a3.28,3.28,0,0,1,.82.22.71.71,0,0,1,.55.64.81.81,0,0,1-.2.64,1.15,1.15,0,0,1-.32.18.54.54,0,0,1-.64-.2.71.71,0,0,1-.11-.32l0-.19a1.15,1.15,0,0,0-.27-.68C117.45,37.95,117.39,37.86,117.39,37.82Zm3.09-1.58.12-.27c0-.06,0-.08.08-.05a.09.09,0,0,1,0,.1l-.06.26q-.1.39-.33,1.19T120,38.68q-.11.4-.35,1.48a13.9,13.9,0,0,0-.28,1.54,6,6,0,0,0,0,.75,1.84,1.84,0,0,0,0,.5l.12.37a3.1,3.1,0,0,1,.11.39.89.89,0,0,1,0,.35,1,1,0,0,1-.25.43.83.83,0,0,1-.68.23q-.46,0-.54-.24a1.51,1.51,0,0,1-.09-.33,3,3,0,0,1,0-.38q0-.28,0-.48a5,5,0,0,0,0-.55,2.64,2.64,0,0,0-.1-.5,1.79,1.79,0,0,0-.19-.37.87.87,0,0,0-.23-.26l-.11-.08a.11.11,0,0,1,0-.08s.06,0,.16,0l.18.05.17,0a.32.32,0,0,0,.26-.11,1,1,0,0,0,.21-.34q.09-.23.35-.78t.74-1.72Q120,37.38,120.48,36.24Zm-.52-.15a.86.86,0,0,1-.23.52.65.65,0,0,1-.56.24.51.51,0,0,1-.34-.12.55.55,0,0,1-.18-.26q0-.15-.12-.52a1.05,1.05,0,0,0-.31-.57l-.11-.09,0,0v0s0,0,0-.05a1,1,0,0,1,.42,0q1,0,1.24.41A1.3,1.3,0,0,1,120,36.09Zm2.38,1.26h-.73l.05.2a.79.79,0,0,1,0,.2,2.3,2.3,0,0,1-.1.52.87.87,0,0,1-.3.46.76.76,0,0,1-.49.16.63.63,0,0,1-.47-.2.52.52,0,0,1-.17-.41.51.51,0,0,1,.06-.21,1.19,1.19,0,0,1,.23-.29l.34-.35a1.31,1.31,0,0,0,.18-.32.86.86,0,0,0,.06-.34,1,1,0,0,1,0-.23s.05,0,.12,0a1.64,1.64,0,0,1,.39.62h.85q.13-.44.19-.69t.16-.68q.09-.43.11-.58l0-.35s.06-.05.17,0l.6.12q1,.22,1,.38t-.32.26q-.38.91-.62,1.58h1.8q.28-.43.39-.45a.43.43,0,0,1,.27.06l.61.41q.72.45.66.7t-.35.16h-.27a2.83,2.83,0,0,0-1.27.53l-.38.25c-.13.09-.2.11-.23.08a.12.12,0,0,1,0-.12l.21-.43a8.5,8.5,0,0,0,.4-1h-1.79q0,.24,0,.54a8.67,8.67,0,0,0,.24,1,5.71,5.71,0,0,0,.34,1l.27.56a11.13,11.13,0,0,0,.93-1.27l.16-.27.06-.13q.09-.06.32.1l.53.37a3.15,3.15,0,0,1,.38.35c.12.13.18.22.16.26s-.2.13-.47.11q-.9.38-1.9.86a6.57,6.57,0,0,0,1.11,1.55q.45.4.83.68a3,3,0,0,0,.52.33l.19.09a.12.12,0,0,1,.08.12.09.09,0,0,1-.08.09l-.28.06a1.4,1.4,0,0,0-.62.28q-.18.17-.34.35c-.1.12-.17.18-.2.18s-.07,0-.1-.06a4.49,4.49,0,0,1-.85-1,10.25,10.25,0,0,1-.67-1.27,8.18,8.18,0,0,1-.54-1.86,14.05,14.05,0,0,1-.22-1.43l-.11-1.5a16.51,16.51,0,0,1-1,2l.32.12q.19.08,0,.24l-.17.14v3l1.61-.53c.07,0,.11,0,.12,0a.1.1,0,0,1,0,.1l-.38.31q-1.19,1-1.77,1.54l-.28.27c-.1.09-.16.14-.18.13s0,0-.05-.11l-.39-1.19q-.05-.15,0-.19l.16-.13a.34.34,0,0,0,.1-.28V40.86a7.85,7.85,0,0,1-1.57,1.3l-.3.17q-.1.05-.15,0s0-.11.07-.18l.17-.16a7.06,7.06,0,0,0,1.69-2.35Q122,38.33,122.35,37.35Z"
        transform="translate(-29.4 -18)" />
    <path
        d="M130.56,36.53h2.89a.84.84,0,0,1-.27-.2.65.65,0,0,1-.1-.38v-.37a1.42,1.42,0,0,0-.08-.38.47.47,0,0,0-.19-.27.78.78,0,0,1-.19-.15s0-.09.12-.11a3.34,3.34,0,0,1,.81.1,1.24,1.24,0,0,1,.82.45,1.06,1.06,0,0,1,.23.57.79.79,0,0,1-.52.73h2.57q.52-.85.65-.86a.51.51,0,0,1,.3.09,5.4,5.4,0,0,1,.64.52q.3.28.29.37c0,.06-.05.09-.13.09h-7.85q0,2.18-.07,3.21t-.11,1.7a4.33,4.33,0,0,1-.31,1.18,4.82,4.82,0,0,1-.58,1,4.73,4.73,0,0,1-.7.76l-.16.14q-.11.1-.15,0s0-.08,0-.15l.19-.29a3.16,3.16,0,0,0,.46-1.18,10.84,10.84,0,0,0,.16-1.31q0-.64.06-1.28,0-.83,0-1.9t0-1.42a4.59,4.59,0,0,0,0-.54l-.05-.45q0-.31,0-.33s.11,0,.27.09ZM133.41,43a5.35,5.35,0,0,1-.6-1,5.66,5.66,0,0,1-.4-1h-.33l-.69,0-.31-.29.82.05H135l.19-.28q.09-.15.16-.17a.46.46,0,0,1,.24.06q1.28.61,1.2.83t-.43.21A18.3,18.3,0,0,1,135,42.9a6.46,6.46,0,0,0,3,.54h.31c.07,0,.11,0,.12.06s0,.09-.11.13l-.27.14a1.84,1.84,0,0,0-.32.2,1.29,1.29,0,0,0-.4.54.69.69,0,0,0,0,.16v.12c0,.11-.14.14-.32.09a8.14,8.14,0,0,1-2.76-1.24,9.14,9.14,0,0,1-1.82.77,8.44,8.44,0,0,1-2.38.28h-.37c-.08,0-.11,0-.09-.07a.11.11,0,0,1,.08-.08l.35-.06.61-.11a6.28,6.28,0,0,0,1.4-.52A7.21,7.21,0,0,0,133.41,43Zm-2.75-4.8.77,0h.49v-.43l0-.85a.41.41,0,0,1,.2,0,9.34,9.34,0,0,1,1,.13c.11,0,.17.07.19.12s-.07.18-.24.29v.75h1.62V37.8l-.05-.77q0-.09.21-.06l.53,0q.71.1.73.26c0,.06-.08.15-.25.26v.69h.61q.43-.74.55-.75a.5.5,0,0,1,.29.1,3.46,3.46,0,0,1,.61.55q.16.2.13.26s-.06.06-.15.06h-2v.72l0,.67a.54.54,0,0,1-.27.27.82.82,0,0,1-.35.1q-.57,0-.57-.21v-.2h-1.62v.16a.29.29,0,0,1-.13.23,1,1,0,0,1-.53.13,1,1,0,0,1-.47,0,.29.29,0,0,1-.09-.18l.05-.76v-.88h-.37l-.69,0ZM135,41h-2.34a5.21,5.21,0,0,0,.3.52,4.27,4.27,0,0,0,1,.91A5.52,5.52,0,0,0,135,41Zm-1.91-1.41h1.61V38.42h-1.62Z"
        transform="translate(-29.4 -18)" />
    <path
        d="M142.27,36.89H140l-.34,0-.31-.3.73.06h2.27a7.2,7.2,0,0,0,.49-1.3l.15-.54v-.11l.06,0,.52.1q.48.1.77.19l.45.15c.13,0,.19.09.2.13a.16.16,0,0,1,0,.12,1.53,1.53,0,0,1-.41.17l-.66,1.1h3.64l.51-.69c.11-.15.19-.23.24-.23a.39.39,0,0,1,.21.09,5.63,5.63,0,0,1,.92.77.39.39,0,0,1,.08.2s-.07.05-.18.05h-5.54q-.44.69-.89,1.3l.5.23h2.88a2.23,2.23,0,0,1,.42-.49A.43.43,0,0,1,147,38a3.6,3.6,0,0,1,1,.6q0,.14-.32.38v5q0,.59-.37.69a5.46,5.46,0,0,1-.84.16q-.47.05-.52,0a.38.38,0,0,1,0-.16,1.23,1.23,0,0,0-.13-.37.82.82,0,0,0-.46-.37l-.35-.14c-.09,0-.12-.06-.11-.11s.08-.06.2-.05l.42,0q.74.06.83,0a.51.51,0,0,0,.09-.33V41.88h-3.08v1.69l.05.92a.54.54,0,0,1-.15.26q-.12.12-.83.11a.5.5,0,0,1-.3-.06.38.38,0,0,1-.08-.26l.06-1.12v-4.3a11.56,11.56,0,0,1-2.2,1.78l-.29.17q-.11.06-.16,0s0-.08.06-.16l.28-.26a6.23,6.23,0,0,0,.76-.88q.44-.59.82-1.2A17.17,17.17,0,0,0,142.27,36.89ZM146.42,40V38.61h-3.08V40Zm-3.08,1.63h3.08V40.24h-3.08Z"
        transform="translate(-29.4 -18)" />
    <path
        d="M152.65,36a6,6,0,0,0,1.36-.82l.29-.25c.06-.06.11-.08.15-.08a.66.66,0,0,1,.14.13l.5.48q.48.47.43.57t-.32.1l-.35,0-2.17.14,0,1.65h1q.33-.43.42-.45a.49.49,0,0,1,.27.05l.52.3a1.33,1.33,0,0,1,.4.29q0,.17-.3.35v1.32l0,.82a.65.65,0,0,1-.5.32,1.86,1.86,0,0,1-.5,0q-.23,0-.23-.23v-.43h-1.17q0,.28-.1.81a3.68,3.68,0,0,1-.54,1.32,5.94,5.94,0,0,1-1.09,1.35l-.34.31c-.06.06-.11.07-.14,0a.1.1,0,0,1,0-.12l.26-.38a4.92,4.92,0,0,0,.45-.92,6,6,0,0,0,.34-1.36,15,15,0,0,0,.07-2.2q0-1.46-.05-2.28l0-.87,0-.42a.12.12,0,0,1,0-.05s.1,0,.29.09Zm4.42,0q.28-.12.79-.4a6.35,6.35,0,0,0,.65-.39l.25-.19.15-.12H159l.49.42a5.82,5.82,0,0,1,.61.57c.09.11.12.18.1.21s-.07.05-.17.05l-.55,0-1.17,0-1.26,0,0,2.25h1.74a3.61,3.61,0,0,1,.69-.87.4.4,0,0,1,.26.12l.43.38q.45.42.41.49a.16.16,0,0,1-.15.08h-1a.65.65,0,0,1-.23.24v4.33l.06,1.07a.74.74,0,0,1-.13.28q-.11.16-.62.16t-.57-.08a.45.45,0,0,1-.06-.22l.09-1.24V38.7H157l-.06,1a9.09,9.09,0,0,1-.18,1.21,3.38,3.38,0,0,1-.77,1.46,4.49,4.49,0,0,1-1.64,1.2,11.06,11.06,0,0,1-1.68.63l-.37.1c-.07,0-.12,0-.13,0s0-.09.1-.12l.4-.17a6,6,0,0,0,1.5-.93,4.79,4.79,0,0,0,1-1.13,3.52,3.52,0,0,0,.45-1.27,12.38,12.38,0,0,0,.11-2q0-1.23,0-1.77l0-.82,0-.61s.11,0,.26,0Zm-4.4,4.16h1.16v-2h-1.14Z"
        transform="translate(-29.4 -18)" />
    <path
        d="M161.46,35.81l.93.06h6.82l.55-.74c.13-.17.23-.26.29-.26a.47.47,0,0,1,.26.1l.46.38a3.67,3.67,0,0,1,.5.48q.13.17.1.22s-.07.05-.16.05h-4a.41.41,0,0,1-.31.3v2.13a9.84,9.84,0,0,1,1.66.41,1.82,1.82,0,0,1,1.07.82,1.46,1.46,0,0,1,.22.95.9.9,0,0,1-.27.49.69.69,0,0,1-.52.18.65.65,0,0,1-.52-.19,2.06,2.06,0,0,1-.28-.73,2.1,2.1,0,0,0-.47-.92,4.81,4.81,0,0,0-.89-.75v4.3l.08,1.3a.59.59,0,0,1-.11.27.57.57,0,0,1-.38.16l-.56.05c-.18,0-.29,0-.32-.07a.47.47,0,0,1-.06-.23l.1-1.5v-7h-3.16l-.71,0Z"
        transform="translate(-29.4 -18)" />
    <path
        d="M173.71,35.86v7.25l.06,1.33a.59.59,0,0,1-.54.38q-.44.07-.53,0a.39.39,0,0,1-.11-.23l.08-1.44V36.63l-.05-1.49s.1,0,.23,0l1,.47h.76l.21-.34c.06-.1.11-.15.17-.16a1.94,1.94,0,0,1,.75.3c.35.2.53.35.53.46s-.15.2-.45.27q-.67,1.09-1.1,2a3.36,3.36,0,0,1,1.18,1.28,2.76,2.76,0,0,1,.22,1.16,1.66,1.66,0,0,1-.59,1.39,1.27,1.27,0,0,1-.87.31.11.11,0,0,1-.08,0,.35.35,0,0,1,0-.18,1,1,0,0,0-.15-.39.7.7,0,0,0-.32-.32l-.19-.08c-.09,0-.13-.07-.12-.11s.07-.07.17-.07h.2a.88.88,0,0,0,.68-.31,1.43,1.43,0,0,0,.29-1,2,2,0,0,0-.44-1.25l-.16-.21-.14-.14a.94.94,0,0,1,0-.25l.09-.4.08-.58.09-.64,0-.49Zm5.85,0a2.36,2.36,0,0,0,.23-.24.4.4,0,0,1,.18-.15.56.56,0,0,1,.26.06q.9.42,1,.5c.09.05.13.11.14.16s-.15.21-.45.31q-.63.7-1.26,1.28a9.32,9.32,0,0,0,2.51.53l.32,0c.06,0,.1,0,.1.08s0,.09-.1.12l-.23.12a1.32,1.32,0,0,0-.43.37,1.62,1.62,0,0,0-.26.44q-.07.19-.17.19a4.21,4.21,0,0,1-1-.33,4.26,4.26,0,0,1-1.47-1,9,9,0,0,1-2.11,1.1l-.33.12-.23.09c-.11,0-.17,0-.18,0s0-.08.11-.12l.17-.1.29-.19a7.43,7.43,0,0,0,1.71-1.51,6.22,6.22,0,0,1-.61-1.36,7.6,7.6,0,0,1-1.55,1.54L176,38a.92.92,0,0,1-.25.15c-.06,0-.1,0-.11,0s0-.08.09-.16l.16-.17.24-.31a5.85,5.85,0,0,0,.55-.93,8,8,0,0,0,.34-.78c0-.15.11-.35.18-.59l.12-.43a.33.33,0,0,1,0-.1h.1a7.11,7.11,0,0,1,1.11.2q.4.12.42.17t-.39.28l-.38.52Zm-2.38,4.8-.58,0-.29-.31.75.06h1.48V40l-.05-.76s0-.07.1-.06h.28l.56.09q.47.06.52.19c0,.09-.09.19-.31.32v.67h.64q.23-.28.35-.46t.19-.19s.12,0,.23.09a4.3,4.3,0,0,1,.49.42q.19.2.19.27c0,.05,0,.08-.13.08h-2v1.86h.89q.45-.6.56-.72a.35.35,0,0,1,.18-.12.45.45,0,0,1,.23.11l.37.28c.37.32.54.5.51.57a.17.17,0,0,1-.17.1h-2.58v.82l.06,1a.49.49,0,0,1-.07.19c0,.06-.2.11-.49.13a1.12,1.12,0,0,1-.52,0,.36.36,0,0,1-.13-.2l.06-1.11V42.7h-1.39l-.34.26a.33.33,0,0,1-.23.08q-.11,0-.46-.35c-.23-.23-.35-.36-.34-.39s.13-.11.4-.23l.25-.63.11-.41a.16.16,0,0,1,.09,0l.63.15q.59.15.61.22t-.31.27l-.34.87h1.32V40.63Zm2.44-4.6H178l-.05.06a4.36,4.36,0,0,0,.81,1.16A8.34,8.34,0,0,0,179.62,36Z"
        transform="translate(-29.4 -18)" />
    <path
        d="M185.61,41.85a1.44,1.44,0,0,1,.69.18,1.31,1.31,0,0,1,.53.53,1.53,1.53,0,0,1,.2.73,1.36,1.36,0,0,1-.19.71,1.42,1.42,0,0,1-.52.54,1.31,1.31,0,0,1-.71.18,1.44,1.44,0,0,1-.73-.19,1.36,1.36,0,0,1-.52-.52,1.48,1.48,0,0,1-.18-.74,1.45,1.45,0,0,1,.19-.71,1.29,1.29,0,0,1,.54-.52A1.62,1.62,0,0,1,185.61,41.85Zm0,.44a1.15,1.15,0,0,0-.47.14.9.9,0,0,0-.38.35,1,1,0,0,0-.13.49.89.89,0,0,0,.13.49.92.92,0,0,0,.35.37,1,1,0,0,0,.49.13.88.88,0,0,0,.49-.12,1,1,0,0,0,.5-.88,1,1,0,0,0-.14-.48.94.94,0,0,0-.38-.36A1,1,0,0,0,185.6,42.29Z"
        transform="translate(-29.4 -18)" />
    <rect class="step18-2" x="189.41" y="46.08" width="54.61" height="11.38" />
    <rect class="step18-3" x="97.26" y="46.08" width="54.61" height="11.38" />
    <path
        d="M128.88,91.8h-.64v.68a.56.56,0,0,1-.07.25c0,.09-.24.13-.58.13a.41.41,0,0,1-.25,0,.28.28,0,0,1-.1-.12l0-1V88.54l0-1,0,0,.23.08.77.35h.52a1.23,1.23,0,0,1,.28-.41.35.35,0,0,1,.24,0l.67.3a.35.35,0,0,1,.21.24q0,.13-.28.32v2.69l.06,1a.58.58,0,0,1-.08.15.56.56,0,0,1-.33.11,1.51,1.51,0,0,1-.39,0c-.19,0-.28-.1-.28-.24Zm2.71-.77h-.27l-.57,0-.27-.29.7.07h.61a11.3,11.3,0,0,0,.8-.93h-1.78l-.57,0-.28-.28.7.06h.84V88.22H131l-.58,0-.27-.29.7.07h.63v-.59l-.05-.95h0l.6,0a2.66,2.66,0,0,1,.69.13q.12.07.13.13t-.29.31V88h.09a3,3,0,0,0,.29-.35c.12-.16.2-.25.25-.25s.13,0,.25.15l.29.25.16.18a6.75,6.75,0,0,0,.35-.63l.13-.31a1.9,1.9,0,0,1,.13-.28s.07,0,.15,0a1.41,1.41,0,0,0,.25.13,6.24,6.24,0,0,1,.61.34q.41.24.4.35c0,.11-.15.15-.38.14q-.74.95-1.56,1.91h1.06c.26-.36.42-.57.47-.62a.3.3,0,0,1,.16-.1.37.37,0,0,1,.24.09l.34.29.37.34c0,.05.07.1.05.13s-.06.06-.15.06h-2.71q-.42.46-.88.93h1.12a1.64,1.64,0,0,1,.37-.37s.13,0,.26.12l.57.36c.31.23.48.39.5.46a.19.19,0,0,1,0,.18s-.11.05-.23,0h-.29a5.67,5.67,0,0,0-1.51.53.24.24,0,0,1,.14.16c0,.06-.07.13-.24.21v.55h1.2q.46-.65.58-.67a.49.49,0,0,1,.32.12l.25.21.25.24c.13.12.18.2.17.24a.13.13,0,0,1-.13.06h-2.63v1.85a1.32,1.32,0,0,1-.09.4q-.08.21-1.07.32a.58.58,0,0,1-.25,0,.19.19,0,0,1-.12-.09.63.63,0,0,1,0-.19.76.76,0,0,0-.09-.26.77.77,0,0,0-.37-.28l-.39-.14-.27-.11c-.08,0-.11-.06-.1-.1s.08-.06.19,0l.28,0q1,.18,1.1.07a.31.31,0,0,0,.13-.22V93.26h-1.72l-.5,0-.23-.15a16.5,16.5,0,0,1-1.72.88l-.29.12c-.11,0-.16,0-.17,0A.12.12,0,0,1,128,94l.24-.15A18.42,18.42,0,0,0,131.59,91Zm-3.35.58h.63v-3.5h-.64Zm2,1.42.45,0h1.8v-.36l0-.72s.07,0,.14,0l.37,0,.35.06.78-1H132.8A20.91,20.91,0,0,1,130.28,93Zm3.53-4.81h-1.2v1.49h.15A15.8,15.8,0,0,0,133.81,88.22Z"
        transform="translate(-29.4 -18)" />
    <path
        d="M139.24,92.15h-.7V93q0,.33-.42.34a1.41,1.41,0,0,1-.46,0,.22.22,0,0,1-.07-.14l.06-1.2V88.61l-.05-1.16.06,0,.24.1.75.35h.49a1.87,1.87,0,0,1,.33-.47s.13,0,.25.08q.72.42.75.53t-.27.34v3.27l.06,1q-.11.28-.66.34-.37,0-.37-.2Zm-.7-.2h.7V88.07h-.7Zm5.37-1a.84.84,0,0,1-.29.23,11.06,11.06,0,0,1-.68.91h2.12q.23-.41.32-.45c.06,0,.17,0,.32.08q.78.44.8.55t-.28.34V95a1.3,1.3,0,0,1-.07.42.8.8,0,0,1-.37.29.79.79,0,0,1-.6.08.18.18,0,0,1-.1,0,.67.67,0,0,1-.05-.26.39.39,0,0,0-.23-.33l-.2-.09c-.07,0-.11-.06-.1-.11s.06-.06.14-.06h.18a.44.44,0,0,0,.3-.07.27.27,0,0,0,.07-.2V92.3h-.61a.53.53,0,0,1-.16.26v1.78l0,.8a.46.46,0,0,1-.44.24.84.84,0,0,1-.41,0,.3.3,0,0,1-.08-.09l0-.91v-2h-.43a.38.38,0,0,1-.12.2v1.85l0,.83a.43.43,0,0,1-.41.25.81.81,0,0,1-.38,0,.31.31,0,0,1-.09-.09l0-.83V92.3h-.54v2.32l0,.79q-.07.34-.61.35a.52.52,0,0,1-.28,0,.34.34,0,0,1-.11-.1l.06-1.07V92.69l-.06-.94.09,0,.18.08.77.3h.56a3.43,3.43,0,0,0,.22-.79l0-.35h-1.5l-.53,0-.24-.29.66.06h4.33c.08-.1.18-.25.32-.43s.23-.29.29-.3a.4.4,0,0,1,.26.12l.41.34.26.26q.21.21-.12.21ZM142,89.6h1v-2l0-1a.26.26,0,0,1,.17,0,4.63,4.63,0,0,1,1,.19c.09,0,.14.09.14.13s-.08.18-.27.25V89.6h1V88.07l0-.78,0,0,.09,0a.78.78,0,0,0,.25,0,3.38,3.38,0,0,1,.56.05q.38.06.41.18t-.27.29v1.32l0,.62a.43.43,0,0,1-.37.27,2,2,0,0,1-.43,0c-.19,0-.29-.06-.29-.17V89.8h-3c-.18.21-.3.32-.37.33a.68.68,0,0,1-.32-.07,1,1,0,0,1-.39-.27c-.11-.12-.16-.2-.15-.25s.09-.15.27-.29V88.07l0-.79s.06-.06.13-.06a7,7,0,0,1,.82.09c.16,0,.25.09.27.17s-.06.18-.22.26Z"
        transform="translate(-29.4 -18)" />
    <path
        d="M149.35,90.81q0-.2,0-.63t0-.85c0-.27,0-.53,0-.76l0-.57,0-.18s0,0,.14,0l1.22.5h2.19a.62.62,0,0,1-.4-.58l0-.39a.81.81,0,0,0-.12-.44l-.1-.15-.09-.11c-.06-.1,0-.14.13-.12q1.2.18,1.38.6a1.61,1.61,0,0,1,.17.58.67.67,0,0,1-.57.61h2.17q.65-.84.75-.84a.55.55,0,0,1,.22.14l.53.42q.38.29.33.38a.15.15,0,0,1-.15.1h-6.61q0,.16,0,.63t0,1.59a16.47,16.47,0,0,1-.14,1.78,3.84,3.84,0,0,1-.33,1.14,4.35,4.35,0,0,1-.71,1,3.92,3.92,0,0,1-.9.76l-.22.13a.55.55,0,0,1-.22.09.08.08,0,0,1-.07,0s0-.06,0-.11l.09-.07.16-.18a3.84,3.84,0,0,0,1-1.83,18.5,18.5,0,0,0,.25-2.15q-.55.48-.87.8l-.2.2c-.09.09-.14.13-.16.13s0,0-.05-.12l-.32-1.06a.19.19,0,0,1,0-.08h.05l.15,0,.41-.06A6.7,6.7,0,0,0,149.35,90.81Zm-1.3-1.92-.08-.15-.06-.11c0-.06,0-.08.07-.07l.16,0,.35.15a1.28,1.28,0,0,1,.48.38.93.93,0,0,1,.21.5.52.52,0,0,1-.16.42.57.57,0,0,1-.75.07.37.37,0,0,1-.17-.25,1.35,1.35,0,0,1,0-.31c0-.11,0-.23,0-.33A.72.72,0,0,0,148.05,88.89Zm7.14,2.34q.26-.45.36-.46l.08,0,.4.16a2.27,2.27,0,0,1,.53.26c.12.09.18.15.18.18s-.1.16-.31.35v3.41a.61.61,0,0,1-.42.61,2.23,2.23,0,0,1-1,.14.23.23,0,0,1-.16,0,.24.24,0,0,1,0-.14v-.12a.67.67,0,0,0-.53-.58l-.31-.09c-.1,0-.14-.07-.12-.12s.07-.08.16-.08l.43,0a3.24,3.24,0,0,0,.58,0,.33.33,0,0,0,.22-.09.35.35,0,0,0,.05-.22V91.42h-1.54l-.06.4-.09.4a4.6,4.6,0,0,1,.91.45,1.43,1.43,0,0,1,.42.43.79.79,0,0,1,.12.47.67.67,0,0,1-.2.42.66.66,0,0,1-.39.19.44.44,0,0,1-.34-.08.35.35,0,0,1-.17-.25c0-.1,0-.25,0-.45a2.35,2.35,0,0,0-.09-.52,2.1,2.1,0,0,0-.25-.51c-.07.17-.16.38-.29.63a3.06,3.06,0,0,1-1.07,1l-.17.11c-.13.09-.22.11-.25.08s0-.08,0-.13l.08-.07.16-.21.14-.18a2.43,2.43,0,0,0,.25-.47,3.85,3.85,0,0,0,.21-.71,5.23,5.23,0,0,0,.1-.69l0-.28h-1.09V94.7l0,.79a.41.41,0,0,1-.08.21.76.76,0,0,1-.31.15,1.08,1.08,0,0,1-.47,0,.3.3,0,0,1-.17-.05.27.27,0,0,1-.07-.16l0-1V91.79l0-1s.07,0,.16,0l1,.38h1c0-.11,0-.24,0-.41s0-.26,0-.28v-.63h-1.69l-.35,0-.25-.28.49.06h4.45l.33-.42c.15-.18.24-.28.28-.28s.1,0,.19.1l.19.16.39.33c.14.13.19.21.17.25s-.08.05-.16.05h-2.74a.5.5,0,0,1-.2.24c0,.31,0,.49,0,.55l0,.53Z"
        transform="translate(-29.4 -18)" />
    <path
        d="M128.41,99.91h.64c.16-.26.27-.4.34-.42a.47.47,0,0,1,.32.08q.69.4.73.54t-.26.34v3.35l0,.72a.52.52,0,0,1-.14.24.82.82,0,0,1-.51.13q-.39,0-.39-.24v-.43h-.82V105a.49.49,0,0,1-.06.25c0,.08-.18.13-.42.15a.77.77,0,0,1-.42,0,.35.35,0,0,1-.11-.17l0-1v-3.68l0-1s.13,0,.28.05Zm-.05,4.12h.82v-3.92h-.82Zm4.1-.18v-3.74l-.74,0-.72,0h-.33c-.13,0-.18,0-.17-.07s.07-.09.17-.11l.33-.06a13.68,13.68,0,0,0,1.9-.48,12.47,12.47,0,0,0,1.33-.5l.28-.13.21-.09a3.19,3.19,0,0,1,.82.55l.36.3c.13.11.19.19.18.23a.17.17,0,0,1,0,.08,1,1,0,0,1-.3,0l-.51,0-.73,0-.91.06c.12,0,.18.08.18.15s-.08.14-.23.21v3.43h1.31a3.49,3.49,0,0,1,.66-.83.35.35,0,0,1,.28.09,4.48,4.48,0,0,1,.54.5q.29.31.27.37s0,.06-.11.06h-2.95v3.25a1,1,0,0,1,0,.17.66.66,0,0,1-.44.45,1.77,1.77,0,0,1-.74.15.32.32,0,0,1-.16,0,.15.15,0,0,1-.07-.09l0-.2a.63.63,0,0,0-.28-.36,1.67,1.67,0,0,0-.52-.27L131,107c-.09,0-.13-.05-.12-.11s.07-.07.19-.06l.45,0h.44a.79.79,0,0,0,.46-.08.38.38,0,0,0,.1-.3V104H131.1l-.61,0-.25-.27.69.06ZM130.68,101a5,5,0,0,1,1.13.88,1.14,1.14,0,0,1,.31,1q-.1.51-.49.56a.61.61,0,0,1-.55-.11.62.62,0,0,1-.18-.36,1.82,1.82,0,0,1,0-.29,4.23,4.23,0,0,0,0-.47,2.83,2.83,0,0,0-.11-.51,1.38,1.38,0,0,0-.24-.45,1.12,1.12,0,0,1-.19-.3c0-.07,0-.08.15,0Zm5.18.68-.39.33-.55.52q-.46.45-.84.79l-.36.32s-.08,0-.11,0,0-.12.05-.21l.11-.17q.07-.11.44-.88a10.33,10.33,0,0,0,.5-1.23l.11-.37c0-.11.11-.12.25,0l.37.17.42.23q.44.22.41.37T135.86,101.71Z"
        transform="translate(-29.4 -18)" />
    <path
        d="M139.36,104.17h-.87V105a.6.6,0,0,1-.07.27q-.07.14-.47.15a.94.94,0,0,1-.46,0,.37.37,0,0,1-.08-.18l.06-1.11v-3.44l0-1,0,0,.16.05.94.42h.69l.16-.27a.35.35,0,0,1,.13-.15s.15,0,.31.09l.62.34c.09.06.14.11.15.16s-.08.18-.25.33v3.14l.06.77a.51.51,0,0,1-.37.28,1,1,0,0,1-.51,0,.2.2,0,0,1-.19-.21Zm1.58-4.54-.57,0-.22-.29.76.06h3.21l.19-.28a.37.37,0,0,1,.15-.15.46.46,0,0,1,.26.05l.54.24c.29.12.43.25.42.37s-.13.18-.36.25l-1,2.46h.55a1.41,1.41,0,0,1,.32-.44q.08,0,.33.11l.37.18q.57.29.55.49c0,.09-.14.19-.37.28a15.77,15.77,0,0,1-.61,1.54,9.16,9.16,0,0,1-.83,1.29,3,3,0,0,0,.71.5,6.58,6.58,0,0,0,.74.27l.56.15.27,0a.15.15,0,0,1,.1.08s0,.08-.12.1l-.27.06a2.13,2.13,0,0,0-.41.21,1.18,1.18,0,0,0-.43.4c-.09.15-.15.23-.19.24s-.1,0-.2-.06a8.21,8.21,0,0,1-1.62-1.21,6.89,6.89,0,0,1-1.63.88,9.39,9.39,0,0,1-1.84.44l-.4.06c-.09,0-.14,0-.16-.05s0-.09.1-.12l.39-.12a6.59,6.59,0,0,0,3-1.8,12.73,12.73,0,0,1-.49-1.36,5.52,5.52,0,0,1-.17-.88l-.16-1.15q-.15,1-.29,1.59a4.07,4.07,0,0,1-.38,1,7.85,7.85,0,0,1-.86,1.15A5.64,5.64,0,0,1,139,107.6l-.35.17c-.11.05-.17.06-.2,0s0-.1.07-.15l.31-.24a6.31,6.31,0,0,0,1.49-1.6A4.83,4.83,0,0,0,141,104a17.45,17.45,0,0,0,.21-1.91c0-.7.07-1.12.07-1.25l0-1.24Zm-1.58.66h-.87V104h.87Zm4.45,4.84a5.22,5.22,0,0,0,.59-1,12.81,12.81,0,0,0,.5-1.56h-.58a2,2,0,0,1-.44.38.35.35,0,0,1-.24,0,2.58,2.58,0,0,1-.45-.28c-.23-.16-.33-.29-.32-.37l.39-.27a21.09,21.09,0,0,0,1-2.35h-1.55a.57.57,0,0,1-.23.28q0,.63,0,.9c0,.18,0,.37,0,.57s.05.42.09.66.11.6.23,1.08A7.07,7.07,0,0,0,143.81,105.13Z"
        transform="translate(-29.4 -18)" />
    <path
        d="M148.11,102.58H149a2.07,2.07,0,0,1,.38-.43.38.38,0,0,1,.19,0,3.06,3.06,0,0,1,.68.34c.18.13.27.22.27.28s-.11.17-.3.26v3.42l.42.2.56.24a5.24,5.24,0,0,0,1.49.14q.6,0,2-.05a16.79,16.79,0,0,0,2.08-.21l.39-.07a.09.09,0,0,1,.09,0s0,.06,0,.11L157,107a1.66,1.66,0,0,0-.29.36.93.93,0,0,0-.13.44c0,.15,0,.24,0,.26a.2.2,0,0,1-.13,0h-.94q-2.13,0-3,0a3.55,3.55,0,0,1-1.28-.21,3,3,0,0,1-.77-.55,1.14,1.14,0,0,0-.67-.39.5.5,0,0,0-.22.05,2.94,2.94,0,0,0-.49.42,3.31,3.31,0,0,0-.5.58c-.08.14-.15.15-.2,0l-.47-.95a.58.58,0,0,1-.06-.15.08.08,0,0,1,0-.06l.07,0,.36-.14a7.87,7.87,0,0,1,.92-.27v-3.64h-.76l-.6,0-.14-.24Zm.21-3.52s.11,0,.32,0a6.17,6.17,0,0,1,1,.26q.65.22.69.73a.89.89,0,0,1-.26.76.76.76,0,0,1-.48.21.58.58,0,0,1-.41-.14.59.59,0,0,1-.2-.33l0-.4a1.15,1.15,0,0,0-.21-.57,4.53,4.53,0,0,0-.32-.34l-.09-.08A.11.11,0,0,1,148.32,99.06Zm2.07,1.7.8,0H154c.09-.29.18-.56.25-.83s.12-.44.14-.53l.08-.39a1.25,1.25,0,0,1,0-.23l0,0,.5.18a2.15,2.15,0,0,1,.67.34c.12.11.18.18.18.22s-.15.15-.41.21q-.45.55-.91,1.06h.91c.29-.37.45-.57.5-.62a.25.25,0,0,1,.13-.08,1.56,1.56,0,0,1,.29.17,3.15,3.15,0,0,1,.48.38c.15.14.21.23.2.27s-.06.06-.12.06h-2.84l0,.09-.2.17-.37.74h1.15q.28-.41.4-.44a1.69,1.69,0,0,1,.64.24c.34.17.51.32.51.43s-.11.18-.32.3v2.42a6.64,6.64,0,0,1-.08,1.53q-.08.12-.68.12c-.19,0-.3,0-.33-.05a.19.19,0,0,1-.05-.11V106h-2.39v.31a.54.54,0,0,1-.08.26q-.07.14-.47.15a1,1,0,0,1-.46,0,.3.3,0,0,1-.09-.13l.06-1.24v-2.44l0-1.13a.12.12,0,0,1,.07-.06l.08,0,.92.32h.27l0-.55V101H151.3l-.63,0Zm1.1-2q1.64.2,1.67.76a1.67,1.67,0,0,1-.07.75.61.61,0,0,1-.63.35.53.53,0,0,1-.37-.13.64.64,0,0,1-.14-.42c0-.19,0-.37,0-.53a.75.75,0,0,0-.29-.46q-.25-.22-.25-.27S151.4,98.8,151.49,98.81Zm.85,4.39h2.38v-1h-2.38Zm0,1.24h2.38v-1h-2.39Zm0,1.33h2.39v-1.13h-2.39Z"
        transform="translate(-29.4 -18)" />
    <path
        d="M159.55,103.27q0-.46,0-.92t0-.91c0-.3,0-.56,0-.79l0-.57,0-.19v0s.08,0,.22.07l1.08.46H163a.6.6,0,0,1-.33-.2.67.67,0,0,1-.08-.27c0-.11,0-.21,0-.32a1.63,1.63,0,0,0-.05-.3.62.62,0,0,0-.19-.29l-.12-.11-.09-.08c-.05-.08,0-.12.11-.12q1.37,0,1.53.46a2.29,2.29,0,0,1,.16.6.73.73,0,0,1-.48.64h2.21q.6-.83.71-.83a.57.57,0,0,1,.16.12l.36.31.25.26c.15.15.21.25.19.29s-.07.05-.15.05h-6.53q0,.42,0,1.21c0,.53,0,.87,0,1q0,.9-.05,1.56a6,6,0,0,1-.21,1.24,4.39,4.39,0,0,1-.6,1.23,3.85,3.85,0,0,1-1,1l-.23.16c-.17.12-.27.16-.3.11a.11.11,0,0,1,0-.14l.07-.07.15-.18a3.78,3.78,0,0,0,.9-1.86,17.87,17.87,0,0,0,.18-1.86v-.3a6,6,0,0,0-.53.39l-.44.35-.27.25c-.09.08-.14.12-.16.12s0,0,0-.12l-.22-1.14v-.08h0l.16,0,.3,0A11.73,11.73,0,0,0,159.55,103.27ZM158.14,101l-.08-.14-.08-.12c0-.06,0-.09.08-.09l.24.08.39.17a1.14,1.14,0,0,1,.41.37,1.07,1.07,0,0,1,.22.56.61.61,0,0,1-1,.56.42.42,0,0,1-.17-.29.91.91,0,0,1,0-.3l0-.27a.87.87,0,0,0,0-.3A1.71,1.71,0,0,0,158.14,101Zm1.55,6.47.46.06h1.06v-3.23l0-1h.09q1.32.12,1.35.37t-.33.36v3.47h.86v-5.34h-1.82l-.35,0-.25-.29.51.06h4q.6-.77.71-.77a2.73,2.73,0,0,1,.54.43q.46.42.43.48s-.08.05-.16.05h-2.28a.52.52,0,0,1-.18.2v2.15h.83q.44-.54.52-.66c.05-.08.11-.12.16-.12l.51.42c.32.27.48.43.46.48s-.06.07-.13.07h-2.35v2.8h1.41a5.06,5.06,0,0,1,.74-.87s.12,0,.23.14a3.35,3.35,0,0,0,.29.27l.38.34c.12.11.16.19.14.23a.14.14,0,0,1-.13.06h-7l-.39,0Z"
        transform="translate(-29.4 -18)" />
    <path
        d="M170.16,104.22a9.26,9.26,0,0,0-.93.94l-.44.54c-.11.13-.17.19-.19.18s0-.06-.07-.15l-.36-1.17a.19.19,0,0,1,0-.12.18.18,0,0,1,.1-.06l.4-.14a10.11,10.11,0,0,0,1.51-.65V100l0-1.15a.14.14,0,0,1,.09,0,4,4,0,0,1,.75.07,1.68,1.68,0,0,1,.67.16q0,.11-.35.4v7.14l0,1.3c-.09.21-.36.31-.81.3a.45.45,0,0,1-.3-.07.41.41,0,0,1-.1-.19l.06-1.34ZM168.54,101l-.11-.17a1,1,0,0,0-.12-.17l-.06-.07a.07.07,0,0,1,0-.08.11.11,0,0,1,.08-.05l.48.15a1.61,1.61,0,0,1,.79.54,1.11,1.11,0,0,1,.29.75.94.94,0,0,1-.21.48.58.58,0,0,1-.51.24q-.43,0-.48-.24a3.19,3.19,0,0,1,0-.52c0-.19,0-.33,0-.44l0-.24A1.37,1.37,0,0,0,168.54,101Zm7.25,1.34q.56-.77.66-.78a.65.65,0,0,1,.33.18l.32.25.23.24c.1.11.15.19.14.23s0,.06-.11.06h-2.78q0,.33.12.65a4.85,4.85,0,0,0,.24.75,6.74,6.74,0,0,0,.46.92,5.18,5.18,0,0,0,.57.8,3.23,3.23,0,0,0,.69.58,4.34,4.34,0,0,0,.66.36l.22.09c.09,0,.13.08.14.13s0,.08-.11.09l-.22,0a1.35,1.35,0,0,0-.77.62c-.1.18-.21.22-.32.13a4.86,4.86,0,0,1-.9-1,4.08,4.08,0,0,1-.65-1.46,10.73,10.73,0,0,1-.25-1.25q0-.39-.09-1.48h-.13c0,.27,0,.5,0,.67s0,.41-.06.72-.08.67-.16,1.09a3.7,3.7,0,0,1-.68,1.43,4.37,4.37,0,0,1-1.51,1.31l-.24.13c-.07,0-.11,0-.13,0s0-.08.06-.14l.16-.15a5.16,5.16,0,0,0,.73-.92,3.32,3.32,0,0,0,.5-1.22q.11-.62.14-.87t.06-.81q0-.57,0-.65l0-.58h-1.06l-.44,0-.3-.29.68.06h1.12q0-.52,0-1.08t0-1l0-.71,0-.38c0-.19,0-.3,0-.33a.15.15,0,0,1,0-.08s0,0,.08,0l.91.07q.88.07.51.37l-.23.19q0,1.49,0,1.88l0,1.11Zm-.73-2.11-.25-.21-.15-.11-.08-.06s0,0,0-.09.06-.06.13-.07l.09,0,.25,0a2.27,2.27,0,0,1,.46.08,3.32,3.32,0,0,1,.54.19,1.11,1.11,0,0,1,.42.33.79.79,0,0,1,.17.49.75.75,0,0,1-.17.5.62.62,0,0,1-.45.25.55.55,0,0,1-.44-.12.45.45,0,0,1-.14-.17,2.4,2.4,0,0,1-.1-.43A1.15,1.15,0,0,0,175.06,100.27Z"
        transform="translate(-29.4 -18)" />
    <path
        d="M129.35,117.72a.89.89,0,0,1,.63.25.82.82,0,0,1,.25.61.89.89,0,0,1-1.48.62.91.91,0,0,1,0-1.25A.85.85,0,0,1,129.35,117.72Z"
        transform="translate(-29.4 -18)" />
    <path
        d="M134.47,117.72a.89.89,0,0,1,.63.25.82.82,0,0,1,.25.61.89.89,0,0,1-1.48.62.91.91,0,0,1,0-1.25A.85.85,0,0,1,134.47,117.72Z"
        transform="translate(-29.4 -18)" />
    <path
        d="M139.59,117.72a.89.89,0,0,1,.63.25.82.82,0,0,1,.25.61.89.89,0,0,1-1.48.62.91.91,0,0,1,0-1.25A.85.85,0,0,1,139.59,117.72Z"
        transform="translate(-29.4 -18)" />
    <path
        d="M220.6,91.68V89.95l-.06-1.11h.16l.64.12q.52.1.54.23t-.26.32v2.18h.11q.35-.57.44-.57a.32.32,0,0,1,.21.09l.29.32c.15.17.22.28.2.31a.12.12,0,0,1-.11,0h-1.15v3l1-.26.44-.12a.11.11,0,0,1,.13,0s0,.08-.09.13l-.36.24-.48.34-1.63,1.12-.22.15-.37.25-.07,0a.85.85,0,0,1-.08-.22l-.31-1-.07-.18.14,0,.21,0,.36,0,.34-.08V91.88h-.69l-.31,0-.25-.27.53,0Zm6-.78h.73a2.08,2.08,0,0,1,.37-.4,1.94,1.94,0,0,1,.63.23c.36.17.55.28.58.35s-.09.24-.36.41v1.67l0,.63a.49.49,0,0,1-.13.18,1.26,1.26,0,0,1-.55.14c-.31,0-.46,0-.46-.23v-.25h-3.5v.09a1.84,1.84,0,0,1-.07.25c0,.1-.25.14-.64.13a.33.33,0,0,1-.22,0,.26.26,0,0,1-.06-.16l0-.65v-2l0-.7s.07,0,.16,0l.8.35h2.31a8.31,8.31,0,0,0,.41-.9q.11-.31.23-.73l.08-.28,0-.12h.1a6.85,6.85,0,0,1,.74.25,1.7,1.7,0,0,1,.58.3c.06.08.08.14.06.18s-.17.09-.43.15Q227.37,90.27,226.57,90.9Zm-3-1.69-.12-.07-.09,0a.07.07,0,0,1,0-.08s.07,0,.18,0a5.68,5.68,0,0,1,.91.13,2.77,2.77,0,0,1,.55.27.69.69,0,0,1,.35.62.79.79,0,0,1-.2.61.68.68,0,0,1-.52.18.5.5,0,0,1-.37-.11.62.62,0,0,1-.15-.34l0-.34a2,2,0,0,0-.15-.41A.84.84,0,0,0,223.61,89.21Zm3.28,8.2h-2.46v.33a.32.32,0,0,1-.24.3,1.1,1.1,0,0,1-.56.06.29.29,0,0,1-.17-.05.24.24,0,0,1-.06-.15l0-.76v-2l0-.94s0,0,.1,0l.93.36h2.33q.28-.37.36-.39a2.12,2.12,0,0,1,.6.23q.5.24.52.34t-.27.31v2l0,.63a.42.42,0,0,1-.15.18,1.33,1.33,0,0,1-.53.13c-.23,0-.36,0-.4-.05a.44.44,0,0,1-.05-.23Zm-3-4h1.24V91.1h-1.24Zm.19-1.44-.07-.1-.06-.06q-.08-.1.07-.1l.14,0,.2.06a1.21,1.21,0,0,1,.46.31.65.65,0,0,1,.21.46.54.54,0,0,1-.16.39.47.47,0,0,1-.35.15.38.38,0,0,1-.29-.12.39.39,0,0,1-.08-.29l0-.26A.72.72,0,0,0,224.11,92Zm.32,3.91h2.46V94.79h-2.46Zm0,1.32h2.46V96.1h-2.46Zm1.66-4.12c.09-.22.16-.43.22-.63a4,4,0,0,0,.11-.43l0-.27s0-.06.11,0l.25.1a2.2,2.2,0,0,1,.6.38V91.1h-1.15l-.18.17Zm0,.32h1.33V92.37l-.27.06-.59.52-.46.41Z"
        transform="translate(-29.4 -18)" />
    <path
        d="M230.48,91.39l-.53,0-.27-.29.69.07h1.11q0-.51,0-.92t0-.63l0-.77s0-.05.14,0l.13,0,.72.12q.61.11.6.27c0,.09-.13.2-.38.31,0,.47,0,.74,0,.83l0,.82h.82q.29-.42.39-.44a1.33,1.33,0,0,1,.67.29q.51.33.52.4c0,.1-.12.22-.38.36,0,.39-.05.68-.06.87l-.07,1.15a16,16,0,0,1-.41,3,1.35,1.35,0,0,1-.79,1,2,2,0,0,1-.83.13.17.17,0,0,1-.12,0l0-.07a3,3,0,0,1-.09-.37.77.77,0,0,0-.41-.53l-.28-.15c-.09,0-.12-.08-.12-.11s.08,0,.21,0l.32.07a1.17,1.17,0,0,0,.79,0,.8.8,0,0,0,.34-.46,5.77,5.77,0,0,0,.2-1.08c.06-.5.09-.83.1-1s0-.48.08-1,.06-.93.07-1.17v-.66h-.93q0,.43-.08,1.49a8.38,8.38,0,0,1-.49,2.29,4.68,4.68,0,0,1-1.64,2.15l-.27.21a1.2,1.2,0,0,1-.27.17c-.07,0-.11,0-.12,0a.15.15,0,0,1,0-.11l.2-.21.24-.31q.13-.18.42-.69a4.88,4.88,0,0,0,.44-1,11.3,11.3,0,0,0,.28-1.33,12.51,12.51,0,0,0,.16-1.78l0-.89Zm5.74,5.46v.5a.33.33,0,0,1-.07.22,1.08,1.08,0,0,1-.48.17q-.41.09-.51,0a.4.4,0,0,1-.12-.22l.08-1.32V91.54L235,90.3l.06,0,.18.06,1,.46h1.24l.25-.33a.4.4,0,0,1,.17-.17,1.84,1.84,0,0,1,.66.28c.37.2.55.33.56.4s-.12.2-.37.35V96l.07,1.24a.59.59,0,0,1-.15.23.68.68,0,0,1-.4.12,1.88,1.88,0,0,1-.39,0c-.17,0-.25-.1-.25-.25v-.48Zm0-.18h1.43V91h-1.43Z"
        transform="translate(-29.4 -18)" />
    <path
        d="M247.41,89.82l.35-.48q.24-.31.31-.33s.15,0,.31.17l.49.37q.33.3.29.38A.13.13,0,0,1,249,90h-2.52a1.2,1.2,0,0,1,0,.17c0,.07-.09.12-.25.17v3.43q.45-.51.58-.7t.33-.5c.13-.21.22-.37.26-.47l.15-.37c0-.05.07-.06.16,0l.21.09a6,6,0,0,1,.67.35q.48.29.47.42c0,.13-.16.18-.42.15l-.71.45-.62.38-1.08.56v2.19a.53.53,0,0,0,.07.32c0,.06.18.09.39.08a3.39,3.39,0,0,0,1.46-.17.92.92,0,0,0,.29-.3,4.88,4.88,0,0,0,.17-.47l.14-.42.12-.42c0-.07.06-.11.12-.12s.08,0,.06.12l-.07.44,0,.5,0,.29a.4.4,0,0,0,.06.27l.2.18a1.24,1.24,0,0,1,.09.19.7.7,0,0,1,.06.21.47.47,0,0,1,0,.17.8.8,0,0,1-.55.43,7.34,7.34,0,0,1-1.74.16,4.71,4.71,0,0,1-1.53-.12q-.36-.15-.36-.71V90h-2.36q.39.17.38.29c0,.08-.12.15-.34.21q-.1.31-.14.46l-.21.76-.1.28h1.11q.2-.4.31-.45a.48.48,0,0,1,.34.05,3.21,3.21,0,0,1,.69.42c.13.12.2.2.2.24s-.12.17-.31.25a13.88,13.88,0,0,1-.77,2.68,4.32,4.32,0,0,1-1.18,1.58,5.46,5.46,0,0,1-1.95,1l-.45.14a.58.58,0,0,1-.21,0s-.08,0-.08-.05.05-.07.17-.13l.3-.15a4.31,4.31,0,0,0,1.62-1.34,6.52,6.52,0,0,0,.82-1.43,8.46,8.46,0,0,0,.37-1.36c.1-.51.15-.85.16-1l0-.29h-1.22q-.24.65-.32.81l-.23.45a3.77,3.77,0,0,1,.88.44.74.74,0,0,1,.3.46,1.35,1.35,0,0,1,0,.39.73.73,0,0,1-.22.42.59.59,0,0,1-.73,0,.46.46,0,0,1-.2-.33.92.92,0,0,1,0-.31,2.15,2.15,0,0,0,0-.37,1.06,1.06,0,0,0-.2-.59,6.66,6.66,0,0,1-1.23,1.53l-.31.27c-.11.09-.18.13-.21.12a.06.06,0,0,1,0-.07.47.47,0,0,1,.08-.15l.22-.31a6.63,6.63,0,0,0,1.08-2.62q.28-1.49.31-1.87l0-.49h-.94l-.51,0-.18-.29.66.06Z"
        transform="translate(-29.4 -18)" />
    <path
        d="M252.88,91.38l-.21.27v5.67h4.43l.58-.75c.08-.11.14-.17.2-.17a.41.41,0,0,1,.26.11,4.86,4.86,0,0,1,.66.55q.28.29.25.37a.11.11,0,0,1-.11.08h-6.16c-.23.28-.38.43-.45.44a.34.34,0,0,1-.24-.07,4.41,4.41,0,0,1-.61-.45q-.37-.31-.35-.42s0-.07.11-.14l.27-.25V91.38h-.3l-.6,0-.25-.29.73.06h6.55l.36-.48c.21-.28.34-.42.4-.43a.42.42,0,0,1,.27.12,5.23,5.23,0,0,1,.59.53q.31.31.28.39c0,.05-.08.08-.17.08Zm.93-2.44s-.06-.08,0-.1,0,0,.11,0l.11,0,.45.06a2.71,2.71,0,0,1,1,.42q.6.37.54.86a1.2,1.2,0,0,1-.29.72.79.79,0,0,1-.63.21.6.6,0,0,1-.65-.61,1.34,1.34,0,0,1,0-.27,1.9,1.9,0,0,0,0-.48,1.26,1.26,0,0,0-.37-.66Z"
        transform="translate(-29.4 -18)" />
    <path
        d="M265.65,95.46h2.45q.47-.79.61-.81a.45.45,0,0,1,.33.14q.75.68.72.77c0,.06,0,.09-.08.09h-4v1.41l0,.74a.56.56,0,0,1-.16.24,1.4,1.4,0,0,1-.75.1.47.47,0,0,1-.27-.05.36.36,0,0,1-.09-.21l0-1.06V95.65h-3.33l-.47.05-.23-.27.59,0h3.44v-.27l0-.49.09,0h.27l.47,0c.41,0,.63.11.64.19s-.06.17-.22.26Zm-.33-4.4q-.81.69-1.16.93l1.16.12a3.05,3.05,0,0,0,.36-.57.53.53,0,0,1,.13-.22s.09,0,.18,0a4,4,0,0,1,.67.42c.16.13.23.22.21.27s-.06.08-.13.09l-.24.05q-1,.79-2.09,1.61.77,0,1.7-.06a1.59,1.59,0,0,0-.2-.42l-.14-.16s-.06-.07-.06-.09,0,0,.07,0a.52.52,0,0,1,.18,0l.27.07q.72.21.86.53a1.34,1.34,0,0,1,.14.53.54.54,0,0,1-.18.38.51.51,0,0,1-.4.16.43.43,0,0,1-.29-.09,1,1,0,0,1-.2-.45l-1.19.29-.85.21-.31.1-.18.09s-.05,0-.08-.09l-.35-.76c-.06-.12-.09-.19-.08-.21a.57.57,0,0,1,.2-.08,3.56,3.56,0,0,0,.65-.32,4,4,0,0,0,.93-.8l-.5.11-.33.07-.51.14-.12,0s0,0,0,0l-.17-.56-.14-.43.26-.1a1.34,1.34,0,0,0,.54-.5,4.45,4.45,0,0,0,.43-.72h-2.57l-.57,0-.25-.25.64,0h6l.46-.61c.11-.15.2-.22.25-.22a2.53,2.53,0,0,1,.63.45q.53.43.48.51a.15.15,0,0,1-.13.07h-4c.33.1.49.19.46.28S265.58,91,265.32,91.06Zm-3.39,3.49a1.58,1.58,0,0,1-.26.29s0,0-.08-.12l-.36-.78-.1-.18,0-.05.18,0,.33-.11,1.27-.44.3-.12c.08,0,.12,0,.13,0a.12.12,0,0,1,0,.09l-.13.15-.33.35-.61.64ZM261.5,91a1.43,1.43,0,0,1,1.07.34.92.92,0,0,1,.27.58.65.65,0,0,1-.18.45.54.54,0,0,1-.43.18.42.42,0,0,1-.32-.1.58.58,0,0,1-.13-.33l-.05-.32a1.69,1.69,0,0,0-.16-.46l-.2-.24C261.32,91.08,261.37,91,261.5,91Zm2.57-2.38.45,0a3.28,3.28,0,0,1,.5.1,1.28,1.28,0,0,1,.5.26.67.67,0,0,1,.23.51.65.65,0,0,1-.21.53.74.74,0,0,1-.5.21.55.55,0,0,1-.42-.12.47.47,0,0,1-.15-.3l0-.35a1,1,0,0,0-.2-.42,1.14,1.14,0,0,0-.26-.26c-.08,0-.11-.09-.11-.14S263.93,88.66,264.07,88.67Zm4.38,3.12q-.71.42-1,.58l-.52.25q-.24.12-.16-.06l.44-.7.19-.39a2.63,2.63,0,0,0,.17-.41.66.66,0,0,1,.06-.17s.06,0,.13,0l.17.07a6.5,6.5,0,0,1,.56.37c.29.21.42.33.38.38s-.07.07-.1.07Zm-1.43,1a2.47,2.47,0,0,1,1.61.51A1.17,1.17,0,0,1,269,94a.61.61,0,0,1-.18.44.56.56,0,0,1-.4.17.44.44,0,0,1-.28-.06.53.53,0,0,1-.17-.25l-.15-.44a1.35,1.35,0,0,0-.51-.67l-.35-.23a.07.07,0,0,1,0-.07S267,92.83,267,92.83Z"
        transform="translate(-29.4 -18)" />
    <path
        d="M221.51,107.71a.89.89,0,0,1,.63.25.82.82,0,0,1,.25.61.89.89,0,0,1-1.48.62.91.91,0,0,1,0-1.25A.85.85,0,0,1,221.51,107.71Z"
        transform="translate(-29.4 -18)" />
    <path
        d="M226.63,107.71a.89.89,0,0,1,.63.25.82.82,0,0,1,.25.61.89.89,0,0,1-1.48.62.91.91,0,0,1,0-1.25A.85.85,0,0,1,226.63,107.71Z"
        transform="translate(-29.4 -18)" />
    <path
        d="M231.75,107.71a.89.89,0,0,1,.63.25.82.82,0,0,1,.25.61.89.89,0,0,1-1.48.62.91.91,0,0,1,0-1.25A.85.85,0,0,1,231.75,107.71Z"
        transform="translate(-29.4 -18)" />
    <path
        d="M236.87,107.71a.89.89,0,0,1,.63.25.82.82,0,0,1,.25.61.89.89,0,0,1-1.48.62.91.91,0,0,1,0-1.25A.85.85,0,0,1,236.87,107.71Z"
        transform="translate(-29.4 -18)" />
    <path
        d="M242,107.71a.89.89,0,0,1,.63.25.82.82,0,0,1,.25.61.89.89,0,0,1-1.48.62.91.91,0,0,1,0-1.25A.85.85,0,0,1,242,107.71Z"
        transform="translate(-29.4 -18)" />
    <path
        d="M247.11,107.71a.89.89,0,0,1,.63.25.82.82,0,0,1,.25.61.89.89,0,0,1-1.48.62.91.91,0,0,1,0-1.25A.85.85,0,0,1,247.11,107.71Z"
        transform="translate(-29.4 -18)" />
    <path
        d="M131.57,72.77l-.42,0-.26-.28.49.06h1.15v-1l0-1.13h0a13.22,13.22,0,0,1-1,1.25l-.16.16c-.09.09-.16.13-.2.09s-.05-.06,0-.08a1.08,1.08,0,0,1,.07-.16l.09-.18a8.61,8.61,0,0,0,.57-1.5q.22-.8.26-1c0-.16.06-.33.08-.51l0-.21,0-.27h.1l.4.17.71.29q.3.14.32.28c0,.11-.12.18-.37.23q-.38.71-.74,1.29h1.1l.34-.44c.13-.17.23-.26.3-.26s.25.14.5.41.36.41.33.44a.13.13,0,0,1-.1,0h-1.21a.5.5,0,0,1-.17.23q0,.88,0,1.08l0,.82h.14l.42-.62c.07-.11.13-.17.18-.17a.34.34,0,0,1,.21.1,6.68,6.68,0,0,1,.47.48c.17.19.25.31.24.34a.09.09,0,0,1-.08.06h-1.57c0,.21,0,.39,0,.53s0,.38-.09.73l.44.18a4.38,4.38,0,0,1,.67.4,1,1,0,0,1,.46.79.88.88,0,0,1-.2.69.65.65,0,0,1-.5.19.44.44,0,0,1-.38-.17.78.78,0,0,1-.1-.39l0-.35a2.56,2.56,0,0,0-.12-.61,1.6,1.6,0,0,0-.3-.51q-.1.39-.27.88a3.2,3.2,0,0,1-.73,1.08,4.78,4.78,0,0,1-1,.83l-.15.09a.41.41,0,0,1-.16.06.11.11,0,0,1-.09,0s0-.06,0-.13l.12-.12.1-.12a4.27,4.27,0,0,0,.95-1.95,11.4,11.4,0,0,0,.22-1.7v-.38Zm6.06,4q.23-.64.34-1t.18-.73l.09-.43,0-.22,0-.25h.06a6.37,6.37,0,0,1,.73.26q.6.24.57.4t-.38.24l-.39.6-.46.74-.27.42h.68a4.2,4.2,0,0,1,.68-.91c.06,0,.14,0,.25.14l.35.35.28.33c.09.11.13.19.11.23a.11.11,0,0,1-.11.06h-5.48l-.41,0-.26-.29.61.06Zm-2.14-7.63h3a5,5,0,0,1,.65-.9s.11,0,.21.12l.44.36.33.33c.09.1.13.17.11.22s-.07.07-.15.07h-4.43l-.4,0L135,69Zm.06,5.51-.08-.1c-.09-.1-.06-.15.07-.15a1.2,1.2,0,0,1,.34.12,4.74,4.74,0,0,1,.56.31,1.09,1.09,0,0,1,.45.51,1.63,1.63,0,0,1,.13.54.67.67,0,0,1-.66.64.63.63,0,0,1-.44-.15.56.56,0,0,1-.15-.45l.06-.45a1.23,1.23,0,0,0,0-.37A1.57,1.57,0,0,0,135.55,74.61Zm2.83-1.19h-1.81v.23a.53.53,0,0,1-.11.32.61.61,0,0,1-.49.16.89.89,0,0,1-.45,0,.32.32,0,0,1-.09-.21l0-.93V71l0-.83s.06,0,.15,0l1.09.52h1.54l.24-.37c.07-.1.13-.16.18-.17a2.17,2.17,0,0,1,.69.29c.38.2.57.34.57.41s-.11.17-.32.34V72.9l0,.69a.64.64,0,0,1-.33.33,1.2,1.2,0,0,1-.58.11c-.15,0-.24,0-.27-.09a.47.47,0,0,1-.06-.25Zm-1.81-.21h1.81V70.84h-1.81Z"
        transform="translate(-29.4 -18)" />
    <path
        d="M141.64,76.54l-.27.15c-.07,0-.11,0-.12,0s0-.1.06-.16l.19-.19q.22-.22.4-.44a4.35,4.35,0,0,0,.42-.65q.23-.44.28-.56l.13-.34,0-.07.06,0,.08,0,.22.08a4,4,0,0,1,.53.27,2.71,2.71,0,0,1,.39.24.11.11,0,0,1,0,.1A.16.16,0,0,1,144,75l-.15,0-.16,0A15.43,15.43,0,0,1,141.64,76.54Zm.22-2.7h.56V69.9H142l-.36,0-.26-.27.5,0h.59v-.58l-.06-1s.07-.06.16-.06q1.15.1,1.21.22a.22.22,0,0,1,0,.18l-.24.18V69.7h.89v-.54l-.06-1s.08-.06.17,0l.66.08c.35,0,.54.09.57.15a.2.2,0,0,1,0,.17.75.75,0,0,1-.24.19v1h.08l.36-.44q.14-.17.22-.17a4.1,4.1,0,0,1,.53.41q.48.4.17.4h-1.36v3.94l.43-.5c.09-.11.16-.16.22-.17a4,4,0,0,1,.85.67q0-.69,0-1.08t0-1.67q0-1.28,0-1.71l0-.78,0-.49a.21.21,0,0,1,.15,0l1.11.5h1q.33-.44.42-.46c.11,0,.32.07.64.28s.48.34.48.41-.1.17-.3.29v6.94a1.44,1.44,0,0,1-.1.62q-.1.2-.65.33t-.66,0s0,0,0-.06l0-.18a.94.94,0,0,0-.15-.33.65.65,0,0,0-.26-.24l-.41-.18c-.07,0-.09-.06-.08-.09a.08.08,0,0,1,.08-.06l.36,0q.62.07.7,0a.48.48,0,0,0,.09-.33V73.23h-1.22c0,.31-.06.66-.11,1a3.64,3.64,0,0,1-.55,1.34A4.35,4.35,0,0,1,145.84,77l-.31.18c-.07,0-.11,0-.14,0s0-.09,0-.14l.28-.24a3.13,3.13,0,0,0,1-1.27,4.74,4.74,0,0,0,.3-1.21l0-.32h-5l-.47,0-.29-.27ZM143.51,71h.89V69.9h-.89Zm.89,1.38V71.2h-.89v1.18Zm-.89,1.46h.89V72.57h-.89Zm1.16.6.62.12a1.83,1.83,0,0,1,.73.35.9.9,0,0,1,.41.63.78.78,0,0,1-.13.55.56.56,0,0,1-.42.24.58.58,0,0,1-.42-.11.43.43,0,0,1-.14-.13,2.36,2.36,0,0,1-.11-.33,2.88,2.88,0,0,0-.24-.54,1.41,1.41,0,0,0-.39-.45l-.29-.23a.12.12,0,0,1,0-.1s.05,0,.14,0ZM148.08,73h1.21V71H148.1Zm0-2.27h1.17V68.82h-1.18Z"
        transform="translate(-29.4 -18)" />
    <path
        d="M153,70.37V69.28l-.06-1.16c0-.05.06-.08.13-.07h.27l.38.06a1.84,1.84,0,0,1,.48.11c.09,0,.14.08.14.12a.16.16,0,0,1,0,.1,1.21,1.21,0,0,1-.26.21v1.71l.37-.46c.08-.11.15-.17.2-.17a.31.31,0,0,1,.2.09l.35.35q.28.28.25.33a.09.09,0,0,1-.09.05h-1.27v1.27l.91-.34.3-.12c.1,0,.16,0,.18,0s0,.09-.09.15l-.3.21-1,.75v3.95a.69.69,0,0,1-.09.38.84.84,0,0,1-.42.26,1.69,1.69,0,0,1-.68.1.21.21,0,0,1-.14,0,.35.35,0,0,1,0-.19.57.57,0,0,0-.14-.33,1,1,0,0,0-.32-.27l-.39-.18c-.07,0-.1-.06-.08-.1s.07-.06.14,0l.42,0c.35,0,.54,0,.59,0a.61.61,0,0,0,.08-.29V73.19L152,74c-.09.07-.15.06-.16,0l-.28-1.18a.67.67,0,0,1,0-.16s0,0,.13,0l.3-.06a8.57,8.57,0,0,0,1.06-.3V70.56h-.81l-.4,0-.24-.27.55,0Zm4.23,5.25c-.47-.14-.84-.24-1.12-.3a2.66,2.66,0,0,1-.69,0q-.23,0-.27-.13a.25.25,0,0,1,0-.18l.42-.51.43-.7h-.8l-.48,0-.27-.29.63.06h1l.25-.46q.1-.2.32-.79H155.5l-.44,0-.28-.27.58,0h2.49l.14-.58c.05-.22.12-.63.2-1.23l0-.24V70s.06-.06.15,0l.63.15q.62.14.62.32a.17.17,0,0,1-.06.1,1.43,1.43,0,0,1-.31.14q-.46.7-.91,1.46h.92l.43-.55c.1-.12.17-.18.22-.19a.33.33,0,0,1,.18.06,3.56,3.56,0,0,1,.5.47q.26.29.24.34a.1.1,0,0,1-.1.05h-3c.22.06.33.13.32.22s-.11.14-.31.17q-.27.47-.51.86h2.11l.44-.54c.1-.12.17-.19.21-.19a.31.31,0,0,1,.17.06,3.59,3.59,0,0,1,.52.48c.16.18.24.29.22.33a.1.1,0,0,1-.1,0h-1.35c.17.09.25.17.23.25s-.11.12-.27.13q-.45.77-.73,1.21a4.32,4.32,0,0,1,1.26.56.87.87,0,0,1,.47.79,1,1,0,0,1-.29.49q-.26.28-.83-.19l-.42-.4a4.52,4.52,0,0,0-.8-.57,4.75,4.75,0,0,1-1.56.81,8,8,0,0,1-2.15.33h-.29c-.07,0-.12,0-.13-.06s0-.08.1-.09l.3,0a6.83,6.83,0,0,0,.77-.22q.63-.2,1-.35A4.56,4.56,0,0,0,157.23,75.62Zm-2.27-6,.64,0h3.45l.43-.55c.1-.12.17-.18.22-.18a.32.32,0,0,1,.18.06,4,4,0,0,1,.46.44q.29.31.27.36a.08.08,0,0,1-.09.05h-4.77l-.51,0Zm1.26.47a1.78,1.78,0,0,1,.85.58.84.84,0,0,1,.15.77.72.72,0,0,1-.25.34.52.52,0,0,1-.48.08.47.47,0,0,1-.38-.38.82.82,0,0,1,0-.36,1.8,1.8,0,0,0,.06-.39.83.83,0,0,0-.07-.27.66.66,0,0,0-.15-.22c-.06-.06-.09-.11-.09-.14a.08.08,0,0,1,0-.06.33.33,0,0,1,.16,0Zm.1,5,1.24,0q.23-.36.39-.67a6.48,6.48,0,0,0,.3-.73h-1.11Zm.54-7.2q1.45.15,1.42,1.07a.7.7,0,0,1-.19.44.61.61,0,0,1-.47.18.52.52,0,0,1-.32-.07.54.54,0,0,1-.18-.21.92.92,0,0,1-.07-.4,1.64,1.64,0,0,0-.07-.48.48.48,0,0,0-.26-.3q-.2-.1-.21-.15a.09.09,0,0,1,0-.08.3.3,0,0,1,.17,0Z"
        transform="translate(-29.4 -18)" />
    <path
        d="M163.66,69.43h.82l.3-.31A.43.43,0,0,1,165,69s.13,0,.25.1l.42.25a1.76,1.76,0,0,1,.28.23q.12.13.11.19s-.06.08-.14.09l-.36.06q-.37.29-1,.93h.67l.2-.21a.41.41,0,0,1,.18-.14,1.82,1.82,0,0,1,.37.15,2.68,2.68,0,0,1,.43.23c.07.06.11.1.1.15s-.09.11-.25.22v5.24a1.5,1.5,0,0,1-.11.49q-.11.3-1,.3a.23.23,0,0,1-.15,0,.15.15,0,0,1-.05-.08,2.72,2.72,0,0,1-.06-.31q0-.26-.48-.45l-.24-.1c-.06,0-.08,0-.08-.09s0-.06.12-.05l.4.05q.45.06.56,0a.39.39,0,0,0,.11-.3v-2h-.53v.84l0,.87c-.07.18-.27.27-.6.26-.14,0-.23,0-.26-.06a.36.36,0,0,1-.08-.15l0-.92v-.83h-.48q0,.25,0,.6a3.92,3.92,0,0,1-.17.81,3.53,3.53,0,0,1-.28.7,5.12,5.12,0,0,1-.34.51,3.85,3.85,0,0,1-.33.4l-.19.19c-.07.07-.13.1-.16.08s0-.07,0-.14l.09-.16a2.85,2.85,0,0,0,.19-.48q.11-.36.16-.58a5.91,5.91,0,0,0,.09-.58l0-.44,0-.5c0-.21,0-.35,0-.42V71.78l0-.8-.32.34-.26.22s-.08.05-.12,0,0-.06,0-.12l.2-.35a7.49,7.49,0,0,0,.73-1.68q.23-.81.28-1l.07-.34a.41.41,0,0,1,0-.14s0,0,.12,0l.21.06.52.16.5.17c.08,0,.12.08.12.13s0,.1-.13.13l-.25.1Q163.91,69,163.66,69.43Zm-.84,1.12.63.29h.61l.16-.34q.06-.15.32-.87h-1l-.39.5Zm.52,3.17h.48V72.45h-.47Zm0-1.46h.46V71h-.45Zm1.33,0h.53V71h-.35c0,.09,0,.13,0,.13l-.13.08Zm0,1.46h.53V72.45h-.53Zm3.38-.1h-.52V74a.27.27,0,0,1-.21.26,1,1,0,0,1-.42.07c-.15,0-.25,0-.29-.06a.31.31,0,0,1-.07-.14l.06-1.1V71.32l0-1a.08.08,0,0,1,.11,0l.94.45h.45V69.13l0-1a.12.12,0,0,1,.09,0,4.55,4.55,0,0,1,.73.07q.42.07.44.17c0,.07-.08.16-.27.29v2h.51l.21-.26a.36.36,0,0,1,.16-.14,1.56,1.56,0,0,1,.57.24q.48.26.49.34c0,.09-.09.18-.28.25V73l0,.79a.35.35,0,0,1,0,.18.67.67,0,0,1-.21.13,1,1,0,0,1-.47.06c-.23,0-.34-.09-.34-.24v-.28H169v2l.9-.06a2.71,2.71,0,0,0-.25-.72,3.68,3.68,0,0,0-.21-.34.31.31,0,0,1-.08-.16s0-.06.13,0a4.09,4.09,0,0,1,.52.3,3.52,3.52,0,0,1,.79.7,1.33,1.33,0,0,1,.36.9,1,1,0,0,1-.17.49.54.54,0,0,1-.47.25.55.55,0,0,1-.46-.17.46.46,0,0,1-.12-.3l0-.37,0-.31-.53.2-1.07.37-.84.29-.5.18-.19.08h-.06a.78.78,0,0,1-.06-.19l-.27-.88a.21.21,0,0,1,0-.12s.06,0,.15,0h.94l.59,0Zm-.52-.2h.52V70.9h-.52Zm1.46,0h.63V70.9H169Z"
        transform="translate(-29.4 -18)" />
    <path
        d="M220.87,72.27l.67.06h1.28V69.07l-.06-1.2s.05,0,.12,0l.31,0a6.46,6.46,0,0,1,.66.1,1.34,1.34,0,0,1,.43.11.22.22,0,0,1,0,.08s-.1.14-.31.3v3.1a14.54,14.54,0,0,0,1.86-1.81,16.37,16.37,0,0,0,1-1.31l.18-.28a.41.41,0,0,1,.09-.12s.06,0,.13,0a5.51,5.51,0,0,1,.81.59q.43.37.42.49a.19.19,0,0,1,0,.07,2.54,2.54,0,0,1-.47.08q-1.07.88-1.89,1.43A18.58,18.58,0,0,1,224,71.89v.44h4.07l.59-.77q.18-.23.25-.24s.12,0,.23.09l.44.39a5.92,5.92,0,0,1,.46.44c.09.1.13.17.11.21s-.07.06-.15.06h-4.14a3.7,3.7,0,0,0,1.49,2,7.87,7.87,0,0,0,1.63.81,5.26,5.26,0,0,0,.94.23l.39,0c.07,0,.1,0,.1.06s0,.06-.08.08l-.35.13a1.09,1.09,0,0,0-.59.49,3.51,3.51,0,0,0-.21.43c0,.06,0,.1-.06.1a2.22,2.22,0,0,1-.75-.34,6,6,0,0,1-1.22-.92,4.82,4.82,0,0,1-.95-1.29,5.74,5.74,0,0,1-.51-1.33l-.13-.52H224v2.93q.79-.24,1.6-.54l.44-.16c.09,0,.14,0,.15,0a.1.1,0,0,1,0,.11l-.49.35a18.12,18.12,0,0,0-1.94,1.62l-.3.28a.56.56,0,0,1-.15.11s0,0-.06-.05l-.66-1.08a.2.2,0,0,1-.06-.12s0-.07.13-.13a.51.51,0,0,0,.17-.21,1.43,1.43,0,0,0,0-.45V72.52h-1.21l-.54,0Z"
        transform="translate(-29.4 -18)" />
    <path
        d="M231.52,76.54l-.27.15c-.07,0-.11,0-.12,0s0-.1.06-.16l.19-.19q.22-.22.4-.44a4.35,4.35,0,0,0,.42-.65q.23-.44.28-.56l.13-.34,0-.07.06,0,.08,0,.22.08a4,4,0,0,1,.53.27,2.71,2.71,0,0,1,.39.24.11.11,0,0,1,0,.1.16.16,0,0,1-.08.08l-.15,0-.16,0A15.43,15.43,0,0,1,231.52,76.54Zm.22-2.7h.56V69.9h-.47l-.36,0-.26-.27.5,0h.59v-.58l-.06-1s.07-.06.16-.06q1.15.1,1.21.22a.22.22,0,0,1,0,.18l-.24.18V69.7h.89v-.54l-.06-1s.08-.06.17,0l.66.08c.35,0,.54.09.57.15a.2.2,0,0,1,0,.17.75.75,0,0,1-.24.19v1h.08l.36-.44q.14-.17.22-.17a4.1,4.1,0,0,1,.53.41q.48.4.17.4h-1.36v3.94l.43-.5c.09-.11.16-.16.22-.17a4,4,0,0,1,.85.67q0-.69,0-1.08t0-1.67q0-1.28,0-1.71l0-.78,0-.49a.21.21,0,0,1,.15,0l1.11.5h1q.33-.44.42-.46c.11,0,.32.07.64.28s.48.34.48.41-.1.17-.3.29v6.94a1.44,1.44,0,0,1-.1.62q-.1.2-.65.33t-.66,0s0,0,0-.06l0-.18a.94.94,0,0,0-.15-.33.65.65,0,0,0-.26-.24l-.41-.18c-.07,0-.09-.06-.08-.09a.08.08,0,0,1,.08-.06l.36,0q.62.07.7,0a.48.48,0,0,0,.09-.33V73.23H238c0,.31-.06.66-.11,1a3.64,3.64,0,0,1-.55,1.34A4.35,4.35,0,0,1,235.72,77l-.31.18c-.07,0-.11,0-.14,0s0-.09,0-.14l.28-.24a3.13,3.13,0,0,0,1-1.27,4.74,4.74,0,0,0,.3-1.21l0-.32h-5l-.47,0-.29-.27ZM233.39,71h.89V69.9h-.89Zm.89,1.38V71.2h-.89v1.18Zm-.89,1.46h.89V72.57h-.89Zm1.16.6.62.12a1.83,1.83,0,0,1,.73.35.9.9,0,0,1,.41.63.78.78,0,0,1-.13.55.56.56,0,0,1-.42.24.58.58,0,0,1-.42-.11.43.43,0,0,1-.14-.13,2.36,2.36,0,0,1-.11-.33,2.88,2.88,0,0,0-.24-.54,1.41,1.41,0,0,0-.39-.45l-.29-.23a.12.12,0,0,1,0-.1s.05,0,.14,0ZM238,73h1.21V71H238Zm0-2.27h1.17V68.82H238Z"
        transform="translate(-29.4 -18)" />
    <path
        d="M242.88,70.37V69.28l-.06-1.16c0-.05.06-.08.13-.07h.27l.38.06a1.84,1.84,0,0,1,.48.11c.09,0,.14.08.14.12a.16.16,0,0,1,0,.1,1.21,1.21,0,0,1-.26.21v1.71l.37-.46c.08-.11.15-.17.2-.17a.31.31,0,0,1,.2.09l.35.35q.28.28.25.33a.09.09,0,0,1-.09.05h-1.27v1.27l.91-.34.3-.12c.1,0,.16,0,.18,0s0,.09-.09.15l-.3.21-1,.75v3.95a.69.69,0,0,1-.09.38.84.84,0,0,1-.42.26,1.69,1.69,0,0,1-.68.1.21.21,0,0,1-.14,0,.35.35,0,0,1,0-.19.57.57,0,0,0-.14-.33,1,1,0,0,0-.32-.27l-.39-.18c-.07,0-.1-.06-.08-.1s.07-.06.14,0l.42,0c.35,0,.54,0,.59,0a.61.61,0,0,0,.08-.29V73.19l-1,.77c-.09.07-.15.06-.16,0l-.28-1.18a.67.67,0,0,1,0-.16s0,0,.13,0l.3-.06a8.57,8.57,0,0,0,1.06-.3V70.56h-.81l-.4,0-.24-.27.55,0Zm4.23,5.25c-.47-.14-.84-.24-1.12-.3a2.66,2.66,0,0,1-.69,0q-.23,0-.27-.13a.25.25,0,0,1,0-.18l.42-.51.43-.7h-.8l-.48,0-.27-.29.63.06h1l.25-.46q.1-.2.32-.79h-1.19l-.44,0-.28-.27.58,0h2.49l.14-.58c.05-.22.12-.63.2-1.23l0-.24V70s.06-.06.15,0l.63.15q.62.14.62.32a.17.17,0,0,1-.06.1,1.43,1.43,0,0,1-.31.14q-.46.7-.91,1.46h.92l.43-.55c.1-.12.17-.18.22-.19a.33.33,0,0,1,.18.06,3.56,3.56,0,0,1,.5.47q.26.29.24.34a.1.1,0,0,1-.1.05h-3c.22.06.33.13.32.22s-.11.14-.31.17q-.27.47-.51.86h2.11l.44-.54c.1-.12.17-.19.21-.19a.31.31,0,0,1,.17.06,3.59,3.59,0,0,1,.52.48c.16.18.24.29.22.33a.1.1,0,0,1-.1,0h-1.35c.17.09.25.17.23.25s-.11.12-.27.13q-.45.77-.73,1.21a4.32,4.32,0,0,1,1.26.56.87.87,0,0,1,.47.79,1,1,0,0,1-.29.49q-.26.28-.83-.19l-.42-.4A4.52,4.52,0,0,0,248,76a4.75,4.75,0,0,1-1.56.81,8,8,0,0,1-2.15.33H244c-.07,0-.12,0-.13-.06s0-.08.1-.09l.3,0a6.83,6.83,0,0,0,.77-.22q.63-.2,1-.35A4.56,4.56,0,0,0,247.11,75.62Zm-2.27-6,.64,0h3.45l.43-.55c.1-.12.17-.18.22-.18a.32.32,0,0,1,.18.06,4,4,0,0,1,.46.44q.29.31.27.36a.08.08,0,0,1-.09.05h-4.77l-.51,0Zm1.26.47a1.78,1.78,0,0,1,.85.58.84.84,0,0,1,.15.77.72.72,0,0,1-.25.34.52.52,0,0,1-.48.08.47.47,0,0,1-.38-.38.82.82,0,0,1,0-.36,1.8,1.8,0,0,0,.06-.39.83.83,0,0,0-.07-.27.66.66,0,0,0-.15-.22c-.06-.06-.09-.11-.09-.14a.08.08,0,0,1,0-.06.33.33,0,0,1,.16,0Zm.1,5,1.24,0q.23-.36.39-.67a6.48,6.48,0,0,0,.3-.73H247Zm.54-7.2q1.45.15,1.42,1.07a.7.7,0,0,1-.19.44.61.61,0,0,1-.47.18.52.52,0,0,1-.32-.07.54.54,0,0,1-.18-.21.92.92,0,0,1-.07-.4,1.64,1.64,0,0,0-.07-.48.48.48,0,0,0-.26-.3q-.2-.1-.21-.15a.09.09,0,0,1,0-.08.3.3,0,0,1,.17,0Z"
        transform="translate(-29.4 -18)" />
    <path
        d="M253.54,69.43h.82l.3-.31a.43.43,0,0,1,.17-.13s.13,0,.25.1l.42.25a1.76,1.76,0,0,1,.28.23q.12.13.11.19s-.06.08-.14.09l-.36.06q-.37.29-1,.93H255l.2-.21a.41.41,0,0,1,.18-.14,1.82,1.82,0,0,1,.37.15,2.68,2.68,0,0,1,.43.23c.07.06.11.1.1.15s-.09.11-.25.22v5.24A1.5,1.5,0,0,1,256,77q-.11.3-1,.3a.23.23,0,0,1-.15,0,.15.15,0,0,1-.05-.08,2.72,2.72,0,0,1-.06-.31q0-.26-.48-.45l-.24-.1c-.06,0-.08,0-.08-.09s0-.06.12-.05l.4.05q.45.06.56,0a.39.39,0,0,0,.11-.3v-2h-.53v.84l0,.87c-.07.18-.27.27-.6.26-.14,0-.23,0-.26-.06a.36.36,0,0,1-.08-.15l0-.92v-.83h-.48q0,.25,0,.6a3.92,3.92,0,0,1-.17.81,3.53,3.53,0,0,1-.28.7,5.12,5.12,0,0,1-.34.51,3.85,3.85,0,0,1-.33.4l-.19.19c-.07.07-.13.1-.16.08s0-.07,0-.14l.09-.16a2.85,2.85,0,0,0,.19-.48q.11-.36.16-.58a5.91,5.91,0,0,0,.09-.58l0-.44,0-.5c0-.21,0-.35,0-.42V71.78l0-.8-.32.34-.26.22s-.08.05-.12,0,0-.06,0-.12l.2-.35a7.49,7.49,0,0,0,.73-1.68q.23-.81.28-1l.07-.34a.41.41,0,0,1,0-.14s0,0,.12,0l.21.06.52.16.5.17c.08,0,.12.08.12.13s0,.1-.13.13l-.25.1Q253.79,69,253.54,69.43Zm-.84,1.12.63.29h.61l.16-.34q.06-.15.32-.87h-1l-.39.5Zm.52,3.17h.48V72.45h-.47Zm0-1.46h.46V71h-.45Zm1.33,0h.53V71h-.35c0,.09,0,.13,0,.13l-.13.08Zm0,1.46h.53V72.45h-.53Zm3.38-.1h-.52V74a.27.27,0,0,1-.21.26,1,1,0,0,1-.42.07c-.15,0-.25,0-.29-.06a.31.31,0,0,1-.07-.14l.06-1.1V71.32l0-1a.08.08,0,0,1,.11,0l.94.45H258V69.13l0-1a.12.12,0,0,1,.09,0,4.55,4.55,0,0,1,.73.07q.42.07.44.17c0,.07-.08.16-.27.29v2h.51l.21-.26a.36.36,0,0,1,.16-.14,1.56,1.56,0,0,1,.57.24q.48.26.49.34c0,.09-.09.18-.28.25V73l0,.79a.35.35,0,0,1,0,.18.67.67,0,0,1-.21.13,1,1,0,0,1-.47.06c-.23,0-.34-.09-.34-.24v-.28h-.63v2l.9-.06a2.71,2.71,0,0,0-.25-.72,3.68,3.68,0,0,0-.21-.34.31.31,0,0,1-.08-.16s0-.06.13,0a4.09,4.09,0,0,1,.52.3,3.52,3.52,0,0,1,.79.7,1.33,1.33,0,0,1,.36.9,1,1,0,0,1-.17.49.54.54,0,0,1-.47.25.55.55,0,0,1-.46-.17.46.46,0,0,1-.12-.3l0-.37,0-.31-.53.2-1.07.37-.84.29-.5.18-.19.08h-.06a.78.78,0,0,1-.06-.19l-.27-.88a.21.21,0,0,1,0-.12s.06,0,.15,0h.94l.59,0Zm-.52-.2H258V70.9h-.52Zm1.46,0h.63V70.9h-.63Z"
        transform="translate(-29.4 -18)" />
    <rect class="step18-4" x="88.6" y="39" width="169.5" height="77.1" />
</svg>