<?xml version="1.0" encoding="utf-8"?>
<!-- Generator: Adobe Illustrator 21.0.0, SVG Export Plug-In . SVG Version: 6.00 Build 0)  -->
<svg version="1.1" id="图层_1" xmlns="http://www.w3.org/2000/svg" xmlns:xlink="http://www.w3.org/1999/xlink" x="0px" y="0px"
	 viewBox="0 0 121 151.2" style="enable-background:new 0 0 121 151.2;" xml:space="preserve">
<style type="text/css">
	.st0{display:none;opacity:0.5;fill:url(#SVGID_1_);enable-background:new    ;}
	.st1{display:none;opacity:0.13;enable-background:new    ;}
	.st2{display:none;fill:#F8F8F8;}
	.st3{fill:#2F2F2F;}
	.st4{fill:url(#SVGID_2_);stroke:#535353;stroke-miterlimit:10;}
	.st5{enable-background:new    ;}
</style>
<linearGradient id="SVGID_1_" gradientUnits="userSpaceOnUse" x1="-211.6" y1="739.6" x2="-211.6" y2="-594.4" gradientTransform="matrix(1 0 0 -1 0 696)">
	<stop  offset="3.416110e-06" style="stop-color:#FFCE66"/>
	<stop  offset="1" style="stop-color:#9DC3E6"/>
</linearGradient>
<rect x="-586.6" y="-43.6" class="st0" width="750" height="1334"/>
<rect x="-586.6" y="-43.6" class="st1" width="750" height="1334"/>
<rect x="-586.6" y="-43.6" class="st2" width="750" height="1334"/>
<g>
	<g>
		<g>
			<path class="st3" d="M16.5,29.7c-2.2,0-4-0.4-5.4-1.1c-1.4-0.8-2.6-1.8-3.5-3.1c-0.9-1.3-1.5-2.9-1.9-4.7C5.3,19,5.1,17.1,5.1,15
				c0-2.2,0.3-4.2,0.8-6.2c0.5-1.9,1.2-3.4,2-4.6s1.9-2.1,3.2-3S14.2,0,16.4,0c2.1,0,3.9,0.3,5.3,1c1.4,0.6,2.6,1.6,3.5,3
				c0.9,1.3,1.6,3,1.9,4.8c0.4,1.9,0.6,3.9,0.6,6s-0.2,4-0.6,5.8c-0.4,1.8-1,3.4-1.9,4.7s-2.1,2.4-3.5,3.2
				C20.5,29.4,18.7,29.7,16.5,29.7z M16.5,26.4c1.6,0,2.8-0.3,3.8-0.9s1.7-1.4,2.2-2.5s0.8-2.3,1.1-3.6C23.8,18,24,16.5,24,15
				s-0.1-3-0.3-4.4S23.2,8,22.6,6.9c-0.5-1.1-1.3-1.9-2.2-2.6s-2.2-1-3.7-1c-1.6,0-2.8,0.3-3.7,1c-0.9,0.6-1.6,1.4-2.1,2.3
				c-0.5,0.9-0.8,2.1-1.1,3.7s-0.4,3.1-0.4,4.6c0,1.6,0.1,3.1,0.2,4.4c0.2,1.4,0.5,2.6,1,3.6s1.2,1.9,2.2,2.5S14.9,26.4,16.5,26.4z"
				/>
			<path class="st3" d="M52.2,26.6l10.6-12.3c0.4-0.4,0.7-0.8,1.1-1.3c0.4-0.5,0.8-1,1.1-1.5s0.6-1.1,0.8-1.6s0.3-1.2,0.3-1.8
				S66,6.9,65.7,6.3s-0.6-1-1.1-1.5c-0.5-0.4-1-0.7-1.7-1c-0.6-0.2-1.4-0.4-2.1-0.4c-0.7,0-1.3,0.1-2,0.3c-0.6,0.2-1.2,0.5-1.6,0.9
				c-0.5,0.4-0.8,0.9-1.1,1.5s-0.4,1.3-0.5,2.1H52c0-1.2,0.3-2.3,0.7-3.3c0.5-1,1.1-1.9,1.9-2.6c0.8-0.7,1.7-1.3,2.8-1.7
				S59.6,0,60.7,0c1.4,0,2.6,0.2,3.7,0.6c1.1,0.4,2,1,2.8,1.7s1.4,1.6,1.8,2.6s0.6,2.1,0.6,3.2c0,0.5-0.1,0.9-0.2,1.5
				c-0.1,0.5-0.3,1.1-0.6,1.7c-0.3,0.6-0.6,1.2-1.1,1.9s-1,1.4-1.7,2.2l-9.4,10.7h12.9v3.3H51.8v-2.8C51.8,26.6,52.2,26.6,52.2,26.6
				z"/>
			<path class="st3" d="M99.1,12.4c0.7-0.5,1.5-0.8,2.3-1.1c0.8-0.2,1.7-0.4,2.7-0.4c1.5,0,2.9,0.3,4.1,0.8c1.3,0.5,2.3,1.2,3.2,2.1
				s1.6,1.9,2.1,3s0.7,2.4,0.7,3.6c0,1.3-0.2,2.5-0.7,3.7s-1.2,2.2-2.1,3.1s-2,1.6-3.3,2.1s-2.7,0.8-4.2,0.8c-1.2,0-2.3-0.1-3.3-0.4
				s-1.9-0.7-2.8-1.3c-0.8-0.5-1.5-1.2-2.1-1.9c-0.6-0.7-1.1-1.6-1.4-2.5l3.3-1.6c0.2,0.6,0.5,1.2,0.9,1.8c0.4,0.6,0.9,1,1.5,1.4
				s1.2,0.7,1.9,0.9c0.7,0.2,1.4,0.3,2.2,0.3c1,0,1.8-0.2,2.7-0.5s1.5-0.8,2.1-1.4s1.1-1.3,1.4-2c0.3-0.8,0.5-1.6,0.5-2.5
				s-0.2-1.7-0.5-2.5s-0.8-1.4-1.4-2s-1.3-1-2.1-1.3s-1.7-0.5-2.6-0.5c-1.1,0-2,0.2-2.9,0.5c-0.9,0.4-1.6,0.8-2.2,1.5l-2.9-0.4V0.5
				h17v3.2H99.5v8.7H99.1z"/>
			<path class="st3" d="M6.1,44.6h10.3c1.1,0,2.2,0.1,3.2,0.4s1.8,0.7,2.5,1.3s1.2,1.2,1.6,2.1s0.6,1.8,0.6,2.9
				c0,0.9-0.2,1.7-0.6,2.5s-0.9,1.5-1.6,2.1s-1.5,1.1-2.5,1.4s-2.1,0.5-3.2,0.5h-4.5v8.5h2.6v2.8H6.2v-2.8h2.4V47.4H6.2L6.1,44.6
				L6.1,44.6z M11.9,47.4v7.7h4.6c0.6,0,1.2-0.1,1.8-0.3c0.5-0.2,1-0.4,1.4-0.7s0.7-0.7,0.9-1.2s0.3-1,0.3-1.7
				c0-1.2-0.4-2.1-1.1-2.8c-0.8-0.7-2-1-3.7-1H11.9z"/>
			<path class="st3" d="M29.5,66.2h2.4V47.7h-2.4v-3.1h8.1l8.1,21.1l8.2-21.1h7.7v3.1h-2.4v18.6h2.4v2.8h-8.3v-2.8H56V47.5L47.1,69
				h-2.9l-9-21.6v18.8h2.6V69h-8.3L29.5,66.2L29.5,66.2z"/>
			<path class="st3" d="M67.4,66.6l9-10.4c0.3-0.3,0.6-0.7,1-1.1s0.6-0.8,0.9-1.3c0.3-0.4,0.5-0.9,0.7-1.4s0.3-1,0.3-1.5
				s-0.1-1-0.3-1.5s-0.5-0.9-0.9-1.2s-0.9-0.6-1.4-0.8s-1.1-0.3-1.8-0.3c-0.6,0-1.1,0.1-1.7,0.3c-0.5,0.2-1,0.4-1.4,0.8
				s-0.7,0.8-1,1.3c-0.2,0.5-0.4,1.1-0.4,1.8h-3c0-1,0.2-2,0.6-2.8c0.4-0.9,0.9-1.6,1.6-2.2c0.7-0.6,1.5-1.1,2.4-1.5
				c0.9-0.3,1.8-0.5,2.8-0.5c1.1,0,2.2,0.2,3.1,0.5s1.7,0.8,2.4,1.4s1.2,1.3,1.5,2.2c0.4,0.8,0.5,1.7,0.5,2.7c0,0.4,0,0.8-0.1,1.2
				s-0.3,0.9-0.5,1.4s-0.5,1-0.9,1.6s-0.9,1.2-1.4,1.8l-8,9.1h11V69h-15L67.4,66.6L67.4,66.6z"/>
			<path class="st3" d="M88,67.1c0-0.3,0.1-0.5,0.2-0.8s0.3-0.5,0.5-0.7s0.4-0.3,0.7-0.5c0.3-0.1,0.5-0.2,0.9-0.2
				c0.3,0,0.6,0.1,0.8,0.2c0.3,0.1,0.5,0.3,0.7,0.5s0.4,0.4,0.5,0.7c0.1,0.3,0.2,0.5,0.2,0.8s-0.1,0.6-0.2,0.8
				c-0.1,0.2-0.3,0.5-0.5,0.7s-0.4,0.4-0.7,0.5c-0.3,0.1-0.5,0.2-0.8,0.2s-0.6-0.1-0.9-0.2s-0.5-0.3-0.7-0.5s-0.4-0.4-0.5-0.7
				C88.1,67.6,88,67.3,88,67.1z"/>
			<path class="st3" d="M101.3,54.6c0.6-0.4,1.3-0.7,1.9-0.9c0.7-0.2,1.4-0.3,2.3-0.3c1.3,0,2.4,0.2,3.5,0.6s2,1,2.7,1.7
				c0.8,0.7,1.3,1.6,1.8,2.6s0.6,2,0.6,3.1s-0.2,2.1-0.6,3.1s-1,1.8-1.8,2.6c-0.8,0.8-1.7,1.3-2.8,1.8c-1.1,0.4-2.3,0.7-3.6,0.7
				c-1,0-1.9-0.1-2.8-0.4s-1.6-0.6-2.3-1.1s-1.3-1-1.8-1.6s-0.9-1.3-1.2-2.1l2.8-1.3c0.2,0.5,0.4,1.1,0.8,1.5
				c0.3,0.5,0.8,0.9,1.2,1.2c0.5,0.3,1,0.6,1.6,0.8c0.6,0.2,1.2,0.3,1.8,0.3c0.8,0,1.6-0.1,2.3-0.4s1.3-0.7,1.8-1.2s0.9-1.1,1.2-1.7
				c0.3-0.7,0.4-1.4,0.4-2.1c0-0.8-0.1-1.5-0.4-2.1s-0.7-1.2-1.2-1.7s-1.1-0.9-1.8-1.1c-0.7-0.3-1.4-0.4-2.2-0.4
				c-0.9,0-1.7,0.2-2.5,0.5s-1.4,0.7-1.9,1.2l-2.5-0.4V44.6H113v2.7h-11.6L101.3,54.6L101.3,54.6z"/>
		</g>
		
			<linearGradient id="SVGID_2_" gradientUnits="userSpaceOnUse" x1="0.5" y1="-912.4" x2="120.5" y2="-912.4" gradientTransform="matrix(1 0 0 1 0 996.8)">
			<stop  offset="1.964054e-06" style="stop-color:#FFD966"/>
			<stop  offset="2.991474e-02" style="stop-color:#FCD86A"/>
			<stop  offset="1" style="stop-color:#9DC3E6"/>
		</linearGradient>
		<rect x="0.5" y="80.9" class="st4" width="120" height="7"/>
		<g>
			<path class="st3" d="M13.8,114.5c-0.2-0.3-0.5-0.6-0.8-0.8s-0.6-0.3-0.9-0.4c-0.3-0.1-0.7-0.1-1-0.1c-0.6,0-1.1,0.1-1.5,0.2
				s-0.8,0.3-1.1,0.5s-0.5,0.5-0.6,0.8s-0.2,0.6-0.2,0.9c0,0.5,0.1,0.9,0.3,1.2s0.4,0.5,0.7,0.7s0.6,0.3,0.9,0.4
				c0.3,0.1,0.6,0.2,0.9,0.3l2.3,0.7c0.7,0.2,1.3,0.5,1.8,0.7s1,0.6,1.3,1c0.4,0.4,0.6,0.8,0.8,1.3s0.3,1.1,0.3,1.7
				c0,0.7-0.1,1.4-0.4,2s-0.7,1.1-1.2,1.6c-0.5,0.4-1.1,0.8-1.8,1c-0.7,0.3-1.5,0.4-2.4,0.4s-1.6-0.1-2.2-0.3
				c-0.6-0.2-1.1-0.5-1.6-0.8c-0.4-0.3-0.8-0.7-1-1.1c-0.3-0.4-0.5-0.9-0.6-1.3H4.9v-1.9h2.8c0,0.8,0.1,1.4,0.3,1.8
				c0.2,0.4,0.4,0.6,0.7,0.9c0.3,0.2,0.7,0.4,1.1,0.5c0.4,0.1,0.9,0.2,1.4,0.2s1-0.1,1.4-0.2s0.8-0.3,1-0.5c0.3-0.2,0.5-0.5,0.7-0.8
				s0.2-0.7,0.2-1.1c0-0.5-0.1-0.8-0.3-1.2c-0.2-0.3-0.4-0.6-0.7-0.8s-0.6-0.4-1-0.6s-0.7-0.3-1-0.4L9,120.3c-0.5-0.2-1-0.4-1.5-0.6
				s-0.8-0.6-1.1-0.9s-0.6-0.8-0.7-1.3c-0.2-0.5-0.3-1.1-0.3-1.7c0-0.7,0.1-1.3,0.4-1.8c0.3-0.6,0.6-1.1,1.1-1.5s1.1-0.8,1.8-1
				s1.5-0.4,2.5-0.4c0.6,0,1.2,0.1,1.7,0.2s1,0.3,1.4,0.6s0.8,0.6,1.1,0.9c0.3,0.4,0.6,0.8,0.8,1.2H17v1.9h-2.8
				C14.2,115.3,14,114.8,13.8,114.5z"/>
			<path class="st3" d="M20,110.9h3.7v7.1h0.1c0.2-0.2,0.5-0.4,0.7-0.6c0.3-0.2,0.6-0.3,0.9-0.5c0.3-0.1,0.6-0.2,0.9-0.3
				s0.7-0.1,1-0.1c0.6,0,1.2,0.1,1.7,0.3s0.9,0.4,1.3,0.8s0.6,0.8,0.8,1.4c0.2,0.5,0.3,1.2,0.3,1.9v5.6h1.8v1.9h-5.5v-1.9h1.6v-5.3
				c0-0.9-0.2-1.6-0.7-2c-0.5-0.5-1.1-0.7-1.9-0.7c-0.5,0-1,0.1-1.5,0.3s-1,0.5-1.4,0.9v6.8h1.7v1.9H20v-1.9h1.8v-13.6h-1.6v-2
				L20,110.9L20,110.9z"/>
			<path class="st3" d="M43.1,127.3c-0.4,0.4-0.9,0.7-1.5,1s-1.1,0.4-1.8,0.4c-0.6,0-1.1-0.1-1.6-0.3s-0.9-0.4-1.2-0.7
				s-0.6-0.7-0.8-1.1s-0.3-0.8-0.3-1.3s0.1-0.9,0.2-1.3c0.1-0.4,0.3-0.7,0.6-1c0.2-0.3,0.5-0.5,0.9-0.7c0.3-0.2,0.7-0.3,1-0.5
				c0.4-0.1,0.7-0.2,1.1-0.2c0.4,0,0.7-0.1,1.1-0.1c0.5,0,1,0,1.4,0.1c0.4,0,0.7,0.1,1,0.1v-1c0-0.4-0.1-0.8-0.2-1.1
				c-0.1-0.3-0.3-0.6-0.5-0.8s-0.5-0.3-0.8-0.4s-0.6-0.1-1-0.1s-0.7,0-1,0.1c-0.3,0-0.6,0.1-0.9,0.2c-0.3,0.1-0.5,0.2-0.8,0.3
				c-0.2,0.1-0.4,0.2-0.6,0.3l-0.7-1.4c0.3-0.2,0.6-0.3,0.9-0.5c0.3-0.2,0.7-0.3,1-0.4c0.4-0.1,0.7-0.2,1.1-0.3
				c0.4-0.1,0.8-0.1,1.1-0.1c0.7,0,1.3,0.1,1.8,0.2c0.5,0.2,1,0.4,1.4,0.7s0.7,0.8,0.9,1.3s0.3,1.1,0.3,1.9v5.8h1.3v1.9h-3.4V127.3z
				 M40.3,127c0.3,0,0.6,0,0.8-0.1c0.3-0.1,0.5-0.2,0.8-0.3c0.2-0.1,0.5-0.3,0.7-0.4c0.2-0.2,0.4-0.3,0.5-0.5v-2.6h-2.4
				c-0.4,0-0.8,0-1.1,0.1s-0.6,0.2-0.9,0.4s-0.4,0.4-0.6,0.6s-0.2,0.5-0.2,0.9c0,0.3,0.1,0.6,0.2,0.8c0.1,0.2,0.3,0.4,0.5,0.6
				s0.5,0.3,0.7,0.3C39.6,126.9,40,127,40.3,127z"/>
			<path class="st3" d="M57.8,126.5h1.6v-5.3c0-0.9-0.2-1.6-0.7-2c-0.5-0.5-1.1-0.7-1.9-0.7c-0.5,0-1,0.1-1.5,0.3s-1,0.5-1.4,0.9
				v6.8h1.6v1.9h-5.4v-1.9h1.6v-7.8h-1.6v-1.9h3.7v1.4l0,0c0.2-0.2,0.5-0.4,0.8-0.6s0.6-0.4,0.9-0.5c0.3-0.1,0.6-0.3,1-0.3
				s0.7-0.1,1-0.1c0.6,0,1.2,0.1,1.7,0.3s0.9,0.4,1.3,0.8s0.6,0.8,0.8,1.4c0.2,0.5,0.3,1.2,0.3,1.9v5.6h1.6v1.9h-5.4L57.8,126.5
				L57.8,126.5z"/>
			<path class="st3" d="M75.2,127.4c-0.4,0.4-0.8,0.7-1.3,0.9s-1.1,0.3-1.7,0.3c-0.8,0-1.5-0.1-2.2-0.4c-0.7-0.3-1.3-0.7-1.8-1.2
				s-0.9-1.2-1.2-1.9c-0.3-0.8-0.4-1.6-0.4-2.6c0-0.9,0.1-1.7,0.4-2.5c0.3-0.7,0.7-1.4,1.1-1.9c0.5-0.5,1.1-0.9,1.8-1.2
				s1.5-0.4,2.3-0.4c0.6,0,1.1,0.1,1.6,0.2s0.9,0.4,1.4,0.7v-0.6h2.1V128c0,1.8-0.4,3.2-1.3,4.2s-2.2,1.4-4.1,1.4
				c-0.4,0-0.8,0-1.3-0.1s-0.9-0.2-1.3-0.3s-0.8-0.3-1.3-0.5s-0.8-0.4-1.1-0.7l1.1-1.7c0.2,0.2,0.5,0.4,0.8,0.5s0.6,0.3,0.9,0.4
				c0.3,0.1,0.7,0.2,1,0.3c0.4,0.1,0.7,0.1,1.1,0.1c0.6,0,1.1-0.1,1.5-0.2s0.8-0.3,1-0.6c0.3-0.3,0.5-0.7,0.6-1.2s0.2-1.2,0.2-2
				v-0.2C75.1,127.4,75.2,127.4,75.2,127.4z M72.5,126.8c0.3,0,0.7,0,0.9-0.1s0.5-0.2,0.8-0.3c0.2-0.1,0.4-0.2,0.6-0.4
				s0.3-0.3,0.5-0.4v-6.4c-0.4-0.3-0.8-0.6-1.3-0.7s-1-0.2-1.5-0.2s-1,0.1-1.4,0.3s-0.8,0.5-1.1,0.8c-0.3,0.4-0.6,0.8-0.8,1.3
				s-0.3,1.1-0.3,1.8s0.1,1.4,0.3,1.9s0.4,1,0.8,1.4c0.3,0.4,0.7,0.6,1.2,0.8S71.9,126.8,72.5,126.8z"/>
			<path class="st3" d="M81.6,110.9h3.7v7.1h0.1c0.2-0.2,0.5-0.4,0.7-0.6c0.3-0.2,0.6-0.3,0.9-0.5c0.3-0.1,0.6-0.2,0.9-0.3
				s0.7-0.1,1-0.1c0.6,0,1.2,0.1,1.7,0.3s0.9,0.4,1.3,0.8s0.6,0.8,0.8,1.4c0.2,0.5,0.3,1.2,0.3,1.9v5.6h1.8v1.9h-5.5v-1.9h1.6v-5.3
				c0-0.9-0.2-1.6-0.7-2c-0.5-0.5-1.1-0.7-1.9-0.7c-0.5,0-1,0.1-1.5,0.3s-1,0.5-1.4,0.9v6.8h1.7v1.9h-5.5v-1.9h1.8v-13.6h-1.6v-2
				L81.6,110.9L81.6,110.9z"/>
			<path class="st3" d="M104.8,127.3c-0.4,0.4-0.9,0.7-1.5,1s-1.1,0.4-1.8,0.4c-0.6,0-1.1-0.1-1.6-0.3s-0.9-0.4-1.2-0.7
				s-0.6-0.7-0.8-1.1c-0.2-0.4-0.3-0.8-0.3-1.3s0.1-0.9,0.2-1.3s0.3-0.7,0.6-1c0.2-0.3,0.5-0.5,0.9-0.7c0.3-0.2,0.7-0.3,1-0.5
				c0.4-0.1,0.7-0.2,1.1-0.2s0.7-0.1,1.1-0.1c0.5,0,1,0,1.4,0.1c0.4,0,0.7,0.1,1,0.1v-1c0-0.4-0.1-0.8-0.2-1.1
				c-0.1-0.3-0.3-0.6-0.5-0.8s-0.5-0.3-0.8-0.4s-0.6-0.1-1-0.1s-0.7,0-1,0.1c-0.3,0-0.6,0.1-0.9,0.2s-0.5,0.2-0.8,0.3
				c-0.2,0.1-0.4,0.2-0.6,0.3l-0.7-1.4c0.3-0.2,0.6-0.3,0.9-0.5s0.7-0.3,1-0.4c0.4-0.1,0.7-0.2,1.1-0.3c0.4-0.1,0.8-0.1,1.1-0.1
				c0.7,0,1.3,0.1,1.8,0.2c0.5,0.2,1,0.4,1.4,0.7s0.7,0.8,0.9,1.3s0.3,1.1,0.3,1.9v5.8h1.3v1.9h-3.4V127.3z M102,127
				c0.3,0,0.6,0,0.8-0.1c0.3-0.1,0.5-0.2,0.8-0.3c0.2-0.1,0.5-0.3,0.7-0.4c0.2-0.2,0.4-0.3,0.5-0.5v-2.6h-2.4c-0.4,0-0.8,0-1.1,0.1
				s-0.6,0.2-0.9,0.4s-0.4,0.4-0.6,0.6s-0.2,0.5-0.2,0.9c0,0.3,0.1,0.6,0.2,0.8c0.1,0.2,0.3,0.4,0.5,0.6s0.5,0.3,0.7,0.3
				C101.3,126.9,101.6,127,102,127z"/>
			<path class="st3" d="M111.7,116.8h3.8v9.7h1.8v1.9h-5.5v-1.9h1.7v-7.8h-1.7L111.7,116.8L111.7,116.8z M113,112.6
				c0-0.2,0-0.4,0.1-0.6s0.2-0.3,0.3-0.5c0.1-0.1,0.3-0.2,0.5-0.3s0.4-0.1,0.6-0.1s0.4,0,0.6,0.1s0.3,0.2,0.5,0.3
				c0.1,0.1,0.2,0.3,0.3,0.5s0.1,0.4,0.1,0.6s0,0.4-0.1,0.6s-0.2,0.3-0.3,0.5c-0.1,0.1-0.3,0.2-0.5,0.3s-0.4,0.1-0.6,0.1
				s-0.4,0-0.6-0.1s-0.3-0.2-0.5-0.3c-0.1-0.1-0.2-0.3-0.3-0.5S113,112.8,113,112.6z"/>
		</g>
		<polygon class="st3" points="93,87.8 83.7,104 102.4,104 		"/>
	</g>
	<g class="st5">
		<path class="st3" d="M6.1,149.5l5.4-6.3c0.2-0.2,0.4-0.4,0.6-0.7c0.2-0.2,0.4-0.5,0.6-0.8c0.2-0.3,0.3-0.5,0.4-0.8
			c0.1-0.3,0.2-0.6,0.2-0.9c0-0.3-0.1-0.6-0.2-0.9c-0.1-0.3-0.3-0.5-0.6-0.8c-0.2-0.2-0.5-0.4-0.8-0.5s-0.7-0.2-1.1-0.2
			c-0.3,0-0.7,0.1-1,0.2c-0.3,0.1-0.6,0.3-0.8,0.5s-0.4,0.5-0.6,0.8c-0.1,0.3-0.2,0.7-0.2,1.1H6.1c0-0.6,0.1-1.2,0.4-1.7
			c0.2-0.5,0.6-1,1-1.4s0.9-0.7,1.4-0.9s1.1-0.3,1.7-0.3c0.7,0,1.3,0.1,1.9,0.3c0.6,0.2,1,0.5,1.4,0.9s0.7,0.8,0.9,1.3
			s0.3,1.1,0.3,1.7c0,0.2,0,0.5-0.1,0.7c-0.1,0.3-0.2,0.5-0.3,0.8s-0.3,0.6-0.5,1c-0.2,0.3-0.5,0.7-0.8,1.1l-4.8,5.5h6.5v1.7h-9
			V149.5z"/>
		<path class="st3" d="M23.8,151.1c-1.1,0-2-0.2-2.7-0.6c-0.7-0.4-1.3-0.9-1.8-1.6c-0.4-0.7-0.8-1.5-0.9-2.4c-0.2-0.9-0.3-1.9-0.3-3
			s0.1-2.2,0.4-3.2s0.6-1.8,1-2.4c0.4-0.6,1-1.1,1.6-1.5s1.6-0.6,2.7-0.6s2,0.2,2.7,0.5s1.3,0.8,1.8,1.5s0.8,1.5,1,2.5
			s0.3,2,0.3,3.1s-0.1,2.1-0.3,3c-0.2,0.9-0.5,1.7-1,2.4c-0.4,0.7-1,1.2-1.8,1.6C25.8,150.9,24.9,151.1,23.8,151.1z M23.8,149.4
			c0.8,0,1.4-0.2,1.9-0.5s0.8-0.7,1.1-1.3c0.2-0.5,0.4-1.2,0.5-1.9s0.2-1.5,0.2-2.3s0-1.5-0.1-2.2s-0.3-1.3-0.5-1.9
			c-0.3-0.5-0.6-1-1.1-1.3s-1.1-0.5-1.9-0.5s-1.4,0.2-1.9,0.5s-0.8,0.7-1,1.2s-0.4,1.1-0.5,1.9s-0.2,1.6-0.2,2.4
			c0,0.8,0,1.6,0.1,2.3s0.3,1.3,0.5,1.9c0.3,0.5,0.6,1,1.1,1.3C22.4,149.2,23,149.4,23.8,149.4z"/>
		<path class="st3" d="M33.9,149.2h1.5v-10.8l-3.1,1.6v-2l4.2-2.3h0.8v13.5h1.5v1.7h-4.9V149.2z"/>
		<path class="st3" d="M45.3,150.9l3.5-5.6c-0.3,0.1-0.6,0.2-0.9,0.3c-0.3,0-0.6,0.1-0.9,0.1c-0.6,0-1.2-0.1-1.8-0.3
			s-1.2-0.5-1.6-0.9c-0.4-0.4-0.8-0.9-1.1-1.5s-0.4-1.2-0.4-1.8c0-0.8,0.1-1.6,0.4-2.2c0.3-0.6,0.7-1.2,1.2-1.6
			c0.5-0.4,1.1-0.8,1.7-1c0.6-0.2,1.3-0.3,2.1-0.3s1.4,0.1,2,0.4c0.6,0.2,1.2,0.6,1.7,1s0.9,1,1.2,1.6s0.4,1.3,0.4,2
			c0,0.6-0.1,1.1-0.3,1.7c-0.2,0.6-0.5,1.1-0.8,1.8l-3.8,6.6h-2.6V150.9z M47.3,137.6c-0.5,0-0.9,0.1-1.3,0.2
			c-0.4,0.2-0.8,0.4-1.1,0.7s-0.6,0.6-0.8,1s-0.3,0.8-0.3,1.3s0.1,1,0.3,1.4s0.5,0.7,0.8,1s0.7,0.5,1.1,0.6c0.4,0.1,0.8,0.2,1.3,0.2
			c0.6,0,1.1-0.1,1.4-0.2c0.3-0.1,0.7-0.4,1-0.6c0.3-0.3,0.5-0.6,0.7-1s0.3-0.9,0.3-1.4s-0.1-1-0.3-1.4s-0.4-0.7-0.7-1
			s-0.7-0.5-1.1-0.6C48.3,137.6,47.8,137.6,47.3,137.6z"/>
		<path class="st3" d="M61,135.6h1.8l-6,15.6H55L61,135.6z"/>
		<path class="st3" d="M66.5,149.2H68v-10.8l-3.1,1.6v-2l4.2-2.3h0.8v13.5h1.5v1.7h-4.9V149.2z"/>
		<path class="st3" d="M74.4,149.5l5.4-6.3c0.2-0.2,0.4-0.4,0.6-0.7c0.2-0.2,0.4-0.5,0.6-0.8s0.3-0.5,0.4-0.8s0.2-0.6,0.2-0.9
			c0-0.3-0.1-0.6-0.2-0.9c-0.1-0.3-0.3-0.5-0.6-0.8c-0.2-0.2-0.5-0.4-0.8-0.5s-0.7-0.2-1.1-0.2c-0.3,0-0.7,0.1-1,0.2
			s-0.6,0.3-0.8,0.5c-0.2,0.2-0.4,0.5-0.6,0.8c-0.1,0.3-0.2,0.7-0.2,1.1h-1.8c0-0.6,0.1-1.2,0.4-1.7c0.2-0.5,0.6-1,1-1.4
			s0.9-0.7,1.4-0.9s1.1-0.3,1.7-0.3c0.7,0,1.3,0.1,1.9,0.3s1,0.5,1.4,0.9s0.7,0.8,0.9,1.3c0.2,0.5,0.3,1.1,0.3,1.7
			c0,0.2,0,0.5-0.1,0.7c-0.1,0.3-0.2,0.5-0.3,0.8c-0.1,0.3-0.3,0.6-0.5,1c-0.2,0.3-0.5,0.7-0.8,1.1l-4.8,5.5h6.5v1.7h-8.9v-1.4H74.4
			z"/>
		<path class="st3" d="M91.9,135.6h1.8l-6,15.6h-1.8L91.9,135.6z"/>
		<path class="st3" d="M95.8,149.5l5.4-6.3c0.2-0.2,0.4-0.4,0.6-0.7c0.2-0.2,0.4-0.5,0.6-0.8s0.3-0.5,0.4-0.8s0.2-0.6,0.2-0.9
			c0-0.3-0.1-0.6-0.2-0.9c-0.1-0.3-0.3-0.5-0.6-0.8c-0.2-0.2-0.5-0.4-0.8-0.5s-0.7-0.2-1.1-0.2c-0.3,0-0.7,0.1-1,0.2
			s-0.6,0.3-0.8,0.5c-0.2,0.2-0.4,0.5-0.6,0.8c-0.1,0.3-0.2,0.7-0.2,1.1h-1.8c0-0.6,0.1-1.2,0.4-1.7c0.2-0.5,0.6-1,1-1.4
			s0.9-0.7,1.4-0.9s1.1-0.3,1.7-0.3c0.7,0,1.3,0.1,1.9,0.3s1,0.5,1.4,0.9s0.7,0.8,0.9,1.3c0.2,0.5,0.3,1.1,0.3,1.7
			c0,0.2,0,0.5-0.1,0.7c-0.1,0.3-0.2,0.5-0.3,0.8c-0.1,0.3-0.3,0.6-0.5,1c-0.2,0.3-0.5,0.7-0.8,1.1l-4.8,5.5h6.5v1.7H96v-1.4H95.8z"
			/>
		<path class="st3" d="M108.7,149.2h1.2c0.4-1,0.8-2,1.2-3.1c0.4-1,0.9-2,1.3-3s0.9-1.9,1.3-2.8c0.4-0.9,0.8-1.7,1.2-2.4h-5.7v1.1
			h-1.9v-3h10v1.5c-0.4,0.8-0.9,1.7-1.4,2.7c-0.5,0.9-1,1.9-1.4,2.9s-0.9,2-1.4,3c-0.4,1-0.8,2-1.2,3h1.3v1.7h-4.5V149.2z"/>
	</g>
</g>
</svg>
