<svg id="corner-icon" data-name="图层 1" xmlns="http://www.w3.org/2000/svg" xmlns:xlink="http://www.w3.org/1999/xlink"
	viewBox="0 0 100 100">
	<defs>
		<style>
			.cls-1 {
				fill: #2f2f2f;
			}

			.cls-2 {
				stroke: #535353;
				stroke-miterlimit: 10;
				fill: url(#未命名的渐变_2);
			}

			.cls-3 {
				isolation: isolate;
			}

		</style>
		<linearGradient id="未命名的渐变_2" x1="9.5" y1="-951.71" x2="70.77" y2="-951.71"
			gradientTransform="translate(-9 994.8)" gradientUnits="userSpaceOnUse">
			<stop offset="0" stop-color="#ffd966" />
			<stop offset="0.03" stop-color="#fcd86a" />
			<stop offset="1" stop-color="#9dc3e6" />
		</linearGradient>
	</defs>
	<title>tianqi</title>
	<path class="cls-1"
		d="M17.67,17.16a6.15,6.15,0,0,1-2.76-.56A5.34,5.34,0,0,1,13.13,15a6.77,6.77,0,0,1-1-2.4,13.52,13.52,0,0,1-.31-3,12.8,12.8,0,0,1,.41-3.17,7.73,7.73,0,0,1,1-2.35,5.89,5.89,0,0,1,1.63-1.53A4.73,4.73,0,0,1,17.62,2a6.1,6.1,0,0,1,2.71.51A4,4,0,0,1,22.11,4a6.18,6.18,0,0,1,1,2.45,14.84,14.84,0,0,1,.31,3.06,13.52,13.52,0,0,1-.31,3,6.77,6.77,0,0,1-1,2.4,5.49,5.49,0,0,1-1.79,1.63A4.46,4.46,0,0,1,17.67,17.16Zm0-1.68A3.64,3.64,0,0,0,19.61,15a2.74,2.74,0,0,0,1.12-1.28,9.67,9.67,0,0,0,.56-1.84,16,16,0,0,0,.2-2.25,16.06,16.06,0,0,0-.15-2.25,5.45,5.45,0,0,0-.56-1.89A3.56,3.56,0,0,0,19.66,4.2a3.07,3.07,0,0,0-1.89-.51,3,3,0,0,0-1.89.51,3.36,3.36,0,0,0-1.07,1.17,6.43,6.43,0,0,0-.56,1.89A12.53,12.53,0,0,0,14,9.61c0,.82.05,1.58.1,2.25a6,6,0,0,0,.51,1.84A3,3,0,0,0,15.78,15,3.45,3.45,0,0,0,17.67,15.48Z"
		transform="translate(-9 -2)" />
	<path class="cls-1"
		d="M35.9,15.58,41.31,9.3a7.64,7.64,0,0,0,.56-.66,7.31,7.31,0,0,0,.56-.77,6.1,6.1,0,0,0,.41-.82A2.67,2.67,0,0,0,43,6.14a2,2,0,0,0-.2-.92,2.69,2.69,0,0,0-.56-.77,3.54,3.54,0,0,0-.87-.51,3.63,3.63,0,0,0-1.07-.2,3.54,3.54,0,0,0-1,.15,2.23,2.23,0,0,0-1.38,1.23,3.31,3.31,0,0,0-.26,1.07H35.79a4.51,4.51,0,0,1,.36-1.68,4.25,4.25,0,0,1,1-1.33,4.47,4.47,0,0,1,1.43-.87A4.9,4.9,0,0,1,40.24,2a5.43,5.43,0,0,1,1.89.31,4.47,4.47,0,0,1,1.43.87,3.45,3.45,0,0,1,.92,1.33,4.42,4.42,0,0,1,.31,1.63,4.53,4.53,0,0,1-.1.77,3.56,3.56,0,0,1-.31.87,6.66,6.66,0,0,1-.56,1,13.52,13.52,0,0,1-.87,1.12l-4.8,5.46h6.59V17h-9V15.58Z"
		transform="translate(-9 -2)" />
	<path class="cls-1"
		d="M59.84,8.33A5,5,0,0,1,61,7.77a5.59,5.59,0,0,1,1.38-.2A5.46,5.46,0,0,1,64.49,8,4.55,4.55,0,0,1,66.12,9a5.2,5.2,0,0,1,1.07,1.53,4.54,4.54,0,0,1,.36,1.84A4.78,4.78,0,0,1,64.44,17a5.93,5.93,0,0,1-2.14.41,5.87,5.87,0,0,1-1.68-.2,5.19,5.19,0,0,1-1.43-.66,4.86,4.86,0,0,1-1.07-1,3.92,3.92,0,0,1-.71-1.28l1.68-.82a3.87,3.87,0,0,0,.46.92,2.56,2.56,0,0,0,.77.71,3.39,3.39,0,0,0,1,.46,4,4,0,0,0,1.12.15,4.13,4.13,0,0,0,1.38-.26,2.64,2.64,0,0,0,1.07-.71,3.37,3.37,0,0,0,.71-1,3.32,3.32,0,0,0,0-2.55,2.85,2.85,0,0,0-.71-1,2.92,2.92,0,0,0-1.07-.66,3.84,3.84,0,0,0-1.33-.26A4.5,4.5,0,0,0,61,9.45a2.93,2.93,0,0,0-1.12.77L58.36,10V2.26H67V3.89H60V8.33Z"
		transform="translate(-9 -2)" />
	<path class="cls-1"
		d="M12.36,24.77h5.26a5.74,5.74,0,0,1,1.63.2,3.38,3.38,0,0,1,1.28.66,2.86,2.86,0,0,1,.82,1.07,3.49,3.49,0,0,1,.31,1.48,2.77,2.77,0,0,1-.31,1.28,3.33,3.33,0,0,1-.82,1.07,3.46,3.46,0,0,1-1.28.71,5.75,5.75,0,0,1-1.63.26h-2.3v4.34h1.33v1.43H12.41V35.85h1.23V26.2H12.41l-.05-1.43Zm3,1.43v3.93h2.35a2.89,2.89,0,0,0,.92-.15,3.12,3.12,0,0,0,.71-.36,1.39,1.39,0,0,0,.46-.61,2.2,2.2,0,0,0,.15-.87,1.92,1.92,0,0,0-.56-1.43,2.79,2.79,0,0,0-1.89-.51Z"
		transform="translate(-9 -2)" />
	<path class="cls-1"
		d="M24.31,35.8h1.23V26.35H24.31V24.77h4.14l4.14,10.77,4.19-10.77H40.7v1.58H39.47v9.5H40.7v1.43H36.46V35.85h1.38v-9.6l-4.54,11H31.81l-4.6-11v9.6h1.33v1.43H24.31V35.8Z"
		transform="translate(-9 -2)" />
	<path class="cls-1"
		d="M43.66,36l4.6-5.31c.15-.15.31-.36.51-.56a3.07,3.07,0,0,0,.46-.66,3.12,3.12,0,0,0,.36-.71,2,2,0,0,0,0-1.53,1.39,1.39,0,0,0-.46-.61,3.26,3.26,0,0,0-.71-.41,2.47,2.47,0,0,0-.92-.15,2.59,2.59,0,0,0-.87.15,2,2,0,0,0-.71.41,3.28,3.28,0,0,0-.51.66,2.44,2.44,0,0,0-.2.92H43.66A3.26,3.26,0,0,1,44,26.76a3,3,0,0,1,.82-1.12A5,5,0,0,1,46,24.87a4.43,4.43,0,0,1,1.43-.26,5.14,5.14,0,0,1,1.58.26,3.68,3.68,0,0,1,1.23.71A2.46,2.46,0,0,1,51,26.71a3,3,0,0,1,.26,1.38,2.49,2.49,0,0,1-.05.61,6.19,6.19,0,0,1-.26.71,4.56,4.56,0,0,1-.46.82,11.22,11.22,0,0,1-.71.92L45.7,35.8h5.62v1.43H43.66V36Z"
		transform="translate(-9 -2)" />
	<path class="cls-1"
		d="M54.18,36.26a1.2,1.2,0,0,1,.1-.41.92.92,0,0,1,.26-.36,2.16,2.16,0,0,1,.36-.26,1.22,1.22,0,0,1,.46-.1,1,1,0,0,1,.41.1,1.34,1.34,0,0,1,.61.61,1.2,1.2,0,0,1,.1.41,1,1,0,0,1-.1.41,1.55,1.55,0,0,1-.26.36.92.92,0,0,1-.36.26,1.2,1.2,0,0,1-.41.1,1.49,1.49,0,0,1-.46-.1,1.34,1.34,0,0,1-.61-.61A1.58,1.58,0,0,1,54.18,36.26Z"
		transform="translate(-9 -2)" />
	<path class="cls-1"
		d="M61,29.88a4.18,4.18,0,0,1,1-.46,4.09,4.09,0,0,1,1.17-.15,5.05,5.05,0,0,1,1.79.31,3.75,3.75,0,0,1,1.38.87,4.12,4.12,0,0,1,.92,1.33,3.38,3.38,0,0,1,.31,1.58,4.16,4.16,0,0,1-.31,1.58,3.89,3.89,0,0,1-.92,1.33,4.59,4.59,0,0,1-1.43.92,5.35,5.35,0,0,1-1.84.36,4.4,4.4,0,0,1-1.43-.2,4.17,4.17,0,0,1-1.17-.56,4.77,4.77,0,0,1-.92-.82,3.67,3.67,0,0,1-.61-1.07l1.43-.66a2.22,2.22,0,0,0,.41.77,2.33,2.33,0,0,0,.61.61,4.07,4.07,0,0,0,.82.41,2.89,2.89,0,0,0,.92.15,3,3,0,0,0,1.17-.2,2.9,2.9,0,0,0,.92-.61,3.35,3.35,0,0,0,.61-.87A2.67,2.67,0,0,0,66,33.4a2.37,2.37,0,0,0-.2-1.07,3.35,3.35,0,0,0-.61-.87,2.14,2.14,0,0,0-.92-.56,2.75,2.75,0,0,0-1.12-.2,3.56,3.56,0,0,0-1.28.26,2.64,2.64,0,0,0-1,.61l-1.28-.2V24.77h7.35v1.38H61L61,29.88Z"
		transform="translate(-9 -2)" />
	<rect class="cls-2" x="0.5" y="41.31" width="61.27" height="3.57" />
	<path class="cls-1"
		d="M16.29,60.46a1.55,1.55,0,0,0-.41-.41,1.81,1.81,0,0,0-.46-.2,1.74,1.74,0,0,0-.51-.05,3.09,3.09,0,0,0-.77.1,1.89,1.89,0,0,0-.56.26.79.79,0,0,0-.31.41,1.49,1.49,0,0,0-.1.46,1.09,1.09,0,0,0,.15.61,1.19,1.19,0,0,0,.36.36,1.81,1.81,0,0,0,.46.2l.46.15,1.17.36a8.72,8.72,0,0,1,.92.36,1.66,1.66,0,0,1,.66.51,1.8,1.8,0,0,1,.41.66,2.39,2.39,0,0,1,.15.87,2.29,2.29,0,0,1-.2,1,3.11,3.11,0,0,1-.61.82,2.68,2.68,0,0,1-.92.51,3.09,3.09,0,0,1-1.23.2,3.51,3.51,0,0,1-1.12-.15A4.07,4.07,0,0,1,13,67.1a1.77,1.77,0,0,1-.51-.56,1.94,1.94,0,0,1-.31-.66h-.46v-1h1.43a2.13,2.13,0,0,0,.15.92,1.59,1.59,0,0,0,.36.46,1.89,1.89,0,0,0,.56.26,2.55,2.55,0,0,0,1.43,0,1.2,1.2,0,0,0,.51-.26,1.38,1.38,0,0,0,.36-.41,1,1,0,0,0,.1-.56,1.21,1.21,0,0,0-.15-.61,1.38,1.38,0,0,0-.36-.41,4.49,4.49,0,0,0-.51-.31,3.52,3.52,0,0,0-.51-.2l-1.28-.36-.77-.31a1.7,1.7,0,0,1-.56-.46,1.39,1.39,0,0,1-.36-.66,2.39,2.39,0,0,1-.15-.87,1.75,1.75,0,0,1,.2-.92,2.13,2.13,0,0,1,.56-.77,2.68,2.68,0,0,1,.92-.51,4.45,4.45,0,0,1,1.28-.2,4.5,4.5,0,0,1,.87.1,1.79,1.79,0,0,1,.71.31,5.43,5.43,0,0,1,.56.46,4.26,4.26,0,0,1,.41.61h.41v1H16.49A1.32,1.32,0,0,0,16.29,60.46Z"
		transform="translate(-9 -2)" />
	<path class="cls-1"
		d="M19.46,58.62h1.89v3.63h.05c.1-.1.26-.2.36-.31s.31-.15.46-.26l.46-.15a1.74,1.74,0,0,1,.51-.05,2.38,2.38,0,0,1,.87.15,1.8,1.8,0,0,1,.66.41,1.65,1.65,0,0,1,.41.71,2.76,2.76,0,0,1,.15,1v2.86h.92v1H23.39v-1h.82V63.88a1.25,1.25,0,0,0-.36-1,1.27,1.27,0,0,0-1-.36,2,2,0,0,0-.77.15,2.14,2.14,0,0,0-.71.46v3.47h.87v1H19.46v-1h.92V59.64h-.82v-1Z"
		transform="translate(-9 -2)" />
	<path class="cls-1"
		d="M31.25,67a2.86,2.86,0,0,1-.77.51,1.87,1.87,0,0,1-.92.2,2.12,2.12,0,0,1-.82-.15,1.77,1.77,0,0,1-.61-.36,2.27,2.27,0,0,1-.41-.56,1.41,1.41,0,0,1-.15-.66,2.59,2.59,0,0,1,.1-.66A1.06,1.06,0,0,1,28,64.8a1.11,1.11,0,0,1,.46-.36c.15-.1.36-.15.51-.26a2.17,2.17,0,0,1,.56-.1c.2,0,.36-.05.56-.05a3.14,3.14,0,0,1,.71.05c.2,0,.36.05.51.05v-.51a1.84,1.84,0,0,0-.1-.56,1.11,1.11,0,0,0-.26-.41,1,1,0,0,0-.41-.2,2.58,2.58,0,0,0-1,0,1.49,1.49,0,0,0-.46.1l-.41.15-.31.15L28,62.15c.15-.1.31-.15.46-.26a2.13,2.13,0,0,1,.51-.2l.56-.15a2.29,2.29,0,0,1,.56-.05,4.58,4.58,0,0,1,.92.1,3.12,3.12,0,0,1,.71.36,1.55,1.55,0,0,1,.46.66,2.57,2.57,0,0,1,.15,1v3H33v1H31.25Zm-1.43-.15a1,1,0,0,0,.41-.05l.41-.15.36-.2c.1-.1.2-.15.26-.26V64.85H30a1.91,1.91,0,0,0-.56.05,1.81,1.81,0,0,0-.46.2,1.73,1.73,0,0,0-.31.31c-.1.1-.1.26-.1.46a1,1,0,0,0,.1.41,1.35,1.35,0,0,0,.26.31.55.55,0,0,0,.36.15A1.81,1.81,0,0,0,29.82,66.84Z"
		transform="translate(-9 -2)" />
	<path class="cls-1"
		d="M38.76,66.59h.82V63.88a1.25,1.25,0,0,0-.36-1,1.27,1.27,0,0,0-1-.36,2,2,0,0,0-.77.15,2.14,2.14,0,0,0-.71.46v3.47h.82v1H34.82v-1h.82v-4h-.82v-1h1.89v.71h0a2.83,2.83,0,0,1,.41-.31,2.07,2.07,0,0,1,.46-.26,1.5,1.5,0,0,1,.51-.15c.2,0,.36-.05.51-.05a2.38,2.38,0,0,1,.87.15,1.8,1.8,0,0,1,.66.41,1.65,1.65,0,0,1,.41.71,2.76,2.76,0,0,1,.15,1v2.86h.82v1H38.76V66.59Z"
		transform="translate(-9 -2)" />
	<path class="cls-1"
		d="M47.64,67a1.94,1.94,0,0,1-.66.46,2.39,2.39,0,0,1-.87.15,2.75,2.75,0,0,1-1.12-.2,2.9,2.9,0,0,1-.92-.61,3.14,3.14,0,0,1-.61-1,3.63,3.63,0,0,1-.2-1.33,3.53,3.53,0,0,1,.2-1.28,4.4,4.4,0,0,1,.56-1,2.9,2.9,0,0,1,.92-.61,3,3,0,0,1,1.17-.2,4,4,0,0,1,.82.1,2.34,2.34,0,0,1,.71.36v-.31h1.07v5.72A3.09,3.09,0,0,1,48,69.5a2.61,2.61,0,0,1-2.09.71,3.14,3.14,0,0,1-.66-.05L44.63,70a5.73,5.73,0,0,1-.66-.26,1.52,1.52,0,0,1-.56-.36l.56-.87a1.11,1.11,0,0,0,.41.26c.15.05.31.15.46.2l.51.15a2.09,2.09,0,0,0,.56.05,3.09,3.09,0,0,0,.77-.1.87.87,0,0,0,.51-.31,1.16,1.16,0,0,0,.31-.61,5.27,5.27,0,0,0,.1-1V67Zm-1.38-.31a1.27,1.27,0,0,0,.46-.05,3.52,3.52,0,0,1,.41-.15,1.07,1.07,0,0,0,.31-.2.9.9,0,0,1,.26-.2V62.86A1.68,1.68,0,0,0,47,62.5a3.94,3.94,0,0,0-.77-.1,1.63,1.63,0,0,0-.71.15A2.27,2.27,0,0,0,45,63a2.89,2.89,0,0,0-.41.66,2.47,2.47,0,0,0-.15.92,2.76,2.76,0,0,0,.15,1,2,2,0,0,0,.41.71,1.3,1.3,0,0,0,.61.41A1.4,1.4,0,0,0,46.26,66.74Z"
		transform="translate(-9 -2)" />
	<path class="cls-1"
		d="M50.91,58.62H52.8v3.63h.05c.1-.1.26-.2.36-.31s.31-.15.46-.26l.46-.15a1.74,1.74,0,0,1,.51-.05,2.38,2.38,0,0,1,.87.15,1.8,1.8,0,0,1,.66.41,1.65,1.65,0,0,1,.41.71,2.76,2.76,0,0,1,.15,1v2.86h.92v1H54.84v-1h.82V63.88a1.25,1.25,0,0,0-.36-1,1.27,1.27,0,0,0-1-.36,2,2,0,0,0-.77.15,2.14,2.14,0,0,0-.71.46v3.47h.87v1H50.91v-1h.92V59.64H51v-1Z"
		transform="translate(-9 -2)" />
	<path class="cls-1"
		d="M62.75,67a2.86,2.86,0,0,1-.77.51,1.87,1.87,0,0,1-.92.2,2.12,2.12,0,0,1-.82-.15,1.77,1.77,0,0,1-.61-.36,2.27,2.27,0,0,1-.41-.56,1.41,1.41,0,0,1-.15-.66,2.59,2.59,0,0,1,.1-.66,1.06,1.06,0,0,1,.31-.51,1.11,1.11,0,0,1,.46-.36c.15-.1.36-.15.51-.26a2.17,2.17,0,0,1,.56-.1c.2,0,.36-.05.56-.05a3.14,3.14,0,0,1,.71.05c.2,0,.36.05.51.05v-.51a1.84,1.84,0,0,0-.1-.56,1.11,1.11,0,0,0-.26-.41,1,1,0,0,0-.41-.2,2.58,2.58,0,0,0-1,0,1.49,1.49,0,0,0-.46.1l-.41.15-.31.15-.36-.71c.15-.1.31-.15.46-.26a2.13,2.13,0,0,1,.51-.2l.56-.15a2.29,2.29,0,0,1,.56-.05,4.58,4.58,0,0,1,.92.1,3.12,3.12,0,0,1,.71.36,1.55,1.55,0,0,1,.46.66,2.57,2.57,0,0,1,.15,1v3h.66v1H62.75Zm-1.43-.15a1,1,0,0,0,.41-.05l.41-.15.36-.2c.1-.1.2-.15.26-.26V64.85H61.53a1.91,1.91,0,0,0-.56.05,1.81,1.81,0,0,0-.46.2,1.73,1.73,0,0,0-.31.31c-.1.1-.1.26-.1.46a1,1,0,0,0,.1.41,1.35,1.35,0,0,0,.26.31.55.55,0,0,0,.36.15A1.51,1.51,0,0,0,61.32,66.84Z"
		transform="translate(-9 -2)" />
	<path class="cls-1"
		d="M66.28,61.64h1.94v5h.92v1H66.33v-1h.87v-4h-.87l-.05-1Zm.66-2.14a.65.65,0,0,1,.05-.31c.05-.1.1-.15.15-.26a1.12,1.12,0,0,1,.26-.15.94.94,0,0,1,.61,0c.1.05.15.1.26.15a1.12,1.12,0,0,1,.15.26.94.94,0,0,1,0,.61c-.05.1-.1.15-.15.26a1.12,1.12,0,0,1-.26.15.94.94,0,0,1-.61,0c-.1-.05-.15-.1-.26-.15A1.12,1.12,0,0,1,67,59.8.65.65,0,0,1,66.94,59.49Z"
		transform="translate(-9 -2)" />
	<polygon class="cls-1" points="47.73 44.83 42.98 53.1 52.53 53.1 47.73 44.83" />
	<g class="cls-3">
		<path class="cls-1"
			d="M12.36,78.33l2.76-3.22a2.22,2.22,0,0,0,.31-.36,2.83,2.83,0,0,0,.31-.41,1.53,1.53,0,0,0,.2-.41,1.08,1.08,0,0,0,0-.92,1.07,1.07,0,0,0-.31-.41,1.11,1.11,0,0,0-.41-.26,1.84,1.84,0,0,0-.56-.1,1.81,1.81,0,0,0-.51.1,1.11,1.11,0,0,0-.41.26,2.83,2.83,0,0,0-.31.41,1.84,1.84,0,0,0-.1.56h-1a1.68,1.68,0,0,1,.2-.87,2.3,2.3,0,0,1,.51-.71,2.14,2.14,0,0,1,.71-.46,2.39,2.39,0,0,1,.87-.15,3,3,0,0,1,1,.15,1.73,1.73,0,0,1,.71.46,1.94,1.94,0,0,1,.46.66,2.39,2.39,0,0,1,.15.87.87.87,0,0,1-.05.36c-.05.15-.1.26-.15.41a4.72,4.72,0,0,1-.26.51c-.1.15-.26.36-.41.56l-2.45,2.81H17V79h-4.6Z"
			transform="translate(-9 -2)" />
		<path class="cls-1"
			d="M21.4,79.15A2.76,2.76,0,0,1,20,78.84,2.8,2.8,0,0,1,19.1,78a3.22,3.22,0,0,1-.46-1.23,7.07,7.07,0,0,1-.15-1.53,5.74,5.74,0,0,1,.2-1.63,4.66,4.66,0,0,1,.51-1.23,2.92,2.92,0,0,1,.82-.77,2.63,2.63,0,0,1,1.38-.31,3.49,3.49,0,0,1,1.38.26,2.19,2.19,0,0,1,.92.77,3.19,3.19,0,0,1,.51,1.28,7.93,7.93,0,0,1,.15,1.58,7.07,7.07,0,0,1-.15,1.53A3.28,3.28,0,0,1,23.69,78a2.06,2.06,0,0,1-.92.82A2.31,2.31,0,0,1,21.4,79.15Zm0-.87a1.82,1.82,0,0,0,1-.26,1.46,1.46,0,0,0,.56-.66,4.45,4.45,0,0,0,.26-1,8.38,8.38,0,0,0,.1-1.17,7.91,7.91,0,0,0-.05-1.12,5.39,5.39,0,0,0-.26-1,1.78,1.78,0,0,0-.56-.66,2,2,0,0,0-1.94,0,1.19,1.19,0,0,0-.51.61,3.77,3.77,0,0,0-.26,1,9.91,9.91,0,0,0-.1,1.23,8.65,8.65,0,0,0,.05,1.17,5.39,5.39,0,0,0,.26,1,1.78,1.78,0,0,0,.56.66A2,2,0,0,0,21.4,78.28Z"
			transform="translate(-9 -2)" />
		<path class="cls-1" d="M26.55,78.18h.77V72.66l-1.58.82v-1l2.14-1.17h.41v6.89h.77V79h-2.5Z"
			transform="translate(-9 -2)" />
		<path class="cls-1"
			d="M32.37,79l1.79-2.86-.46.15c-.15,0-.31.05-.46.05a2.89,2.89,0,0,1-.92-.15,2.13,2.13,0,0,1-.82-.46,3,3,0,0,1-.56-.77,2,2,0,0,1-.2-.92,2.6,2.6,0,0,1,.2-1.12,2.46,2.46,0,0,1,.61-.82,3,3,0,0,1,.87-.51,3.39,3.39,0,0,1,1.07-.15,2.15,2.15,0,0,1,1,.2,3,3,0,0,1,.87.51A2.46,2.46,0,0,1,36,73a2.29,2.29,0,0,1,.2,1,2.59,2.59,0,0,1-.15.87c-.1.31-.26.56-.41.92L33.7,79.2H32.37Zm1-6.79a2.59,2.59,0,0,0-.66.1,2.11,2.11,0,0,0-.56.36,2,2,0,0,0-.41.51,1.41,1.41,0,0,0-.15.66,1.63,1.63,0,0,0,.15.71,2,2,0,0,0,.41.51,1.22,1.22,0,0,0,.56.31,2.59,2.59,0,0,0,.66.1,2.37,2.37,0,0,0,.71-.1,2.7,2.7,0,0,0,.51-.31A1.83,1.83,0,0,0,35,74.6a1.74,1.74,0,0,0,0-1.43,1.83,1.83,0,0,0-.36-.51,1.22,1.22,0,0,0-.56-.31A1.3,1.3,0,0,0,33.4,72.26Z"
			transform="translate(-9 -2)" />
		<path class="cls-1" d="M40.39,71.23h.92l-3.06,8h-.92Z" transform="translate(-9 -2)" />
		<path class="cls-1" d="M43.2,78.18H44V72.66l-1.58.82v-1l2.14-1.17h.41v6.89h.77V79H43.2Z"
			transform="translate(-9 -2)" />
		<path class="cls-1"
			d="M47.23,78.33,50,75.12a2.22,2.22,0,0,0,.31-.36,2.83,2.83,0,0,0,.31-.41,1.53,1.53,0,0,0,.2-.41,1.08,1.08,0,0,0,0-.92,1.07,1.07,0,0,0-.31-.41,1.11,1.11,0,0,0-.41-.26,1.84,1.84,0,0,0-.56-.1,1.81,1.81,0,0,0-.51.1,1.11,1.11,0,0,0-.41.26,2.83,2.83,0,0,0-.31.41,1.84,1.84,0,0,0-.1.56h-.92a1.68,1.68,0,0,1,.2-.87A2.3,2.3,0,0,1,48,72a2.14,2.14,0,0,1,.71-.46,2.39,2.39,0,0,1,.87-.15,3,3,0,0,1,1,.15,1.73,1.73,0,0,1,.71.46,1.94,1.94,0,0,1,.46.66,2.39,2.39,0,0,1,.15.87.87.87,0,0,1-.05.36c-.05.15-.1.26-.15.41a4.72,4.72,0,0,1-.26.51c-.1.15-.26.36-.41.56l-2.45,2.81h3.32V79H47.33v-.71Z"
			transform="translate(-9 -2)" />
		<path class="cls-1" d="M56.17,71.23h.92L54,79.2H53.1Z" transform="translate(-9 -2)" />
		<path class="cls-1"
			d="M58.16,78.33l2.76-3.22a2.22,2.22,0,0,0,.31-.36,2.83,2.83,0,0,0,.31-.41,1.53,1.53,0,0,0,.2-.41,1.08,1.08,0,0,0,0-.92,1.07,1.07,0,0,0-.31-.41,1.11,1.11,0,0,0-.41-.26,1.84,1.84,0,0,0-.56-.1,1.81,1.81,0,0,0-.51.1,1.11,1.11,0,0,0-.41.26,2.83,2.83,0,0,0-.31.41,1.84,1.84,0,0,0-.1.56h-.92a1.68,1.68,0,0,1,.2-.87,2.3,2.3,0,0,1,.51-.71,2.14,2.14,0,0,1,.71-.46,2.39,2.39,0,0,1,.87-.15,3,3,0,0,1,1,.15,1.73,1.73,0,0,1,.71.46,1.94,1.94,0,0,1,.46.66,2.39,2.39,0,0,1,.15.87.87.87,0,0,1-.05.36c-.05.15-.1.26-.15.41a4.72,4.72,0,0,1-.26.51c-.1.15-.26.36-.41.56l-2.45,2.81H62.8V79H58.26v-.71Z"
			transform="translate(-9 -2)" />
		<path class="cls-1"
			d="M64.74,78.18h.61c.2-.51.41-1,.61-1.58s.46-1,.66-1.53.46-1,.66-1.43a13.68,13.68,0,0,1,.61-1.23H65V73H64V71.44h5.11v.77c-.2.41-.46.87-.71,1.38a13.23,13.23,0,0,0-.71,1.48c-.2.51-.46,1-.71,1.53l-.61,1.53H67V79h-2.3Z"
			transform="translate(-9 -2)" />
	</g>
</svg>