<svg id="图层_1" data-name="图层 1" xmlns="http://www.w3.org/2000/svg" viewBox="0 0 187 22"><defs><style>.cls-1{fill:#fff;stroke:#000;stroke-miterlimit:10;}</style></defs><title>title_O3</title><rect class="cls-1" x="0.5" y="4.5" width="182" height="17"/><rect class="cls-1" x="4.5" y="0.5" width="182" height="17"/><path d="M63.61,34.65a4.25,4.25,0,0,1-.4,1.88,2.88,2.88,0,0,1-1.13,1.25,3.68,3.68,0,0,1-3.47,0,2.81,2.81,0,0,1-1.12-1.25,4.35,4.35,0,0,1-.39-1.89A3.65,3.65,0,0,1,58,32.08a3.09,3.09,0,0,1,2.4-.94,3.43,3.43,0,0,1,1.73.42,2.76,2.76,0,0,1,1.12,1.22A4.22,4.22,0,0,1,63.61,34.65Zm-.67,0a3.21,3.21,0,0,0-.68-2.16,2.36,2.36,0,0,0-1.89-.79,2.4,2.4,0,0,0-1.91.78,3.2,3.2,0,0,0-.68,2.18,3.29,3.29,0,0,0,.69,2.2,2.64,2.64,0,0,0,3.8,0A3.34,3.34,0,0,0,62.94,34.65Z" transform="translate(-1 -26)"/><path d="M67,36.83a1.15,1.15,0,0,1-.33.88,1.33,1.33,0,0,1-.94.31A1.14,1.14,0,0,1,64.4,37l.38,0a.83.83,0,0,0,.93.79.92.92,0,0,0,.67-.22.87.87,0,0,0,.23-.66.69.69,0,0,0-.27-.59,1.27,1.27,0,0,0-.77-.2h-.28V35.7h.27a1.23,1.23,0,0,0,.49-.09.76.76,0,0,0,.34-.27.75.75,0,0,0,.12-.44.83.83,0,0,0-.2-.6.8.8,0,0,0-.6-.21.89.89,0,0,0-.58.18.79.79,0,0,0-.26.56l-.37,0a1.1,1.1,0,0,1,.38-.76,1.26,1.26,0,0,1,.84-.27,1.23,1.23,0,0,1,.87.29,1,1,0,0,1,.31.8,1,1,0,0,1-.22.64,1.06,1.06,0,0,1-.61.34h0a1.1,1.1,0,0,1,.69.32A.91.91,0,0,1,67,36.83Z" transform="translate(-1 -26)"/><path d="M72.71,34.09h2.15a3.55,3.55,0,0,1,.67-.75q.1,0,.27.12a5.89,5.89,0,0,1,.59.56c.09.11.13.18.12.21a.08.08,0,0,1-.09,0H73.07a5.85,5.85,0,0,0,1.27,1.86,4.07,4.07,0,0,0,2.27,1.15l.17,0c.09,0,.15.05.16.1s0,.08-.13.12l-.26.09a.92.92,0,0,0-.46.32,2.83,2.83,0,0,0-.18.27l-.12.26c0,.05-.06.08-.09.08s-.31-.13-.71-.42a4.62,4.62,0,0,1-1.6-1.89A5,5,0,0,1,73,34.91l-.06-.35,0-.28h-.14v3.39l0,1.2a.45.45,0,0,1-.09.18.6.6,0,0,1-.32.12,1.75,1.75,0,0,1-.39,0c-.16,0-.27,0-.31-.08a.5.5,0,0,1-.1-.19l.06-1.26V35.22a9.81,9.81,0,0,1-1.7,1.94,9.35,9.35,0,0,1-1.68,1.18l-.31.17c-.08,0-.14,0-.15,0s0-.09.08-.16l.26-.21a6.14,6.14,0,0,0,.46-.42,6.27,6.27,0,0,0,.61-.68,9.14,9.14,0,0,0,.54-.81q.29-.47.48-.88t.45-1.1H68.41l-.41,0L67.72,34l.65.07H71.6V32.34H69.21l-.41,0-.29-.28.65.06H71.6v-.92l-.07-.92s0-.06.12-.06h.28a2.77,2.77,0,0,1,.8.13q.32.11.32.2t-.32.29v1.26H74.2a3.58,3.58,0,0,1,.71-.75.44.44,0,0,1,.27.14l.32.27q.43.38.4.45a.11.11,0,0,1-.11.07H72.71Z" transform="translate(-1 -26)"/><path d="M77.65,34l.66.06h.77q.27-.41.37-.42a1.89,1.89,0,0,1,.59.24q.49.25.51.37t-.29.29v2.72a3.14,3.14,0,0,0,1.51.63,13.45,13.45,0,0,0,2.12.13,10.59,10.59,0,0,0,2.62-.2l.24-.07c.07,0,.11,0,.13,0a.09.09,0,0,1,0,.11l-.24.21a1.08,1.08,0,0,0-.23.29.75.75,0,0,0-.08.43q0,.26,0,.32a1.25,1.25,0,0,1-.53,0A19.51,19.51,0,0,1,82,38.91a3.39,3.39,0,0,1-1-.42,7.45,7.45,0,0,1-.68-.6,1.09,1.09,0,0,0-.65-.38,1.17,1.17,0,0,0-.58.36,2.61,2.61,0,0,0-.53.61l-.19.32c0,.07-.08.11-.1.11s-.05,0-.08-.13l-.4-1a.1.1,0,0,1,0-.09.21.21,0,0,1,.09-.07L78,37.5a6.07,6.07,0,0,1,1.16-.33V34.22h-.83l-.54,0Zm2.68-2.17a.84.84,0,0,1-.22.57.63.63,0,0,1-.58.18.53.53,0,0,1-.3-.11.5.5,0,0,1-.17-.19A.71.71,0,0,1,79,32l0-.34a1.1,1.1,0,0,0-.27-.62,2.41,2.41,0,0,0-.3-.28l-.11-.08a.11.11,0,0,1,0-.07s0,0,.14,0a8.43,8.43,0,0,1,1,.13.93.93,0,0,1,.73.49A1.56,1.56,0,0,1,80.33,31.8ZM80.19,33l.92.06h1.43q0-.48,0-.87t0-.71l0-.27,0-.51,0-.4a.28.28,0,0,1,.21,0q1.37.12,1.39.33s-.09.14-.28.27q0,.87,0,1l-.08,1.17h1.13l.41-.58c.1-.14.19-.21.25-.22a1.16,1.16,0,0,1,.34.2,3,3,0,0,1,.51.44c.15.17.22.27.2.3a.11.11,0,0,1-.09.05H83.62l-.06.65-.09.62a8.34,8.34,0,0,1,1.82.73A1.9,1.9,0,0,1,86,36a1.64,1.64,0,0,1,.2.73.71.71,0,0,1-.22.52.64.64,0,0,1-.46.2.48.48,0,0,1-.36-.13,1.5,1.5,0,0,1-.24-.48q-.13-.36-.26-.68a3.15,3.15,0,0,0-.39-.65,5.84,5.84,0,0,0-.83-.83A4.12,4.12,0,0,1,82.79,36a5.05,5.05,0,0,1-.86.77,3.5,3.5,0,0,1-.94.51l-.25.09c-.08,0-.13,0-.16,0s0-.08.07-.14L80.9,37a3.08,3.08,0,0,0,.83-.82A4.24,4.24,0,0,0,82.25,35a5.69,5.69,0,0,0,.24-1.25l0-.51H81.23l-.79,0Z" transform="translate(-1 -26)"/><path d="M89.08,32.78h-.82l-.43,0-.26-.27.65.06h.91V31.16l0-.9a.13.13,0,0,1,.09,0,3.48,3.48,0,0,1,.73.07q.57.09.56.22s-.1.13-.29.26V32.6h.31l.32-.4c.13-.17.23-.26.3-.26s.29.13.51.37.32.38.31.42,0,.06-.06.06H90.16V34q1.09.14,1.32.5a1.09,1.09,0,0,1,.21.61.56.56,0,0,1-.23.42.61.61,0,0,1-.41.16.47.47,0,0,1-.29-.1.35.35,0,0,1-.12-.2c0-.07,0-.21,0-.41a1.08,1.08,0,0,0-.11-.45,1.23,1.23,0,0,0-.33-.34v3.67l0,1a.46.46,0,0,1-.31.28,1.09,1.09,0,0,1-.51.06c-.18,0-.28-.08-.31-.21l.06-1.12V35.69a8.81,8.81,0,0,1-1.05,1.18L87.9,37q-.13.11-.18.07s0-.07,0-.13l.12-.19a11.13,11.13,0,0,0,.54-1.27A14.92,14.92,0,0,0,89.08,32.78ZM93,35.7a10.83,10.83,0,0,1-.88,1.38,5.56,5.56,0,0,1-1,1l-.44.36c-.05,0-.09.05-.13,0s0-.08,0-.16l.21-.28.19-.3c.09-.16.2-.36.33-.62a5.13,5.13,0,0,0,.35-1q.16-.59.21-.81l.06-.32V34.9a.08.08,0,0,1,.08,0c.05,0,.29.08.71.23s.63.27.62.35a.2.2,0,0,1-.14.17Zm2.37-1.83.51-.63a.26.26,0,0,1,.16-.11.3.3,0,0,1,.18.07,5.57,5.57,0,0,1,.4.4q.29.31.26.39a.1.1,0,0,1-.1.08H94.7a.67.67,0,0,1-.2.21v4a1.37,1.37,0,0,1-.09.51q-.09.23-.59.3a4.22,4.22,0,0,1-.62.06.22.22,0,0,1-.12,0,.11.11,0,0,1,0-.07,2.45,2.45,0,0,1,0-.27.44.44,0,0,0-.25-.37,1.9,1.9,0,0,0-.34-.17l-.35-.1c-.1,0-.14-.06-.12-.11a.11.11,0,0,1,.13-.07l.25,0a3.84,3.84,0,0,0,.75,0,.41.41,0,0,0,.29-.07.44.44,0,0,0,.06-.28V34.07H91.72l-.43,0L91,33.83l.65,0Zm-.62-2.63a3.45,3.45,0,0,1,.66-.74.44.44,0,0,1,.26.13l.31.25c.29.25.42.41.4.47s-.06.09-.1.09h-4l-.43,0-.27-.28.65.06Zm.13,3.93a3.82,3.82,0,0,1,1.47,1,3.17,3.17,0,0,1,.49.69,1.37,1.37,0,0,1,.07.42.76.76,0,0,1-.26.68.59.59,0,0,1-.82,0,.9.9,0,0,1-.15-.42L95.6,37a3,3,0,0,0-.33-1,3.46,3.46,0,0,0-.42-.61l-.19-.21a0,0,0,0,1,0,0S94.76,35.14,94.86,35.17Z" transform="translate(-1 -26)"/><path d="M97.65,32.89l.5,0h.68V31.61l-.06-1.1s.08,0,.17,0l.25,0q.86.14.89.32t-.29.32v1.77h0a2,2,0,0,1,.41-.49s.1,0,.18.09l.36.38q.08.1.06.16a.1.1,0,0,1-.1.06h-.95v2.94l.55-.14.3-.08c.11,0,.12,0,0,.13l-.14.09-.37.25-.83.56-.65.48-.23.18c-.1.08-.16.12-.18.11l0,0a.9.9,0,0,1-.09-.19l-.38-.87a.26.26,0,0,1,0-.13s.06,0,.16,0l.32,0c.1,0,.31,0,.63-.11V33.12h-.62l-.35,0Zm4.31,0h1.45c0-.35,0-.65,0-.88s0-.56-.05-1l0-.46,0-.21s.07,0,.16,0l.35,0q.87.11.88.29s-.08.14-.23.27,0,.35,0,.45,0,.37,0,.81v.71h.91l.32-.42c.15-.19.25-.29.29-.29a.43.43,0,0,1,.22.11,7.24,7.24,0,0,1,.63.56c.06.07.09.13.07.18s-.06.06-.14.06h-2.29c0,.25,0,.49,0,.72s0,.47.06.72a9,9,0,0,0,.16.91q.23-.51.29-.7t.15-.52l.11-.4,0-.2s.09,0,.21,0l.37.16.35.21c.23.14.35.26.34.34s-.12.15-.32.2c-.23.52-.38.85-.45,1l-.63,1.15a3.63,3.63,0,0,0,.46.76c.21.27.37.39.5.37s.29-.19.51-.56l.22-.37c0-.08.08-.11.11-.09a.08.08,0,0,1,0,.09l-.09.31-.12.35a1.63,1.63,0,0,0-.09.43.72.72,0,0,0,.1.39l.21.38q.17.52-.44.53a1.8,1.8,0,0,1-1.1-.44,3.27,3.27,0,0,1-1-1.3,6.16,6.16,0,0,1-1.41,1,5.76,5.76,0,0,1-1.34.52l-.21,0h-.15s-.07,0-.07-.06,0-.07.15-.12l.14-.06a5.13,5.13,0,0,0,1.35-.9A5.66,5.66,0,0,0,104,36.61a9.15,9.15,0,0,1-.38-1.51,13.7,13.7,0,0,1-.18-1.55l0-.48h-1.47l0,1.29h.46a2.63,2.63,0,0,1,.3-.31.29.29,0,0,1,.14,0l.37.22q.34.2.35.32c0,.08-.06.16-.2.23s0,.32,0,.46,0,.38-.06.74-.07.64-.11.86a2.85,2.85,0,0,1-.22.68.67.67,0,0,1-.6.4q-.44,0-.44-.14a.91.91,0,0,1,0-.2c0-.13-.08-.25-.25-.36l-.1-.06a.09.09,0,0,1-.06-.1.05.05,0,0,1,.07,0l.22,0a.36.36,0,0,0,.44-.21,3,3,0,0,0,.21-1q.06-.7.06-1.09v-.29h-.6q0,.21-.06.88a4.69,4.69,0,0,1-.24,1.26,3.15,3.15,0,0,1-.78,1.17,4.23,4.23,0,0,1-1.2.87l-.27.13-.16.08A.47.47,0,0,1,99,39a.09.09,0,0,1-.1,0s0-.09.13-.15l.17-.1s.22-.16.54-.43a2.67,2.67,0,0,0,.76-1.17,6,6,0,0,0,.35-1.51q.07-.74.06-1.29c0-.37,0-.67,0-.91l0-.6,0-.36s.08,0,.19,0Zm2.75-1.73-.1-.12c-.05-.06-.07-.11-.06-.14s.07,0,.19,0l.54.1a.69.69,0,0,1,.44.32.89.89,0,0,1,.16.47.62.62,0,0,1-.16.41.58.58,0,0,1-.37.19.42.42,0,0,1-.36-.1.39.39,0,0,1-.15-.21,2.41,2.41,0,0,1,0-.37A.7.7,0,0,0,104.71,31.14Z" transform="translate(-1 -26)"/><path d="M112.12,32a.89.89,0,0,1-.25-.19.57.57,0,0,1-.1-.27l0-.42a1,1,0,0,0-.19-.52,1.51,1.51,0,0,0-.21-.21.88.88,0,0,1-.15-.14c-.05-.06,0-.09.19-.09l.54.09a2.2,2.2,0,0,1,.8.33.76.76,0,0,1,.35.71.79.79,0,0,1-.12.39,1,1,0,0,1-.51.33h2.69l.45-.63a.29.29,0,0,1,.18-.12.54.54,0,0,1,.31.13,4.48,4.48,0,0,1,.65.56c.07.09.1.15.08.19s-.07.05-.17.05h-3.79c.17,0,.25.08.24.16s-.1.17-.28.27v1.06h1.64q.24-.42.33-.45a.5.5,0,0,1,.31.08q.67.36.77.43a.36.36,0,0,1,.11.12q0,.13-.26.33v3a1.94,1.94,0,0,1-.07.51q-.06.18-.53.34a1.06,1.06,0,0,1-.65.08.21.21,0,0,1-.14-.11l-.07-.21a.91.91,0,0,0-.59-.46l-.26-.1c-.13,0-.19-.09-.19-.14s.09-.06.24-.06l.24,0a3.22,3.22,0,0,0,.65,0,.25.25,0,0,0,.17-.06.29.29,0,0,0,0-.19v-3H112.8v3.6l.06,1.46a.66.66,0,0,1-.13.22.85.85,0,0,1-.5.14,1.12,1.12,0,0,1-.5,0,.36.36,0,0,1-.13-.18l0-1.5V33.84H110v2.94l0,1a.55.55,0,0,1-.1.19.69.69,0,0,1-.31.14,1.39,1.39,0,0,1-.44.06.47.47,0,0,1-.28-.06.36.36,0,0,1-.1-.13l0-1.5v-2l0-1.24s.05,0,.11,0l1.15.41h1.54V32.16h-3.1l-.51,0-.23-.28.64.07Z" transform="translate(-1 -26)"/><path d="M119.22,32.81h-.72l-.46,0-.29-.26.55,0h1.56v-1.2l-.06-1a.14.14,0,0,1,.12,0h.27a2.64,2.64,0,0,1,.77.14q.2.09.21.15a.13.13,0,0,1,0,.09,1.31,1.31,0,0,1-.29.21v1.61h.8q.36-.55.44-.56a.28.28,0,0,1,.2.09q.3.29.42.43c.08.09.11.15.1.18s-.05,0-.11,0h-1.85v.43l.7,0a1.36,1.36,0,0,1,.67.26.68.68,0,0,1,.18,1,.48.48,0,0,1-.4.16.36.36,0,0,1-.31-.14,2.38,2.38,0,0,1-.17-.52,1.07,1.07,0,0,0-.66-.65v.4l0,.63q-.14.29-.88.27a2.76,2.76,0,0,1,.5.29.13.13,0,0,1,0,.13s-.1.08-.25.13l-.27.46H121a1.27,1.27,0,0,1,.26-.38s.13,0,.26,0q.73.34.81.4a.21.21,0,0,1,.09.11q0,.12-.29.26-.31.6-.62,1.12.65.32.68.65a.86.86,0,0,1-.1.53.44.44,0,0,1-.37.21.75.75,0,0,1-.51-.21l-.23-.21-.21-.17a4.9,4.9,0,0,1-1.46.77,9.24,9.24,0,0,1-1.06.22l-.32,0c-.09,0-.14,0-.15,0s0-.08.07-.1l.35-.12a4.9,4.9,0,0,0,2-1.25,2.5,2.5,0,0,0-1-.38l-.3,0q-.6,0-.63-.12a.22.22,0,0,1,0-.19l.18-.24q.17-.23.48-.8h-.6l-.29,0-.26-.26.44,0h.81a7.5,7.5,0,0,0,.32-.8l.09-.3,0-.14h0a1,1,0,0,1,.41.16l0-.68v-.31a13.18,13.18,0,0,1-1.74,1.29l-.35.21c-.07,0-.11,0-.13,0s0-.08,0-.12l.31-.32a7.94,7.94,0,0,0,.56-.68A5.5,5.5,0,0,0,119.22,32.81Zm-.61-2q1,.49,1,1.08a.6.6,0,0,1-.17.4.56.56,0,0,1-.38.18.42.42,0,0,1-.34-.1.48.48,0,0,1-.15-.36v-.4a1.32,1.32,0,0,0-.07-.4,1,1,0,0,0-.13-.25.61.61,0,0,1-.09-.14.1.1,0,0,1,0-.09s.08,0,.18,0Zm.65,6.25,1.25,0a9.36,9.36,0,0,0,.46-1.15h-1Zm2.68-5.22-.52.41-.29.24c-.06.05-.11.07-.14,0s0-.06,0-.12l.17-.33a7.5,7.5,0,0,0,.33-1l.08-.27v-.12s.09,0,.21,0l.29.11a1.89,1.89,0,0,1,.53.28c.1.09.16.15.16.18a.12.12,0,0,1-.06.09l-.16,0-.17,0Zm1.22,2.64q-.19.28-.6.77l-.21.25c0,.05-.08.06-.12,0s0-.07,0-.13l.16-.32a9.53,9.53,0,0,0,.57-1.63A13.06,13.06,0,0,0,123.3,32q.06-.46.12-1l0-.39v-.09c0-.05.08-.06.19,0l.43.11a3.36,3.36,0,0,1,.83.28.27.27,0,0,1,0,.14s-.09.1-.28.14l-.19.46-.41,1.05-.2.45h1.61l.41-.5c.09-.11.16-.17.21-.18a.36.36,0,0,1,.21.1,6,6,0,0,1,.49.45q.23.23.21.28a.1.1,0,0,1-.1,0h-1.47a3.79,3.79,0,0,1,.58.22.16.16,0,0,1,.08.14c0,.06-.09.12-.26.18q-.22,1-.39,1.66a6.27,6.27,0,0,1-.32,1l-.3.7a3.29,3.29,0,0,0,.72.55,3.47,3.47,0,0,0,1.07.41l.22,0s.07,0,.06.06a.1.1,0,0,1-.05.07l-.27.15a1.33,1.33,0,0,0-.25.21,1.88,1.88,0,0,0-.22.25l-.13.21c-.07.11-.12.17-.13.17s0,0-.09,0l-.27-.17a2.66,2.66,0,0,1-.49-.35l-.76-.75a7.7,7.7,0,0,1-1.18.82,6.57,6.57,0,0,1-1.55.58l-.38.1c-.07,0-.11,0-.12,0s0-.08.07-.11l.32-.13a4.65,4.65,0,0,0,.7-.38,7.53,7.53,0,0,0,.9-.64,3.42,3.42,0,0,0,.73-.88c-.1-.24-.19-.47-.27-.69a3.89,3.89,0,0,1-.17-.75Q123.25,35.49,123.17,34.46Zm.17-.26q.22,1,.35,1.37a4,4,0,0,0,.47.9l.23-.79a7.57,7.57,0,0,0,.19-.92c.06-.37.1-.72.12-1l0-.42h-.93A8.52,8.52,0,0,1,123.34,34.2Z" transform="translate(-1 -26)"/><path d="M135.3,33.66a4,4,0,0,1,.65-.72.34.34,0,0,1,.2.09l.37.29.23.23c.11.1.16.18.14.22s0,.06-.09.06h-8.41l-.43,0-.28-.27.65.06Zm-3.54,5.11v-.94h-2.32l-.42,0-.29-.26.65,0h2.38v-1h-1.35v.14q0,.31-.73.3-.27,0-.32-.07a.36.36,0,0,1-.06-.15l0-1.07v-.91l0-.74s0-.06.06-.06l1.13.38h3.75q.25-.39.34-.41a1.72,1.72,0,0,1,.64.25q.52.27.52.33t-.26.25v.94l0,.76q-.15.34-.86.33a.47.47,0,0,1-.28-.06.16.16,0,0,1-.07-.12v-.09h-1.46v1h1.5A4.48,4.48,0,0,1,135,37a1,1,0,0,1,.38.27l.36.34c.07.06.09.11.07.15a.09.09,0,0,1-.08.07h-2.84v.94h2.37a3.87,3.87,0,0,1,.67-.72,1.85,1.85,0,0,1,.53.4q.43.39.4.45a.1.1,0,0,1-.09.06h-8.2l-.42,0-.29-.27.65.06Zm2.09-8a2.08,2.08,0,0,1,.45-.45.41.41,0,0,1,.24.06l.4.2q.46.24.46.35c0,.08-.09.16-.24.21v.91l0,.74a.5.5,0,0,1-.38.29,1.54,1.54,0,0,1-.36,0q-.47,0-.47-.23v-.1h-3.39v.15c0,.05,0,.12-.14.21a1,1,0,0,1-.62.11.38.38,0,0,1-.26-.06.3.3,0,0,1-.08-.14l0-.85V31.13l0-.76c0-.05.07-.06.14,0l1,.45Zm-3.45,5.71h1.36v-.78h-1.35Zm0-1h1.35v-.85h-1.35Zm.18-3.87H134V31h-3.39Zm0,1H134v-.77h-3.38Zm2.26,2.9h1.46v-.85h-1.22a.67.67,0,0,1-.23.23Zm0,1h1.47v-.79h-1.47Z" transform="translate(-1 -26)"/></svg>