<svg id="图层_1" data-name="图层 1" xmlns="http://www.w3.org/2000/svg" viewBox="0 0 187 22"><title>title_3</title><rect x="0.5" y="4.5" width="182" height="17" fill="#fff" stroke="#000" stroke-miterlimit="10"/><rect x="4.5" y="0.5" width="182" height="17" fill="#fff" stroke="#000" stroke-miterlimit="10"/><path d="M48.83,10.85l-.18,1.79H44.77v-.17a2.4,2.4,0,0,1,.06-.37l.06-.3a3.14,3.14,0,0,1,.09-.36q.07-.24.13-.4a2.69,2.69,0,0,1,.19-.39,3.76,3.76,0,0,1,.34-.49L46,9.78l.42-.42a5.15,5.15,0,0,0,.5-.55,2.44,2.44,0,0,0,.31-.53,2.75,2.75,0,0,0,.17-.5,2.36,2.36,0,0,0,0-.49,1.8,1.8,0,0,0-.08-.49,1.1,1.1,0,0,0-.21-.38,1,1,0,0,0-.25-.23.89.89,0,0,0-.24-.09,1.26,1.26,0,0,0-.28,0,1.17,1.17,0,0,0-.35.07.75.75,0,0,0-.27.17.72.72,0,0,0-.15.2.51.51,0,0,0,0,.2.2.2,0,0,0,.08.17.27.27,0,0,0,.14.06l.2,0a.68.68,0,0,1,.29.14.56.56,0,0,1,.13.42.72.72,0,0,1-.74.76.7.7,0,0,1-.54-.21.81.81,0,0,1-.21-.34,1.23,1.23,0,0,1-.06-.45,2,2,0,0,1,0-.33A1.59,1.59,0,0,1,45,6.53a1.35,1.35,0,0,1,.35-.43,2,2,0,0,1,.52-.31,1.71,1.71,0,0,1,.45-.13l.33,0a3.73,3.73,0,0,1,.6,0,2.17,2.17,0,0,1,.51.17,1.46,1.46,0,0,1,.46.31,2,2,0,0,1,.29.37,1.42,1.42,0,0,1,.16.41,2.1,2.1,0,0,1,.05.42c0,.13,0,.24,0,.33a2.29,2.29,0,0,1-.1.43,1.52,1.52,0,0,1-.27.49,2.31,2.31,0,0,1-.41.41q-.21.16-.69.46T46.5,10a4,4,0,0,0-.44.4,3.06,3.06,0,0,0-.32.4,2,2,0,0,0-.18.31,2.18,2.18,0,0,0-.08.24.37.37,0,0,0,0,.17s.08,0,.2,0H48.1a.28.28,0,0,0,.16-.08.46.46,0,0,0,.11-.2l.07-.24,0-.2Z"/><path d="M49.72,9.17q0-.22,0-.51c0-.19,0-.37,0-.53s.06-.38.12-.65a3,3,0,0,1,.32-.82A2.05,2.05,0,0,1,50.74,6a1.51,1.51,0,0,1,.58-.29,2.33,2.33,0,0,1,.49-.06,2.6,2.6,0,0,1,.46.07,1.58,1.58,0,0,1,.52.23,1.54,1.54,0,0,1,.46.5,3,3,0,0,1,.3.66,5.31,5.31,0,0,1,.16.65,5.92,5.92,0,0,1,.07.63q0,.31,0,.59t0,.69q0,.46-.11.91a3.69,3.69,0,0,1-.28.92,2.14,2.14,0,0,1-.53.75,1.61,1.61,0,0,1-.59.36,1.86,1.86,0,0,1-.52.08,1.46,1.46,0,0,1-.44,0,1.4,1.4,0,0,1-.4-.17,2.19,2.19,0,0,1-.43-.36,2.11,2.11,0,0,1-.4-.61,3.27,3.27,0,0,1-.24-.8,6.11,6.11,0,0,1-.09-.79Q49.72,9.59,49.72,9.17Zm1.3.73q0,.8,0,1t0,.57a1.74,1.74,0,0,0,.08.5.76.76,0,0,0,.2.28.52.52,0,0,0,.39.11.55.55,0,0,0,.38-.13.72.72,0,0,0,.21-.29,1.93,1.93,0,0,0,.09-.39,4.31,4.31,0,0,0,0-.47q0-.24,0-.92t0-1q0-.36,0-1.13V7.29q0-.27,0-.44a3.27,3.27,0,0,0,0-.34.79.79,0,0,0-.12-.3A.52.52,0,0,0,52.07,6,.65.65,0,0,0,51.8,6a.73.73,0,0,0-.3.08.53.53,0,0,0-.21.18,1,1,0,0,0-.12.27,2.2,2.2,0,0,0-.06.36q0,.2,0,.61l0,1.48Q51,9.16,51,9.91Z"/><path d="M55.06,6.71V6.26h.83a1.7,1.7,0,0,0,.37-.06A1.34,1.34,0,0,0,56.63,6a1.65,1.65,0,0,0,.3-.25l.16-.18h.34v5.84q0,.21,0,.38a.53.53,0,0,0,.07.26.31.31,0,0,0,.19.12,1.25,1.25,0,0,0,.31,0h.5v.35H55v-.35h.41a1.65,1.65,0,0,0,.32,0,.38.38,0,0,0,.24-.13.62.62,0,0,0,.09-.29,2.9,2.9,0,0,0,0-.35V7.35A1.77,1.77,0,0,0,56,7,.51.51,0,0,0,56,6.83a.25.25,0,0,0-.16-.1l-.29,0Z"/><path d="M62.69,8.9l.24.2.28.26a2,2,0,0,1,.25.31,2.3,2.3,0,0,1,.2.39,1.7,1.7,0,0,1,.11.4,3.86,3.86,0,0,1,0,.39,1.36,1.36,0,0,1-.09.48,1.94,1.94,0,0,1-.49.76,1.88,1.88,0,0,1-.62.43,2.21,2.21,0,0,1-.5.13l-.36,0a2.46,2.46,0,0,1-.41,0l-.39-.07a1.84,1.84,0,0,1-.42-.18,1.69,1.69,0,0,1-.44-.37,1.43,1.43,0,0,1-.3-.5A1.79,1.79,0,0,1,59.7,11a1.53,1.53,0,0,1,.1-.56,1.8,1.8,0,0,1,.27-.47,2,2,0,0,1,.36-.36l.33-.21L61,9.19a5.14,5.14,0,0,1-.53-.44,2.8,2.8,0,0,1-.28-.34A2.46,2.46,0,0,1,60,8a1.25,1.25,0,0,1-.11-.47,2.37,2.37,0,0,1,0-.4A1.44,1.44,0,0,1,60,6.63a1.55,1.55,0,0,1,.28-.4,2.76,2.76,0,0,1,.35-.3A1.32,1.32,0,0,1,61,5.75a2.22,2.22,0,0,1,.41-.08l.41,0a2.67,2.67,0,0,1,.5.06,2.05,2.05,0,0,1,.51.2,1.48,1.48,0,0,1,.45.35,1.31,1.31,0,0,1,.24.4,1.5,1.5,0,0,1,.07.5,1.58,1.58,0,0,1-.09.52,1.41,1.41,0,0,1-.28.43,2.49,2.49,0,0,1-.35.33l-.24.18-.18.14Zm-1.54.72a1.52,1.52,0,0,0-.2.27,1.82,1.82,0,0,0-.17.33,1.56,1.56,0,0,0-.07.33,3.86,3.86,0,0,0,0,.39,2,2,0,0,0,0,.41,1.49,1.49,0,0,0,.15.5.9.9,0,0,0,.34.35,1,1,0,0,0,.57.13,1.1,1.1,0,0,0,.54-.14.93.93,0,0,0,.39-.39,1.3,1.3,0,0,0,.14-.62,1.39,1.39,0,0,0-.11-.53,1.54,1.54,0,0,0-.32-.45,3.68,3.68,0,0,0-.46-.4,3.35,3.35,0,0,0-.39-.26l-.19-.1Zm1.22-1.35a1.32,1.32,0,0,0,.28-.42,1.59,1.59,0,0,0,.15-.63,1.49,1.49,0,0,0-.11-.65,1.19,1.19,0,0,0-.21-.29.88.88,0,0,0-.35-.22A1.39,1.39,0,0,0,61.73,6a1,1,0,0,0-.45.1,1,1,0,0,0-.37.32.85.85,0,0,0-.15.54,1,1,0,0,0,.07.4,1.72,1.72,0,0,0,.21.35,2.55,2.55,0,0,0,.42.41,2.82,2.82,0,0,0,.42.3l.22.13Z"/><path d="M64.58,10.69l.61.06h1.27V9l0-1,0,0,.27.08,1,.36H69V6.61H67.31a14.51,14.51,0,0,1-1,1.27,11.57,11.57,0,0,1-1.1,1l-.28.23c-.05,0-.09.05-.13,0s0-.08,0-.13l.28-.37.31-.48q.22-.36.5-.85a6.74,6.74,0,0,0,.5-1.24q.23-.74.29-1l.08-.33V4.69l0,0a2.55,2.55,0,0,1,.84.24,2.05,2.05,0,0,1,.75.37.19.19,0,0,1,0,.17c0,.05-.16.1-.37.15l-.57.83h4.09L72,5.79c.1-.13.18-.2.21-.21a.39.39,0,0,1,.2.08,4.94,4.94,0,0,1,.69.59c.13.14.18.24.17.28s-.07.07-.17.07H70.48a1.4,1.4,0,0,1-.28.25V8.45h1a3.39,3.39,0,0,1,.66-.81.34.34,0,0,1,.23.08,3.88,3.88,0,0,1,.61.55c.13.16.19.26.17.3s-.09.06-.21.06H70.2v2.1h1.88q.6-.83.74-.83a2,2,0,0,1,.36.25,3.49,3.49,0,0,1,.49.44q.18.21.16.26s-.07.06-.17.06H70.2v1.47l.06,1.06a.69.69,0,0,1-.11.28c-.06.09-.32.14-.78.13-.19,0-.3,0-.34-.06a.34.34,0,0,1-.08-.18L69,12.51V10.94H65.32l-.53,0Zm3,.06H69V8.61h-1.4Z"/><path d="M79.68,8.6h2.15a3.52,3.52,0,0,1,.67-.75c.07,0,.16,0,.27.12a5.78,5.78,0,0,1,.59.56c.09.11.13.18.12.21a.08.08,0,0,1-.09,0H80a5.86,5.86,0,0,0,1.27,1.86,4.07,4.07,0,0,0,2.27,1.15l.17,0c.09,0,.14.05.16.1s0,.08-.13.12l-.26.09a.92.92,0,0,0-.46.32,2.87,2.87,0,0,0-.18.27l-.12.26c0,.05-.06.08-.09.08s-.31-.12-.71-.42a5.39,5.39,0,0,1-.94-.85,5.29,5.29,0,0,1-.66-1,5,5,0,0,1-.44-1.32l-.06-.35,0-.28h-.14v3.39l0,1.2a.45.45,0,0,1-.09.18.59.59,0,0,1-.32.12,1.78,1.78,0,0,1-.39,0c-.16,0-.27,0-.31-.08a.5.5,0,0,1-.1-.19l.06-1.26V9.73a9.81,9.81,0,0,1-1.7,1.94,9.41,9.41,0,0,1-1.68,1.18l-.31.17c-.08,0-.13,0-.15,0s0-.09.08-.16l.26-.21a6.14,6.14,0,0,0,.46-.42,6.31,6.31,0,0,0,.61-.68,9.36,9.36,0,0,0,.54-.81q.29-.47.48-.88t.45-1.1H75.38l-.41,0-.28-.28.65.07h3.22V6.85H76.17l-.41,0-.29-.28.65.06h2.44V5.75l-.07-.92s0-.06.12-.06h.28a2.77,2.77,0,0,1,.8.13c.21.07.32.14.32.2s-.11.18-.32.29V6.66h1.48a3.6,3.6,0,0,1,.71-.75.44.44,0,0,1,.27.14l.32.27q.43.38.4.45a.11.11,0,0,1-.11.07H79.68Z"/><path d="M84.62,8.47l.66.06h.77c.18-.27.31-.41.37-.42a1.89,1.89,0,0,1,.59.24c.33.17.5.29.51.37s-.09.18-.29.29v2.72a3.15,3.15,0,0,0,1.51.63,13.44,13.44,0,0,0,2.12.13,10.56,10.56,0,0,0,2.62-.2l.24-.07c.07,0,.11,0,.13,0a.1.1,0,0,1,0,.11l-.24.21a1.09,1.09,0,0,0-.23.29.75.75,0,0,0-.08.43c0,.18,0,.28,0,.32a1.25,1.25,0,0,1-.53,0A19.5,19.5,0,0,1,89,13.42,3.39,3.39,0,0,1,88,13a7.31,7.31,0,0,1-.68-.6,1.09,1.09,0,0,0-.65-.38,1.16,1.16,0,0,0-.58.36,2.62,2.62,0,0,0-.53.61l-.19.32c0,.07-.08.11-.1.11s-.05,0-.08-.13l-.4-1a.1.1,0,0,1,0-.09.21.21,0,0,1,.09-.07L85,12a6.06,6.06,0,0,1,1.16-.33V8.72h-.83l-.54,0ZM87.3,6.3a.84.84,0,0,1-.22.57.63.63,0,0,1-.58.18.53.53,0,0,1-.3-.11A.5.5,0,0,1,86,6.76a.71.71,0,0,1,0-.22l0-.34a1.11,1.11,0,0,0-.27-.62,2.41,2.41,0,0,0-.3-.28l-.11-.08a.11.11,0,0,1,0-.07s0,0,.14,0a8.41,8.41,0,0,1,1,.13.94.94,0,0,1,.73.49A1.55,1.55,0,0,1,87.3,6.3Zm-.14,1.24.92.06H89.5c0-.32,0-.61,0-.87s0-.5,0-.71l0-.27,0-.51,0-.4a.28.28,0,0,1,.21,0Q91,4.92,91,5.13s-.09.14-.28.27c0,.58,0,.92,0,1L90.6,7.6h1.13L92.14,7c.1-.14.19-.21.25-.22a1.15,1.15,0,0,1,.34.2,3.08,3.08,0,0,1,.51.44c.15.17.22.27.2.3a.11.11,0,0,1-.09.05H90.59l-.06.65-.09.62a8.33,8.33,0,0,1,1.82.73,1.9,1.9,0,0,1,.71.74,1.64,1.64,0,0,1,.2.73.7.7,0,0,1-.22.52.64.64,0,0,1-.46.2.48.48,0,0,1-.36-.13,1.51,1.51,0,0,1-.24-.48q-.13-.36-.26-.68a3.13,3.13,0,0,0-.39-.65,5.87,5.87,0,0,0-.83-.83,4.12,4.12,0,0,1-.65,1.25,5.05,5.05,0,0,1-.86.77,3.49,3.49,0,0,1-.94.51l-.25.09c-.08,0-.13,0-.16,0s0-.08.07-.14l.25-.18a3.08,3.08,0,0,0,.83-.82,4.24,4.24,0,0,0,.51-1.14,5.72,5.72,0,0,0,.24-1.25l0-.51H88.2l-.79,0Z"/><path d="M96,7.29h-.82l-.43,0L94.53,7l.65.06h.91V5.67l0-.9a.13.13,0,0,1,.09,0,3.47,3.47,0,0,1,.73.07q.57.09.56.22s-.1.13-.29.26V7.1h.31l.32-.4c.13-.17.23-.26.3-.26s.29.13.51.37.32.38.31.42,0,.06-.06.06H97.13V8.52q1.09.14,1.32.5a1.1,1.1,0,0,1,.21.61.56.56,0,0,1-.23.42.61.61,0,0,1-.41.16.48.48,0,0,1-.29-.1.34.34,0,0,1-.12-.2c0-.07,0-.21,0-.41A1.07,1.07,0,0,0,97.46,9a1.22,1.22,0,0,0-.33-.34v3.67l0,1a.46.46,0,0,1-.31.28,1.1,1.1,0,0,1-.51.06c-.18,0-.28-.08-.31-.21l.06-1.12V10.2A8.74,8.74,0,0,1,95,11.38l-.18.16q-.13.11-.18.07s0-.07,0-.13l.12-.19A11.13,11.13,0,0,0,95.36,10,14.92,14.92,0,0,0,96,7.29Zm3.9,2.92a10.73,10.73,0,0,1-.88,1.38,5.56,5.56,0,0,1-1,1l-.44.36c-.05,0-.09.05-.13,0s0-.08,0-.16l.21-.28.19-.3q.14-.23.33-.62a5.2,5.2,0,0,0,.35-1q.16-.59.21-.81l.06-.32V9.41a.08.08,0,0,1,.08,0c.05,0,.29.08.71.23s.63.27.62.35a.2.2,0,0,1-.14.17Zm2.37-1.83.51-.63a.26.26,0,0,1,.16-.11.29.29,0,0,1,.18.07q.11.09.4.4t.26.39a.1.1,0,0,1-.1.08h-2.06a.65.65,0,0,1-.2.21v4a1.38,1.38,0,0,1-.09.51c-.06.16-.26.26-.59.3a4.35,4.35,0,0,1-.62.06.22.22,0,0,1-.12,0,.11.11,0,0,1,0-.07,2.44,2.44,0,0,1,0-.27.44.44,0,0,0-.25-.37,1.83,1.83,0,0,0-.34-.17l-.35-.1c-.1,0-.14-.05-.12-.11a.11.11,0,0,1,.13-.07l.25,0a3.8,3.8,0,0,0,.75,0,.42.42,0,0,0,.29-.07.44.44,0,0,0,.06-.28V8.58H98.69l-.43,0L98,8.33l.65,0Zm-.62-2.63a3.42,3.42,0,0,1,.66-.74.44.44,0,0,1,.26.13l.31.25q.43.38.4.47t-.1.09h-4l-.43,0-.27-.28.65.06Zm.13,3.93a3.83,3.83,0,0,1,1.47,1,3.17,3.17,0,0,1,.49.69,1.37,1.37,0,0,1,.07.42,1.13,1.13,0,0,1,0,.38,1.09,1.09,0,0,1-.21.3.59.59,0,0,1-.82,0,.9.9,0,0,1-.15-.42l-.06-.44a3,3,0,0,0-.33-1,3.46,3.46,0,0,0-.42-.61l-.19-.21s0,0,0,0S101.72,9.64,101.83,9.68Z"/><path d="M104.62,7.4l.5,0h.68V6.12L105.74,5s.08,0,.17,0l.25,0q.86.14.89.32t-.29.32V7.44h0a2,2,0,0,1,.41-.49s.1,0,.18.09.3.31.36.38.08.12.06.16a.1.1,0,0,1-.1.06h-.95v2.94l.55-.14.3-.08c.11,0,.12,0,0,.13l-.14.09-.37.25-.83.56-.65.48-.23.18c-.1.08-.16.12-.18.11l0,0a1,1,0,0,1-.09-.19l-.38-.87c0-.07,0-.12,0-.13s.06,0,.16,0l.32,0q.15,0,.63-.11V7.63h-.62l-.35,0Zm4.31,0h1.45q0-.53,0-.88t-.05-1l0-.46,0-.21s.07,0,.16,0l.35,0q.87.11.88.29s-.08.14-.23.27,0,.35,0,.45,0,.37,0,.81v.71h.91l.32-.42c.15-.19.25-.29.29-.29a.43.43,0,0,1,.22.11,7.08,7.08,0,0,1,.63.56q.09.11.07.18s-.06.06-.14.06h-2.29q0,.38,0,.72t.06.72a9,9,0,0,0,.16.91c.15-.34.25-.57.29-.7s.09-.3.15-.52l.11-.4,0-.2s.09,0,.21,0l.37.16.35.21q.35.21.34.34c0,.08-.12.15-.32.2q-.34.78-.45,1l-.63,1.15a3.67,3.67,0,0,0,.46.76c.21.27.37.39.5.37s.29-.19.51-.56l.22-.37c0-.08.08-.11.11-.09a.08.08,0,0,1,0,.09l-.09.31-.12.35a1.71,1.71,0,0,0-.09.43.72.72,0,0,0,.1.39l.21.38q.17.52-.44.53a1.79,1.79,0,0,1-1.1-.44,3.27,3.27,0,0,1-1-1.3A6.09,6.09,0,0,1,110,13a5.8,5.8,0,0,1-1.34.52l-.21,0a.38.38,0,0,1-.15,0s-.07,0-.07-.06,0-.07.15-.12l.14-.06a5.12,5.12,0,0,0,1.35-.9A5.65,5.65,0,0,0,111,11.12a9,9,0,0,1-.38-1.51,14.16,14.16,0,0,1-.18-1.55l0-.48h-1.47l0,1.29h.46a2.72,2.72,0,0,1,.3-.31.29.29,0,0,1,.14,0l.37.22q.34.2.35.32c0,.08-.07.16-.2.23s0,.32,0,.46,0,.38-.06.74-.07.64-.11.86a2.9,2.9,0,0,1-.22.68.67.67,0,0,1-.6.4c-.29,0-.44,0-.44-.14a.84.84,0,0,1,0-.2q0-.19-.25-.36l-.1-.06a.09.09,0,0,1-.06-.1.05.05,0,0,1,.07,0l.22,0a.36.36,0,0,0,.44-.21,3,3,0,0,0,.21-1q.06-.7.06-1.09V9.07h-.6q0,.21-.06.88a4.72,4.72,0,0,1-.24,1.26,3.16,3.16,0,0,1-.78,1.17,4.2,4.2,0,0,1-1.2.87l-.27.13-.16.08a.45.45,0,0,1-.15.06.09.09,0,0,1-.1,0s0-.09.13-.15l.17-.1s.22-.16.54-.43a2.67,2.67,0,0,0,.76-1.17,6.06,6.06,0,0,0,.35-1.51q.07-.74.06-1.29t0-.91l0-.6,0-.36s.08,0,.19,0Zm2.75-1.73-.1-.12c-.05-.06-.07-.11-.06-.14s.08,0,.19,0l.54.1a.69.69,0,0,1,.44.32.89.89,0,0,1,.16.47.62.62,0,0,1-.16.41.58.58,0,0,1-.37.19.42.42,0,0,1-.36-.1.41.41,0,0,1-.15-.21,2.28,2.28,0,0,1,0-.37A.7.7,0,0,0,111.68,5.65Z"/><path d="M119.08,6.48a.89.89,0,0,1-.25-.19.57.57,0,0,1-.1-.27l0-.42a1,1,0,0,0-.19-.52,1.46,1.46,0,0,0-.21-.21.81.81,0,0,1-.15-.14c-.05-.06,0-.09.19-.09l.54.09a2.21,2.21,0,0,1,.8.33.76.76,0,0,1,.35.71.79.79,0,0,1-.12.39,1,1,0,0,1-.51.33h2.69l.45-.63a.29.29,0,0,1,.18-.12.54.54,0,0,1,.31.13,4.48,4.48,0,0,1,.65.56c.07.09.1.15.08.19s-.07.05-.17.05h-3.79c.17,0,.25.08.24.16s-.1.17-.28.27V8.16h1.64q.24-.42.33-.45a.5.5,0,0,1,.31.08q.67.36.77.43a.36.36,0,0,1,.11.12q0,.13-.26.33v3a1.94,1.94,0,0,1-.07.51c0,.12-.21.23-.53.34a1.06,1.06,0,0,1-.65.08.21.21,0,0,1-.14-.11l-.07-.21a.91.91,0,0,0-.59-.46l-.26-.1c-.13,0-.19-.09-.19-.14s.09-.06.24-.06l.24,0a3.22,3.22,0,0,0,.65,0,.25.25,0,0,0,.17-.06.29.29,0,0,0,0-.19v-3h-1.76v3.6l.06,1.46a.66.66,0,0,1-.13.22.84.84,0,0,1-.5.14,1.12,1.12,0,0,1-.5,0,.36.36,0,0,1-.13-.18l0-1.5V8.34H117v2.94l0,1a.57.57,0,0,1-.1.19.68.68,0,0,1-.31.14,1.43,1.43,0,0,1-.44.06.47.47,0,0,1-.28-.06.35.35,0,0,1-.1-.13l0-1.5V9l0-1.24s.06,0,.11,0l1.15.41h1.54V6.66h-3.1l-.51,0-.23-.28.64.07Z"/><path d="M126.19,7.32h-.72l-.46,0-.29-.26.55,0h1.56V5.93l-.06-1a.14.14,0,0,1,.12,0h.27a2.64,2.64,0,0,1,.77.14q.2.09.21.15a.13.13,0,0,1,0,.09,1.31,1.31,0,0,1-.29.21V7.13h.8q.36-.55.44-.56a.28.28,0,0,1,.2.09q.3.29.42.43c.08.09.11.15.1.18s-.05,0-.11,0h-1.85v.43l.7,0a1.36,1.36,0,0,1,.67.26.68.68,0,0,1,.18,1,.48.48,0,0,1-.4.16.36.36,0,0,1-.31-.14,2.38,2.38,0,0,1-.17-.52,1.07,1.07,0,0,0-.66-.65v.4l0,.63q-.14.29-.88.27a2.76,2.76,0,0,1,.5.29.13.13,0,0,1,0,.13s-.1.08-.25.13l-.27.46h.92a1.27,1.27,0,0,1,.26-.38s.13,0,.26,0q.73.34.81.4a.21.21,0,0,1,.09.11q0,.12-.29.26-.31.6-.62,1.12.65.32.68.65a.86.86,0,0,1-.1.53.44.44,0,0,1-.37.21.75.75,0,0,1-.51-.21l-.23-.21-.21-.17a4.89,4.89,0,0,1-1.46.77,9.24,9.24,0,0,1-1.06.22l-.32,0c-.09,0-.14,0-.15,0s0-.08.07-.1l.35-.12a4.89,4.89,0,0,0,2-1.25,2.5,2.5,0,0,0-1-.38l-.3,0q-.6,0-.63-.12a.22.22,0,0,1,0-.19l.18-.24q.17-.23.48-.8h-.6l-.29,0-.26-.26.44,0h.81a7.5,7.5,0,0,0,.32-.8l.09-.3,0-.14h0a1,1,0,0,1,.41.16l0-.68V8.15a13.18,13.18,0,0,1-1.74,1.29l-.35.21c-.07,0-.11,0-.13,0s0-.08,0-.12L125,9.2a7.94,7.94,0,0,0,.56-.68A5.5,5.5,0,0,0,126.19,7.32Zm-.61-2q1,.49,1,1.08a.6.6,0,0,1-.17.4A.56.56,0,0,1,126,7a.42.42,0,0,1-.34-.1.48.48,0,0,1-.15-.36v-.4a1.32,1.32,0,0,0-.07-.4,1,1,0,0,0-.13-.25.61.61,0,0,1-.09-.14.1.1,0,0,1,0-.09s.08,0,.18,0Zm.65,6.25,1.25,0a9.36,9.36,0,0,0,.46-1.15h-1Zm2.68-5.22-.52.41-.29.24C128,7,128,7.05,128,7s0-.06,0-.12l.17-.33a7.5,7.5,0,0,0,.33-1l.08-.27V5.19s.09,0,.21,0l.29.11a1.89,1.89,0,0,1,.53.28c.1.09.16.15.16.18a.12.12,0,0,1-.06.09l-.16,0-.17,0ZM130.14,9q-.19.28-.6.77l-.21.25c0,.05-.08.06-.12,0s0-.07,0-.13l.16-.32A9.53,9.53,0,0,0,129.95,8a13.06,13.06,0,0,0,.32-1.44q.06-.46.12-1l0-.39V5c0-.05.08-.06.19,0l.43.11a3.36,3.36,0,0,1,.83.28.27.27,0,0,1,0,.14s-.09.1-.28.14l-.19.46L131,7.16l-.2.45h1.61l.41-.5c.09-.11.16-.17.21-.18a.36.36,0,0,1,.21.1,6,6,0,0,1,.49.45q.23.23.21.28a.1.1,0,0,1-.1,0h-1.47A3.79,3.79,0,0,1,133,8a.16.16,0,0,1,.08.14c0,.06-.09.12-.26.18q-.22,1-.39,1.66a6.27,6.27,0,0,1-.32,1l-.3.7a3.31,3.31,0,0,0,.72.55,3.44,3.44,0,0,0,1.07.41l.22,0s.07,0,.06.06a.1.1,0,0,1-.05.07l-.27.15a1.35,1.35,0,0,0-.25.21,1.88,1.88,0,0,0-.22.25l-.13.21c-.07.11-.12.17-.13.17s0,0-.09,0l-.27-.17a2.7,2.7,0,0,1-.49-.35l-.76-.75a7.63,7.63,0,0,1-1.18.82,6.57,6.57,0,0,1-1.55.58l-.38.1c-.07,0-.11,0-.12,0s0-.08.07-.11l.32-.13a4.75,4.75,0,0,0,.7-.38,7.42,7.42,0,0,0,.9-.64,3.44,3.44,0,0,0,.73-.88c-.1-.24-.19-.47-.27-.69a3.89,3.89,0,0,1-.17-.75Q130.22,10,130.14,9Zm.17-.26q.22,1,.35,1.37a4,4,0,0,0,.47.9l.23-.79a7.57,7.57,0,0,0,.19-.92c.06-.37.1-.72.12-1l0-.42h-.93A8.52,8.52,0,0,1,130.3,8.71Z"/><path d="M142.27,8.17a4,4,0,0,1,.65-.72.34.34,0,0,1,.2.09l.37.29.23.23c.11.1.16.18.14.22s0,.06-.09.06h-8.41l-.43,0-.28-.27.65.06Zm-3.54,5.11v-.94H136.4l-.42,0-.29-.26.65,0h2.38v-1h-1.35v.14q0,.31-.73.3-.27,0-.32-.07a.36.36,0,0,1-.06-.15l0-1.07V9.42l0-.74s0-.06.06-.06l1.13.38h3.75q.25-.39.34-.41a1.72,1.72,0,0,1,.64.25q.52.27.52.33t-.26.25v.94l0,.76q-.15.34-.86.33a.47.47,0,0,1-.28-.06.16.16,0,0,1-.07-.12v-.09h-1.46v1h1.5a4.48,4.48,0,0,1,.62-.64,1,1,0,0,1,.38.27l.36.34c.07.06.09.11.07.15a.09.09,0,0,1-.08.07h-2.84v.94h2.37a3.85,3.85,0,0,1,.67-.72,1.85,1.85,0,0,1,.53.4c.29.26.42.41.4.45a.1.1,0,0,1-.09.06h-8.2l-.42,0-.29-.27.65.06Zm2.09-8a2.08,2.08,0,0,1,.45-.45.41.41,0,0,1,.24.06l.4.2q.46.24.46.35c0,.08-.09.16-.24.21v.91l0,.74a.5.5,0,0,1-.38.29,1.54,1.54,0,0,1-.36,0q-.47,0-.47-.23v-.1h-3.39v.15c0,.05,0,.12-.14.21a1,1,0,0,1-.62.11.38.38,0,0,1-.26-.06.3.3,0,0,1-.08-.14l0-.85V5.64l0-.76c0-.05.07-.06.14,0l1,.45ZM137.37,11h1.36v-.78h-1.35Zm0-1h1.35V9.18h-1.35Zm.18-3.87h3.39v-.7h-3.39Zm0,1h3.39V6.35h-3.38Zm2.26,2.9h1.46V9.18h-1.22a.67.67,0,0,1-.23.23Zm0,1h1.47v-.79h-1.47Z"/></svg>