<svg id="图层_1" data-name="图层 1" xmlns="http://www.w3.org/2000/svg" viewBox="0 0 386 695.43">
    <defs>
        <style>
            .xian5-1,
            .xian5-2,
            .xian5-21,
            .xian5-22,
            .xian5-3,
            .xian5-4,
            .xian5-5,
            .xian5-6,
            .xian5-7,
            .xian5-9 {
                fill: none;
            }

            .xian5-1,
            .xian5-4 {
                stroke: #fdb462;
            }

            .xian5-1,
            .xian5-2,
            .xian5-3,
            .xian5-4,
            .xian5-5,
            .xian5-6,
            .xian5-7,
            .xian5-9 {
                stroke-opacity: 0.7;
            }

            .xian5-1,
            .xian5-7 {
                stroke-width: 34.21px;
            }

            .xian5-2 {
                stroke: #bebada;
            }

            .xian5-2,
            .xian5-3,
            .xian5-4,
            .xian5-5,
            .xian5-6,
            .xian5-9 {
                stroke-width: 17.11px;
            }

            .xian5-3,
            .xian5-7 {
                stroke: #8dd3c7;
            }

            .xian5-5 {
                stroke: #fb8072;
            }

            .xian5-6 {
                stroke: #80b1d3;
            }

            .xian5-8 {
                fill: #fff;
                opacity: 0.83;
            }

            .xian5-9 {
                stroke: #b3de69;
            }

            .xian5-10 {
                fill: #56d3c7;
            }

            .xian5-11 {
                fill: #fdaf62;
            }

            .xian5-12 {
                fill: #c9a1da;
            }

            .xian5-13 {
                fill: #fb6e72;
            }

            .xian5-14 {
                fill: #809ed3;
            }

            .xian5-15 {
                fill: #92de69;
            }

            .xian5-16 {
                opacity: 0.53;
            }

            .xian5-17 {
                fill: #3d3e44;
            }

            .xian5-18 {
                opacity: 0.66;
            }

            .xian5-19 {
                font-size: 16px;
                font-family: DengXian, DengXian;
            }

            .xian5-20 {
                stroke: #3d3e44;
            }

            .xian5-20,
            .xian5-21 {
                stroke-miterlimit: 10;
            }

            .xian5-21,
            .xian5-22 {
                stroke: #000;
            }
        </style>
    </defs>
    <title>xian5</title>
    <path class="xian5-1" d="M137.74,692.39c0-328.5-85.53-255.5-85.53-584" transform="translate(0 -19.52)" />
    <path class="xian5-2" d="M224.71,692.39c0-328.5-146.84-255.5-146.84-584" transform="translate(0 -19.52)" />
    <path class="xian5-3" d="M16.55,692.39c0-328.5,10-255.5,10-584" transform="translate(0 -19.52)" />
    <path class="xian5-3" d="M33.66,692.39c0-328.5,71.32-255.5,71.32-584" transform="translate(0 -19.52)" />
    <path class="xian5-4" d="M163.39,692.39c0-328.5-41.32-255.5-41.32-584" transform="translate(0 -19.52)" />
    <path class="xian5-2" d="M241.82,692.39c0-328.5-102.63-255.5-102.63-584" transform="translate(0 -19.52)" />
    <path class="xian5-5" d="M303.13,692.39c0-328.5-146.84-255.5-146.84-584" transform="translate(0 -19.52)" />
    <path class="xian5-6" d="M330.24,692.39c0-328.5-156.84-255.5-156.84-584" transform="translate(0 -19.52)" />
    <path class="xian5-7" d="M59.32,692.39c0-328.5,149.74-255.5,149.74-584" transform="translate(0 -19.52)" />
    <path class="xian5-4" d="M180.5,692.39c0-328.5,54.21-255.5,54.21-584" transform="translate(0 -19.52)" />
    <path class="xian5-2" d="M258.92,692.39c0-328.5-7.11-255.5-7.11-584" transform="translate(0 -19.52)" />
    <path class="xian5-6" d="M347.34,692.39c0-328.5-78.42-255.5-78.42-584" transform="translate(0 -19.52)" />
    <rect class="xian5-8" y="88.87" width="386" height="584" />
    <path class="xian5-7" d="M93.53,692.39c0-328.5,211.05-255.5,211.05-584" transform="translate(0 -19.52)" />
    <path class="xian5-4" d="M197.61,692.39c0-328.5,132.63-255.5,132.63-584" transform="translate(0 -19.52)" />
    <path class="xian5-2" d="M276,692.39c0-328.5,71.32-255.5,71.32-584" transform="translate(0 -19.52)" />
    <path class="xian5-9" d="M374.45,692.39c0-328.5-10-255.5-10-584" transform="translate(0 -19.52)" />
    <rect class="xian5-10" x="8" y="672.87" width="102.63" height="5" />
    <rect class="xian5-11" x="120.63" y="672.87" width="85.53" height="5" />
    <rect class="xian5-12" x="216.16" y="672.87" width="68.42" height="5" />
    <rect class="xian5-13" x="294.58" y="672.87" width="17.11" height="5" />
    <rect class="xian5-14" x="321.68" y="672.87" width="34.21" height="5" />
    <rect class="xian5-15" x="365.89" y="672.87" width="17.11" height="5" />
    <g class="xian5-16">
        <rect class="xian5-17" x="96.42" y="83.87" width="85.53" height="5" />
    </g>
    <rect class="xian5-17" x="287.47" y="84.43" width="85.53" height="4.41" />
    <g class="xian5-18">
        <rect class="xian5-17" x="18" y="83.87" width="68.42" height="5" />
    </g>
    <g class="xian5-16">
        <rect class="xian5-17" x="191.95" y="83.87" width="85.53" height="5" />
    </g>
    <path
        d="M51.35,703.25a3.38,3.38,0,0,1-.45,1.74,3,3,0,0,1-1.29,1.18,4.36,4.36,0,0,1-2,.42H45.77V711h-1V700h2.86a4.11,4.11,0,0,1,2.78.86A3,3,0,0,1,51.35,703.25Zm-1.06,0a2.26,2.26,0,0,0-.71-1.78,3.11,3.11,0,0,0-2.13-.64H45.77v4.91h1.75a3,3,0,0,0,2.05-.65A2.36,2.36,0,0,0,50.29,703.27Z"
        transform="translate(0 -19.52)" />
    <path
        d="M63.44,711v-8.48q0-.34,0-1.44l-.25.68-.52,1.29-3.23,8h-1L55.1,702.8q-.33-.76-.66-1.71,0,.45,0,.89t0,.89V711h-1V700H55l3.3,7.88q.27.67.73,2l.38-1q.19-.48.39-1L63,700h1.46v11Z"
        transform="translate(0 -19.52)" />
    <path
        d="M66.75,711v-.7a7.56,7.56,0,0,1,1-1.8,14.62,14.62,0,0,1,2-2,11.09,11.09,0,0,0,1.9-2,3,3,0,0,0,.54-1.69,2.08,2.08,0,0,0-.57-1.57,2.19,2.19,0,0,0-1.59-.55,2.14,2.14,0,0,0-1.51.54,2.27,2.27,0,0,0-.69,1.49l-1-.12a2.89,2.89,0,0,1,1-2,3.26,3.26,0,0,1,2.22-.76,3.32,3.32,0,0,1,2.33.77,2.75,2.75,0,0,1,.84,2.13,3.48,3.48,0,0,1-.25,1.32,4.87,4.87,0,0,1-.75,1.23,16.51,16.51,0,0,1-1.7,1.68,10.37,10.37,0,0,0-2.66,3.16h5.53V711Z"
        transform="translate(0 -19.52)" />
    <path d="M75.5,711v-1.35h1.13V711Z" transform="translate(0 -19.52)" />
    <path
        d="M85.44,707.47a3.81,3.81,0,0,1-.93,2.73,3.4,3.4,0,0,1-2.59,1,2.9,2.9,0,0,1-3.19-2.46l1-.16A2,2,0,0,0,82,710.34a2.24,2.24,0,0,0,1.8-.73,3.11,3.11,0,0,0,.63-2.09,2.67,2.67,0,0,0-.62-1.86,2.17,2.17,0,0,0-1.7-.69,3,3,0,0,0-1.12.19,3.34,3.34,0,0,0-1,.63h-.93l.34-5.77h5.47v.84H80.31l-.26,4a3.48,3.48,0,0,1,1.07-.55,4,4,0,0,1,1.13-.15,3.05,3.05,0,0,1,2.32.9A3.38,3.38,0,0,1,85.44,707.47Z"
        transform="translate(0 -19.52)" /><text class="xian5-19" transform="translate(144.21 690.87)">PM10</text><text
        class="xian5-19" transform="translate(232.21 690.87)">O3</text><text class="xian5-19"
        transform="translate(289 690.87)">SO2</text><text class="xian5-19"
        transform="translate(363 691.37)">CO</text><text class="xian5-19" transform="translate(324 690.87)">NO2</text>
    <path
        d="M41.13,77.33l-.9.05-.46-.51L41,77l11.62,0q.76-1,1-1.26t.33-.32.47.2l.62.49.65.63q.32.3.25.44a.23.23,0,0,1-.24.14Zm5.82,8.24a10.73,10.73,0,0,1-1.2-2A10,10,0,0,1,45.17,82l-.18-.7a.24.24,0,0,1,.14-.32q.21-.11.4.25l.35.69a8.52,8.52,0,0,0,2,2.57,10.79,10.79,0,0,0,1.34-3.08l.18-.76q0-.21.37-.09l.69.21,1,.46q.69.3.7.49t-.67.4l-.69,1.38a23.16,23.16,0,0,1-1.32,2.14,7.2,7.2,0,0,0,2.67,1.16,15.82,15.82,0,0,0,3,.44l.81,0q.18,0,.21.12t-.21.21l-.42.19a2.69,2.69,0,0,0-.59.34,2.73,2.73,0,0,0-.42.46,2.41,2.41,0,0,0-.31.5l-.18.44a.36.36,0,0,1-.37.21,4.6,4.6,0,0,1-1.17-.34,17.55,17.55,0,0,1-2-.91,7.93,7.93,0,0,1-1.22-.72l-1.14-.9q-.67.49-1.2.81a14.84,14.84,0,0,1-2.21.91,14.49,14.49,0,0,1-3.3.77l-1.09.12a1.87,1.87,0,0,1-.51,0q-.12,0-.13-.11t.22-.19l.53-.14.7-.21a12.3,12.3,0,0,0,3.85-1.67A17.12,17.12,0,0,0,46.95,85.57Zm-.51-6.17a27.28,27.28,0,0,1-2.8,2.08,14.24,14.24,0,0,1-2.47,1.26l-.67.26a1.56,1.56,0,0,1-.52.17q-.11,0-.13-.08a.21.21,0,0,1,.07-.18l.37-.23.62-.47a11.23,11.23,0,0,0,1.8-1.78,11.77,11.77,0,0,0,1.4-2.1l.21-.42a.36.36,0,0,1,.11-.16s.12,0,.26,0,.64.24,1.38.54,1.12.53,1.13.67S46.94,79.35,46.44,79.4ZM46,73.92l-.3-.21q-.21-.14-.17-.24t.47-.08q.26,0,.91.11a3.8,3.8,0,0,1,1.19.38,2.47,2.47,0,0,1,.86.7,1.72,1.72,0,0,1,.34,1,1.17,1.17,0,0,1-.38.94,1.5,1.5,0,0,1-1,.41,1.21,1.21,0,0,1-.92-.27.78.78,0,0,1-.32-.47,6.69,6.69,0,0,1,0-.76,2.16,2.16,0,0,0-.21-.92A1.58,1.58,0,0,0,46,73.92Zm3.45,4.69q-.19-.11-.18-.24t.53-.08a10.83,10.83,0,0,1,3.83,1.1q1.46.8,1.56,1.82a1.33,1.33,0,0,1-.47,1.38,1.2,1.2,0,0,1-1.26,0,1.45,1.45,0,0,1-.61-.5q-.2-.31-.9-1.53a4,4,0,0,0-2-1.77Z"
        transform="translate(0 -19.52)" />
    <path
        d="M60,86.49V80.14H58.86l-.91.05-.33-.47,1.13.09,1.2,0,.28-.51a.56.56,0,0,1,.24-.27.62.62,0,0,1,.38,0q1.71.63,1.72,1,0,.25-.56.49v6.1a5.71,5.71,0,0,0,2.07.75,27.49,27.49,0,0,0,5.33.17,21.65,21.65,0,0,0,4.38-.4l.49-.12a.14.14,0,0,1,.16.07q.05.09-.05.19l-.32.32a1.42,1.42,0,0,0-.32.59,2.49,2.49,0,0,0-.11.8q0,.4-.07.48t-.38.06l-6.52,0a11.54,11.54,0,0,1-2.52-.24,4,4,0,0,1-1.47-.74l-.76-.67a1.38,1.38,0,0,0-1-.4q-.72.11-1.6,1.51l-.35.56s0,0-.09,0-.09-.06-.14-.17l-.9-1.72a.66.66,0,0,1-.11-.25s.11-.08.31-.17Zm2.51-10.9a1.63,1.63,0,0,1-.22.77,1,1,0,0,1-1,.51,1.31,1.31,0,0,1-.52-.07,1.35,1.35,0,0,1-.45-.25.85.85,0,0,1-.23-.59l0-.37a1.85,1.85,0,0,0-.33-1q-.3-.41-.39-.51l-.2-.2a.34.34,0,0,1-.12-.21q0-.11.25-.07a4.94,4.94,0,0,1,2.65.89A2,2,0,0,1,62.55,75.59Zm4.87,2.64a.73.73,0,0,1-.22-.17.65.65,0,0,1-.1-.27L67,77.33a1.73,1.73,0,0,0-.56-1q-.42-.35-.54-.42l-.18-.13a.11.11,0,0,1,0-.14q0-.08.3-.08,1,.07,1.46.14a7.22,7.22,0,0,1,1.25.37q.44-.74.81-1.46H64.91l-1.28.05-.32-.56,1.37.16h4.8q.35-.72.67-.81a4.91,4.91,0,0,1,1.43.55q1.24.59,1.24,1t-.4.33l-.46,0a10.39,10.39,0,0,0-2.79,1.16l.16.42a1.12,1.12,0,0,1,0,.57,1.52,1.52,0,0,1-.46.76H71q.33-.67.58-.76a2.32,2.32,0,0,1,1.15.39q.91.46.94.7t-.56.53v6.57a1.73,1.73,0,0,1-.14.79.87.87,0,0,1-.36.38,4.15,4.15,0,0,1-1,.24q-.8.12-.87,0a.65.65,0,0,1,0-.31,1.3,1.3,0,0,0-.19-.64,1.22,1.22,0,0,0-.52-.53l-.51-.25q-.12-.05-.11-.12s.07-.07.2-.07l.62,0a2.16,2.16,0,0,0,.88,0q.09-.08.09-.52V83.08H69v1.51l.09,1.76a1,1,0,0,1-.9.59,1.45,1.45,0,0,1-.82-.08.71.71,0,0,1-.22-.33l.09-2V83.08H65.17v1.63l.09,1.58a1,1,0,0,1-.33.4,2,2,0,0,1-1,.2,1.15,1.15,0,0,1-.51-.05.53.53,0,0,1-.23-.32l.11-1.88V79l-.11-1.39a.19.19,0,0,1,.1-.1.82.82,0,0,1,.38.1l1.53.65Zm-.18.33H65.17v1.92h2.07Zm0,4.18V80.83H65.17v1.92ZM69,80.47h2.09V78.56H69.27A1.73,1.73,0,0,1,69,79Zm0,2.27h2.11V80.83H69Z"
        transform="translate(0 -19.52)" />
    <path
        d="M129.15,78.84q.11-.37.2-.78t.27-1.68q.18-1.27.21-1.69l.07-1.23q0-.21.37-.14l1.28.19q1.27.18,1.3.44t-.72.6q-.33,1.88-.42,2.27l-.44,2H137l.52-.68.41-.54a.5.5,0,0,1,.32-.2q.18,0,.65.38l.6.51.37.42q.25.28.18.38a.2.2,0,0,1-.18.1h-8.7q-.3,1.09-.65,2.07h4.34q.44-.72.6-.76a.78.78,0,0,1,.46.11l.81.39q1.28.65,1.28.88t-.84.4A29.53,29.53,0,0,1,135,85.78a12.39,12.39,0,0,0,4.64,1.28l.44,0q.16,0,.17.11t-.17.17l-.37.16a1.78,1.78,0,0,0-.6.44,2.59,2.59,0,0,0-.41.54,4.69,4.69,0,0,0-.25.6q-.13.38-.22.38a.17.17,0,0,1-.12,0l-.59-.15a6.6,6.6,0,0,1-1.66-.84,14,14,0,0,1-2-1.54,13.21,13.21,0,0,1-2.87,1.56,12.67,12.67,0,0,1-2.91.83l-.7.11-.47.09q-.26,0-.29-.09t.24-.21l.44-.12.67-.25a11.94,11.94,0,0,0,4.73-3q-.37-.49-.76-1.14a6.18,6.18,0,0,1-.66-1.81l-.32-1.27h-.47a18.58,18.58,0,0,1-2.07,3.52,15,15,0,0,1-3.43,3l-.46.32a1.07,1.07,0,0,1-.35.19q-.14,0-.18,0t.07-.2l.3-.26.47-.47a15.14,15.14,0,0,0,2.53-3.54,18.76,18.76,0,0,0,1.83-5h-2.78l-.63.65a.75.75,0,0,1-.21.17.35.35,0,0,1-.22,0,1.45,1.45,0,0,1-.4-.27l-.54-.44a3.81,3.81,0,0,1-.41-.36.39.39,0,0,1-.13-.25q0-.11.16-.21l.6-.37.58-2.13.18-1.39q.07-.18.32-.14.63.14,1.43.37t.8.42q0,.28-.65.51l-.9,3.09Zm4.25,5.91a11.09,11.09,0,0,0,1.28-2.36l.26-.76h-3.73a7.93,7.93,0,0,0,.92,1.78A8.17,8.17,0,0,0,133.41,84.75Zm.4-9.63-.42-.3s-.05-.06,0-.11a.25.25,0,0,1,.21-.07l.53,0q2,.18,2.43.87a2.51,2.51,0,0,1,.43,1.2,1.24,1.24,0,0,1-.39.91,1.13,1.13,0,0,1-1,.35.94.94,0,0,1-.63-.24,1,1,0,0,1-.28-.38,8.19,8.19,0,0,1-.16-1A1.79,1.79,0,0,0,133.81,75.11Z"
        transform="translate(0 -19.52)" />
    <path
        d="M150.21,77l3.27,0q.53-.79.65-.82a.7.7,0,0,1,.39.1q1.71.86,1.76,1.11t-.44.56V83l.11,2a1.73,1.73,0,0,1-.25.53q-.19.3-1.41.19-.56,0-.56-.39v-.93h-3.52V87a.79.79,0,0,0,.13.4q.13.22.77.25l2.21,0a5.5,5.5,0,0,0,2.89-.4,4.81,4.81,0,0,0,1.2-1.92l.26-.63q.07-.19.19-.16t.11.12l-.19.88q-.14.6-.21,1a1.23,1.23,0,0,0,.12.79l.21.35a1.32,1.32,0,0,1,.15.54,1,1,0,0,1-.15.53,1.74,1.74,0,0,1-.69.58,19,19,0,0,1-4.64.21,12.28,12.28,0,0,1-3.4-.27,1.56,1.56,0,0,1-.69-.51,1.67,1.67,0,0,1-.2-.59,7,7,0,0,1-.05-1V84.38H144.8v1.32a.77.77,0,0,1-.16.47q-.16.21-1.44.19a.6.6,0,0,1-.36-.07.42.42,0,0,1-.11-.23l.11-2.07V78.73l-.12-2.46q.11-.09.39,0l1.85.74h3.3V75.48l-.14-2.07a.88.88,0,0,1,.21-.09,1.62,1.62,0,0,1,.43,0q.31.05,1.12.12t.9.3q.05.21-.54.67Zm-2,3.52V77.36H144.8v3.18Zm0,3.5V80.9H144.8V84Zm5.48-3.5V77.36h-3.52v3.18Zm0,.35h-3.52v3.23h3.52Z"
        transform="translate(0 -19.52)" />
    <path
        d="M232.71,76.17l0,1.46.07,1.13a1,1,0,0,1-.18.38,1.9,1.9,0,0,1-.94.31q-.81.14-.92,0a.67.67,0,0,1-.11-.4v-.42h-8.77q0,.95,0,1.5t-.18,2.65a12.06,12.06,0,0,1-.91,3.81,8.25,8.25,0,0,1-2.25,3l-.37.32q-.19.18-.28.1a.17.17,0,0,1,0-.22l.33-.53q.14-.23.47-.89a11.13,11.13,0,0,0,.64-1.73,13.89,13.89,0,0,0,.45-2.79q.13-1.71.14-2.35t0-2.21q0-1.63,0-2.2t-.07-1.34l-.07-.83-.05-.37q0-.19.42,0l1.92.93h8.33q.28-.4.42-.64a.67.67,0,0,1,.25-.28.73.73,0,0,1,.42.06,10.61,10.61,0,0,1,1.24.62q.57.33.59.44T232.71,76.17Zm-2.09,2.09,0-2.43h-8.7q0,1.11,0,1.35l-.05,1.07Zm-4.39,3.59,0-1.88-.07-.95,0-.3a1.24,1.24,0,0,1,.3,0q.18,0,1.34.25t1.2.43q0,.26-.62.53l-.16,1.93h2.88q.91-1.42,1.13-1.45a.87.87,0,0,1,.55.2l.67.49a6.78,6.78,0,0,1,.6.56q.28.3.25.42t-.23.12h-5.87l-.16,3h2.18a2.54,2.54,0,0,1,.57-.8.67.67,0,0,1,.4,0,5,5,0,0,1,1.34.69q.44.35.46.44t-.58.51v2.51l.07,1.11a1.09,1.09,0,0,1-.23.56q-.19.25-1.21.32-.58.05-.58-.3V89.4h-6v.49a1,1,0,0,1-.13.46q-.13.25-.92.28a1.4,1.4,0,0,1-.68-.06.67.67,0,0,1-.29-.31l.11-2.09,0-1.88-.11-2q.05-.09.33,0l1.69.81h1.71l.11-3h-2.71l-1.05.05-.47-.51,1.32.11Zm-1.85,7.22h6V85.53h-6Z"
        transform="translate(0 -19.52)" />
    <path
        d="M247.09,79.36h-1.92a1.31,1.31,0,0,1-.4.47q.07,1.69.14,2.06l.11.74h3.92q.6-.72.86-1.08t.37-.38.37.21l.76.67.51.53q.18.18.15.27a.11.11,0,0,1-.11.1l-6.77,0a8.79,8.79,0,0,0,1.06,2.64,6,6,0,0,0,1.51,1.63,4,4,0,0,0,1.41.73,1.71,1.71,0,0,0,.76,0,1,1,0,0,0,.67-.52q.23-.41.54-1.06l.35-.74q.05-.14.18-.11t.09.27l-.19,1a4.34,4.34,0,0,0-.08.76,1.35,1.35,0,0,0,.13.67l.3.47a1,1,0,0,1,.18.78,1.34,1.34,0,0,1-.58.67,2.52,2.52,0,0,1-1.76.13A6.29,6.29,0,0,1,245,87.69a11,11,0,0,1-1.6-3.49L243.1,83h-3.94v4.57q.33,0,3.74-.6l1-.16q.19,0,.21.1A.15.15,0,0,1,244,87l-.95.47A51.17,51.17,0,0,0,238.5,90l-.53.33-.23.16a.13.13,0,0,1-.16-.11l-.86-2.29a.58.58,0,0,1-.06-.21,1,1,0,0,1,.23-.2q.22-.17.22-.8v-10L237,74.57s.11,0,.21,0l2.07.81h7.61q.63-.83.86-.86a2.83,2.83,0,0,1,.85.38q.73.4,1,.56t.26.25a.24.24,0,0,1-.07.19l-.26.21-.23.18v2.32l.07,1.05a1,1,0,0,1-.2.52q-.18.25-1,.26t-.92-.11a.59.59,0,0,1-.11-.39Zm0-.33V75.71h-7.93V79Zm-7.93,3.6H243q-.16-1.28-.16-1.53l-.12-1.74h-3.57Z"
        transform="translate(0 -19.52)" />
    <path
        d="M326.63,88V76.15h-4.75l-.95,0-.47-.49,1.23.11h10.46q1.09-1.51,1.3-1.54a.78.78,0,0,1,.49.15,6.1,6.1,0,0,1,1.2,1.07q.32.42.28.54a.16.16,0,0,1-.18.12h-6a1.41,1.41,0,0,1-.37.42V88h4.25q.32-.39.75-.95t.6-.58a.74.74,0,0,1,.45.18,11.31,11.31,0,0,1,.95.84q.58.56.54.71a.19.19,0,0,1-.2.15H321.16l-.93.05-.47-.51L321,88Z"
        transform="translate(0 -19.52)" />
    <path
        d="M337.63,88.56l1.23.11h4V76l-.12-2.44q.11-.16.47-.12a17,17,0,0,1,1.8.33.93.93,0,0,1,.46.23.25.25,0,0,1,0,.24,2,2,0,0,1-.61.49V88.67h1.74V76.27l-.14-2.44q.11-.16.47-.12a15.45,15.45,0,0,1,1.83.32.83.83,0,0,1,.4.23.24.24,0,0,1,0,.24,2.24,2.24,0,0,1-.59.5v9.74a28.63,28.63,0,0,0,1.65-4.32q.44-1.66.51-2l.12-.65.07-.51q.11-.14.46,0l1,.42q.37.18.84.44t.48.38a.26.26,0,0,1,0,.18,1.14,1.14,0,0,1-.62.25q-1.28,2.34-2.18,3.81t-2.32,3.47v2.48h2q.6-.74.89-1.14t.43-.43.54.31l1.31,1.2q.17.17.13.28t-.3.11h-14.4l-1.09.05ZM339.23,78a10.86,10.86,0,0,1,2.43,3.47,7.15,7.15,0,0,1,.55,2.31,1.84,1.84,0,0,1-.4,1.24,1.23,1.23,0,0,1-1,.42,1,1,0,0,1-.87-.4,1.66,1.66,0,0,1-.2-1l.09-1a10.39,10.39,0,0,0,0-1.69,7.65,7.65,0,0,0-.39-1.91q-.25-.61-.42-1a4,4,0,0,0-.25-.5.75.75,0,0,1-.11-.2.17.17,0,0,1,0-.17q.07-.08.28.1Z"
        transform="translate(0 -19.52)" />
    <polygon points="0 364.37 11 364.37 11 364.37 0 364.37 0 364.37" />
    <path class="xian5-20"
        d="M339.92,43.67V41.41l-9.07,4v-4l-10.2,4.53v8.5H349v-13l-9.07,4Zm-1.13-.51v1l-7.93,3.51v-1Zm-17,3.51,7.93-3.51v1l-7.93,3.51Zm26.07-3.51v1l-7.93,3.51v-1Z"
        transform="translate(0 -19.52)" />
    <path class="xian5-20" d="M355.79,33.19h-4.53l-1.13,21.25h6.8Zm-1.08,1.13.06,1h-2.49l.06-1Z"
        transform="translate(0 -19.52)" />
    <path class="xian5-20"
        d="M351.77,32.93h.06a1.94,1.94,0,0,0,1.87-2,.78.78,0,0,0,0-.26,2,2,0,0,0-1.7-1.62,1.72,1.72,0,0,0-2-1.45h0a1.42,1.42,0,0,0-.34.06,2.73,2.73,0,0,0-.85-1.73c0-.11,0-.2,0-.31a2.64,2.64,0,0,0-4.76-1.53,2.51,2.51,0,0,0-1.45,0,3,3,0,0,0-2.38-2.18,3,3,0,0,0-4-1.67,3.16,3.16,0,0,0-1.56,1.42,3.05,3.05,0,1,0-2.27,5.67,3.3,3.3,0,0,0,1.56.2,3.06,3.06,0,0,0,4.14,1.22,3,3,0,0,0,1-.82,3.15,3.15,0,0,0,1.84-.23,2.63,2.63,0,0,0,2.41,1.59,2.53,2.53,0,0,0,1.28-.34,2.61,2.61,0,0,0,3.43,1.39l.17-.09a1.94,1.94,0,0,0,1.62,1.28,1.92,1.92,0,0,0,.34.68A2.1,2.1,0,0,0,351.77,32.93Z"
        transform="translate(0 -19.52)" />
    <path class="xian5-21"
        d="M242.71,25.25,231,25.63a1.12,1.12,0,0,0-1.06,1.16h0a20,20,0,0,0,.29,2.66l-8.09,10.12a1.15,1.15,0,0,0,0,1.49l.13.14-4.82,6.61,4-2.63-5.86,9,4.76-4.51-1.46,3.76,4.76-4.14-1.46,3.39L225.9,49l-.37,1.13,2.8-2.3.06.07a1.08,1.08,0,0,0,1.49.11l10.54-8.58a19.5,19.5,0,0,0,2.69.18,1.11,1.11,0,0,0,1.1-1.13s0,0,0,0l-.37-12a1.11,1.11,0,0,0-1.13-1.09h0Zm-19.26,1.5-1.14,1-1.53-.11.61,1.4-.55,1.39,1-.07-1,10.71,2.15-10.29.63.51.33-1.47,1.28-.79-1.32-.8Zm18.23.79.3,9.67a10.73,10.73,0,0,1-6.66-2.39c-1.65-1.47-2.71-3.74-3.06-7ZM217.48,32l-.89,1.48-1.37.13,1,1.36-.31,1.43.78-.33L216,44.81l1.93-8.73.71.46-.09-1.76,1-1L218,33.36Zm14.29,1.88a10.39,10.39,0,0,0,2.11,2.63,11,11,0,0,0,3.79,2.17l-1.93,1.58a14.17,14.17,0,0,1-4-6.38Zm-2.28,0A15.63,15.63,0,0,0,234,41.72l-.71.58a13.33,13.33,0,0,1-4.06-8l.29-.35Zm-2.14,2.68a15.65,15.65,0,0,0,4.17,7.12l-.7.56A13.41,13.41,0,0,1,227,37Zm-2.15,2.68a14,14,0,0,0,1.48,3.41l-2.24-2.45Zm14.61,3.28-.69,1.08-1.2.26.31.43-2.82,1.61,3.23-.8-.11,1.08,1.16-.45,1.11.54,0-1.3.82-1-1.18-.36-.6-1.13Zm-5.3,3.91L233.62,48l-1.37.13.69.89-5.57,1.86,5.83-.93-.21,1,1.53-.65,1.18.75-.09-1.76,1-1-1.59-.43Zm1.27,7-1.11.58-1.16-.39.07.62-8.06-.43,7.85,1.49-.46.65,1.2.2.69,1,.6-1.15,1.18-.41-.84-.92,0-1.28Z"
        transform="translate(0 -19.52)" />
    <path class="xian5-21"
        d="M157.21,51.17h-1.74v-1.4h1.74a.45.45,0,0,0,0-.9h-1.74v-.95c-1.41,0-3,.56-3.27,2.07H137c-3.44,0-5.11,1.33-5.11,4.06s-.72,4.05-2.25,4.05c-2.09,0-2.25-3.44-2.25-3.46V45.23h2.32V39.15c0-1.24.33-2.24.75-2.24H134c.41,0,.75,1,.75,2.24v6.08h5.44A2.24,2.24,0,0,0,142.47,43V33.07h2.59c1.76,0,2.1-.93.75-2.06l-4.42-3.7-6.71-5.63a4,4,0,0,0-4.91,0L118.65,31c-1.35,1.13-1,2.06.75,2.06H122V43a2.24,2.24,0,0,0,2.24,2.24h2.22v9.44c0,.18.2,4.34,3.15,4.34,2.09,0,3.15-1.67,3.15-5,0-1.47.48-3.16,4.21-3.16h15.21c.23,1.64,1.84,2.19,3.29,2.19v-1h1.74a.45.45,0,0,0,0-.9Zm-21-17.68a.7.7,0,0,1,.7-.7h2.34a.7.7,0,0,1,.7.7V37a.7.7,0,0,1-.7.7h-2.34a.7.7,0,0,1-.7-.7ZM125,37.67a.7.7,0,0,1-.7-.7V33.49a.7.7,0,0,1,.7-.7h2.34a.7.7,0,0,1,.7.7V37a.7.7,0,0,1-.7.7Z"
        transform="translate(0 -19.52)" />
    <path class="xian5-22"
        d="M75,43.65v0a2.36,2.36,0,0,0-.09-.5A8.45,8.45,0,0,0,69,36.68a32,32,0,0,0-4.47-.75,3.62,3.62,0,0,1-2.83-1.62,16.22,16.22,0,0,0-10.86-6.77,39.5,39.5,0,0,0-12.81,0,8.22,8.22,0,0,0-5.92,3.86c-.54.84-1,1.77-1.55,2.57a9.76,9.76,0,0,1-2,2.32,6.26,6.26,0,0,0-2.74,4c-.2,1.1-.34,2.2-.45,3.31h0a2.58,2.58,0,0,0,0,.34v2.48a1,1,0,0,0,1,1h3.72a6,6,0,0,1,11.93,0H59.8v-.22a6,6,0,0,1,12,0v.22H74a1,1,0,0,0,1-1V43.78a1.17,1.17,0,0,0,0-.13ZM44.93,37c-3,0-5.87.07-8.77,0-1.42,0-1.76-.8-1.23-2.15,1.75-4.47,4.56-5.92,10-5.09Zm12.81,0c-3.23,0-6.45,0-9.87,0v-7.2c3.73-.69,9.32,2.18,10.92,5.59.49,1.07.2,1.62-1,1.64Z"
        transform="translate(0 -19.52)" />
    <path class="xian5-22"
        d="M36,43.37a4.72,4.72,0,1,0,4.73,4.71h0A4.71,4.71,0,0,0,36,43.37Zm0,6.81a2.1,2.1,0,1,1,2.1-2.1h0A2.09,2.09,0,0,1,36,50.16Z"
        transform="translate(0 -19.52)" />
    <path class="xian5-22"
        d="M70.53,47.22a4.72,4.72,0,1,0-4.72,4.72h0a4.71,4.71,0,0,0,4.71-4.71Zm-6.81,0a2.1,2.1,0,1,1,2.09,2.1h0a2.1,2.1,0,0,1-2.1-2.1Z"
        transform="translate(0 -19.52)" />
</svg>