<?xml version="1.0" encoding="utf-8"?>
<!-- Generator: Adobe Illustrator 21.0.0, SVG Export Plug-In . SVG Version: 6.00 Build 0)  -->
<svg version="1.1" id="xian" xmlns="http://www.w3.org/2000/svg" xmlns:xlink="http://www.w3.org/1999/xlink" x="0px" y="0px"
	 viewBox="0 0 381.5 720" style="enable-background:new 0 0 381.5 720; transform:scale(0.8);" xml:space="preserve">
<style type="text/css">
	.st0{fill:none;stroke:#8DD3C7;stroke-width:34.21;stroke-opacity:0.7;}
	.st1{fill:none;stroke:#8DD3C7;stroke-width:17.11;stroke-opacity:0.7;}
	.st2{fill:none;stroke:#FDB462;stroke-width:17.11;stroke-opacity:0.7;}
	.st3{fill:none;stroke:#FDB462;stroke-width:34.21;stroke-opacity:0.7;}
	.st4{fill:none;stroke:#BEBADA;stroke-width:17.11;stroke-opacity:0.7;}
	.st5{fill:none;stroke:#FB8072;stroke-width:17.11;stroke-opacity:0.7;}
	.st6{fill:none;stroke:#80B1D3;stroke-width:17.11;stroke-opacity:0.7;}
	.st7{fill:none;stroke:#B3DE69;stroke-width:17.11;stroke-opacity:0.7;}
	.st8{font-family:'DengXian';}
	.st9{font-size:16px;}
	.st10{fill:#FFFFFF;}
</style>
<title>xian</title>
<path class="st0" d="M88,697.5C88,369,299.1,369,299.1,40.5"/>
<path class="st1" d="M28.2,697.5c0-328.5,71.3-328.5,71.3-657"/>
<path class="st1" d="M11,697.5C11,369,21,369,21,40.5"/>
<path class="st0" d="M53.8,697.5c0-328.5,149.7-328.5,149.7-657"/>
<path class="st2" d="M175,697.5c0-328.5,54.2-328.5,54.2-657"/>
<path class="st3" d="M132.2,697.5c0-328.5-85.5-328.5-85.5-657"/>
<path class="st2" d="M192.1,697.5c0-328.5,132.6-328.5,132.6-657"/>
<path class="st2" d="M157.9,697.5c0-328.5-41.3-328.5-41.3-657"/>
<path class="st4" d="M219.2,697.5C219.2,369,72.4,369,72.4,40.5"/>
<path class="st4" d="M270.5,697.5c0-328.5,71.3-328.5,71.3-657"/>
<path class="st4" d="M236.3,697.5c0-328.5-102.6-328.5-102.6-657"/>
<path class="st4" d="M253.4,697.5c0-328.5-7.1-328.5-7.1-657"/>
<path class="st5" d="M297.6,697.5c0-328.5-146.8-328.5-146.8-657"/>
<path class="st6" d="M324.7,697.5c0-328.5-156.8-328.5-156.8-657"/>
<path class="st6" d="M341.8,697.5c0-328.5-78.4-328.5-78.4-657"/>
<path class="st7" d="M369,697.5c0-328.5-10-328.5-10-657"/>
<rect x="2.5" y="697.5" width="102.6" height="5"/>
<rect x="115.1" y="697.5" width="85.5" height="5"/>
<rect x="210.7" y="697.5" width="68.4" height="5"/>
<rect x="289.1" y="697.5" width="17.1" height="5"/>
<rect x="316.2" y="697.5" width="34.2" height="5"/>
<rect x="360.4" y="697.5" width="17.1" height="5"/>
<rect x="90.9" y="35.5" width="85.5" height="5"/>
<rect x="282" y="35.5" width="85.5" height="4"/>
<rect x="12.5" y="35.5" width="68.4" height="5"/>
<rect x="186.4" y="35.5" width="85.5" height="5"/>
<text transform="matrix(1 0 0 1 37.71 715.5)" class="st8 st9">PM2.5</text>
<text transform="matrix(1 0 0 1 138.71 715.5)" class="st8 st9">PM10</text>
<text transform="matrix(1 0 0 1 226.71 715.5)" class="st8 st9">O3</text>
<text transform="matrix(1 0 0 1 283.5 715.5)" class="st8 st9">SO2</text>
<text transform="matrix(1 0 0 1 357.5 716)" class="st8 st9">CO</text>
<text transform="matrix(1 0 0 1 318.5 715.5)" class="st8 st9">NO2</text>
<text transform="matrix(1 0 0 1 33.5 21)" class="st8 st9">交通</text>
<text transform="matrix(1 0 0 1 117.5 19)" class="st8 st9">发电</text>
<text transform="matrix(1 0 0 1 215.5 20)" class="st8 st9">居民</text>
<text transform="matrix(1 0 0 1 313.5 19)" class="st8 st9">工业</text>
<rect id="flog" x="-0.9" class="st10" width="375" height="667">
<animate  accumulate="none" additive="replace" attributeName="height" attributeType="XML" begin="0s" calcMode="linear" dur="5s" fill="freeze" from="667" restart="always" to="0">
	</animate>
</rect>
<polygon points="-5.5,357 5.5,357 5.5,357 -5.5,357 "/>
</svg>
