<?xml version="1.0" encoding="UTF-8"?>
<svg width="193px" height="193px" viewBox="0 0 193 193" version="1.1" xmlns="http://www.w3.org/2000/svg" xmlns:xlink="http://www.w3.org/1999/xlink">
    <!-- Generator: Sketch 61 (89581) - https://sketch.com -->
    <title>example</title>
    <desc>Created with Sketch.</desc>
    <g id="页面-1" stroke="none" stroke-width="1" fill="none" fill-rule="evenodd">
        <g id="example" transform="translate(0.296875, 0.125000)" fill-rule="nonzero">
            <path d="M50.4883102,49.8083334 L134.932755,49.8083334 C142.340162,49.8083334 148.266088,55.7342594 148.266088,63.1416666 L148.266088,139.437963 C148.266088,146.84537 142.340162,152.771296 134.932755,152.771296 L50.4883102,152.771296 C43.0809027,152.771296 37.1549768,146.84537 37.1549768,139.437963 L37.1549768,62.400926 C37.8957176,55.7342594 43.8216434,49.8083334 50.4883102,49.8083334 Z" id="路径" fill="#98F58B"></path>
            <path d="M100.11794,189.808333 L23.0809027,189.808333 C10.4883102,189.808333 0.117939844,180.178704 0.117939844,167.586111 L0.117939844,34.2527777 C0.117939844,21.6601852 10.4883102,12.0305555 23.0809027,12.0305555 L162.340162,12.0305555 C174.932755,12.0305555 185.303125,21.6601852 185.303125,34.2527777 L185.303125,104.623148 C185.303125,109.067593 182.340162,112.030555 177.895718,112.030555 C173.451273,112.030555 170.48831,109.067593 170.48831,104.623148 L170.48831,34.2527777 C170.48831,29.8083332 166.784606,26.8453703 162.340162,26.8453703 L23.0809027,26.8453703 C18.6364582,26.8453703 14.9327545,29.8083332 14.9327547,34.2527777 L14.9327547,167.586111 C14.9327547,172.030555 18.6364584,174.993519 23.0809027,174.993519 L100.11794,174.993519 C104.562384,174.993519 107.525347,177.956481 107.525347,182.400926 C107.525347,186.845371 104.562384,189.808333 100.11794,189.808333 Z" id="路径" fill="#1B0C3B"></path>
            <path d="M126.043866,87.5861111 L44.5623842,87.5861111 C40.1179396,87.5861111 37.1549768,84.6231482 37.1549768,80.1787037 C37.1549768,75.7342592 40.1179396,72.7712963 44.5623842,72.7712963 L126.043866,72.7712963 C130.48831,72.7712963 133.451273,75.7342592 133.451273,80.1787037 C133.451273,84.6231482 130.48831,87.5861111 126.043866,87.5861111 Z M96.4142361,124.623148 L44.5623842,124.623148 C40.1179396,124.623148 37.1549768,121.660185 37.1549768,117.215741 C37.1549768,112.771296 40.1179396,109.808333 44.5623842,109.808333 L96.4142361,109.808333 C100.858681,109.808333 103.821644,112.771296 103.821644,117.215741 C103.821644,121.660185 100.858681,124.623148 96.4142361,124.623148 Z" id="形状" fill="#1B0C3B"></path>
            <path d="M40.1179398,0.178703711 L54.9327547,0.178703711 L54.9327547,42.400926 L40.1179398,42.400926 L40.1179398,0.178703711 Z M124.562384,0.178703711 L139.377199,0.178703711 L139.377199,42.400926 L124.562384,42.400926 L124.562384,0.178703711 Z" id="形状" fill="#1B0C3B"></path>
            <path d="M144.562384,192.771296 C143.080903,192.771296 141.599421,192.030555 140.11794,191.289815 L114.192014,170.549074 C111.229051,168.326852 110.48831,163.141667 113.451273,160.178704 C115.673496,157.215741 120.858681,156.475 123.821644,159.437963 L143.821644,175.734259 L179.377199,137.956481 C182.340162,134.993519 186.784606,134.993519 189.74757,137.956481 C192.710532,140.919444 192.710532,145.363889 189.74757,148.326852 L149.74757,190.549074 C148.266088,192.030555 146.043866,192.771296 144.562384,192.771296 L144.562384,192.771296 Z" id="路径" fill="#1B0C3B"></path>
        </g>
    </g>
</svg>