<?xml version="1.0" encoding="UTF-8"?>
<svg width="83px" height="55px" viewBox="0 0 83 55" version="1.1" xmlns="http://www.w3.org/2000/svg" xmlns:xlink="http://www.w3.org/1999/xlink">
    <!-- Generator: Sketch 61 (89581) - https://sketch.com -->
    <title>Slice 1</title>
    <desc>Created with Sketch.</desc>
    <g id="页面-1" stroke="none" stroke-width="1" fill="none" fill-rule="evenodd">
        <g id="资源-1" transform="translate(-33.000000, -24.000000)" fill-rule="nonzero">
            <rect id="矩形" x="3.86" y="3.86" width="766.81" height="531.78"></rect>
            <path d="M774.53,539.5 L0,539.5 L0,0 L774.53,0 L774.53,539.5 Z M7.72,531.78 L766.81,531.78 L766.81,7.72 L7.72,7.72 L7.72,531.78 Z" id="形状" fill="#1E093E"></path>
            <path d="M74.46,25 C52.27,25 34.27,50.4 34.27,51.36 C34.27,52.32 52.27,77.62 74.46,77.62 C96.65,77.62 114.46,51.12 114.71,51.36 C114.96,51.6 96.7,25 74.46,25 Z M108.15,51.32 C107.91,51.13 93.29,72 74.46,72 C52.91,72 40.82,51.35 40.82,51.35 C40.82,51.35 55.68,30.64 74.46,30.64 C93.24,30.64 108.4,51.52 108.15,51.35 L108.15,51.32 Z M74.28,41.07 C70.2714855,40.9764708 66.6055326,43.319663 65.0072302,46.99694 C63.4089277,50.6742169 64.1966189,54.9531541 66.9996394,57.8202104 C69.80266,60.6872667 74.0627162,61.5713941 77.7751519,60.0565484 C81.4875876,58.5417027 83.9129755,54.9296044 83.91,50.92 C83.9473691,48.3343885 82.9518489,45.8406737 81.1441202,43.9916469 C79.3363915,42.1426202 76.8657959,41.0910349 74.28,41.07 L74.28,41.07 Z" id="形状" stroke="#1E093E" fill="#000000"></path>
        </g>
    </g>
</svg>