<?xml version="1.0" standalone="no"?><!DOCTYPE svg PUBLIC "-//W3C//DTD SVG 1.1//EN" "http://www.w3.org/Graphics/SVG/1.1/DTD/svg11.dtd"><svg t="1576852629530" class="icon" viewBox="0 0 1024 1024" version="1.1" xmlns="http://www.w3.org/2000/svg" p-id="16231" xmlns:xlink="http://www.w3.org/1999/xlink" width="200" height="200"><defs><style type="text/css"></style></defs><path d="M927.851764 374.497684c26.880152 0 48.651859-21.771707 48.651859-48.651859s-21.771707-48.651859-48.651859-48.651859H787.491151l35.515857-148.753059c6.203112-26.150374-9.852001-52.422378-36.002376-58.625489s-52.422378 9.852001-58.62549 36.002375l-40.867561 171.376173H433.670507l35.515857-148.753059c6.203112-26.150374-9.852001-52.422378-36.002375-58.625489-26.150374-6.203112-52.422378 9.852001-58.62549 36.002375l-40.867562 171.376173H134.339945c-26.880152 0-48.651859 21.771707-48.651859 48.651859s21.771707 48.651859 48.651859 48.651859h176.11973l-68.477492 287.045967H96.148236c-26.880152 0-48.651859 21.771707-48.651859 48.651859s21.771707 48.651859 48.651859 48.651859H218.750921L185.667656 897.383537c-6.203112 26.150374 9.852001 52.422378 36.002376 58.62549 3.770519 0.851408 7.541038 1.337926 11.311557 1.337926 22.014966 0 41.962228-15.082076 47.313933-37.340301L318.730491 758.847369h16.784891c26.880152 0 48.651859-21.771707 48.651859-48.651859 0-24.690818-18.487706-45.124599-42.327117-48.28697l68.599121-287.410856H664.158689l-68.477492 287.045967h-137.441501c-26.880152 0-48.651859 21.771707-48.651859 48.651859s21.771707 48.651859 48.651859 48.651859h114.210239l-33.083264 138.536168c-6.203112 26.150374 9.852001 52.422378 36.002375 58.62549 3.770519 0.851408 7.541038 1.337926 11.311557 1.337926 22.014966 0 41.962228-15.082076 47.313933-37.340301l38.434969-161.159283h215.770994c26.880152 0 48.651859-21.771707 48.651859-48.651859s-21.771707-48.651859-48.651859-48.651859H695.782397l68.477491-287.045967h163.591876z" p-id="16232" data-spm-anchor-id="a313x.7781069.0.i44" class="selected" fill="#98F58B"></path></svg>