<?xml version="1.0" encoding="UTF-8"?>
<svg width="181px" height="196px" viewBox="0 0 181 196" version="1.1" xmlns="http://www.w3.org/2000/svg" xmlns:xlink="http://www.w3.org/1999/xlink">
    <!-- Generator: Sketch 61 (89581) - https://sketch.com -->
    <title>jianyi</title>
    <desc>Created with Sketch.</desc>
    <g id="页面-1" stroke="none" stroke-width="1" fill="none" fill-rule="evenodd">
        <g id="jianyi" transform="translate(0.546875, 0.757812)" fill-rule="nonzero">
            <path d="M80.753125,152.170759 L40.753125,152.170759 C35.0388393,152.170759 30.0388393,147.885045 30.0388393,142.170759 L30.0388393,47.170759 C30.0388393,41.4564732 33.6102678,36.4564732 38.6102678,36.4564732 L97.1816965,36.4564732 C100.038839,36.4564732 102.895982,37.170759 105.038839,39.313616 L125.753125,55.7421875 L125.753125,152.170759 L80.753125,152.170759 Z" id="路径" fill="#98F58B"></path>
            <path d="M172.717411,194.313616 C171.288839,194.313616 169.145982,193.59933 167.717411,192.885045 L139.860268,167.885045 C137.003125,165.027902 136.288839,160.742188 139.145982,157.885045 C142.003125,155.027902 146.288839,155.027902 149.145982,157.170759 L177.003125,181.456473 C179.860268,184.313616 180.574554,188.59933 177.717411,191.456473 C176.288839,193.59933 174.860268,194.313616 172.717411,194.313616 L172.717411,194.313616 Z" id="路径" fill="#1B0C3B"></path>
            <path d="M124.145982,178.59933 C122.003125,178.59933 119.860268,178.59933 117.717411,177.885045 C98.4316965,174.313616 85.5745535,156.456473 89.1459822,137.170759 C92.7174109,117.885045 110.574554,105.027902 129.860268,108.59933 C149.145982,112.170759 162.003125,130.027902 158.431696,149.313616 C155.574554,166.456473 140.574554,178.59933 124.145982,178.59933 Z M124.145982,122.170759 C114.145982,122.170759 105.574554,129.313616 103.431696,139.313616 C101.288839,150.742188 109.145982,161.456473 120.574554,163.59933 C132.003125,165.742188 142.717411,157.885045 144.860268,146.456473 C147.003125,135.027902 139.145982,124.313616 127.717411,122.170759 L124.145982,122.170759 Z" id="形状" fill="#1B0C3B"></path>
            <path d="M84.3245535,186.456473 L22.8959822,186.456473 C10.0388393,186.456473 0.0388392578,176.456473 0.0388392578,163.59933 L0.0388392578,22.8850447 C0.0388392578,10.0279018 9.32455352,0.0279017578 20.753125,0.0279017578 L112.181696,0.0279017578 C113.610268,0.0279017578 115.753125,0.7421875 116.467411,1.45647324 L159.324554,37.170759 C160.753125,38.5993305 162.181696,40.7421875 162.181696,42.8850447 L162.181696,105.027902 C162.181696,109.313616 159.324554,112.170759 155.038839,112.170759 C150.753125,112.170759 147.895982,109.313616 147.895982,105.027902 L147.895982,45.7421875 L109.324554,14.313616 L20.0388393,14.313616 C16.4674107,14.313616 13.6102678,17.8850445 13.6102678,22.8850447 L13.6102678,164.313616 C13.6102678,169.313616 17.895982,172.885045 22.1816965,172.885045 L83.6102678,172.885045 C87.895982,172.885045 90.753125,175.742187 90.753125,180.027902 C90.753125,184.313616 87.8959822,186.456473 84.3245535,186.456473 L84.3245535,186.456473 Z" id="路径" fill="#1B0C3B"></path>
            <path d="M107.181696,66.4564732 L39.3245535,66.4564732 C35.0388393,66.4564732 32.1816965,63.5993305 32.1816965,59.313616 C32.1816965,55.0279016 35.0388393,52.170759 39.3245535,52.170759 L106.467411,52.170759 C110.753125,52.170759 113.610268,55.0279018 113.610268,59.313616 C113.610268,63.5993303 110.753125,66.4564732 107.181696,66.4564732 Z M89.3245535,96.4564732 L39.3245535,96.4564732 C35.0388393,96.4564732 32.1816965,93.5993305 32.1816965,89.313616 C32.1816965,85.0279016 35.0388393,82.170759 39.3245535,82.170759 L89.3245535,82.170759 C93.6102678,82.170759 96.4674107,85.0279018 96.4674107,89.313616 C96.4674107,93.5993303 93.610268,96.4564732 89.3245535,96.4564732 Z" id="形状" fill="#1B0C3B"></path>
            <path d="M73.6102678,126.456473 L39.3245535,126.456473 C35.0388393,126.456473 32.1816965,123.59933 32.1816965,119.313616 C32.1816965,115.027902 35.0388393,112.170759 39.3245535,112.170759 L73.6102678,112.170759 C77.895982,112.170759 80.753125,115.027902 80.753125,119.313616 C80.753125,123.59933 77.8959822,126.456473 73.6102678,126.456473 Z" id="路径" fill="#1B0C3B"></path>
        </g>
    </g>
</svg>