<?xml version="1.0" encoding="UTF-8"?>
<svg width="66px" height="50px" viewBox="0 0 66 50" version="1.1" xmlns="http://www.w3.org/2000/svg" xmlns:xlink="http://www.w3.org/1999/xlink">
    <!-- Generator: Sketch 61 (89581) - https://sketch.com -->
    <title>形状</title>
    <desc>Created with Sketch.</desc>
    <g id="页面-1" stroke="none" stroke-width="1" fill="none" fill-rule="evenodd">
        <g id="资源-1" transform="translate(-666.000000, -23.000000)" fill="#1E093E" fill-rule="nonzero">
            <path d="M666.529988,28 C666.525953,29.6511099 667.517443,31.1418923 669.04171,31.7765508 C670.565977,32.4112093 672.322495,32.0646145 673.491441,30.8985334 C674.660388,29.7324522 675.011292,27.9767896 674.380376,26.4509701 C673.74946,24.9251505 672.261115,23.93 670.61,23.93 C668.360578,23.93 666.535513,25.7505845 666.529988,28 Z M666,48.12 C665.925471,49.6240202 666.685451,51.0468111 667.976965,51.8211637 C669.268479,52.5955164 670.881521,52.5955164 672.173035,51.8211637 C673.464549,51.0468111 674.224529,49.6240202 674.15,48.12 L674.15,48.12 C674.042363,45.9478351 672.24983,44.2419282 670.075,44.2419282 C667.90017,44.2419282 666.107637,45.9478351 666,48.12 Z M666,68.41 C666.107637,70.5821649 667.90017,72.2880718 670.075,72.2880718 C672.24983,72.2880718 674.042363,70.5821649 674.15,68.41 L674.15,68.41 C674.224529,66.9059798 673.464549,65.4831889 672.173035,64.7088363 C670.881521,63.9344836 669.268479,63.9344836 667.976965,64.7088363 C666.685451,65.4831889 665.925471,66.9059798 666,68.41 Z M731.19,27.76 C731.233359,28.7468456 730.882445,29.7104171 730.214626,30.4382648 C729.546807,31.1661124 728.616924,31.5984662 727.63,31.64 L685.38,31.64 C683.327152,31.5480909 681.735307,29.8131582 681.82,27.76 L681.82,27.76 C681.776641,26.7731544 682.127555,25.8095829 682.795374,25.0817352 C683.463193,24.3538876 684.393076,23.9215338 685.38,23.88 L727.64,23.88 C728.628692,23.9189486 729.56113,24.350178 730.23109,25.0783137 C730.90105,25.8064494 731.253324,26.7714905 731.21,27.76 L731.19,27.76 Z M731.19,47.94 C731.274693,49.9931582 729.682848,51.7280909 727.63,51.82 L685.38,51.82 C683.327152,51.7280909 681.735307,49.9931582 681.82,47.94 L681.82,47.94 C681.776641,46.9531544 682.127555,45.9895829 682.795374,45.2617352 C683.463193,44.5338876 684.393076,44.1015338 685.38,44.06 L727.64,44.06 C728.628692,44.0989486 729.56113,44.530178 730.23109,45.2583137 C730.90105,45.9864494 731.253324,46.9514905 731.21,47.94 L731.19,47.94 Z M731.19,68.21 C731.233359,69.1968456 730.882445,70.1604171 730.214626,70.8882648 C729.546807,71.6161124 728.616924,72.0484662 727.63,72.09 L685.38,72.09 C684.393076,72.0484662 683.463193,71.6161124 682.795374,70.8882648 C682.127555,70.1604171 681.776641,69.1968456 681.82,68.21 L681.82,68.21 C681.735307,66.1568418 683.327152,64.4219091 685.38,64.33 L727.64,64.33 C729.696814,64.4165667 731.294608,66.1531044 731.21,68.21 L731.19,68.21 Z" id="形状"></path>
        </g>
    </g>
</svg>