<?xml version="1.0" encoding="UTF-8"?>
<svg width="52px" height="52px" viewBox="0 0 52 52" version="1.1" xmlns="http://www.w3.org/2000/svg" xmlns:xlink="http://www.w3.org/1999/xlink">
    <!-- Generator: Sketch 61 (89581) - https://sketch.com -->
    <title>形状</title>
    <desc>Created with Sketch.</desc>
    <g id="页面-1" stroke="none" stroke-width="1" fill="none" fill-rule="evenodd">
        <g id="资源-1" transform="translate(-578.000000, -22.000000)" fill="#1E093E" fill-rule="nonzero">
            <path d="M600,65.61 C588.159015,65.61 578.56,56.010985 578.56,44.17 C578.56,32.329015 588.159015,22.73 600,22.73 C611.840985,22.73 621.44,32.329015 621.44,44.17 C621.407039,55.9973054 611.827305,65.5770394 600,65.61 Z M600,27 C593.058518,27 586.800728,31.1819838 584.145273,37.5954641 C581.489818,44.0089444 582.959788,51.3905503 587.869588,56.2974884 C592.779387,61.2044265 600.161848,62.6700939 606.57378,60.0109009 C612.985711,57.3517078 617.164045,51.0914807 617.160003,44.15 C617.132513,34.6858241 609.46419,27.0219699 600,27 L600,27 Z M628.5,72.69 C628.109241,73.1008931 627.567033,73.3335008 627,73.3335008 C626.432967,73.3335008 625.890759,73.1008931 625.5,72.69 L613.71,60.9 C613.174102,60.3641016 612.964809,59.5830127 613.160962,58.8509619 C613.357114,58.1189111 613.928911,57.5471143 614.660962,57.3509619 C615.393013,57.1548095 616.174102,57.3641016 616.71,57.9 L628.5,69.69 C628.910893,70.0807592 629.143501,70.6229675 629.143501,71.19 C629.143501,71.7570325 628.910893,72.2992408 628.5,72.69 L628.5,72.69 Z" id="形状"></path>
        </g>
    </g>
</svg>